<svg width="188" height="140" viewBox="0 0 188 140" fill="none" xmlns="http://www.w3.org/2000/svg">
<ellipse cx="107.081" cy="74.0081" rx="2.10679" ry="2.10678" fill="#01BAEF"/>
<ellipse cx="107.081" cy="85.1966" rx="2.10679" ry="2.10678" fill="#01BAEF"/>
<ellipse cx="107.081" cy="96.3822" rx="2.10679" ry="2.10678" fill="#01BAEF"/>
<ellipse cx="107.081" cy="107.571" rx="2.10679" ry="2.10678" fill="#01BAEF"/>
<ellipse cx="118.266" cy="74.0081" rx="2.10679" ry="2.10678" fill="#01BAEF"/>
<ellipse cx="118.266" cy="85.1937" rx="2.10679" ry="2.10678" fill="#01BAEF"/>
<ellipse cx="118.266" cy="96.3822" rx="2.10679" ry="2.10678" fill="#01BAEF"/>
<ellipse cx="118.266" cy="107.571" rx="2.10679" ry="2.10678" fill="#01BAEF"/>
<ellipse cx="129.455" cy="74.0081" rx="2.10679" ry="2.10678" fill="#01BAEF"/>
<ellipse cx="129.455" cy="85.1937" rx="2.10679" ry="2.10678" fill="#01BAEF"/>
<ellipse cx="129.455" cy="96.3822" rx="2.10679" ry="2.10678" fill="#01BAEF"/>
<ellipse cx="129.455" cy="107.571" rx="2.10679" ry="2.10678" fill="#01BAEF"/>
<ellipse cx="140.643" cy="74.0081" rx="2.10679" ry="2.10678" fill="#01BAEF"/>
<ellipse cx="140.643" cy="85.1937" rx="2.10679" ry="2.10678" fill="#01BAEF"/>
<ellipse cx="140.643" cy="96.3822" rx="2.10679" ry="2.10678" fill="#01BAEF"/>
<ellipse cx="140.643" cy="107.571" rx="2.10679" ry="2.10678" fill="#01BAEF"/>
<ellipse cx="151.831" cy="74.0081" rx="2.10679" ry="2.10678" fill="#01BAEF"/>
<ellipse cx="151.831" cy="85.1937" rx="2.10679" ry="2.10678" fill="#01BAEF"/>
<ellipse cx="151.831" cy="96.3822" rx="2.10679" ry="2.10678" fill="#01BAEF"/>
<ellipse cx="151.831" cy="107.571" rx="2.10679" ry="2.10678" fill="#01BAEF"/>
<ellipse cx="163.02" cy="74.0081" rx="2.10679" ry="2.10678" fill="#01BAEF"/>
<ellipse cx="163.02" cy="85.1937" rx="2.10679" ry="2.10678" fill="#01BAEF"/>
<ellipse cx="163.02" cy="96.3822" rx="2.10679" ry="2.10678" fill="#01BAEF"/>
<ellipse cx="163.02" cy="107.571" rx="2.10679" ry="2.10678" fill="#01BAEF"/>
<ellipse cx="174.205" cy="74.0081" rx="2.10679" ry="2.10678" fill="#01BAEF"/>
<ellipse cx="174.205" cy="85.1937" rx="2.10679" ry="2.10678" fill="#01BAEF"/>
<ellipse cx="174.205" cy="96.3822" rx="2.10679" ry="2.10678" fill="#01BAEF"/>
<ellipse cx="174.205" cy="107.571" rx="2.10679" ry="2.10678" fill="#01BAEF"/>
<ellipse cx="185.394" cy="74.0081" rx="2.10679" ry="2.10678" fill="#01BAEF"/>
<ellipse cx="185.394" cy="85.1966" rx="2.10679" ry="2.10678" fill="#01BAEF"/>
<ellipse cx="185.394" cy="96.3822" rx="2.10679" ry="2.10678" fill="#01BAEF"/>
<ellipse cx="185.394" cy="107.571" rx="2.10679" ry="2.10678" fill="#01BAEF"/>
<ellipse cx="2.10679" cy="103.403" rx="2.10679" ry="2.10678" fill="#01BAEF"/>
<ellipse cx="2.10679" cy="114.591" rx="2.10679" ry="2.10678" fill="#01BAEF"/>
<ellipse cx="2.10679" cy="125.777" rx="2.10679" ry="2.10678" fill="#01BAEF"/>
<ellipse cx="2.10679" cy="136.965" rx="2.10679" ry="2.10678" fill="#01BAEF"/>
<ellipse cx="13.2953" cy="103.403" rx="2.10679" ry="2.10678" fill="#01BAEF"/>
<ellipse cx="13.2953" cy="114.591" rx="2.10679" ry="2.10678" fill="#01BAEF"/>
<ellipse cx="13.2953" cy="125.777" rx="2.10679" ry="2.10678" fill="#01BAEF"/>
<ellipse cx="13.2953" cy="136.965" rx="2.10679" ry="2.10678" fill="#01BAEF"/>
<ellipse cx="24.4808" cy="103.403" rx="2.10679" ry="2.10678" fill="#01BAEF"/>
<ellipse cx="24.4808" cy="114.591" rx="2.10679" ry="2.10678" fill="#01BAEF"/>
<ellipse cx="24.4808" cy="125.777" rx="2.10679" ry="2.10678" fill="#01BAEF"/>
<ellipse cx="24.4808" cy="136.965" rx="2.10679" ry="2.10678" fill="#01BAEF"/>
<ellipse cx="35.669" cy="103.403" rx="2.10679" ry="2.10678" fill="#01BAEF"/>
<ellipse cx="35.669" cy="114.591" rx="2.10679" ry="2.10678" fill="#01BAEF"/>
<ellipse cx="35.6693" cy="125.777" rx="2.10679" ry="2.10678" fill="#01BAEF"/>
<ellipse cx="35.6693" cy="136.965" rx="2.10679" ry="2.10678" fill="#01BAEF"/>
<ellipse cx="46.8575" cy="103.403" rx="2.10679" ry="2.10678" fill="#01BAEF"/>
<ellipse cx="46.8575" cy="114.591" rx="2.10679" ry="2.10678" fill="#01BAEF"/>
<ellipse cx="46.8575" cy="125.777" rx="2.10679" ry="2.10678" fill="#01BAEF"/>
<ellipse cx="46.8575" cy="136.965" rx="2.10679" ry="2.10678" fill="#01BAEF"/>
<ellipse cx="58.046" cy="103.403" rx="2.10679" ry="2.10678" fill="#01BAEF"/>
<ellipse cx="58.046" cy="114.591" rx="2.10679" ry="2.10678" fill="#01BAEF"/>
<ellipse cx="58.046" cy="125.777" rx="2.10679" ry="2.10678" fill="#01BAEF"/>
<ellipse cx="58.046" cy="136.965" rx="2.10679" ry="2.10678" fill="#01BAEF"/>
<ellipse cx="69.2315" cy="103.403" rx="2.10679" ry="2.10678" fill="#01BAEF"/>
<ellipse cx="69.2315" cy="114.591" rx="2.10679" ry="2.10678" fill="#01BAEF"/>
<ellipse cx="69.2315" cy="125.777" rx="2.10679" ry="2.10678" fill="#01BAEF"/>
<ellipse cx="69.2315" cy="136.965" rx="2.10679" ry="2.10678" fill="#01BAEF"/>
<ellipse cx="80.42" cy="103.403" rx="2.10679" ry="2.10678" fill="#01BAEF"/>
<ellipse cx="80.42" cy="114.591" rx="2.10679" ry="2.10678" fill="#01BAEF"/>
<ellipse cx="80.42" cy="125.777" rx="2.10679" ry="2.10678" fill="#01BAEF"/>
<ellipse cx="80.42" cy="136.965" rx="2.10679" ry="2.10678" fill="#01BAEF"/>
<rect x="30.6667" y="25.8145" width="104.554" height="104.553" rx="3.30047" fill="white"/>
<rect x="36.1677" y="53.8779" width="44.0226" height="59.4304" rx="1.25732" fill="url(#paint0_linear_10412_7968)"/>
<path fill-rule="evenodd" clip-rule="evenodd" d="M65.3318 78.5198C65.3318 77.6791 64.6439 76.9912 63.8032 76.9912H53.1033C52.2626 76.9912 51.5747 77.6791 51.5747 78.5198V89.2197C51.5747 90.0604 52.2626 90.7482 53.1033 90.7482H63.8032C64.6439 90.7482 65.3318 90.0604 65.3318 89.2197V78.5198ZM55.779 85.0136L57.6897 87.3141L60.3647 83.8672L63.8039 88.4528H53.104L55.779 85.0136Z" fill="white"/>
<path fill-rule="evenodd" clip-rule="evenodd" d="M85.6938 61.7388C85.6938 61.0444 86.2568 60.4814 86.9512 60.4814H108.625C109.319 60.4814 109.882 61.0444 109.882 61.7388V64.7269C109.882 65.4213 109.319 65.9843 108.625 65.9843H86.9512C86.2568 65.9843 85.6938 65.4213 85.6938 64.7269V61.7388Z" fill="#279AF1"/>
<rect x="85.6938" y="76.9902" width="44.0226" height="5.50281" rx="1.25732" fill="#E3E6EE"/>
<rect x="85.6938" y="68.7373" width="43.8787" height="5.50281" rx="1.25732" fill="#E3E6EE"/>
<path fill-rule="evenodd" clip-rule="evenodd" d="M88.447 90.7499C89.9665 90.7499 91.1984 89.518 91.1984 87.9985C91.1984 86.4789 89.9665 85.2471 88.447 85.2471C86.9274 85.2471 85.6956 86.4789 85.6956 87.9985C85.6956 89.518 86.9274 90.7499 88.447 90.7499Z" fill="#E3E6EE"/>
<path fill-rule="evenodd" clip-rule="evenodd" d="M96.6999 90.7499C98.2195 90.7499 99.4513 89.518 99.4513 87.9985C99.4513 86.4789 98.2195 85.2471 96.6999 85.2471C95.1803 85.2471 93.9485 86.4789 93.9485 87.9985C93.9485 89.518 95.1803 90.7499 96.6999 90.7499Z" fill="#E3E6EE"/>
<path fill-rule="evenodd" clip-rule="evenodd" d="M104.956 90.7499C106.475 90.7499 107.707 89.518 107.707 87.9985C107.707 86.4789 106.475 85.2471 104.956 85.2471C103.436 85.2471 102.204 86.4789 102.204 87.9985C102.204 89.518 103.436 90.7499 104.956 90.7499Z" fill="#E3E6EE"/>
<rect x="102.203" y="99.001" width="27.5141" height="8.25422" rx="1.25732" fill="url(#paint1_linear_10412_7968)"/>
<path fill-rule="evenodd" clip-rule="evenodd" d="M85.6938 100.258C85.6938 99.5639 86.2568 99.001 86.9512 99.001H98.1936C98.888 99.001 99.4509 99.5639 99.4509 100.258V105.998C99.4509 106.692 98.888 107.255 98.1936 107.255H86.9512C86.2568 107.255 85.6938 106.692 85.6938 105.998V100.258Z" fill="#E3E6EE"/>
<path d="M30.6667 29.1149C30.6667 27.2921 32.1444 25.8145 33.9672 25.8145H131.92C133.743 25.8145 135.22 27.2921 135.22 29.1149V36.8201H30.6667V29.1149Z" fill="url(#paint2_linear_10412_7968)"/>
<path fill-rule="evenodd" clip-rule="evenodd" d="M41.8899 33.5199C42.948 33.5199 43.8058 32.6576 43.8058 31.594C43.8058 30.5303 42.948 29.668 41.8899 29.668C40.8319 29.668 39.9741 30.5303 39.9741 31.594C39.9741 32.6576 40.8319 33.5199 41.8899 33.5199ZM36.4173 33.52C37.4754 33.52 38.3332 32.6577 38.3332 31.594C38.3332 30.5303 37.4754 29.6681 36.4173 29.6681C35.3592 29.6681 34.5015 30.5303 34.5015 31.594C34.5015 32.6577 35.3592 33.52 36.4173 33.52ZM49.2784 31.594C49.2784 32.6576 48.4207 33.5199 47.3626 33.5199C46.3045 33.5199 45.4467 32.6576 45.4467 31.594C45.4467 30.5303 46.3045 29.668 47.3626 29.668C48.4207 29.668 49.2784 30.5303 49.2784 31.594Z" fill="white"/>
<path fill-rule="evenodd" clip-rule="evenodd" d="M175.512 59.127C177.335 59.127 178.812 57.6493 178.812 55.8265V42.9186C178.812 41.0958 177.335 39.6181 175.512 39.6181H148.097C146.274 39.6181 144.797 41.0958 144.797 42.9186V46.1184L139.979 49.1888C139.882 49.2506 139.882 49.3921 139.979 49.4539L144.797 52.5243V55.8265C144.797 57.6493 146.274 59.127 148.097 59.127L175.512 59.127Z" fill="white"/>
<path fill-rule="evenodd" clip-rule="evenodd" d="M168.806 54.3667C168.806 55.0611 168.243 55.624 167.549 55.624H150.054C149.36 55.624 148.797 55.0611 148.797 54.3667V51.8791C148.797 51.1847 149.36 50.6218 150.054 50.6218H167.549C168.243 50.6218 168.806 51.1847 168.806 51.8791V54.3667Z" fill="#E3E6EE"/>
<path fill-rule="evenodd" clip-rule="evenodd" d="M175.307 46.8638C175.307 47.5582 174.744 48.1211 174.05 48.1211H149.813C149.118 48.1211 148.555 47.5582 148.555 46.8638V44.3761C148.555 43.6817 149.118 43.1188 149.813 43.1188H174.05C174.744 43.1188 175.307 43.6817 175.307 44.3761V46.8638Z" fill="#279AF1"/>
<rect x="129.692" width="14.71" height="14.71" rx="3.30047" fill="url(#paint3_linear_10412_7968)"/>
<rect x="132.956" y="3.375" width="7.94966" height="7.94964" rx="3.30047" fill="url(#paint4_linear_10412_7968)"/>
<path fill-rule="evenodd" clip-rule="evenodd" d="M137.729 3.37305H134.549C134.112 3.37305 133.758 3.73078 133.758 4.16801L133.754 10.5277C133.754 10.9649 134.108 11.3227 134.545 11.3227H139.319C139.756 11.3227 140.114 10.9649 140.114 10.5277V5.75794L137.729 3.37305ZM138.522 9.73146H135.342V8.93649H138.522V9.73146ZM138.522 8.14358H135.342V7.34861H138.522V8.14358ZM137.331 6.15392V3.96777L139.517 6.15392H137.331Z" fill="white"/>
<path d="M91.1575 13.5544C91.1575 11.7316 92.6351 10.2539 94.4579 10.2539H108.969C110.792 10.2539 112.269 11.7316 112.269 13.5544V28.0651C112.269 29.8879 110.792 31.3656 108.969 31.3656H94.4579C92.6351 31.3656 91.1575 29.8879 91.1575 28.0651V13.5544Z" fill="url(#paint5_linear_10412_7968)"/>
<path fill-rule="evenodd" clip-rule="evenodd" d="M107.763 25.514V16.1066C107.763 15.3675 107.158 14.7627 106.419 14.7627H97.0116C96.2725 14.7627 95.6677 15.3675 95.6677 16.1066V25.514C95.6677 26.2532 96.2725 26.8579 97.0116 26.8579H106.419C107.158 26.8579 107.763 26.2532 107.763 25.514ZM99.3614 21.8175L101.041 23.8401L103.393 20.8095L106.417 24.8413H97.0095L99.3614 21.8175Z" fill="white"/>
<path d="M159.1 84.8444C159.1 83.0216 160.578 81.5439 162.401 81.5439H174.23C176.053 81.5439 177.531 83.0216 177.531 84.8444V96.6737C177.531 98.4965 176.053 99.9742 174.23 99.9742H162.401C160.578 99.9742 159.1 98.4965 159.1 96.6737V84.8444Z" fill="url(#paint6_linear_10412_7968)"/>
<path d="M173.574 90.082C173.574 89.7895 173.337 89.5524 173.045 89.5524H171.773L170.079 86.572C169.934 86.3179 169.611 86.2297 169.358 86.3753C169.106 86.5199 169.018 86.8407 169.162 87.0931L170.559 89.5524H166.053L167.45 87.0935C167.594 86.8412 167.506 86.5203 167.255 86.3756C167.001 86.2299 166.678 86.3181 166.533 86.5723L164.84 89.5524H163.567C163.275 89.5524 163.038 89.7895 163.038 90.082C163.038 90.3745 163.275 90.6116 163.567 90.6116H163.669L164.631 94.9636C164.684 95.2062 164.898 95.3783 165.145 95.3783H171.467C171.714 95.3783 171.928 95.2062 171.981 94.9636L172.943 90.6116H173.045C173.337 90.6116 173.574 90.3745 173.574 90.082ZM171.045 94.3191H165.568L164.748 90.6116H171.864L171.045 94.3191Z" fill="white"/>
<rect x="113.121" y="117.678" width="51.3352" height="8.15322" rx="2.58146" fill="#E1EFFF"/>
<path fill-rule="evenodd" clip-rule="evenodd" d="M119.16 123.264C119.994 123.264 120.67 122.588 120.67 121.754C120.67 120.92 119.994 120.244 119.16 120.244C118.326 120.244 117.65 120.92 117.65 121.754C117.65 122.588 118.326 123.264 119.16 123.264Z" fill="#E1EFFF"/>
<path fill-rule="evenodd" clip-rule="evenodd" d="M122.179 121.754C122.179 120.92 122.855 120.244 123.689 120.244H126.709C127.543 120.244 128.219 120.92 128.219 121.754C128.219 122.588 127.543 123.264 126.709 123.264H123.689C122.855 123.264 122.179 122.588 122.179 121.754Z" fill="#E1EFFF"/>
<path fill-rule="evenodd" clip-rule="evenodd" d="M131.238 121.754C131.238 120.92 131.914 120.244 132.748 120.244H138.787C139.621 120.244 140.297 120.92 140.297 121.754C140.297 122.588 139.621 123.264 138.787 123.264H132.748C131.914 123.264 131.238 122.588 131.238 121.754Z" fill="#E1EFFF"/>
<path fill-rule="evenodd" clip-rule="evenodd" d="M142.713 121.754C142.713 120.92 143.389 120.244 144.223 120.244H148.753C149.587 120.244 150.263 120.92 150.263 121.754C150.263 122.588 149.587 123.264 148.753 123.264H144.223C143.389 123.264 142.713 122.588 142.713 121.754Z" fill="#E1EFFF"/>
<path fill-rule="evenodd" clip-rule="evenodd" d="M152.375 121.754C152.375 120.92 153.051 120.244 153.885 120.244H158.415C159.249 120.244 159.925 120.92 159.925 121.754C159.925 122.588 159.249 123.264 158.415 123.264H153.885C153.051 123.264 152.375 122.588 152.375 121.754Z" fill="#E1EFFF"/>
<rect x="114.97" y="116.115" width="51.3352" height="8.15322" rx="2.58146" fill="white" stroke="#DAE4ED" stroke-width="0.242012"/>
<path fill-rule="evenodd" clip-rule="evenodd" d="M121.01 121.701C121.843 121.701 122.519 121.025 122.519 120.191C122.519 119.358 121.843 118.682 121.01 118.682C120.176 118.682 119.5 119.358 119.5 120.191C119.5 121.025 120.176 121.701 121.01 121.701Z" fill="#574AE2"/>
<path fill-rule="evenodd" clip-rule="evenodd" d="M124.029 120.191C124.029 119.358 124.705 118.682 125.539 118.682H128.559C129.393 118.682 130.068 119.358 130.068 120.191C130.068 121.025 129.393 121.701 128.559 121.701H125.539C124.705 121.701 124.029 121.025 124.029 120.191Z" fill="#A3D5FF"/>
<path fill-rule="evenodd" clip-rule="evenodd" d="M133.088 120.191C133.088 119.358 133.764 118.682 134.598 118.682H140.637C141.471 118.682 142.147 119.358 142.147 120.191C142.147 121.025 141.471 121.701 140.637 121.701H134.598C133.764 121.701 133.088 121.025 133.088 120.191Z" fill="#DDEAF3"/>
<path fill-rule="evenodd" clip-rule="evenodd" d="M144.563 120.191C144.563 119.358 145.239 118.682 146.073 118.682H150.602C151.436 118.682 152.112 119.358 152.112 120.191C152.112 121.025 151.436 121.701 150.602 121.701H146.073C145.239 121.701 144.563 121.025 144.563 120.191Z" fill="#A3D5FF"/>
<path fill-rule="evenodd" clip-rule="evenodd" d="M154.225 120.191C154.225 119.358 154.901 118.682 155.735 118.682H160.265C161.098 118.682 161.774 119.358 161.774 120.191C161.774 121.025 161.098 121.701 160.265 121.701H155.735C154.901 121.701 154.225 121.025 154.225 120.191Z" fill="#9381FF"/>
<defs>
<linearGradient id="paint0_linear_10412_7968" x1="36.1677" y1="83.5933" x2="80.1903" y2="83.5933" gradientUnits="userSpaceOnUse">
<stop stop-color="#A3D5FF"/>
<stop offset="1" stop-color="#01BAEF"/>
</linearGradient>
<linearGradient id="paint1_linear_10412_7968" x1="103.527" y1="100.532" x2="111.364" y2="115.031" gradientUnits="userSpaceOnUse">
<stop stop-color="#64E09E"/>
<stop offset="1" stop-color="#0CCA4A"/>
</linearGradient>
<linearGradient id="paint2_linear_10412_7968" x1="30.6667" y1="31.3173" x2="135.22" y2="31.3173" gradientUnits="userSpaceOnUse">
<stop offset="0.0110497" stop-color="#574AE2"/>
<stop offset="0.535912" stop-color="#0067F2"/>
<stop offset="1" stop-color="#01BAEF"/>
</linearGradient>
<linearGradient id="paint3_linear_10412_7968" x1="129.692" y1="7.35503" x2="144.402" y2="7.35503" gradientUnits="userSpaceOnUse">
<stop stop-color="#A3D5FF"/>
<stop offset="1" stop-color="#C9F9FF"/>
</linearGradient>
<linearGradient id="paint4_linear_10412_7968" x1="132.956" y1="7.34984" x2="140.906" y2="7.34984" gradientUnits="userSpaceOnUse">
<stop stop-color="#A3D5FF"/>
<stop offset="1" stop-color="#C9F9FF"/>
</linearGradient>
<linearGradient id="paint5_linear_10412_7968" x1="91.1575" y1="20.8098" x2="112.269" y2="20.8098" gradientUnits="userSpaceOnUse">
<stop stop-color="#A3D5FF"/>
<stop offset="1" stop-color="#01BAEF"/>
</linearGradient>
<linearGradient id="paint6_linear_10412_7968" x1="159.988" y1="84.9631" x2="177.738" y2="94.8151" gradientUnits="userSpaceOnUse">
<stop stop-color="#64E09E"/>
<stop offset="1" stop-color="#0CCA4A"/>
</linearGradient>
</defs>
</svg>
