<svg width="1439" height="894" viewBox="0 0 1439 894" fill="none" xmlns="http://www.w3.org/2000/svg">
<ellipse cx="699" cy="281.404" rx="945" ry="294.404" fill="url(#paint0_radial_2176_4854)"/>
<ellipse cx="945" cy="294.404" rx="945" ry="294.404" transform="matrix(-1 0 0 1 1622 546.195)" fill="url(#paint1_radial_2176_4854)"/>
<g filter="url(#filter0_f_2176_4854)">
<circle cx="1455.5" cy="177.5" r="278.5" fill="#E8EDFF"/>
</g>
<ellipse cx="783.884" cy="601.722" rx="3.52358" ry="3.69384" transform="rotate(90 783.884 601.722)" fill="#70C217"/>
<ellipse cx="783.884" cy="653.401" rx="3.52358" ry="3.69384" transform="rotate(90 783.884 653.401)" fill="#70C217"/>
<ellipse cx="783.884" cy="705.08" rx="3.52358" ry="3.69384" transform="rotate(90 783.884 705.08)" fill="#70C217"/>
<ellipse cx="783.884" cy="756.759" rx="3.52358" ry="3.69384" transform="rotate(90 783.884 756.759)" fill="#70C217"/>
<ellipse cx="783.884" cy="808.439" rx="3.52358" ry="3.69384" transform="rotate(90 783.884 808.439)" fill="#70C217"/>
<ellipse cx="729.705" cy="601.722" rx="3.52358" ry="3.69384" transform="rotate(90 729.705 601.722)" fill="#70C217"/>
<ellipse cx="729.705" cy="653.401" rx="3.52358" ry="3.69384" transform="rotate(90 729.705 653.401)" fill="#70C217"/>
<ellipse cx="729.705" cy="705.08" rx="3.52358" ry="3.69384" transform="rotate(90 729.705 705.08)" fill="#70C217"/>
<ellipse cx="729.705" cy="756.759" rx="3.52358" ry="3.69384" transform="rotate(90 729.705 756.759)" fill="#70C217"/>
<ellipse cx="729.705" cy="808.439" rx="3.52358" ry="3.69384" transform="rotate(90 729.705 808.439)" fill="#70C217"/>
<ellipse cx="675.533" cy="601.722" rx="3.52358" ry="3.69384" transform="rotate(90 675.533 601.722)" fill="#70C217"/>
<ellipse cx="675.533" cy="653.401" rx="3.52358" ry="3.69384" transform="rotate(90 675.533 653.401)" fill="#70C217"/>
<ellipse cx="675.533" cy="705.08" rx="3.52358" ry="3.69384" transform="rotate(90 675.533 705.08)" fill="#70C217"/>
<ellipse cx="675.533" cy="756.759" rx="3.52358" ry="3.69384" transform="rotate(90 675.533 756.759)" fill="#70C217"/>
<ellipse cx="675.533" cy="808.439" rx="3.52358" ry="3.69384" transform="rotate(90 675.533 808.439)" fill="#70C217"/>
<ellipse cx="621.353" cy="601.722" rx="3.52358" ry="3.69384" transform="rotate(90 621.353 601.722)" fill="#70C217"/>
<ellipse cx="621.353" cy="653.401" rx="3.52358" ry="3.69384" transform="rotate(90 621.353 653.401)" fill="#70C217"/>
<ellipse cx="621.353" cy="705.08" rx="3.52358" ry="3.69384" transform="rotate(90 621.353 705.08)" fill="#70C217"/>
<ellipse cx="621.353" cy="756.759" rx="3.52358" ry="3.69384" transform="rotate(90 621.353 756.759)" fill="#70C217"/>
<ellipse cx="621.353" cy="808.439" rx="3.52358" ry="3.69384" transform="rotate(90 621.353 808.439)" fill="#70C217"/>
<ellipse cx="567.181" cy="601.722" rx="3.52358" ry="3.69384" transform="rotate(90 567.181 601.722)" fill="#70C217"/>
<ellipse cx="567.181" cy="653.401" rx="3.52358" ry="3.69384" transform="rotate(90 567.181 653.401)" fill="#70C217"/>
<ellipse cx="567.181" cy="705.08" rx="3.52358" ry="3.69384" transform="rotate(90 567.181 705.08)" fill="#70C217"/>
<ellipse cx="567.181" cy="756.759" rx="3.52358" ry="3.69384" transform="rotate(90 567.181 756.759)" fill="#70C217"/>
<ellipse cx="567.181" cy="808.439" rx="3.52358" ry="3.69384" transform="rotate(90 567.181 808.439)" fill="#70C217"/>
<ellipse cx="513.001" cy="601.722" rx="3.52358" ry="3.69384" transform="rotate(90 513.001 601.722)" fill="#70C217"/>
<ellipse cx="513.001" cy="653.401" rx="3.52358" ry="3.69384" transform="rotate(90 513.001 653.401)" fill="#70C217"/>
<ellipse cx="513.001" cy="705.08" rx="3.52358" ry="3.69384" transform="rotate(90 513.001 705.08)" fill="#70C217"/>
<ellipse cx="513.001" cy="756.759" rx="3.52358" ry="3.69384" transform="rotate(90 513.001 756.759)" fill="#70C217"/>
<ellipse cx="513.001" cy="808.439" rx="3.52358" ry="3.69384" transform="rotate(90 513.001 808.439)" fill="#70C217"/>
<ellipse cx="458.83" cy="601.722" rx="3.52358" ry="3.69384" transform="rotate(90 458.83 601.722)" fill="#70C217"/>
<ellipse cx="458.83" cy="653.401" rx="3.52358" ry="3.69384" transform="rotate(90 458.83 653.401)" fill="#70C217"/>
<ellipse cx="458.83" cy="705.08" rx="3.52358" ry="3.69384" transform="rotate(90 458.83 705.08)" fill="#70C217"/>
<ellipse cx="458.83" cy="756.759" rx="3.52358" ry="3.69384" transform="rotate(90 458.83 756.759)" fill="#70C217"/>
<ellipse cx="458.83" cy="808.439" rx="3.52358" ry="3.69384" transform="rotate(90 458.83 808.439)" fill="#70C217"/>
<ellipse cx="404.65" cy="601.722" rx="3.52358" ry="3.69384" transform="rotate(90 404.65 601.722)" fill="#70C217"/>
<ellipse cx="404.65" cy="653.401" rx="3.52358" ry="3.69384" transform="rotate(90 404.65 653.401)" fill="#70C217"/>
<ellipse cx="404.65" cy="705.08" rx="3.52358" ry="3.69384" transform="rotate(90 404.65 705.08)" fill="#70C217"/>
<ellipse cx="404.65" cy="756.759" rx="3.52358" ry="3.69384" transform="rotate(90 404.65 756.759)" fill="#70C217"/>
<ellipse cx="404.65" cy="808.439" rx="3.52358" ry="3.69384" transform="rotate(90 404.65 808.439)" fill="#70C217"/>
<ellipse cx="350.474" cy="601.722" rx="3.52358" ry="3.69384" transform="rotate(90 350.474 601.722)" fill="#70C217"/>
<ellipse cx="350.474" cy="653.401" rx="3.52358" ry="3.69384" transform="rotate(90 350.474 653.401)" fill="#70C217"/>
<ellipse cx="350.474" cy="705.08" rx="3.52358" ry="3.69384" transform="rotate(90 350.474 705.08)" fill="#70C217"/>
<ellipse cx="350.474" cy="756.759" rx="3.52358" ry="3.69384" transform="rotate(90 350.474 756.759)" fill="#70C217"/>
<ellipse cx="350.474" cy="808.439" rx="3.52358" ry="3.69384" transform="rotate(90 350.474 808.439)" fill="#70C217"/>
<ellipse cx="296.294" cy="601.722" rx="3.52358" ry="3.69384" transform="rotate(90 296.294 601.722)" fill="#70C217"/>
<ellipse cx="296.294" cy="653.401" rx="3.52358" ry="3.69384" transform="rotate(90 296.294 653.401)" fill="#70C217"/>
<ellipse cx="296.294" cy="705.08" rx="3.52358" ry="3.69384" transform="rotate(90 296.294 705.08)" fill="#70C217"/>
<ellipse cx="296.294" cy="756.759" rx="3.52358" ry="3.69384" transform="rotate(90 296.294 756.759)" fill="#70C217"/>
<ellipse cx="296.294" cy="808.439" rx="3.52358" ry="3.69384" transform="rotate(90 296.294 808.439)" fill="#70C217"/>
<ellipse cx="1314.54" cy="320.524" rx="3.52358" ry="3.69384" transform="rotate(90 1314.54 320.524)" fill="#EF4358"/>
<ellipse cx="1314.54" cy="372.202" rx="3.52358" ry="3.69384" transform="rotate(90 1314.54 372.202)" fill="#EF4358"/>
<ellipse cx="1314.54" cy="423.882" rx="3.52358" ry="3.69384" transform="rotate(90 1314.54 423.882)" fill="#EF4358"/>
<ellipse cx="1314.54" cy="475.561" rx="3.52358" ry="3.69384" transform="rotate(90 1314.54 475.561)" fill="#EF4358"/>
<ellipse cx="1314.54" cy="527.24" rx="3.52358" ry="3.69384" transform="rotate(90 1314.54 527.24)" fill="#EF4358"/>
<ellipse cx="1260.36" cy="320.524" rx="3.52358" ry="3.69384" transform="rotate(90 1260.36 320.524)" fill="#EF4358"/>
<ellipse cx="1260.36" cy="372.202" rx="3.52358" ry="3.69384" transform="rotate(90 1260.36 372.202)" fill="#EF4358"/>
<ellipse cx="1260.36" cy="423.882" rx="3.52358" ry="3.69384" transform="rotate(90 1260.36 423.882)" fill="#EF4358"/>
<ellipse cx="1260.36" cy="475.561" rx="3.52358" ry="3.69384" transform="rotate(90 1260.36 475.561)" fill="#EF4358"/>
<ellipse cx="1260.36" cy="527.24" rx="3.52358" ry="3.69384" transform="rotate(90 1260.36 527.24)" fill="#EF4358"/>
<ellipse cx="1206.19" cy="320.524" rx="3.52358" ry="3.69384" transform="rotate(90 1206.19 320.524)" fill="#EF4358"/>
<ellipse cx="1206.19" cy="372.202" rx="3.52358" ry="3.69384" transform="rotate(90 1206.19 372.202)" fill="#EF4358"/>
<ellipse cx="1206.19" cy="423.882" rx="3.52358" ry="3.69384" transform="rotate(90 1206.19 423.882)" fill="#EF4358"/>
<ellipse cx="1206.19" cy="475.561" rx="3.52358" ry="3.69384" transform="rotate(90 1206.19 475.561)" fill="#EF4358"/>
<ellipse cx="1206.19" cy="527.24" rx="3.52358" ry="3.69384" transform="rotate(90 1206.19 527.24)" fill="#EF4358"/>
<ellipse cx="1152.01" cy="320.524" rx="3.52358" ry="3.69384" transform="rotate(90 1152.01 320.524)" fill="#EF4358"/>
<ellipse cx="1152.01" cy="372.202" rx="3.52358" ry="3.69384" transform="rotate(90 1152.01 372.202)" fill="#EF4358"/>
<ellipse cx="1152.01" cy="423.882" rx="3.52358" ry="3.69384" transform="rotate(90 1152.01 423.882)" fill="#EF4358"/>
<ellipse cx="1152.01" cy="475.561" rx="3.52358" ry="3.69384" transform="rotate(90 1152.01 475.561)" fill="#EF4358"/>
<ellipse cx="1152.01" cy="527.24" rx="3.52358" ry="3.69384" transform="rotate(90 1152.01 527.24)" fill="#EF4358"/>
<ellipse cx="1097.84" cy="320.524" rx="3.52358" ry="3.69384" transform="rotate(90 1097.84 320.524)" fill="#EF4358"/>
<ellipse cx="1097.84" cy="372.202" rx="3.52358" ry="3.69384" transform="rotate(90 1097.84 372.202)" fill="#EF4358"/>
<ellipse cx="1097.84" cy="423.882" rx="3.52358" ry="3.69384" transform="rotate(90 1097.84 423.882)" fill="#EF4358"/>
<ellipse cx="1097.84" cy="475.561" rx="3.52358" ry="3.69384" transform="rotate(90 1097.84 475.561)" fill="#EF4358"/>
<ellipse cx="1097.84" cy="527.24" rx="3.52358" ry="3.69384" transform="rotate(90 1097.84 527.24)" fill="#EF4358"/>
<ellipse cx="1043.66" cy="320.524" rx="3.52358" ry="3.69384" transform="rotate(90 1043.66 320.524)" fill="#EF4358"/>
<ellipse cx="1043.66" cy="372.202" rx="3.52358" ry="3.69384" transform="rotate(90 1043.66 372.202)" fill="#EF4358"/>
<ellipse cx="1043.66" cy="423.882" rx="3.52358" ry="3.69384" transform="rotate(90 1043.66 423.882)" fill="#EF4358"/>
<ellipse cx="1043.66" cy="475.561" rx="3.52358" ry="3.69384" transform="rotate(90 1043.66 475.561)" fill="#EF4358"/>
<ellipse cx="1043.66" cy="527.24" rx="3.52358" ry="3.69384" transform="rotate(90 1043.66 527.24)" fill="#EF4358"/>
<ellipse cx="989.486" cy="320.524" rx="3.52358" ry="3.69384" transform="rotate(90 989.486 320.524)" fill="#EF4358"/>
<ellipse cx="989.486" cy="372.202" rx="3.52358" ry="3.69384" transform="rotate(90 989.486 372.202)" fill="#EF4358"/>
<ellipse cx="989.486" cy="423.882" rx="3.52358" ry="3.69384" transform="rotate(90 989.486 423.882)" fill="#EF4358"/>
<ellipse cx="989.486" cy="475.561" rx="3.52358" ry="3.69384" transform="rotate(90 989.486 475.561)" fill="#EF4358"/>
<ellipse cx="989.486" cy="527.24" rx="3.52358" ry="3.69384" transform="rotate(90 989.486 527.24)" fill="#EF4358"/>
<ellipse cx="935.306" cy="320.524" rx="3.52358" ry="3.69384" transform="rotate(90 935.306 320.524)" fill="#EF4358"/>
<ellipse cx="935.306" cy="372.202" rx="3.52358" ry="3.69384" transform="rotate(90 935.306 372.202)" fill="#EF4358"/>
<ellipse cx="935.306" cy="423.882" rx="3.52358" ry="3.69384" transform="rotate(90 935.306 423.882)" fill="#EF4358"/>
<ellipse cx="935.306" cy="475.561" rx="3.52358" ry="3.69384" transform="rotate(90 935.306 475.561)" fill="#EF4358"/>
<ellipse cx="935.306" cy="527.24" rx="3.52358" ry="3.69384" transform="rotate(90 935.306 527.24)" fill="#EF4358"/>
<ellipse cx="881.13" cy="320.524" rx="3.52358" ry="3.69384" transform="rotate(90 881.13 320.524)" fill="#EF4358"/>
<ellipse cx="881.13" cy="372.202" rx="3.52358" ry="3.69384" transform="rotate(90 881.13 372.202)" fill="#EF4358"/>
<ellipse cx="881.13" cy="423.882" rx="3.52358" ry="3.69384" transform="rotate(90 881.13 423.882)" fill="#EF4358"/>
<ellipse cx="881.13" cy="475.561" rx="3.52358" ry="3.69384" transform="rotate(90 881.13 475.561)" fill="#EF4358"/>
<ellipse cx="881.13" cy="527.24" rx="3.52358" ry="3.69384" transform="rotate(90 881.13 527.24)" fill="#EF4358"/>
<ellipse cx="826.951" cy="320.524" rx="3.52358" ry="3.69384" transform="rotate(90 826.951 320.524)" fill="#EF4358"/>
<ellipse cx="826.951" cy="372.202" rx="3.52358" ry="3.69384" transform="rotate(90 826.951 372.202)" fill="#EF4358"/>
<ellipse cx="826.951" cy="423.882" rx="3.52358" ry="3.69384" transform="rotate(90 826.951 423.882)" fill="#EF4358"/>
<ellipse cx="826.951" cy="475.561" rx="3.52358" ry="3.69384" transform="rotate(90 826.951 475.561)" fill="#EF4358"/>
<ellipse cx="826.951" cy="527.24" rx="3.52358" ry="3.69384" transform="rotate(90 826.951 527.24)" fill="#EF4358"/>
<defs>
<filter id="filter0_f_2176_4854" x="970.704" y="-307.296" width="969.593" height="969.593" filterUnits="userSpaceOnUse" color-interpolation-filters="sRGB">
<feFlood flood-opacity="0" result="BackgroundImageFix"/>
<feBlend mode="normal" in="SourceGraphic" in2="BackgroundImageFix" result="shape"/>
<feGaussianBlur stdDeviation="103.148" result="effect1_foregroundBlur_2176_4854"/>
</filter>
<radialGradient id="paint0_radial_2176_4854" cx="0" cy="0" r="1" gradientUnits="userSpaceOnUse" gradientTransform="translate(-252.37 283.389) rotate(88.7606) scale(294.473 944.822)">
<stop stop-color="#FFD2D2" stop-opacity="0.65"/>
<stop offset="1" stop-color="#FFF4E5" stop-opacity="0.01"/>
</radialGradient>
<radialGradient id="paint1_radial_2176_4854" cx="0" cy="0" r="1" gradientUnits="userSpaceOnUse" gradientTransform="translate(-6.36951 296.389) rotate(88.7606) scale(294.473 944.822)">
<stop stop-color="#FFD2D2" stop-opacity="0.65"/>
<stop offset="1" stop-color="#FFF4E5" stop-opacity="0.01"/>
</radialGradient>
</defs>
</svg>
