<svg width="200" height="156" viewBox="0 0 200 156" fill="none" xmlns="http://www.w3.org/2000/svg">
<path d="M48.5145 24.374C49.9797 23.895 50.7815 22.3119 50.3053 20.8381C49.829 19.3644 48.2551 18.5579 46.7898 19.037C45.3246 19.516 44.5228 21.099 44.999 22.5728C45.4753 24.0466 47.0492 24.8531 48.5145 24.374Z" fill="#EAEEF9"/>
<path d="M54.6038 15.2191C55.6002 14.8934 56.1454 13.8169 55.8216 12.8147C55.4977 11.8125 54.4274 11.2642 53.4311 11.5899C52.4347 11.9156 51.8895 12.9921 52.2133 13.9943C52.5372 14.9965 53.6074 15.5448 54.6038 15.2191Z" fill="#EAEEF9"/>
<path d="M146.061 24.8505C147.789 23.2614 147.91 20.5635 146.33 18.8246C144.75 17.0857 142.068 16.9643 140.339 18.5534C138.61 20.1425 138.49 22.8403 140.07 24.5792C141.65 26.3181 144.332 26.4396 146.061 24.8505Z" fill="#EAEEF9"/>
<path d="M159.605 17.0747C160.333 16.4056 160.384 15.2697 159.718 14.5375C159.053 13.8053 157.924 13.7542 157.196 14.4233C156.468 15.0924 156.417 16.2283 157.082 16.9605C157.748 17.6926 158.877 17.7438 159.605 17.0747Z" fill="#EAEEF9"/>
<path d="M53.4165 116.777C54.1444 116.108 54.1952 114.972 53.53 114.24C52.8648 113.507 51.7354 113.456 51.0075 114.125C50.2796 114.795 50.2287 115.93 50.8939 116.663C51.5591 117.395 52.6885 117.446 53.4165 116.777Z" fill="#EAEEF9"/>
<path d="M98.4398 122.711C129.07 122.711 153.901 97.7352 153.901 66.9266C153.901 36.1179 129.07 11.1426 98.4398 11.1426C67.8094 11.1426 42.9785 36.1179 42.9785 66.9266C42.9785 97.7352 67.8094 122.711 98.4398 122.711Z" fill="#EAEEF9"/>
<g filter="url(#filter0_d_2075_93229)">
<path d="M84.6729 14.1306V83.0421C84.6729 84.5849 83.4225 85.8338 81.8779 85.8338H25.169C23.6244 85.8338 22.374 84.5849 22.374 83.0421V14.1306C22.374 12.5878 23.6244 11.3389 25.169 11.3389H81.8779C83.4225 11.3389 84.6729 12.5878 84.6729 14.1306Z" fill="url(#paint0_linear_2075_93229)"/>
</g>
<path d="M84.6729 14.0789V20.5683H22.374V14.0789C22.374 12.5647 23.6244 11.3389 25.169 11.3389H81.8779C83.4225 11.3389 84.6729 12.5647 84.6729 14.0789Z" fill="#D5DDEA"/>
<path d="M26.494 17.6014C27.3133 17.6014 27.9774 16.9373 27.9774 16.1181C27.9774 15.2989 27.3133 14.6348 26.494 14.6348C25.6748 14.6348 25.0107 15.2989 25.0107 16.1181C25.0107 16.9373 25.6748 17.6014 26.494 17.6014Z" fill="#A5AEBF"/>
<path d="M31.1093 17.6014C31.9285 17.6014 32.5926 16.9373 32.5926 16.1181C32.5926 15.2989 31.9285 14.6348 31.1093 14.6348C30.2901 14.6348 29.626 15.2989 29.626 16.1181C29.626 16.9373 30.2901 17.6014 31.1093 17.6014Z" fill="#A5AEBF"/>
<path d="M35.7235 17.6014C36.5428 17.6014 37.2068 16.9373 37.2068 16.1181C37.2068 15.2989 36.5428 14.6348 35.7235 14.6348C34.9043 14.6348 34.2402 15.2989 34.2402 16.1181C34.2402 16.9373 34.9043 17.6014 35.7235 17.6014Z" fill="#A5AEBF"/>
<path opacity="0.3" d="M76.9727 71.6619H70.2212C69.5607 71.6619 68.9736 71.1482 68.9736 70.4144V34.5288C68.9736 33.8683 69.4873 33.2812 70.2212 33.2812H76.9727C77.6331 33.2812 78.2202 33.7949 78.2202 34.5288V70.4144C78.2202 71.0748 77.7065 71.6619 76.9727 71.6619Z" fill="#F1F3F9" stroke="#D6DCE8" stroke-width="2" stroke-miterlimit="10" stroke-linejoin="round"/>
<path opacity="0.3" d="M76.9727 71.6621H70.2212C69.5607 71.6621 68.9736 71.1484 68.9736 70.4145V47.4448C68.9736 46.7844 69.4873 46.1973 70.2212 46.1973H76.9727C77.6331 46.1973 78.2202 46.711 78.2202 47.4448V70.4145C78.2202 71.075 77.7065 71.6621 76.9727 71.6621Z" fill="#F1F3F9" stroke="#D6DCE8" stroke-width="2" stroke-miterlimit="10" stroke-linejoin="round"/>
<path d="M63.543 71.6619H56.7915C56.131 71.6619 55.5439 71.1482 55.5439 70.4144V34.5288C55.5439 33.8683 56.0576 33.2812 56.7915 33.2812H63.543C64.2034 33.2812 64.7905 33.7949 64.7905 34.5288V70.4144C64.7905 71.0748 64.2034 71.6619 63.543 71.6619Z" fill="#EAEEF9"/>
<path d="M63.543 71.6618H56.7915C56.131 71.6618 55.5439 71.1481 55.5439 70.4143V57.0581C55.5439 56.3976 56.0576 55.8105 56.7915 55.8105H63.543C64.2034 55.8105 64.7905 56.3242 64.7905 57.0581V70.4143C64.7905 71.0748 64.2034 71.6618 63.543 71.6618Z" fill="#D6DCE8"/>
<path d="M50.1133 71.6619H43.3618C42.7013 71.6619 42.1143 71.1482 42.1143 70.4144V34.5288C42.1143 33.8683 42.628 33.2812 43.3618 33.2812H50.1133C50.7738 33.2812 51.3608 33.7949 51.3608 34.5288V70.4144C51.2875 71.0748 50.7738 71.6619 50.1133 71.6619Z" fill="#EAEEF9"/>
<path d="M50.1133 71.6616H43.3618C42.7013 71.6616 42.1143 71.1479 42.1143 70.4141V42.6743C42.1143 42.0138 42.628 41.4268 43.3618 41.4268H50.1133C50.7738 41.4268 51.3608 41.9405 51.3608 42.6743V70.4141C51.2875 71.0745 50.7738 71.6616 50.1133 71.6616Z" fill="#D6DCE8"/>
<path d="M36.6104 71.6619H29.8589C29.1984 71.6619 28.6113 71.1482 28.6113 70.4144V34.5288C28.6113 33.8683 29.125 33.2812 29.8589 33.2812H36.6104C37.2708 33.2812 37.8579 33.7949 37.8579 34.5288V70.4144C37.8579 71.0748 37.2708 71.6619 36.6104 71.6619Z" fill="#EAEEF9"/>
<path d="M36.6104 71.6621H29.8589C29.1984 71.6621 28.6113 71.1484 28.6113 70.4145V57.939C28.6113 57.2785 29.125 56.6914 29.8589 56.6914H36.6104C37.2708 56.6914 37.8579 57.2051 37.8579 57.939V70.4145C37.8579 71.075 37.2708 71.6621 36.6104 71.6621Z" fill="#D6DCE8"/>
<g filter="url(#filter1_d_2075_93229)">
<path d="M177.626 56.0996V119.523C177.626 120.943 176.482 122.092 175.068 122.092H123.16C121.746 122.092 120.602 120.943 120.602 119.523V56.0996C120.602 54.6797 121.746 53.5303 123.16 53.5303H175.068C176.482 53.5303 177.626 54.6797 177.626 56.0996Z" fill="url(#paint1_linear_2075_93229)"/>
</g>
<path d="M169.127 89.7891H138.116V95.4657H169.127V89.7891Z" fill="white" stroke="#D6DDE8" stroke-width="2" stroke-miterlimit="10"/>
<path d="M137.963 95.4551H130.161V113.511H137.963V95.4551Z" fill="#F1F3F9" stroke="#D6DDE8" stroke-width="2" stroke-miterlimit="10"/>
<path d="M169.117 89.7891H137.963V113.522H169.117V89.7891Z" fill="white" stroke="#D6DDE8" stroke-width="2" stroke-miterlimit="10"/>
<path d="M161.439 113.511H130.161V95.4551H169.127" stroke="#D6DDE8" stroke-width="2" stroke-miterlimit="10"/>
<path d="M169.127 101.646H130.161" stroke="#D6DDE8" stroke-width="2" stroke-miterlimit="10"/>
<path d="M169.127 107.578H130.161" stroke="#D6DDE8" stroke-width="2" stroke-miterlimit="10"/>
<path d="M145.826 89.7891V113.512" stroke="#D6DDE8" stroke-width="2" stroke-miterlimit="10"/>
<path d="M153.606 89.7891V113.512" stroke="#D6DDE8" stroke-width="2" stroke-miterlimit="10"/>
<path d="M161.388 89.7891V113.512" stroke="#D6DDE8" stroke-width="2" stroke-miterlimit="10"/>
<path fill-rule="evenodd" clip-rule="evenodd" d="M168.401 68.9369C168.945 69.6779 168.792 70.7244 168.059 71.2743L155.864 80.424C155.289 80.855 154.506 80.8635 153.922 80.445L149.719 77.4303L142.148 82.2264C141.618 82.5621 140.946 82.5667 140.412 82.2382L138.126 80.8332L132.67 84.1716C131.889 84.6494 130.873 84.3968 130.4 83.6074C129.928 82.8179 130.177 81.7907 130.958 81.3128L137.272 77.4496C137.799 77.1271 138.46 77.1278 138.987 77.4514L141.258 78.8471L148.898 74.0067C149.464 73.6482 150.188 73.6692 150.732 74.0598L154.857 77.0181L166.089 68.591C166.822 68.041 167.857 68.1959 168.401 68.9369Z" fill="#AAB2C5"/>
<path d="M177.626 56.0746V62.1005H120.602V56.0746C120.602 54.6685 121.746 53.5303 123.16 53.5303H175.068C176.482 53.5303 177.626 54.6685 177.626 56.0746Z" fill="#D5DDEA"/>
<g filter="url(#filter2_d_2075_93229)">
<path d="M130.49 36.2032V104.81C130.49 106.346 129.24 107.589 127.695 107.589H70.9864C69.4418 107.589 68.1914 106.346 68.1914 104.81V36.2032C68.1914 34.6672 69.4418 33.4238 70.9864 33.4238H127.695C129.24 33.4238 130.49 34.6672 130.49 36.2032Z" fill="url(#paint2_linear_2075_93229)"/>
</g>
<path d="M130.49 36.1638V42.6533H68.1914V36.1638C68.1914 34.6496 69.4418 33.4238 70.9864 33.4238H127.695C129.24 33.4238 130.49 34.6496 130.49 36.1638Z" fill="#D5DDEA"/>
<path d="M72.3124 39.6863C73.1316 39.6863 73.7957 39.0222 73.7957 38.203C73.7957 37.3838 73.1316 36.7197 72.3124 36.7197C71.4932 36.7197 70.8291 37.3838 70.8291 38.203C70.8291 39.0222 71.4932 39.6863 72.3124 39.6863Z" fill="#A5AEBF"/>
<path d="M76.9267 39.6863C77.7459 39.6863 78.41 39.0222 78.41 38.203C78.41 37.3838 77.7459 36.7197 76.9267 36.7197C76.1075 36.7197 75.4434 37.3838 75.4434 38.203C75.4434 39.0222 76.1075 39.6863 76.9267 39.6863Z" fill="#A5AEBF"/>
<path d="M81.5419 39.6863C82.3611 39.6863 83.0252 39.0222 83.0252 38.203C83.0252 37.3838 82.3611 36.7197 81.5419 36.7197C80.7227 36.7197 80.0586 37.3838 80.0586 38.203C80.0586 39.0222 80.7227 39.6863 81.5419 39.6863Z" fill="#A5AEBF"/>
<path opacity="0.7" d="M107.868 72.983L104.859 71.5153C103.538 73.0564 101.557 74.0104 99.4286 74.0104C95.4658 74.0104 92.2368 70.7814 92.2368 66.8186C92.2368 66.3049 92.3102 65.8646 92.3836 65.3509L89.3748 63.8832L82.9168 60.7276C82.183 62.7824 81.7427 65.0573 81.8894 67.4791C82.2564 76.6523 89.7417 84.0642 98.8415 84.3578C105.373 84.5779 111.17 81.2022 114.326 76.1386L107.868 72.983ZM99.3552 49.2061C93.0441 49.2061 87.4668 52.5084 84.3846 57.572L90.8425 60.7276L93.8513 62.1953C95.0255 60.8744 96.64 59.9204 98.4746 59.7002L98.9149 56.3978L99.7955 49.2794C99.6488 49.2061 99.502 49.2061 99.3552 49.2061ZM103.318 49.6464L102.437 56.7648L101.997 60.0671C104.639 61.0945 106.547 63.7364 106.547 66.7452C106.547 67.2589 106.474 67.7726 106.4 68.2129L109.409 69.6806L115.867 72.8362C116.601 70.9282 116.968 68.8734 116.968 66.7452V66.6718C116.894 58.4526 111.097 51.481 103.318 49.6464Z" fill="#D6DCE8"/>
<path d="M99.3554 49.2061C93.0443 49.2061 87.467 52.5084 84.3848 57.572L90.8427 60.7276L93.8515 62.1953C95.0257 60.8744 96.6402 59.9204 98.4748 59.7002L98.9151 56.3978L99.7957 49.2794C99.649 49.2061 99.5022 49.2061 99.3554 49.2061Z" fill="#F1F3F9"/>
<path d="M103.318 49.6465L102.437 56.7649L101.997 60.0672C104.639 61.0946 106.547 63.7365 106.547 66.7453C106.547 67.259 106.474 67.7727 106.4 68.213L109.409 69.6808L115.867 72.8363C116.601 70.9283 116.968 68.8735 116.968 66.7453V66.6719C116.894 58.4528 111.097 51.4811 103.318 49.6465Z" fill="#AAB2C5"/>
<path opacity="0.1" d="M93.8516 62.1959L90.8428 60.7282C92.6774 58.2331 95.5394 56.5452 98.8418 56.3984L98.4015 59.7008C96.6402 59.9209 95.0258 60.8016 93.8516 62.1959Z" fill="#434E67"/>
<path opacity="0.1" d="M104.859 71.5149L107.868 72.9826C105.96 75.6245 102.878 77.3124 99.3555 77.3124C93.558 77.3124 88.8613 72.6157 88.8613 66.8182C88.8613 65.7908 89.0081 64.8368 89.3016 63.8828L92.3105 65.3505C92.2371 65.7908 92.1637 66.3045 92.1637 66.8182C92.1637 70.7811 95.3926 74.01 99.3555 74.01C101.557 74.01 103.538 73.056 104.859 71.5149Z" fill="#434E67"/>
<path opacity="0.1" d="M109.849 66.8183C109.849 67.8457 109.703 68.8731 109.409 69.7538L106.4 68.286C106.474 67.7723 106.547 67.332 106.547 66.8183C106.547 63.8095 104.639 61.1676 101.997 60.1402L102.437 56.8379C106.694 58.0854 109.849 62.1217 109.849 66.8183Z" fill="#434E67"/>
<path d="M115.493 89.7891H82.2011C81.3819 89.7891 80.7178 90.4532 80.7178 91.2724C80.7178 92.0916 81.3819 92.7557 82.2011 92.7557H115.493C116.312 92.7557 116.976 92.0916 116.976 91.2724C116.976 90.4532 116.312 89.7891 115.493 89.7891Z" fill="#D6DCE8"/>
<path d="M97.0341 97.041H82.2011C81.3819 97.041 80.7178 97.7051 80.7178 98.5243C80.7178 99.3435 81.3819 100.008 82.2011 100.008H97.0341C97.8534 100.008 98.5175 99.3435 98.5175 98.5243C98.5175 97.7051 97.8534 97.041 97.0341 97.041Z" fill="#D6DCE8"/>
<defs>
<filter id="filter0_d_2075_93229" x="0.374023" y="0.338867" width="106.299" height="118.495" filterUnits="userSpaceOnUse" color-interpolation-filters="sRGB">
<feFlood flood-opacity="0" result="BackgroundImageFix"/>
<feColorMatrix in="SourceAlpha" type="matrix" values="0 0 0 0 0 0 0 0 0 0 0 0 0 0 0 0 0 0 127 0" result="hardAlpha"/>
<feOffset dy="11"/>
<feGaussianBlur stdDeviation="11"/>
<feColorMatrix type="matrix" values="0 0 0 0 0.397708 0 0 0 0 0.47749 0 0 0 0 0.575 0 0 0 0.27 0"/>
<feBlend mode="normal" in2="BackgroundImageFix" result="effect1_dropShadow_2075_93229"/>
<feBlend mode="normal" in="SourceGraphic" in2="effect1_dropShadow_2075_93229" result="shape"/>
</filter>
<filter id="filter1_d_2075_93229" x="98.6016" y="42.5303" width="101.025" height="112.562" filterUnits="userSpaceOnUse" color-interpolation-filters="sRGB">
<feFlood flood-opacity="0" result="BackgroundImageFix"/>
<feColorMatrix in="SourceAlpha" type="matrix" values="0 0 0 0 0 0 0 0 0 0 0 0 0 0 0 0 0 0 127 0" result="hardAlpha"/>
<feOffset dy="11"/>
<feGaussianBlur stdDeviation="11"/>
<feColorMatrix type="matrix" values="0 0 0 0 0.397708 0 0 0 0 0.47749 0 0 0 0 0.575 0 0 0 0.27 0"/>
<feBlend mode="normal" in2="BackgroundImageFix" result="effect1_dropShadow_2075_93229"/>
<feBlend mode="normal" in="SourceGraphic" in2="effect1_dropShadow_2075_93229" result="shape"/>
</filter>
<filter id="filter2_d_2075_93229" x="46.1914" y="22.4238" width="106.299" height="118.165" filterUnits="userSpaceOnUse" color-interpolation-filters="sRGB">
<feFlood flood-opacity="0" result="BackgroundImageFix"/>
<feColorMatrix in="SourceAlpha" type="matrix" values="0 0 0 0 0 0 0 0 0 0 0 0 0 0 0 0 0 0 127 0" result="hardAlpha"/>
<feOffset dy="11"/>
<feGaussianBlur stdDeviation="11"/>
<feColorMatrix type="matrix" values="0 0 0 0 0.397708 0 0 0 0 0.47749 0 0 0 0 0.575 0 0 0 0.27 0"/>
<feBlend mode="normal" in2="BackgroundImageFix" result="effect1_dropShadow_2075_93229"/>
<feBlend mode="normal" in="SourceGraphic" in2="effect1_dropShadow_2075_93229" result="shape"/>
</filter>
<linearGradient id="paint0_linear_2075_93229" x1="53.5032" y1="9.61573" x2="53.5032" y2="86.6369" gradientUnits="userSpaceOnUse">
<stop stop-color="#FDFEFF"/>
<stop offset="0.9964" stop-color="#ECF0F5"/>
</linearGradient>
<linearGradient id="paint1_linear_2075_93229" x1="149.095" y1="51.9444" x2="149.095" y2="122.831" gradientUnits="userSpaceOnUse">
<stop stop-color="#FDFEFF"/>
<stop offset="0.9964" stop-color="#ECF0F5"/>
</linearGradient>
<linearGradient id="paint2_linear_2075_93229" x1="99.3206" y1="31.7083" x2="99.3206" y2="108.389" gradientUnits="userSpaceOnUse">
<stop stop-color="#FDFEFF"/>
<stop offset="0.9964" stop-color="#ECF0F5"/>
</linearGradient>
</defs>
</svg>
