<svg width="564" height="381" viewBox="0 0 564 381" fill="none" xmlns="http://www.w3.org/2000/svg">
<path d="M392.666 31.4158C394.789 31.4158 396.513 33.2446 396.513 35.497C396.513 37.7495 394.789 39.5783 392.666 39.5783C390.544 39.5783 388.82 37.7495 388.82 35.497C388.82 33.2446 390.544 31.4158 392.666 31.4158Z" fill="#FF7D00"/>
<path d="M354.36 239.407C357.125 239.407 359.37 240.857 359.37 242.642C359.37 244.427 357.125 245.877 354.36 245.877C351.595 245.877 349.351 244.427 349.351 242.642C349.351 240.857 351.595 239.407 354.36 239.407Z" fill="#FF7D00"/>
<path d="M180.445 101.631C183.271 101.631 185.564 103.823 185.564 106.523C185.564 109.223 183.271 111.415 180.445 111.415C177.62 111.415 175.326 109.223 175.326 106.523C175.326 103.823 177.62 101.631 180.445 101.631Z" fill="#2AFF28"/>
<path d="M200.654 208.136C202.95 208.136 204.815 210.306 204.815 212.979C204.815 215.652 202.95 217.822 200.654 217.822C198.357 217.822 196.492 215.652 196.492 212.979C196.492 210.306 198.357 208.136 200.654 208.136Z" fill="#FF7D00"/>
<path d="M244.33 50.7C248.35 50.7 251.615 52.1379 251.615 53.9091C251.615 55.6802 248.35 57.1182 244.33 57.1182C240.31 57.1182 237.046 55.6802 237.046 53.9091C237.046 52.1379 240.31 50.7 244.33 50.7Z" fill="#FF7D00"/>
<g opacity="0.895908">
<path d="M325.364 84.9697C329.019 84.9697 331.987 86.0368 331.987 87.3511C331.987 88.6654 329.019 89.7325 325.364 89.7325C321.709 89.7325 318.741 88.6654 318.741 87.3511C318.741 86.0368 321.709 84.9697 325.364 84.9697Z" fill="#FF7D00"/>
</g>
<path d="M176.137 92.4517C179.674 92.4517 182.545 94.6009 182.545 97.2479C182.545 99.895 179.674 102.044 176.137 102.044C172.6 102.044 169.729 99.895 169.729 97.2479C169.729 94.6009 172.6 92.4517 176.137 92.4517Z" fill="#FF7D00"/>
<path d="M295.182 205.715C298.308 205.715 300.847 208.665 300.847 212.298C300.847 215.931 298.308 218.881 295.182 218.881C292.055 218.881 289.517 215.931 289.517 212.298C289.517 208.665 292.055 205.715 295.182 205.715Z" fill="#FF7D00"/>
<path d="M284.216 97.9021L290.693 99.1597L290.568 107.91L284.092 106.652L284.216 97.9021Z" fill="#EFC905"/>
<path d="M277.443 159.205L284.148 159.273L282.846 165.786L276.141 165.719L277.443 159.205Z" fill="#EFC905"/>
<path d="M144.364 219.408L147.644 220.632L148.138 226.273L144.859 225.05L144.364 219.408Z" fill="#2AFF28"/>
<path d="M241.282 92.033L245.538 96.0374L248.477 108.341L244.221 104.336L241.282 92.033Z" fill="#EFC905"/>
<path d="M336.29 108.993L341.109 112.939L343.877 125.655L339.058 121.71L336.29 108.993Z" fill="#EFC905"/>
<path d="M225.758 108.653L231.391 110.131L231.648 118.535L226.016 117.057L225.758 108.653Z" fill="#EFC905"/>
<path d="M253.338 87.7754L245.71 83.6951L256.559 79.7463L253.338 87.7754Z" fill="#2AB6FF"/>
<path d="M295.93 216.585L287.282 209.878L298.244 205.888L295.93 216.585Z" fill="#2AB6FF"/>
<path d="M411.897 106.555L404.984 99.6187L412.734 96.7981L411.897 106.555Z" fill="#2AB6FF"/>
<g opacity="0.895908">
<path d="M258.942 87.0096L248.411 77.5475L260.927 72.9922L258.942 87.0096Z" fill="#2AB6FF"/>
</g>
<path d="M353.354 154.959L344.357 149.619L356.813 145.085L353.354 154.959Z" fill="#2AB6FF"/>
<path d="M212.481 129.779L205.207 124.568L214.704 121.112L212.481 129.779Z" fill="#2AFF28"/>
<path d="M357.007 270.838C356.928 273.101 355.118 274.878 352.968 274.802C350.818 274.727 349.137 272.829 349.216 270.566C349.295 268.303 351.105 266.526 353.255 266.601C355.405 266.676 357.086 268.575 357.007 270.838Z" fill="#FF7D00"/>
<path d="M185.136 257.416C185.041 260.144 182.345 262.267 179.12 262.155C175.896 262.042 173.355 259.736 173.45 257.008C173.545 254.28 176.241 252.157 179.466 252.27C182.69 252.382 185.231 254.688 185.136 257.416Z" fill="#FF7D00"/>
<path d="M340.339 49.3689C340.243 52.1127 337.575 54.2499 334.384 54.1385C331.193 54.0271 328.68 51.7089 328.776 48.9651C328.872 46.2214 331.54 44.0841 334.731 44.1956C337.922 44.307 340.435 46.6252 340.339 49.3689Z" fill="#FF7D00"/>
<path d="M238.537 105.052C238.473 106.902 235.94 108.318 232.885 108.211C229.83 108.104 227.403 106.516 227.467 104.666C227.532 102.816 230.064 101.4 233.119 101.507C236.174 101.614 238.602 103.202 238.537 105.052Z" fill="#2AFF28"/>
<path d="M365.588 136.713C365.486 139.642 363.958 141.97 362.179 141.908C360.399 141.846 359.038 139.417 359.14 136.487C359.242 133.558 360.77 131.23 362.549 131.292C364.329 131.354 365.69 133.783 365.588 136.713Z" fill="#FF7D00"/>
<path d="M430.548 247.809C430.43 251.182 427.863 253.834 424.82 253.728C421.776 253.622 419.4 250.797 419.518 247.423C419.635 244.05 422.202 241.398 425.246 241.504C428.29 241.61 430.666 244.435 430.548 247.809Z" fill="#2AFF28"/>
<path d="M354.905 59.2945C354.819 61.7657 351.687 63.6652 347.917 63.5336C344.146 63.4019 341.155 61.2886 341.241 58.8174C341.327 56.3462 344.459 54.4466 348.229 54.5783C352 54.71 354.991 56.8233 354.905 59.2945Z" fill="#FF7D00"/>
<path d="M196.928 221.081C196.854 223.208 194.382 224.852 191.412 224.748C188.443 224.644 186.092 222.833 186.166 220.705C186.24 218.578 188.712 216.935 191.682 217.038C194.651 217.142 197.002 218.954 196.928 221.081Z" fill="#FF7D00"/>
<g opacity="0.895908">
<path d="M299.046 139.949L303.854 143.018L305.792 153.918L300.984 150.849L299.046 139.949Z" fill="#2AFF28"/>
</g>
<path d="M265.113 143.666L272.186 146.465L273.404 158.959L266.332 156.16L265.113 143.666Z" fill="#EFC905"/>
<path d="M218.324 8.696L222.857 13.0334L226.056 26.2862L221.524 21.9488L218.324 8.696Z" fill="#2AFF28"/>
<path d="M379.014 57.9967L386.124 61.0512L387.579 74.1091L380.469 71.0546L379.014 57.9967Z" fill="#EFC905"/>
<path d="M293.515 267.703L299.012 268.672L298.813 275.896L293.316 274.927L293.515 267.703Z" fill="#2AFF28"/>
<path d="M315.439 113.48L322.99 116.331L324.161 129.389L316.611 126.538L315.439 113.48Z" fill="#EFC905"/>
<path d="M348.616 135.083L341.132 132.74L352.843 128.478L348.616 135.083Z" fill="#2AB6FF"/>
<path d="M185.095 172.415L177.771 169.794L189.02 165.699L185.095 172.415Z" fill="#2AFF28"/>
<path d="M313.306 282.362L302.64 271.321L314.38 267.048L313.306 282.362Z" fill="#2AB6FF"/>
<path d="M350.564 68.2267L338.893 61.4768L355.166 55.5542L350.564 68.2267Z" fill="#2AFF28"/>
<path d="M268.938 233.745L259.65 229.272L273.177 224.348L268.938 233.745Z" fill="#2AB6FF"/>
<path d="M306.422 90.3919L298.906 85.9765L309.341 82.1785L306.422 90.3919Z" fill="#2AFF28"/>
<path d="M383.263 2C411.407 5.32899 433.413 15.496 417.446 28.421" stroke="#0F3FBC" stroke-width="3.89442"/>
<path d="M207.43 189.155C193.215 183.238 179.785 173.595 179.154 167.247" stroke="#FF8600" stroke-width="4.8188"/>
<path d="M308.665 197.572C307.309 185.734 281.753 185.286 279.007 213.611" stroke="#FFE41D" stroke-width="5.8664"/>
<path d="M225.85 94.1949C242.674 113.383 287.784 91.999 292.796 63.4561" stroke="#FF6D03" stroke-width="5.82762"/>
<path d="M226.78 93.6788C204.497 94.1941 198.643 121.061 163.601 126.293C150.732 128.214 141.085 113.239 135.239 93.6314" stroke="#0F3FBC" stroke-width="2.9285"/>
<path d="M283.653 153.209C286.183 158.331 290.386 163.806 297.335 168.445C311.191 177.695 320.172 161.574 341.943 167.208C345.132 168.032 347.263 170.436 348.542 173.864" stroke="#FF8600" stroke-width="5.06084"/>
<g opacity="0.895908">
<path d="M283.811 135.23C293.092 132.778 317.072 127.762 338.228 134.524C346.743 137.246 353.297 131.056 355.967 122.926" stroke="#FFE41D" stroke-width="4.69527"/>
</g>
<g opacity="0.647931">
<path d="M282.398 134.486C282.398 134.486 303.44 175.49 275.254 173.655C268.3 173.202 255.588 178.04 243.68 184.289" stroke="#FF6D03" stroke-width="1.98018"/>
</g>
<g opacity="0.352069">
<path d="M281.234 136.521C281.234 136.521 268.279 131.896 264.683 126.021" stroke="#78FF1D" stroke-width="1.5132"/>
</g>
<path d="M7.47301 331.498H0.723011L13.0128 296.589H20.8196L33.1264 331.498H26.3764L17.0526 303.748H16.7798L7.47301 331.498ZM7.6946 317.811H26.1037V322.89H7.6946V317.811ZM52.3892 320.487V305.316H58.5597V331.498H52.5767V326.845H52.304C51.7131 328.311 50.7415 329.509 49.3892 330.441C48.0483 331.373 46.3949 331.839 44.429 331.839C42.7131 331.839 41.196 331.458 39.8778 330.697C38.571 329.924 37.5483 328.805 36.8097 327.339C36.071 325.862 35.7017 324.078 35.7017 321.987V305.316H41.8722V321.032C41.8722 322.691 42.3267 324.009 43.2358 324.987C44.1449 325.964 45.3381 326.453 46.8153 326.453C47.7244 326.453 48.6051 326.231 49.4574 325.788C50.3097 325.345 51.0085 324.686 51.554 323.811C52.1108 322.924 52.3892 321.816 52.3892 320.487ZM76.2287 305.316V310.089H61.1776V305.316H76.2287ZM64.8935 299.044H71.0639V323.623C71.0639 324.453 71.1889 325.089 71.4389 325.532C71.7003 325.964 72.0412 326.259 72.4616 326.419C72.8821 326.578 73.348 326.657 73.8594 326.657C74.2457 326.657 74.598 326.629 74.9162 326.572C75.2457 326.515 75.4957 326.464 75.6662 326.419L76.706 331.242C76.3764 331.356 75.9048 331.481 75.2912 331.617C74.6889 331.754 73.9503 331.833 73.0753 331.856C71.5298 331.901 70.1378 331.669 68.8991 331.157C67.6605 330.634 66.6776 329.828 65.9503 328.737C65.2344 327.646 64.8821 326.282 64.8935 324.646V299.044ZM86.3722 316.157V331.498H80.2017V296.589H86.2358V309.765H86.5426C87.1563 308.288 88.1051 307.123 89.3892 306.271C90.6847 305.407 92.3324 304.975 94.3324 304.975C96.1506 304.975 97.7358 305.356 99.0881 306.117C100.44 306.879 101.486 307.992 102.224 309.458C102.974 310.924 103.349 312.714 103.349 314.828V331.498H97.179V315.782C97.179 314.021 96.7244 312.651 95.8153 311.674C94.9176 310.686 93.6562 310.191 92.0312 310.191C90.9403 310.191 89.9631 310.43 89.0994 310.907C88.2472 311.373 87.5767 312.049 87.0881 312.936C86.6108 313.822 86.3722 314.896 86.3722 316.157ZM119.48 332.009C116.855 332.009 114.588 331.464 112.679 330.373C110.781 329.271 109.321 327.714 108.298 325.703C107.276 323.68 106.764 321.299 106.764 318.561C106.764 315.867 107.276 313.504 108.298 311.47C109.332 309.424 110.776 307.833 112.628 306.697C114.48 305.549 116.656 304.975 119.156 304.975C120.77 304.975 122.293 305.237 123.724 305.759C125.168 306.271 126.44 307.066 127.543 308.146C128.656 309.225 129.531 310.6 130.168 312.271C130.804 313.93 131.122 315.907 131.122 318.203V320.095H109.662V315.936H125.207C125.196 314.754 124.94 313.703 124.44 312.782C123.94 311.85 123.241 311.117 122.344 310.583C121.457 310.049 120.423 309.782 119.241 309.782C117.98 309.782 116.872 310.089 115.918 310.703C114.963 311.305 114.219 312.1 113.685 313.089C113.162 314.066 112.895 315.14 112.884 316.311V319.941C112.884 321.464 113.162 322.771 113.719 323.862C114.276 324.941 115.054 325.771 116.054 326.35C117.054 326.919 118.224 327.203 119.565 327.203C120.463 327.203 121.276 327.078 122.003 326.828C122.73 326.566 123.361 326.186 123.895 325.686C124.429 325.186 124.832 324.566 125.105 323.828L130.866 324.475C130.503 325.998 129.81 327.328 128.787 328.464C127.776 329.589 126.48 330.464 124.901 331.089C123.321 331.703 121.514 332.009 119.48 332.009ZM140.763 316.157V331.498H134.592V305.316H140.49V309.765H140.797C141.399 308.299 142.359 307.134 143.678 306.271C145.007 305.407 146.649 304.975 148.604 304.975C150.411 304.975 151.984 305.362 153.325 306.134C154.678 306.907 155.723 308.026 156.462 309.492C157.212 310.958 157.581 312.737 157.57 314.828V331.498H151.399V315.782C151.399 314.032 150.945 312.663 150.036 311.674C149.138 310.686 147.893 310.191 146.303 310.191C145.223 310.191 144.263 310.43 143.422 310.907C142.592 311.373 141.939 312.049 141.462 312.936C140.996 313.822 140.763 314.896 140.763 316.157ZM175.166 305.316V310.089H160.115V305.316H175.166ZM163.831 299.044H170.001V323.623C170.001 324.453 170.126 325.089 170.376 325.532C170.638 325.964 170.979 326.259 171.399 326.419C171.82 326.578 172.286 326.657 172.797 326.657C173.183 326.657 173.536 326.629 173.854 326.572C174.183 326.515 174.433 326.464 174.604 326.419L175.643 331.242C175.314 331.356 174.842 331.481 174.229 331.617C173.626 331.754 172.888 331.833 172.013 331.856C170.467 331.901 169.075 331.669 167.837 331.157C166.598 330.634 165.615 329.828 164.888 328.737C164.172 327.646 163.82 326.282 163.831 324.646V299.044ZM178.577 331.498V305.316H184.747V331.498H178.577ZM181.679 301.6C180.702 301.6 179.861 301.276 179.156 300.629C178.452 299.97 178.099 299.18 178.099 298.259C178.099 297.328 178.452 296.538 179.156 295.89C179.861 295.231 180.702 294.901 181.679 294.901C182.668 294.901 183.509 295.231 184.202 295.89C184.906 296.538 185.259 297.328 185.259 298.259C185.259 299.18 184.906 299.97 184.202 300.629C183.509 301.276 182.668 301.6 181.679 301.6ZM200.763 332.009C198.149 332.009 195.905 331.436 194.03 330.288C192.166 329.14 190.729 327.555 189.717 325.532C188.717 323.498 188.217 321.157 188.217 318.509C188.217 315.85 188.729 313.504 189.751 311.47C190.774 309.424 192.217 307.833 194.081 306.697C195.956 305.549 198.172 304.975 200.729 304.975C202.854 304.975 204.734 305.367 206.371 306.151C208.018 306.924 209.331 308.021 210.308 309.441C211.286 310.85 211.842 312.498 211.979 314.384H206.081C205.842 313.123 205.274 312.072 204.376 311.231C203.49 310.379 202.303 309.953 200.814 309.953C199.553 309.953 198.445 310.294 197.49 310.975C196.536 311.646 195.791 312.612 195.257 313.873C194.734 315.134 194.473 316.646 194.473 318.407C194.473 320.191 194.734 321.725 195.257 323.009C195.78 324.282 196.513 325.265 197.456 325.958C198.411 326.64 199.53 326.981 200.814 326.981C201.723 326.981 202.536 326.811 203.251 326.47C203.979 326.117 204.587 325.612 205.075 324.953C205.564 324.294 205.899 323.492 206.081 322.549H211.979C211.831 324.401 211.286 326.044 210.342 327.475C209.399 328.896 208.115 330.009 206.49 330.816C204.865 331.612 202.956 332.009 200.763 332.009ZM222.83 332.026C221.17 332.026 219.676 331.731 218.347 331.14C217.028 330.538 215.983 329.651 215.21 328.481C214.449 327.311 214.068 325.867 214.068 324.151C214.068 322.674 214.341 321.453 214.886 320.487C215.432 319.521 216.176 318.748 217.119 318.169C218.063 317.589 219.125 317.151 220.307 316.856C221.5 316.549 222.733 316.328 224.006 316.191C225.54 316.032 226.784 315.89 227.739 315.765C228.693 315.629 229.386 315.424 229.818 315.151C230.261 314.867 230.483 314.43 230.483 313.839V313.737C230.483 312.453 230.102 311.458 229.341 310.754C228.58 310.049 227.483 309.697 226.051 309.697C224.54 309.697 223.341 310.026 222.455 310.686C221.58 311.345 220.989 312.123 220.682 313.021L214.92 312.203C215.375 310.612 216.125 309.282 217.17 308.214C218.216 307.134 219.494 306.328 221.006 305.794C222.517 305.248 224.188 304.975 226.017 304.975C227.278 304.975 228.534 305.123 229.784 305.419C231.034 305.714 232.176 306.203 233.21 306.884C234.244 307.555 235.074 308.47 235.699 309.629C236.335 310.788 236.653 312.237 236.653 313.975V331.498H230.722V327.901H230.517C230.142 328.629 229.614 329.311 228.932 329.947C228.261 330.572 227.415 331.078 226.392 331.464C225.381 331.839 224.193 332.026 222.83 332.026ZM224.432 327.492C225.67 327.492 226.744 327.248 227.653 326.759C228.563 326.259 229.261 325.6 229.75 324.782C230.25 323.964 230.5 323.072 230.5 322.106V319.021C230.307 319.18 229.977 319.328 229.511 319.464C229.057 319.6 228.545 319.72 227.977 319.822C227.409 319.924 226.847 320.015 226.29 320.095C225.733 320.174 225.25 320.242 224.841 320.299C223.92 320.424 223.097 320.629 222.369 320.913C221.642 321.197 221.068 321.595 220.648 322.106C220.227 322.606 220.017 323.254 220.017 324.049C220.017 325.186 220.432 326.044 221.261 326.623C222.091 327.203 223.148 327.492 224.432 327.492ZM254.182 305.316V310.089H239.131V305.316H254.182ZM242.847 299.044H249.017V323.623C249.017 324.453 249.142 325.089 249.392 325.532C249.653 325.964 249.994 326.259 250.415 326.419C250.835 326.578 251.301 326.657 251.812 326.657C252.199 326.657 252.551 326.629 252.869 326.572C253.199 326.515 253.449 326.464 253.619 326.419L254.659 331.242C254.33 331.356 253.858 331.481 253.244 331.617C252.642 331.754 251.903 331.833 251.028 331.856C249.483 331.901 248.091 331.669 246.852 331.157C245.614 330.634 244.631 329.828 243.903 328.737C243.188 327.646 242.835 326.282 242.847 324.646V299.044ZM257.592 331.498V305.316H263.763V331.498H257.592ZM260.695 301.6C259.717 301.6 258.876 301.276 258.172 300.629C257.467 299.97 257.115 299.18 257.115 298.259C257.115 297.328 257.467 296.538 258.172 295.89C258.876 295.231 259.717 294.901 260.695 294.901C261.683 294.901 262.524 295.231 263.217 295.89C263.922 296.538 264.274 297.328 264.274 298.259C264.274 299.18 263.922 299.97 263.217 300.629C262.524 301.276 261.683 301.6 260.695 301.6ZM279.778 332.009C277.222 332.009 275.006 331.447 273.131 330.322C271.256 329.197 269.801 327.623 268.767 325.6C267.744 323.578 267.233 321.214 267.233 318.509C267.233 315.805 267.744 313.436 268.767 311.401C269.801 309.367 271.256 307.788 273.131 306.663C275.006 305.538 277.222 304.975 279.778 304.975C282.335 304.975 284.551 305.538 286.426 306.663C288.301 307.788 289.75 309.367 290.773 311.401C291.807 313.436 292.324 315.805 292.324 318.509C292.324 321.214 291.807 323.578 290.773 325.6C289.75 327.623 288.301 329.197 286.426 330.322C284.551 331.447 282.335 332.009 279.778 332.009ZM279.812 327.066C281.199 327.066 282.358 326.686 283.29 325.924C284.222 325.151 284.915 324.117 285.369 322.822C285.835 321.526 286.068 320.083 286.068 318.492C286.068 316.89 285.835 315.441 285.369 314.146C284.915 312.839 284.222 311.799 283.29 311.026C282.358 310.254 281.199 309.867 279.812 309.867C278.392 309.867 277.21 310.254 276.267 311.026C275.335 311.799 274.636 312.839 274.17 314.146C273.716 315.441 273.489 316.89 273.489 318.492C273.489 320.083 273.716 321.526 274.17 322.822C274.636 324.117 275.335 325.151 276.267 325.924C277.21 326.686 278.392 327.066 279.812 327.066ZM301.982 316.157V331.498H295.811V305.316H301.709V309.765H302.016C302.618 308.299 303.578 307.134 304.896 306.271C306.226 305.407 307.868 304.975 309.822 304.975C311.629 304.975 313.203 305.362 314.544 306.134C315.896 306.907 316.942 308.026 317.68 309.492C318.43 310.958 318.8 312.737 318.788 314.828V331.498H312.618V315.782C312.618 314.032 312.163 312.663 311.254 311.674C310.357 310.686 309.112 310.191 307.521 310.191C306.442 310.191 305.482 310.43 304.641 310.907C303.811 311.373 303.158 312.049 302.68 312.936C302.214 313.822 301.982 314.896 301.982 316.157ZM354.161 312.237L348.536 312.85C348.376 312.282 348.098 311.748 347.7 311.248C347.314 310.748 346.791 310.345 346.132 310.038C345.473 309.731 344.666 309.578 343.712 309.578C342.428 309.578 341.348 309.856 340.473 310.413C339.609 310.97 339.183 311.691 339.195 312.578C339.183 313.339 339.462 313.958 340.03 314.436C340.609 314.913 341.564 315.305 342.893 315.612L347.359 316.566C349.837 317.1 351.678 317.947 352.882 319.106C354.098 320.265 354.712 321.782 354.723 323.657C354.712 325.305 354.229 326.759 353.274 328.021C352.331 329.271 351.018 330.248 349.337 330.953C347.655 331.657 345.723 332.009 343.541 332.009C340.337 332.009 337.757 331.339 335.803 329.998C333.848 328.646 332.683 326.765 332.308 324.356L338.325 323.776C338.598 324.958 339.178 325.85 340.064 326.453C340.95 327.055 342.104 327.356 343.524 327.356C344.99 327.356 346.166 327.055 347.053 326.453C347.95 325.85 348.399 325.106 348.399 324.22C348.399 323.47 348.109 322.85 347.53 322.362C346.962 321.873 346.075 321.498 344.871 321.237L340.405 320.299C337.893 319.776 336.036 318.896 334.831 317.657C333.626 316.407 333.03 314.828 333.041 312.919C333.03 311.305 333.467 309.907 334.354 308.725C335.251 307.532 336.496 306.612 338.087 305.964C339.689 305.305 341.536 304.975 343.626 304.975C346.695 304.975 349.109 305.629 350.871 306.936C352.643 308.242 353.74 310.009 354.161 312.237ZM374.749 320.487V305.316H380.919V331.498H374.936V326.845H374.663C374.072 328.311 373.101 329.509 371.749 330.441C370.408 331.373 368.754 331.839 366.788 331.839C365.072 331.839 363.555 331.458 362.237 330.697C360.93 329.924 359.908 328.805 359.169 327.339C358.43 325.862 358.061 324.078 358.061 321.987V305.316H364.232V321.032C364.232 322.691 364.686 324.009 365.595 324.987C366.504 325.964 367.697 326.453 369.175 326.453C370.084 326.453 370.964 326.231 371.817 325.788C372.669 325.345 373.368 324.686 373.913 323.811C374.47 322.924 374.749 321.816 374.749 320.487ZM396.935 332.009C394.321 332.009 392.077 331.436 390.202 330.288C388.338 329.14 386.901 327.555 385.889 325.532C384.889 323.498 384.389 321.157 384.389 318.509C384.389 315.85 384.901 313.504 385.923 311.47C386.946 309.424 388.389 307.833 390.253 306.697C392.128 305.549 394.344 304.975 396.901 304.975C399.026 304.975 400.906 305.367 402.543 306.151C404.19 306.924 405.503 308.021 406.48 309.441C407.457 310.85 408.014 312.498 408.151 314.384H402.253C402.014 313.123 401.446 312.072 400.548 311.231C399.662 310.379 398.474 309.953 396.986 309.953C395.724 309.953 394.616 310.294 393.662 310.975C392.707 311.646 391.963 312.612 391.429 313.873C390.906 315.134 390.645 316.646 390.645 318.407C390.645 320.191 390.906 321.725 391.429 323.009C391.952 324.282 392.685 325.265 393.628 325.958C394.582 326.64 395.702 326.981 396.986 326.981C397.895 326.981 398.707 326.811 399.423 326.47C400.151 326.117 400.759 325.612 401.247 324.953C401.736 324.294 402.071 323.492 402.253 322.549H408.151C408.003 324.401 407.457 326.044 406.514 327.475C405.571 328.896 404.287 330.009 402.662 330.816C401.037 331.612 399.128 332.009 396.935 332.009ZM422.888 332.009C420.274 332.009 418.03 331.436 416.155 330.288C414.291 329.14 412.854 327.555 411.842 325.532C410.842 323.498 410.342 321.157 410.342 318.509C410.342 315.85 410.854 313.504 411.876 311.47C412.899 309.424 414.342 307.833 416.206 306.697C418.081 305.549 420.297 304.975 422.854 304.975C424.979 304.975 426.859 305.367 428.496 306.151C430.143 306.924 431.456 308.021 432.433 309.441C433.411 310.85 433.967 312.498 434.104 314.384H428.206C427.967 313.123 427.399 312.072 426.501 311.231C425.615 310.379 424.428 309.953 422.939 309.953C421.678 309.953 420.57 310.294 419.615 310.975C418.661 311.646 417.916 312.612 417.382 313.873C416.859 315.134 416.598 316.646 416.598 318.407C416.598 320.191 416.859 321.725 417.382 323.009C417.905 324.282 418.638 325.265 419.581 325.958C420.536 326.64 421.655 326.981 422.939 326.981C423.848 326.981 424.661 326.811 425.376 326.47C426.104 326.117 426.712 325.612 427.2 324.953C427.689 324.294 428.024 323.492 428.206 322.549H434.104C433.956 324.401 433.411 326.044 432.467 327.475C431.524 328.896 430.24 330.009 428.615 330.816C426.99 331.612 425.081 332.009 422.888 332.009ZM449.011 332.009C446.386 332.009 444.119 331.464 442.21 330.373C440.313 329.271 438.852 327.714 437.83 325.703C436.807 323.68 436.295 321.299 436.295 318.561C436.295 315.867 436.807 313.504 437.83 311.47C438.864 309.424 440.307 307.833 442.159 306.697C444.011 305.549 446.188 304.975 448.688 304.975C450.301 304.975 451.824 305.237 453.256 305.759C454.699 306.271 455.972 307.066 457.074 308.146C458.188 309.225 459.063 310.6 459.699 312.271C460.335 313.93 460.653 315.907 460.653 318.203V320.095H439.193V315.936H454.739C454.727 314.754 454.472 313.703 453.972 312.782C453.472 311.85 452.773 311.117 451.875 310.583C450.989 310.049 449.955 309.782 448.773 309.782C447.511 309.782 446.403 310.089 445.449 310.703C444.494 311.305 443.75 312.1 443.216 313.089C442.693 314.066 442.426 315.14 442.415 316.311V319.941C442.415 321.464 442.693 322.771 443.25 323.862C443.807 324.941 444.585 325.771 445.585 326.35C446.585 326.919 447.756 327.203 449.097 327.203C449.994 327.203 450.807 327.078 451.534 326.828C452.261 326.566 452.892 326.186 453.426 325.686C453.96 325.186 454.364 324.566 454.636 323.828L460.398 324.475C460.034 325.998 459.341 327.328 458.318 328.464C457.307 329.589 456.011 330.464 454.432 331.089C452.852 331.703 451.045 332.009 449.011 332.009ZM484.817 312.237L479.192 312.85C479.033 312.282 478.754 311.748 478.357 311.248C477.97 310.748 477.447 310.345 476.788 310.038C476.129 309.731 475.322 309.578 474.368 309.578C473.084 309.578 472.004 309.856 471.129 310.413C470.266 310.97 469.839 311.691 469.851 312.578C469.839 313.339 470.118 313.958 470.686 314.436C471.266 314.913 472.22 315.305 473.55 315.612L478.016 316.566C480.493 317.1 482.334 317.947 483.538 319.106C484.754 320.265 485.368 321.782 485.379 323.657C485.368 325.305 484.885 326.759 483.93 328.021C482.987 329.271 481.675 330.248 479.993 330.953C478.311 331.657 476.379 332.009 474.197 332.009C470.993 332.009 468.413 331.339 466.459 329.998C464.504 328.646 463.339 326.765 462.964 324.356L468.982 323.776C469.254 324.958 469.834 325.85 470.72 326.453C471.607 327.055 472.76 327.356 474.18 327.356C475.646 327.356 476.822 327.055 477.709 326.453C478.607 325.85 479.055 325.106 479.055 324.22C479.055 323.47 478.766 322.85 478.186 322.362C477.618 321.873 476.732 321.498 475.527 321.237L471.061 320.299C468.55 319.776 466.692 318.896 465.487 317.657C464.283 316.407 463.686 314.828 463.697 312.919C463.686 311.305 464.124 309.907 465.01 308.725C465.908 307.532 467.152 306.612 468.743 305.964C470.345 305.305 472.192 304.975 474.283 304.975C477.351 304.975 479.766 305.629 481.527 306.936C483.3 308.242 484.396 310.009 484.817 312.237ZM509.411 312.237L503.786 312.85C503.626 312.282 503.348 311.748 502.95 311.248C502.564 310.748 502.041 310.345 501.382 310.038C500.723 309.731 499.916 309.578 498.962 309.578C497.678 309.578 496.598 309.856 495.723 310.413C494.859 310.97 494.433 311.691 494.445 312.578C494.433 313.339 494.712 313.958 495.28 314.436C495.859 314.913 496.814 315.305 498.143 315.612L502.609 316.566C505.087 317.1 506.928 317.947 508.132 319.106C509.348 320.265 509.962 321.782 509.973 323.657C509.962 325.305 509.479 326.759 508.524 328.021C507.581 329.271 506.268 330.248 504.587 330.953C502.905 331.657 500.973 332.009 498.791 332.009C495.587 332.009 493.007 331.339 491.053 329.998C489.098 328.646 487.933 326.765 487.558 324.356L493.575 323.776C493.848 324.958 494.428 325.85 495.314 326.453C496.2 327.055 497.354 327.356 498.774 327.356C500.24 327.356 501.416 327.055 502.303 326.453C503.2 325.85 503.649 325.106 503.649 324.22C503.649 323.47 503.359 322.85 502.78 322.362C502.212 321.873 501.325 321.498 500.121 321.237L495.655 320.299C493.143 319.776 491.286 318.896 490.081 317.657C488.876 316.407 488.28 314.828 488.291 312.919C488.28 311.305 488.717 309.907 489.604 308.725C490.501 307.532 491.746 306.612 493.337 305.964C494.939 305.305 496.786 304.975 498.876 304.975C501.945 304.975 504.359 305.629 506.121 306.936C507.893 308.242 508.99 310.009 509.411 312.237ZM526.572 305.316V310.089H511.095V305.316H526.572ZM514.964 331.498V302.845C514.964 301.083 515.328 299.617 516.055 298.447C516.794 297.276 517.783 296.401 519.021 295.822C520.26 295.242 521.635 294.953 523.146 294.953C524.214 294.953 525.163 295.038 525.993 295.208C526.822 295.379 527.436 295.532 527.834 295.669L526.607 300.441C526.345 300.362 526.016 300.282 525.618 300.203C525.22 300.112 524.777 300.066 524.288 300.066C523.141 300.066 522.328 300.345 521.851 300.901C521.385 301.447 521.152 302.231 521.152 303.254V331.498H514.964ZM546.342 320.487V305.316H552.513V331.498H546.53V326.845H546.257C545.666 328.311 544.695 329.509 543.342 330.441C542.001 331.373 540.348 331.839 538.382 331.839C536.666 331.839 535.149 331.458 533.831 330.697C532.524 329.924 531.501 328.805 530.763 327.339C530.024 325.862 529.655 324.078 529.655 321.987V305.316H535.825V321.032C535.825 322.691 536.28 324.009 537.189 324.987C538.098 325.964 539.291 326.453 540.768 326.453C541.678 326.453 542.558 326.231 543.411 325.788C544.263 325.345 544.962 324.686 545.507 323.811C546.064 322.924 546.342 321.816 546.342 320.487ZM563.278 296.589V331.498H557.108V296.589H563.278Z" fill="#1C222B"/>
<path d="M222.856 372.498V360.862H226.788C227.701 360.862 228.447 361.026 229.026 361.356C229.61 361.682 230.042 362.123 230.322 362.68C230.602 363.237 230.742 363.858 230.742 364.544C230.742 365.229 230.602 365.852 230.322 366.413C230.045 366.973 229.617 367.42 229.038 367.754C228.458 368.083 227.716 368.248 226.811 368.248H223.992V366.998H226.765C227.39 366.998 227.892 366.89 228.271 366.674C228.65 366.458 228.924 366.167 229.095 365.799C229.269 365.428 229.356 365.009 229.356 364.544C229.356 364.078 229.269 363.661 229.095 363.294C228.924 362.926 228.648 362.638 228.265 362.43C227.882 362.218 227.375 362.112 226.742 362.112H224.265V372.498H222.856ZM232.53 372.498V363.771H233.826V365.089H233.917C234.076 364.657 234.364 364.307 234.78 364.038C235.197 363.769 235.667 363.634 236.189 363.634C236.288 363.634 236.411 363.636 236.559 363.64C236.707 363.644 236.818 363.65 236.894 363.657V365.021C236.849 365.009 236.744 364.992 236.582 364.97C236.422 364.943 236.254 364.93 236.076 364.93C235.652 364.93 235.273 365.019 234.939 365.197C234.61 365.371 234.349 365.614 234.155 365.924C233.966 366.231 233.871 366.581 233.871 366.975V372.498H232.53ZM241.463 372.68C240.675 372.68 239.984 372.492 239.389 372.117C238.799 371.742 238.336 371.218 238.003 370.544C237.674 369.869 237.509 369.081 237.509 368.18C237.509 367.271 237.674 366.477 238.003 365.799C238.336 365.121 238.799 364.595 239.389 364.22C239.984 363.845 240.675 363.657 241.463 363.657C242.251 363.657 242.941 363.845 243.532 364.22C244.126 364.595 244.588 365.121 244.918 365.799C245.251 366.477 245.418 367.271 245.418 368.18C245.418 369.081 245.251 369.869 244.918 370.544C244.588 371.218 244.126 371.742 243.532 372.117C242.941 372.492 242.251 372.68 241.463 372.68ZM241.463 371.475C242.062 371.475 242.554 371.322 242.941 371.015C243.327 370.708 243.613 370.305 243.799 369.805C243.984 369.305 244.077 368.763 244.077 368.18C244.077 367.597 243.984 367.053 243.799 366.549C243.613 366.045 243.327 365.638 242.941 365.328C242.554 365.017 242.062 364.862 241.463 364.862C240.865 364.862 240.372 365.017 239.986 365.328C239.6 365.638 239.314 366.045 239.128 366.549C238.943 367.053 238.85 367.597 238.85 368.18C238.85 368.763 238.943 369.305 239.128 369.805C239.314 370.305 239.6 370.708 239.986 371.015C240.372 371.322 240.865 371.475 241.463 371.475ZM250.71 372.68C249.892 372.68 249.188 372.487 248.597 372.1C248.006 371.714 247.551 371.182 247.233 370.504C246.915 369.826 246.756 369.051 246.756 368.18C246.756 367.294 246.919 366.511 247.244 365.833C247.574 365.151 248.032 364.619 248.619 364.237C249.21 363.85 249.9 363.657 250.688 363.657C251.301 363.657 251.854 363.771 252.347 363.998C252.839 364.225 253.242 364.544 253.557 364.953C253.871 365.362 254.066 365.839 254.142 366.384H252.801C252.699 365.987 252.472 365.634 252.119 365.328C251.771 365.017 251.301 364.862 250.71 364.862C250.188 364.862 249.729 364.998 249.335 365.271C248.945 365.54 248.64 365.92 248.42 366.413C248.205 366.901 248.097 367.475 248.097 368.134C248.097 368.809 248.203 369.396 248.415 369.896C248.631 370.396 248.934 370.784 249.324 371.061C249.718 371.337 250.18 371.475 250.71 371.475C251.059 371.475 251.375 371.415 251.659 371.294C251.943 371.172 252.184 370.998 252.381 370.771C252.578 370.544 252.718 370.271 252.801 369.953H254.142C254.066 370.468 253.879 370.932 253.58 371.345C253.284 371.754 252.892 372.079 252.403 372.322C251.919 372.561 251.354 372.68 250.71 372.68ZM259.461 372.68C258.62 372.68 257.895 372.494 257.285 372.123C256.679 371.748 256.211 371.225 255.882 370.555C255.556 369.881 255.393 369.097 255.393 368.203C255.393 367.309 255.556 366.521 255.882 365.839C256.211 365.153 256.67 364.619 257.257 364.237C257.848 363.85 258.537 363.657 259.325 363.657C259.78 363.657 260.228 363.733 260.672 363.884C261.115 364.036 261.518 364.282 261.882 364.623C262.245 364.96 262.535 365.407 262.751 365.964C262.967 366.521 263.075 367.206 263.075 368.021V368.589H256.348V367.43H261.711C261.711 366.937 261.613 366.498 261.416 366.112C261.223 365.725 260.946 365.42 260.586 365.197C260.23 364.973 259.81 364.862 259.325 364.862C258.791 364.862 258.329 364.994 257.939 365.259C257.552 365.521 257.255 365.862 257.047 366.282C256.838 366.703 256.734 367.153 256.734 367.634V368.407C256.734 369.066 256.848 369.625 257.075 370.083C257.306 370.538 257.626 370.884 258.035 371.123C258.444 371.358 258.92 371.475 259.461 371.475C259.814 371.475 260.132 371.426 260.416 371.328C260.704 371.225 260.952 371.074 261.16 370.873C261.369 370.669 261.53 370.415 261.643 370.112L262.939 370.475C262.802 370.915 262.573 371.301 262.251 371.634C261.929 371.964 261.531 372.222 261.058 372.407C260.584 372.589 260.052 372.68 259.461 372.68ZM268.474 372.68C267.633 372.68 266.908 372.494 266.298 372.123C265.692 371.748 265.224 371.225 264.894 370.555C264.569 369.881 264.406 369.097 264.406 368.203C264.406 367.309 264.569 366.521 264.894 365.839C265.224 365.153 265.682 364.619 266.269 364.237C266.86 363.85 267.55 363.657 268.337 363.657C268.792 363.657 269.241 363.733 269.684 363.884C270.127 364.036 270.531 364.282 270.894 364.623C271.258 364.96 271.548 365.407 271.764 365.964C271.98 366.521 272.087 367.206 272.087 368.021V368.589H265.36V367.43H270.724C270.724 366.937 270.625 366.498 270.428 366.112C270.235 365.725 269.959 365.42 269.599 365.197C269.243 364.973 268.822 364.862 268.337 364.862C267.803 364.862 267.341 364.994 266.951 365.259C266.565 365.521 266.267 365.862 266.059 366.282C265.851 366.703 265.747 367.153 265.747 367.634V368.407C265.747 369.066 265.86 369.625 266.087 370.083C266.319 370.538 266.639 370.884 267.048 371.123C267.457 371.358 267.932 371.475 268.474 371.475C268.826 371.475 269.144 371.426 269.428 371.328C269.716 371.225 269.964 371.074 270.173 370.873C270.381 370.669 270.542 370.415 270.656 370.112L271.951 370.475C271.815 370.915 271.586 371.301 271.264 371.634C270.942 371.964 270.544 372.222 270.07 372.407C269.597 372.589 269.065 372.68 268.474 372.68ZM277.123 372.68C276.395 372.68 275.753 372.496 275.197 372.129C274.64 371.758 274.204 371.235 273.89 370.561C273.575 369.883 273.418 369.081 273.418 368.157C273.418 367.24 273.575 366.445 273.89 365.771C274.204 365.097 274.642 364.576 275.202 364.208C275.763 363.841 276.411 363.657 277.145 363.657C277.714 363.657 278.162 363.752 278.492 363.941C278.825 364.127 279.079 364.339 279.253 364.578C279.431 364.812 279.57 365.006 279.668 365.157H279.782V360.862H281.123V372.498H279.827V371.157H279.668C279.57 371.316 279.43 371.517 279.248 371.759C279.066 371.998 278.806 372.212 278.469 372.401C278.132 372.587 277.683 372.68 277.123 372.68ZM277.305 371.475C277.842 371.475 278.297 371.335 278.668 371.055C279.039 370.771 279.322 370.379 279.515 369.879C279.708 369.375 279.805 368.794 279.805 368.134C279.805 367.483 279.71 366.913 279.52 366.424C279.331 365.932 279.051 365.549 278.68 365.276C278.308 365 277.85 364.862 277.305 364.862C276.736 364.862 276.263 365.008 275.884 365.299C275.509 365.587 275.227 365.979 275.037 366.475C274.852 366.968 274.759 367.521 274.759 368.134C274.759 368.756 274.854 369.32 275.043 369.828C275.236 370.331 275.52 370.733 275.895 371.032C276.274 371.328 276.744 371.475 277.305 371.475ZM291.46 363.771V364.907H286.938V363.771H291.46ZM288.256 361.68H289.597V369.998C289.597 370.377 289.652 370.661 289.761 370.85C289.875 371.036 290.019 371.161 290.193 371.225C290.371 371.286 290.559 371.316 290.756 371.316C290.903 371.316 291.025 371.309 291.119 371.294C291.214 371.275 291.29 371.259 291.347 371.248L291.619 372.453C291.528 372.487 291.402 372.521 291.239 372.555C291.076 372.593 290.869 372.612 290.619 372.612C290.241 372.612 289.869 372.53 289.506 372.367C289.146 372.204 288.847 371.956 288.608 371.623C288.373 371.29 288.256 370.869 288.256 370.362V361.68ZM296.629 372.68C295.841 372.68 295.15 372.492 294.555 372.117C293.964 371.742 293.502 371.218 293.169 370.544C292.839 369.869 292.674 369.081 292.674 368.18C292.674 367.271 292.839 366.477 293.169 365.799C293.502 365.121 293.964 364.595 294.555 364.22C295.15 363.845 295.841 363.657 296.629 363.657C297.417 363.657 298.106 363.845 298.697 364.22C299.292 364.595 299.754 365.121 300.084 365.799C300.417 366.477 300.584 367.271 300.584 368.18C300.584 369.081 300.417 369.869 300.084 370.544C299.754 371.218 299.292 371.742 298.697 372.117C298.106 372.492 297.417 372.68 296.629 372.68ZM296.629 371.475C297.227 371.475 297.72 371.322 298.106 371.015C298.493 370.708 298.779 370.305 298.964 369.805C299.15 369.305 299.243 368.763 299.243 368.18C299.243 367.597 299.15 367.053 298.964 366.549C298.779 366.045 298.493 365.638 298.106 365.328C297.72 365.017 297.227 364.862 296.629 364.862C296.031 364.862 295.538 365.017 295.152 365.328C294.765 365.638 294.479 366.045 294.294 366.549C294.108 367.053 294.015 367.597 294.015 368.18C294.015 368.763 294.108 369.305 294.294 369.805C294.479 370.305 294.765 370.708 295.152 371.015C295.538 371.322 296.031 371.475 296.629 371.475ZM307.871 360.862V372.498H306.53V360.862H307.871ZM313.573 372.68C312.785 372.68 312.094 372.492 311.499 372.117C310.908 371.742 310.446 371.218 310.112 370.544C309.783 369.869 309.618 369.081 309.618 368.18C309.618 367.271 309.783 366.477 310.112 365.799C310.446 365.121 310.908 364.595 311.499 364.22C312.094 363.845 312.785 363.657 313.573 363.657C314.361 363.657 315.05 363.845 315.641 364.22C316.236 364.595 316.698 365.121 317.027 365.799C317.361 366.477 317.527 367.271 317.527 368.18C317.527 369.081 317.361 369.869 317.027 370.544C316.698 371.218 316.236 371.742 315.641 372.117C315.05 372.492 314.361 372.68 313.573 372.68ZM313.573 371.475C314.171 371.475 314.664 371.322 315.05 371.015C315.436 370.708 315.722 370.305 315.908 369.805C316.094 369.305 316.186 368.763 316.186 368.18C316.186 367.597 316.094 367.053 315.908 366.549C315.722 366.045 315.436 365.638 315.05 365.328C314.664 365.017 314.171 364.862 313.573 364.862C312.974 364.862 312.482 365.017 312.095 365.328C311.709 365.638 311.423 366.045 311.237 366.549C311.052 367.053 310.959 367.597 310.959 368.18C310.959 368.763 311.052 369.305 311.237 369.805C311.423 370.305 311.709 370.708 312.095 371.015C312.482 371.322 312.974 371.475 313.573 371.475ZM322.797 375.953C322.149 375.953 321.592 375.869 321.126 375.703C320.661 375.54 320.272 375.324 319.962 375.055C319.655 374.79 319.411 374.506 319.229 374.203L320.297 373.453C320.418 373.612 320.571 373.794 320.757 373.998C320.943 374.206 321.196 374.386 321.518 374.538C321.844 374.693 322.27 374.771 322.797 374.771C323.501 374.771 324.083 374.6 324.541 374.259C325 373.919 325.229 373.384 325.229 372.657V370.884H325.115C325.017 371.044 324.876 371.24 324.695 371.475C324.517 371.706 324.259 371.913 323.922 372.095C323.589 372.273 323.138 372.362 322.57 372.362C321.865 372.362 321.232 372.195 320.672 371.862C320.115 371.528 319.674 371.044 319.348 370.407C319.026 369.771 318.865 368.998 318.865 368.089C318.865 367.195 319.022 366.417 319.337 365.754C319.651 365.087 320.089 364.572 320.649 364.208C321.21 363.841 321.857 363.657 322.592 363.657C323.161 363.657 323.611 363.752 323.945 363.941C324.282 364.127 324.539 364.339 324.717 364.578C324.899 364.812 325.039 365.006 325.138 365.157H325.274V363.771H326.57V372.748C326.57 373.498 326.399 374.108 326.058 374.578C325.721 375.051 325.267 375.398 324.695 375.617C324.126 375.841 323.494 375.953 322.797 375.953ZM322.751 371.157C323.289 371.157 323.744 371.034 324.115 370.788C324.486 370.542 324.768 370.187 324.962 369.725C325.155 369.263 325.251 368.71 325.251 368.066C325.251 367.437 325.157 366.883 324.967 366.401C324.778 365.92 324.498 365.544 324.126 365.271C323.755 364.998 323.297 364.862 322.751 364.862C322.183 364.862 321.71 365.006 321.331 365.294C320.956 365.581 320.674 365.968 320.484 366.453C320.299 366.937 320.206 367.475 320.206 368.066C320.206 368.672 320.301 369.208 320.49 369.674C320.683 370.136 320.967 370.5 321.342 370.765C321.721 371.026 322.191 371.157 322.751 371.157ZM332.924 372.498V363.771H334.265V372.498H332.924ZM333.606 362.316C333.345 362.316 333.119 362.227 332.93 362.049C332.744 361.871 332.651 361.657 332.651 361.407C332.651 361.157 332.744 360.943 332.93 360.765C333.119 360.587 333.345 360.498 333.606 360.498C333.867 360.498 334.091 360.587 334.276 360.765C334.466 360.943 334.561 361.157 334.561 361.407C334.561 361.657 334.466 361.871 334.276 362.049C334.091 362.227 333.867 362.316 333.606 362.316ZM337.762 367.248V372.498H336.421V363.771H337.716V365.134H337.83C338.035 364.691 338.345 364.335 338.762 364.066C339.179 363.794 339.716 363.657 340.376 363.657C340.966 363.657 341.483 363.778 341.927 364.021C342.37 364.259 342.715 364.623 342.961 365.112C343.207 365.597 343.33 366.21 343.33 366.953V372.498H341.989V367.044C341.989 366.358 341.811 365.824 341.455 365.441C341.099 365.055 340.61 364.862 339.989 364.862C339.561 364.862 339.179 364.954 338.841 365.14C338.508 365.326 338.245 365.597 338.052 365.953C337.858 366.309 337.762 366.74 337.762 367.248Z" fill="#3D4A5C"/>
</svg>
