<svg width="116" height="118" viewBox="0 0 116 118" fill="none" xmlns="http://www.w3.org/2000/svg">
<path d="M104.491 67.6904C104.491 79.2046 100.388 89.6775 93.5283 97.8844C84.8927 108.235 71.9087 114.788 57.3323 114.788C43.3684 114.788 30.8743 108.725 22.2387 99.1093C14.8281 90.7799 10.2959 79.7558 10.2959 67.6904C10.2959 41.6612 31.3643 20.5928 57.3936 20.5928C83.4228 20.5928 104.491 41.6612 104.491 67.6904Z" fill="white"/>
<path fill-rule="evenodd" clip-rule="evenodd" d="M55.2726 19.1382C55.9759 19.108 56.683 19.0928 57.3936 19.0928C58.1041 19.0928 58.8112 19.108 59.5145 19.1382L59.386 22.1354C58.7255 22.1071 58.0613 22.0928 57.3936 22.0928C56.7259 22.0928 56.0616 22.1071 55.4011 22.1354L55.2726 19.1382ZM63.7394 19.5027C65.1515 19.6866 66.5446 19.931 67.916 20.2333L67.2703 23.163C65.9839 22.8794 64.677 22.6501 63.352 22.4776L63.7394 19.5027ZM46.8711 20.2333C48.2426 19.931 49.6357 19.6866 51.0477 19.5027L51.4351 22.4776C50.1101 22.6501 48.8032 22.8794 47.5169 23.163L46.8711 20.2333ZM38.788 22.7765C40.0892 22.2375 41.419 21.7533 42.7744 21.3269L43.6747 24.1886C42.4036 24.5885 41.1565 25.0426 39.9361 25.5481L38.788 22.7765ZM72.0127 21.3269C73.3682 21.7533 74.6979 22.2375 75.9991 22.7765L74.851 25.5481C73.6306 25.0426 72.3836 24.5885 71.1124 24.1886L72.0127 21.3269ZM79.8427 24.5701C81.0998 25.2253 82.3245 25.9339 83.5138 26.6927L81.9002 29.2218C80.7843 28.5098 79.6353 27.8451 78.4561 27.2305L79.8427 24.5701ZM31.2733 26.6927C32.4626 25.9339 33.6873 25.2253 34.9444 24.5701L36.331 27.2305C35.1518 27.8451 34.0028 28.5098 32.8869 29.2218L31.2733 26.6927ZM86.9856 29.1269C88.1077 29.9889 89.191 30.8988 90.2324 31.8535L88.2052 34.0649C87.2277 33.1688 86.211 32.3149 85.158 31.5059L86.9856 29.1269ZM24.5547 31.8535C25.5961 30.8988 26.6794 29.9889 27.8015 29.1269L29.6291 31.506C28.5761 32.3149 27.5594 33.1688 26.5819 34.0649L24.5547 31.8535ZM93.2305 34.8516C94.1852 35.893 95.0951 36.9763 95.9571 38.0984L93.578 39.926C92.7691 38.873 91.9152 37.8563 91.0191 36.8788L93.2305 34.8516ZM18.83 38.0984C19.692 36.9763 20.6019 35.893 21.5566 34.8516L23.768 36.8788C22.872 37.8563 22.018 38.873 21.2091 39.926L18.83 38.0984ZM98.3913 41.5701C99.1501 42.7595 99.8587 43.9842 100.514 45.2413L97.8535 46.6279C97.2389 45.4487 96.5742 44.2997 95.8622 43.1838L98.3913 41.5701ZM14.2732 45.2413C14.9285 43.9842 15.637 42.7595 16.3958 41.5702L18.9249 43.1838C18.2129 44.2997 17.5482 45.4487 16.9336 46.6279L14.2732 45.2413ZM102.308 49.0849C102.847 50.3861 103.331 51.7158 103.757 53.0713L100.895 53.9716C100.496 52.7004 100.041 51.4534 99.5359 50.233L102.308 49.0849ZM11.03 53.0713C11.4564 51.7158 11.9406 50.3861 12.4796 49.0849L15.2512 50.233C14.7457 51.4534 14.2916 52.7004 13.8917 53.9716L11.03 53.0713ZM9.20584 61.3446C9.38971 59.9325 9.63412 58.5394 9.93641 57.168L12.8661 57.8137C12.5826 59.1001 12.3533 60.407 12.1807 61.732L9.20584 61.3446ZM104.851 57.168C105.153 58.5394 105.397 59.9325 105.581 61.3446L102.606 61.732C102.434 60.407 102.205 59.1001 101.921 57.8137L104.851 57.168ZM8.7959 67.6904C8.7959 66.9799 8.81113 66.2728 8.84128 65.5695L11.8385 65.698C11.8102 66.3585 11.7959 67.0227 11.7959 67.6904C11.7959 68.3877 11.8115 69.0812 11.8424 69.7708L8.84542 69.905C8.81252 69.1708 8.7959 68.4325 8.7959 67.6904ZM105.946 65.5695C105.976 66.2728 105.991 66.9799 105.991 67.6904C105.991 68.3984 105.976 69.1027 105.946 69.8031L102.949 69.6755C102.977 69.0177 102.991 68.3559 102.991 67.6904C102.991 67.0227 102.977 66.3585 102.949 65.698L105.946 65.5695ZM105.585 74.0144C105.402 75.4232 105.159 76.8125 104.859 78.1799L101.929 77.5356C102.211 76.2535 102.439 74.9505 102.61 73.6287L105.585 74.0144ZM10.0398 78.6762C9.71042 77.2461 9.44385 75.7921 9.24322 74.3173L12.2158 73.9129C12.4041 75.2969 12.6543 76.6612 12.9632 78.0029L10.0398 78.6762ZM103.77 82.2663C103.345 83.6178 102.862 84.9435 102.325 86.2411L99.5533 85.0932C100.057 83.8766 100.509 82.6337 100.908 81.3668L103.77 82.2663ZM12.8056 87.0864C12.2205 85.7366 11.6943 84.3549 11.2305 82.9446L14.0803 82.0073C14.5155 83.3304 15.0091 84.6267 15.5581 85.8932L12.8056 87.0864ZM100.537 90.0731C99.8845 91.3257 99.1786 92.5467 98.4223 93.7336L95.8923 92.1214C96.6021 91.0074 97.2644 89.8618 97.8766 88.6868L100.537 90.0731ZM17.0504 94.8546C16.2293 93.6309 15.4617 92.3673 14.7513 91.0673L17.3839 89.6286C18.0506 90.8486 18.7709 92.0346 19.5415 93.1831L17.0504 94.8546ZM95.9995 97.1964C95.5712 97.7558 95.131 98.3058 94.6792 98.8464L93.5283 97.8844L94.6801 98.8453C94.6798 98.8457 94.6795 98.846 94.6792 98.8464M21.1181 100.106C20.6274 99.5548 20.1489 98.9919 19.6832 98.4179L22.0127 96.5275C22.4491 97.0654 22.8974 97.5929 23.3572 98.1097C23.7836 98.5844 24.2197 99.0502 24.6652 99.5068L22.5182 101.602C22.0429 101.115 21.5776 100.618 21.1227 100.112L21.1181 100.106ZM90.2799 103.467C89.2366 104.428 88.1511 105.344 87.0264 106.211L85.1945 103.835C86.2498 103.021 87.2684 102.162 88.2473 101.26L90.2799 103.467ZM28.682 106.948C27.5817 106.144 26.5164 105.295 25.4887 104.403L27.4545 102.137C28.4194 102.974 29.4195 103.771 30.4523 104.526L28.682 106.948ZM83.5451 108.66C82.3521 109.423 81.1234 110.135 79.8618 110.794L78.4736 108.134C79.6568 107.517 80.8094 106.848 81.9284 106.133L83.5451 108.66ZM35.6509 111.196C34.4293 110.585 33.2371 109.925 32.0769 109.218L33.6384 106.656C34.7271 107.32 35.8456 107.939 36.9915 108.512L35.6509 111.196ZM76.0047 112.595C74.6991 113.137 73.3645 113.622 72.0038 114.05L71.104 111.188C72.3801 110.787 73.6317 110.331 74.8561 109.824L76.0047 112.595ZM43.2363 114.213C41.9263 113.817 40.6399 113.366 39.3796 112.865L40.4886 110.078C41.6705 110.548 42.8768 110.97 44.1052 111.342L43.2363 114.213ZM67.8909 115.147C66.5146 115.45 65.1162 115.694 63.6985 115.878L63.3123 112.903C64.6431 112.731 65.9552 112.501 67.2463 112.217L67.8909 115.147ZM51.2209 115.908C49.8597 115.737 48.5163 115.51 47.193 115.23L47.8157 112.295C49.0568 112.558 50.317 112.771 51.5941 112.931L51.2209 115.908ZM59.4598 116.243C58.7545 116.273 58.0452 116.288 57.3323 116.288C56.6482 116.288 55.9674 116.274 55.2902 116.246L55.414 113.249C56.05 113.275 56.6895 113.288 57.3323 113.288C58.0025 113.288 58.6691 113.274 59.3319 113.246L59.4598 116.243Z" fill="#D6DCE8"/>
<path d="M74.7355 70.7798C74.38 72.2908 73.8467 73.8906 73.2246 75.2238C71.5359 78.5123 68.8695 81.0897 65.581 82.7784C62.2036 84.4671 58.2041 85.1781 54.2046 84.2894C44.7834 82.334 38.7397 73.0907 40.695 63.6695C42.6504 54.2484 51.8048 48.1158 61.226 50.16C64.6034 50.871 67.5363 52.5597 70.0249 54.8706C74.2022 59.0479 75.9798 65.0916 74.7355 70.7798Z" fill="url(#paint0_linear_2075_93180)"/>
<path d="M63.2702 65.7136H59.2706V61.7141C59.2706 60.9142 58.6485 60.2031 57.7597 60.2031C56.9598 60.2031 56.2488 60.8253 56.2488 61.7141V65.7136H52.2492C51.4493 65.7136 50.7383 66.3357 50.7383 67.2245C50.7383 68.1133 51.3604 68.7355 52.2492 68.7355H56.2488V72.735C56.2488 73.5349 56.8709 74.2459 57.7597 74.2459C58.5596 74.2459 59.2706 73.6238 59.2706 72.735V68.7355H63.2702C64.0701 68.7355 64.7811 68.1133 64.7811 67.2245C64.7811 66.3357 64.0701 65.7136 63.2702 65.7136Z" fill="white"/>
<path d="M78.209 20.6135C78.209 26.1681 75.9892 31.1054 72.5361 34.8085C72.2895 35.1788 71.9195 35.4256 71.5495 35.6725C67.8498 39.1287 62.9169 41.2271 57.4906 41.2271C53.1743 41.2271 49.1046 39.8693 45.7748 37.524C44.7882 36.9069 43.925 36.0428 43.0617 35.3022C39.2387 31.5992 36.8955 26.4149 36.8955 20.6135C36.8955 9.25757 46.1448 0 57.4906 0C68.9597 0 78.209 9.25757 78.209 20.6135Z" fill="#E9F0F8"/>
<path d="M78.209 20.6122C78.209 26.6604 75.6192 31.9681 71.5495 35.7946C67.8498 39.2507 62.9169 41.3491 57.4906 41.3491C53.1743 41.3491 49.1046 39.9913 45.7748 37.6461C40.3486 33.9431 36.8955 27.7713 36.8955 20.7356C36.8955 9.37964 46.1448 0.12207 57.4906 0.12207C68.8364 0.12207 78.209 9.25621 78.209 20.6122Z" fill="#F1F3F9"/>
<path d="M72.5364 34.8083C72.2898 35.1786 71.9198 35.4254 71.5498 35.6723C67.8501 39.1285 62.9172 41.2269 57.4909 41.2269C53.1746 41.2269 49.1049 39.8691 45.7751 37.5238C44.7886 36.9067 43.9253 36.0426 43.062 35.302C43.5553 34.6848 44.2953 34.3145 45.8985 33.6974L46.5151 33.4505C47.7483 32.9568 49.4749 32.3396 51.6947 31.3521C52.0647 31.2287 52.3113 30.9818 52.558 30.7349C52.6813 30.6115 52.8046 30.4881 52.8046 30.2412C52.9279 29.9943 53.0512 29.624 53.0512 29.3772V25.1804C52.9279 25.057 52.9279 25.057 52.8046 24.9335C52.4346 24.4398 52.188 23.8226 52.188 23.082L51.9413 22.9586C50.8314 23.2055 50.9547 22.0945 50.7081 19.8727C50.5848 19.0087 50.7081 18.7618 51.2014 18.6384L51.5714 18.1446C50.8314 16.4166 50.4614 14.8119 50.4614 13.5776C50.4614 11.4792 51.3247 10.1214 52.558 9.50424C51.818 8.02303 51.818 7.5293 51.818 7.5293C51.818 7.5293 56.1343 8.2699 57.6142 8.02304C59.4641 7.65273 62.4239 8.14647 63.5338 10.6152C65.3836 11.3558 66.0003 12.4667 66.2469 13.701C66.4936 15.676 65.3836 17.7743 65.137 18.6384V18.7618C65.3836 18.8852 65.507 19.1321 65.3836 19.9962C65.137 22.0945 65.137 23.3289 64.1504 23.082L63.1638 24.8101C63.1638 25.057 63.1638 25.057 63.0405 25.1804C63.0405 25.5507 63.0405 26.1679 63.0405 29.5006C63.0405 29.8709 63.1638 30.3646 63.4105 30.6115C63.5338 30.7349 63.5338 30.8584 63.6571 30.8584C63.9038 31.1052 64.1504 31.3521 64.3971 31.3521C66.8635 32.3396 68.5901 33.0802 69.9466 33.5739C71.1799 34.0677 72.0431 34.438 72.5364 34.8083Z" fill="white"/>
<path d="M72.5364 34.8077C72.2898 35.178 71.9198 35.4249 71.5498 35.6717C67.8501 39.1279 62.9172 41.2263 57.4909 41.2263C53.1746 41.2263 49.1049 39.8685 45.7751 37.5233C44.7886 36.9061 43.9253 36.042 43.062 35.3014C43.5553 34.6843 44.2953 34.314 45.8985 33.6968L46.5151 33.4499C47.7483 32.9562 49.4749 32.339 51.6947 31.3515C52.0647 31.2281 52.3113 30.9812 52.558 30.7344C53.7912 32.4625 55.7644 33.5734 58.1075 33.5734C60.3274 33.5734 62.3005 32.4625 63.5338 30.8578C63.7804 31.1047 64.0271 31.3515 64.2737 31.3515C66.7402 32.339 68.4667 33.0796 69.8233 33.5734C71.1799 34.0671 72.0431 34.4374 72.5364 34.8077Z" fill="#D6DCE8"/>
<path d="M65.0138 18.515C65.1372 18.0212 64.8905 17.2806 64.6439 16.9103C64.6439 16.7869 64.5205 16.7869 64.5205 16.6634C63.6573 14.9354 61.8074 14.3182 60.0809 14.1948C55.5179 13.9479 55.1479 14.8119 53.7914 13.5776C54.2847 14.1948 54.2847 15.3057 53.5447 16.54C53.0514 17.404 52.1882 17.8978 51.3249 18.1446C49.2284 13.4541 50.3383 10.4917 52.3115 9.50424C51.5715 8.02303 51.5715 7.5293 51.5715 7.5293C51.5715 7.5293 55.8879 8.2699 57.3677 8.02304C59.2176 7.65273 62.1774 8.14647 63.2873 10.6152C65.1372 11.3558 65.7538 12.4667 66.0004 13.701C66.3704 15.5525 65.2605 17.6509 65.0138 18.515Z" fill="#AAB2C5"/>
<path d="M53.1744 29.377V25.1803C53.0511 25.0568 53.0511 25.0568 52.9277 24.9334V24.6865C53.1744 25.0568 53.421 25.4271 53.791 25.674L57.1207 28.0192C57.8607 28.6364 58.9706 28.6364 59.7105 28.0192L62.7936 25.3037C62.917 25.1803 63.0403 25.1803 63.1636 25.0568C63.1636 25.4271 63.1636 26.0443 63.1636 29.377C63.1636 29.6239 63.1636 29.7473 63.2869 29.9942H53.1744C53.0511 29.7473 53.1744 29.6239 53.1744 29.377Z" fill="url(#paint1_linear_2075_93180)"/>
<path d="M115.142 96.8157C115.142 102.37 112.922 107.308 109.469 111.011C109.223 111.381 108.853 111.628 108.483 111.875C104.783 115.331 99.85 117.429 94.4237 117.429C90.1074 117.429 86.0377 116.071 82.7079 113.726C81.7214 113.109 80.8581 112.245 79.9948 111.504C76.1718 107.801 73.8286 102.617 73.8286 96.8157C73.8286 85.4597 83.0779 76.2021 94.4237 76.2021C105.893 76.2021 115.142 85.4597 115.142 96.8157Z" fill="#E9F0F8"/>
<path d="M115.142 96.8143C115.142 102.863 112.552 108.17 108.483 111.997C104.783 115.453 99.85 117.551 94.4237 117.551C90.1074 117.551 86.0377 116.193 82.7079 113.848C77.2817 110.145 73.8286 103.973 73.8286 96.9377C73.8286 85.5818 83.0779 76.3242 94.4237 76.3242C105.77 76.3242 115.142 85.4584 115.142 96.8143Z" fill="#F1F3F9"/>
<path d="M109.471 111.01C109.224 111.381 108.854 111.628 108.484 111.874C104.784 115.331 99.8512 117.429 94.425 117.429C90.1087 117.429 86.039 116.071 82.7092 113.726C81.7226 113.109 80.8594 112.245 79.9961 111.504C80.4894 110.887 81.2293 110.517 82.8325 109.9L83.4492 109.653C84.6824 109.159 86.4089 108.542 88.6288 107.554C88.9987 107.431 89.2454 107.184 89.492 106.937C89.6154 106.814 89.7387 106.69 89.7387 106.443C89.862 106.196 89.9853 105.826 89.9853 105.579V101.383C89.862 101.259 89.862 101.259 89.7387 101.136C89.3687 100.642 89.1221 100.025 89.1221 99.2842L88.8754 99.1607C87.7655 99.4076 87.8888 98.2967 87.6422 96.0749C87.5189 95.2108 87.6422 94.964 88.1355 94.8405L88.5054 94.3468C87.7655 92.6187 87.3955 91.0141 87.3955 89.7797C87.3955 87.6813 88.2588 86.3236 89.492 85.7064C88.7521 84.2252 88.7521 83.7314 88.7521 83.7314C88.7521 83.7314 93.0684 84.4721 94.5483 84.2252C96.3982 83.8549 99.3579 84.3486 100.468 86.8173C102.318 87.5579 102.934 88.6688 103.181 89.9032C103.428 91.8781 102.318 93.9765 102.071 94.8405V94.964C102.318 95.0874 102.441 95.3343 102.318 96.1983C102.071 98.2967 102.071 99.531 101.084 99.2842L100.098 101.012C100.098 101.259 100.098 101.259 99.9746 101.383C99.9746 101.753 99.9746 102.37 99.9746 105.703C99.9746 106.073 100.098 106.567 100.345 106.814C100.468 106.937 100.468 107.061 100.591 107.061C100.838 107.307 101.084 107.554 101.331 107.554C103.798 108.542 105.524 109.282 106.881 109.776C108.114 110.27 108.977 110.64 109.471 111.01Z" fill="white"/>
<path d="M109.47 111.011C109.223 111.381 108.853 111.628 108.483 111.875C104.783 115.331 99.8503 117.429 94.424 117.429C90.1077 117.429 86.038 116.072 82.7082 113.726C81.7217 113.109 80.8584 112.245 79.9951 111.505C80.4884 110.887 81.2284 110.517 82.8316 109.9L83.4482 109.653C84.6814 109.159 86.408 108.542 88.6278 107.555C88.9978 107.431 89.2444 107.184 89.4911 106.938C90.7243 108.666 92.6975 109.776 95.0406 109.776C97.2605 109.776 99.2336 108.666 100.467 107.061C100.714 107.308 100.96 107.555 101.207 107.555C103.673 108.542 105.4 109.283 106.756 109.776C108.113 110.27 108.976 110.641 109.47 111.011Z" fill="#D6DCE8"/>
<path d="M101.947 94.7171C102.07 94.2234 101.824 93.4828 101.577 93.1124C101.577 92.989 101.454 92.989 101.454 92.8656C100.59 91.1375 98.7405 90.5203 97.014 90.3969C92.451 90.15 92.081 91.0141 90.7245 89.7797C91.2178 90.3969 91.2178 91.5078 90.4778 92.7421C89.9845 93.6062 89.1213 94.0999 88.258 94.3468C86.1615 89.6563 87.2714 86.6939 89.2446 85.7064C88.5046 84.2252 88.5046 83.7314 88.5046 83.7314C88.5046 83.7314 92.821 84.4721 94.3009 84.2252C96.1507 83.8549 99.1105 84.3486 100.22 86.8173C102.07 87.5579 102.687 88.6688 102.934 89.9032C103.304 91.7547 102.194 93.8531 101.947 94.7171Z" fill="#AAB2C5"/>
<path d="M90.1075 105.579V101.382C89.9842 101.259 89.9842 101.259 89.8608 101.136V100.889C90.1075 101.259 90.3541 101.629 90.7241 101.876L94.0539 104.221C94.7938 104.839 95.9037 104.839 96.6437 104.221L99.7268 101.506C99.8501 101.382 99.9734 101.382 100.097 101.259C100.097 101.629 100.097 102.246 100.097 105.579C100.097 105.826 100.097 105.949 100.22 106.196H90.1075C89.9842 105.949 90.1075 105.826 90.1075 105.579Z" fill="url(#paint2_linear_2075_93180)"/>
<path d="M41.061 97.1246C41.061 102.926 38.5945 108.11 34.6482 111.813C33.5383 112.801 32.4283 113.665 31.0718 114.405C28.112 116.133 24.6589 117.121 20.9592 117.121C17.2595 117.121 13.8064 116.133 10.8467 114.405C10.3534 114.158 9.98339 113.912 9.4901 113.541C4.31049 109.962 0.857422 103.913 0.857422 97.1246C0.857422 86.0155 9.86007 77.1282 20.8359 77.1282C32.0584 77.0048 41.061 86.0155 41.061 97.1246Z" fill="#F1F3F9"/>
<path d="M16.8897 101.567C17.1364 101.814 17.383 102.185 17.753 102.431C17.9997 102.678 18.2463 102.802 18.493 103.049C18.6163 103.172 18.8629 103.295 18.9863 103.419C18.9863 103.419 19.1096 103.419 19.1096 103.542L19.2329 103.666V105.394C19.2329 105.394 19.2329 105.394 19.1096 105.27C18.9863 105.147 18.7396 105.023 18.6163 104.9C18.3696 104.777 18.123 104.53 17.8763 104.406C17.753 104.406 17.753 104.283 17.6297 104.283C16.7664 103.789 16.0265 103.295 16.0265 102.678C16.1498 102.431 16.3965 102.061 16.8897 101.567ZM34.0452 111.115C33.3052 109.51 32.3052 107.986 30.5787 107.122C29.7154 106.752 28.7288 106.381 27.7423 106.381C27.4956 106.381 27.1256 106.381 26.879 106.381C26.7557 106.381 26.6323 106.381 26.509 106.381C25.1525 106.258 25.0291 106.011 25.0291 106.011V103.172C25.8924 102.431 26.7557 101.567 27.4956 100.703C28.1122 99.8393 28.6055 98.8518 28.8522 97.6174C29.9621 97.3706 30.702 96.3831 30.5787 95.1488C30.5787 94.655 30.2087 94.1613 30.2087 93.6675C30.2087 93.4207 30.2087 93.1738 30.2087 92.9269C30.2087 92.8035 30.2087 92.5566 30.2087 92.4332C30.2087 92.3098 30.2087 92.0629 30.2087 91.9395C30.0854 91.0754 29.8388 90.2114 29.3455 89.2239C27.8656 86.5084 25.1524 84.7803 21.946 84.7803C21.3294 84.7803 20.7128 84.9037 20.0962 85.0271C18.9863 85.274 17.8763 85.7677 17.0131 86.5084C16.8897 86.6318 16.6431 86.7552 16.5198 87.0021L16.3965 87.1255C15.4099 88.113 14.5466 89.2239 14.1766 90.5817C13.6833 91.9395 13.6833 93.2972 13.8067 94.655C13.8067 94.655 13.8067 94.655 13.8067 94.7784V94.9019C13.8067 95.1488 13.93 95.1488 13.8067 95.2722C13.8067 95.3956 13.6833 95.3956 13.6833 95.5191C13.4367 95.8894 13.3134 96.3831 13.56 97.1237C14.0533 98.358 14.7932 98.2346 15.6565 98.8518C15.6565 98.8518 15.5332 98.8518 15.5332 98.9752L14.6699 99.2221C10.7236 100.456 9.36699 103.789 11.0935 105.888C11.7101 106.628 12.6967 107.245 14.1766 107.616C13.8067 107.616 13.4367 107.862 13.19 108.109C11.4635 109.467 10.3536 111.566 10.1069 113.54C10.1069 113.664 10.1069 113.787 10.1069 113.911C10.6002 114.158 10.9702 114.528 11.4635 114.775L30.7749 114.323C32.0081 113.583 32.5538 113.011 33.6637 112.023C33.5403 111.406 34.1685 111.238 34.0452 111.115Z" fill="white"/>
<path d="M34.6483 111.813C33.5384 112.8 32.4285 113.664 31.0719 114.405C28.1121 116.133 24.6591 117.12 20.9594 117.12C17.2596 117.12 13.8066 116.133 10.8468 114.405C10.3535 114.158 9.98353 113.911 9.49023 113.541C9.49023 113.417 9.49023 113.294 9.49023 113.171C9.73688 111.196 10.8468 109.097 12.5733 107.739C12.82 107.493 13.19 107.369 13.5599 107.246C12.08 106.999 11.0934 106.382 10.4768 105.518H15.1631C16.5197 107.369 18.6162 108.48 21.0827 108.48C23.1792 108.48 25.029 107.616 26.3856 106.258C26.5089 106.258 26.6323 106.258 26.7556 106.258C27.0022 106.258 27.2489 106.258 27.6189 106.258C28.6054 106.258 29.592 106.505 30.4553 106.999C32.1818 107.863 33.4151 109.344 34.2783 111.072C34.525 111.319 34.525 111.566 34.6483 111.813Z" fill="#D6DCE8"/>
<path d="M25.1527 103.172V105.764L17.3833 106.011L17.7533 104.283C17.8766 104.283 17.8766 104.406 17.9999 104.406C18.2466 104.53 18.4932 104.777 18.7399 104.9C18.8632 105.023 18.9865 105.147 19.2332 105.27C19.2332 105.27 19.3565 105.27 19.3565 105.394V103.666L19.2332 103.542C20.5897 104.283 22.4396 104.777 25.1527 103.172Z" fill="url(#paint3_linear_2075_93180)"/>
<path d="M30.2085 92.4334C28.7286 92.9271 27.002 93.174 25.3988 93.0506C22.809 92.8037 20.3425 91.8162 18.3694 90.0881C17.7527 91.9396 16.1495 93.2974 14.2997 94.1615C14.053 94.2849 13.8064 94.4083 13.5597 94.4083C13.5597 94.4083 13.5597 94.4083 13.5597 94.2849C13.4364 92.9271 13.4364 91.5694 13.9297 90.2116C14.2997 88.8538 15.1629 87.7429 16.1495 86.7554L16.2729 86.632C16.3962 86.5085 16.6428 86.3851 16.7661 86.1382C17.6294 85.3976 18.7393 84.9039 19.8492 84.657C20.4659 84.5336 21.0825 84.4102 21.6991 84.4102C24.9055 84.4102 27.742 86.1382 29.0985 88.8538C29.5918 89.8413 29.8385 90.8287 29.9618 91.5693C30.2085 92.0631 30.2085 92.31 30.2085 92.4334Z" fill="#AAB2C5"/>
<path d="M20.3427 110.702C19.6028 111.566 18.3695 111.566 17.2596 111.566C18.3695 110.455 17.7529 106.876 13.8065 107.246C8.38028 106.258 8.87358 100.58 14.2998 98.8523L15.1631 98.6055L15.2864 98.7289C15.6564 99.8398 16.273 100.827 16.8896 101.568C14.6698 103.419 17.7529 103.913 19.2328 105.394C20.466 106.135 21.5759 109.221 20.3427 110.702Z" fill="#AAB2C5"/>
<defs>
<linearGradient id="paint0_linear_2075_93180" x1="40.3117" y1="67.2242" x2="75.1317" y2="67.2242" gradientUnits="userSpaceOnUse">
<stop stop-color="#B0BACC"/>
<stop offset="1" stop-color="#969EAE"/>
</linearGradient>
<linearGradient id="paint1_linear_2075_93180" x1="58.0873" y1="29.8289" x2="58.0873" y2="27.0487" gradientUnits="userSpaceOnUse">
<stop stop-color="white"/>
<stop offset="0.9913" stop-color="#D6DEEA"/>
</linearGradient>
<linearGradient id="paint2_linear_2075_93180" x1="95.0204" y1="106.031" x2="95.0204" y2="103.251" gradientUnits="userSpaceOnUse">
<stop stop-color="white"/>
<stop offset="0.9913" stop-color="#D6DEEA"/>
</linearGradient>
<linearGradient id="paint3_linear_2075_93180" x1="21.253" y1="105.922" x2="21.253" y2="104.435" gradientUnits="userSpaceOnUse">
<stop stop-color="white"/>
<stop offset="0.9913" stop-color="#D6DEEA"/>
</linearGradient>
</defs>
</svg>
