<svg width="188" height="140" viewBox="0 0 188 140" fill="none" xmlns="http://www.w3.org/2000/svg">
<rect x="0.00195312" y="25.0039" width="110.324" height="100.227" rx="2.32947" fill="white"/>
<rect x="40.6453" y="40.8281" width="29.0325" height="30.5955" rx="2.32947" fill="#B8B8FF"/>
<path fill-rule="evenodd" clip-rule="evenodd" d="M55.1655 65.0965C49.7139 65.0965 45.2944 61.0815 45.2944 56.1288C45.2944 51.1761 49.7139 47.1611 55.1655 47.1611C60.6171 47.1611 65.0366 51.1761 65.0366 56.1288C65.0366 61.0815 60.6171 65.0965 55.1655 65.0965ZM55.1649 64.041C59.9752 64.041 63.8747 60.4983 63.8747 56.1283C63.8747 51.7583 59.9752 48.2157 55.1649 48.2157C50.3547 48.2157 46.4552 51.7583 46.4552 56.1283C46.4552 60.4983 50.3547 64.041 55.1649 64.041Z" fill="#DDEAF3"/>
<path fill-rule="evenodd" clip-rule="evenodd" d="M45.291 56.1278C45.291 61.0805 49.7104 65.0955 55.1621 65.0955C60.6137 65.0955 65.0331 61.0805 65.0331 56.1278C65.0331 51.1751 60.6137 47.1602 55.1621 47.1602C54.8414 47.1602 54.5814 47.3963 54.5814 47.6877C54.5814 47.979 54.8414 48.2152 55.1621 48.2152C59.9723 48.2152 63.8718 51.7578 63.8718 56.1278C63.8718 60.4978 59.9723 64.0405 55.1621 64.0405C50.3518 64.0405 46.4523 60.4978 46.4523 56.1278C46.4523 55.8365 46.1924 55.6003 45.8717 55.6003C45.551 55.6003 45.291 55.8365 45.291 56.1278Z" fill="#574AE2"/>
<rect x="52.2583" y="53.4902" width="5.80651" height="5.27509" rx="2.32947" fill="#F2F7F9"/>
<rect x="75.4841" y="40.8281" width="29.0325" height="30.5955" rx="2.32947" fill="#01BAEF"/>
<path fill-rule="evenodd" clip-rule="evenodd" d="M90.0046 65.0965C84.553 65.0965 80.1335 61.0815 80.1335 56.1288C80.1335 51.1761 84.553 47.1611 90.0046 47.1611C95.4562 47.1611 99.8757 51.1761 99.8757 56.1288C99.8757 61.0815 95.4562 65.0965 90.0046 65.0965ZM90.0071 64.0409C94.8173 64.0409 98.7168 60.4983 98.7168 56.1282C98.7168 51.7582 94.8173 48.2156 90.0071 48.2156C85.1968 48.2156 81.2973 51.7582 81.2973 56.1282C81.2973 60.4983 85.1968 64.0409 90.0071 64.0409Z" fill="#DDEAF3"/>
<path fill-rule="evenodd" clip-rule="evenodd" d="M90.002 65.0955C95.4537 65.0955 99.8731 61.0805 99.8731 56.1278C99.8731 51.1751 95.4537 47.1602 90.002 47.1602C89.6814 47.1602 89.4214 47.3963 89.4214 47.6877C89.4214 47.979 89.6814 48.2152 90.002 48.2152C94.8123 48.2152 98.7118 51.7578 98.7118 56.1278C98.7118 60.4978 94.8123 64.0405 90.002 64.0405C89.6814 64.0405 89.4214 64.2766 89.4214 64.568C89.4214 64.8593 89.6814 65.0955 90.002 65.0955Z" fill="#0067F2"/>
<rect x="87.0969" y="53.4902" width="5.80651" height="5.27509" rx="2.32947" fill="#F2F7F9"/>
<rect x="5.8064" y="40.8281" width="29.0325" height="30.5955" rx="2.32947" fill="#FFF5B7"/>
<path fill-rule="evenodd" clip-rule="evenodd" d="M9.87036 55.8197C9.87036 54.5332 10.9133 53.4902 12.1998 53.4902H27.8637C29.1502 53.4902 30.1931 54.5332 30.1931 55.8197V56.4359C30.1931 57.7224 29.1502 58.7653 27.8637 58.7653H12.1998C10.9133 58.7653 9.87036 57.7224 9.87036 56.4359V55.8197Z" fill="#A7B0CA"/>
<path fill-rule="evenodd" clip-rule="evenodd" d="M9.87036 63.7318C9.87036 62.4453 10.9133 61.4023 12.1998 61.4023H23.2747C24.5612 61.4023 25.6041 62.4453 25.6041 63.7318V64.348C25.6041 65.6345 24.5612 66.6774 23.2747 66.6774H12.1998C10.9133 66.6774 9.87036 65.6345 9.87036 64.348V63.7318Z" fill="#A7B0CA"/>
<path fill-rule="evenodd" clip-rule="evenodd" d="M9.87036 47.9066C9.87036 46.6201 10.9133 45.5771 12.1998 45.5771H18.7483C20.0348 45.5771 21.0778 46.6201 21.0778 47.9066V48.5228C21.0778 49.8093 20.0348 50.8522 18.7483 50.8522H12.1998C10.9133 50.8522 9.87036 49.8093 9.87036 48.5228V47.9066Z" fill="#A7B0CA"/>
<path fill-rule="evenodd" clip-rule="evenodd" d="M104.515 118.373H5.80444C5.80444 118.373 9.1863 99.2341 19.7401 99.2341C30.2938 99.2341 27.2466 108.351 37.7402 108.351C48.2339 108.351 43.0365 89.8877 52.2565 89.8877C61.4765 89.8877 56.9017 104.344 65.6115 104.344C74.3212 104.344 77.2245 71.9524 87.0955 83.5576C96.9666 95.1628 92.0989 104.344 97.6862 104.344C103.273 104.344 104.515 118.373 104.515 118.373Z" fill="#0CCA4A"/>
<path fill-rule="evenodd" clip-rule="evenodd" d="M20.0304 101.493C21.4735 101.493 22.6433 100.43 22.6433 99.1189C22.6433 97.8079 21.4735 96.7451 20.0304 96.7451C18.5873 96.7451 17.4175 97.8079 17.4175 99.1189C17.4175 100.43 18.5873 101.493 20.0304 101.493Z" fill="#0067F2"/>
<path fill-rule="evenodd" clip-rule="evenodd" d="M14.0458 82.3545C12.7592 82.3545 11.7163 83.3974 11.7163 84.684V87.3548C11.7163 88.6413 12.7592 89.6843 14.0458 89.6843H18.2867L19.4671 91.1809C19.5254 91.2548 19.6374 91.2548 19.6957 91.1809L20.8761 89.6843H39.3534C40.6399 89.6843 41.6829 88.6413 41.6829 87.3548V84.684C41.6829 83.3974 40.6399 82.3545 39.3534 82.3545H14.0458Z" fill="#A3D5FF"/>
<path d="M0 27.3324C0 26.0459 1.04294 25.0029 2.32947 25.0029H107.994C109.281 25.0029 110.324 26.0459 110.324 27.3324V35.5531H0V27.3324Z" fill="#DDEAF3"/>
<path fill-rule="evenodd" clip-rule="evenodd" d="M6.09942 32.3889C7.22181 32.3889 8.13169 31.5622 8.13169 30.5426C8.13169 29.5229 7.22181 28.6963 6.09942 28.6963C4.97702 28.6963 4.06714 29.5229 4.06714 30.5426C4.06714 31.5622 4.97702 32.3889 6.09942 32.3889ZM11.9059 32.3889C13.0283 32.3889 13.9381 31.5622 13.9381 30.5426C13.9381 29.5229 13.0283 28.6963 11.9059 28.6963C10.7835 28.6963 9.87359 29.5229 9.87359 30.5426C9.87359 31.5622 10.7835 32.3889 11.9059 32.3889ZM19.7446 30.5426C19.7446 31.5623 18.8348 32.3889 17.7124 32.3889C16.59 32.3889 15.6801 31.5623 15.6801 30.5426C15.6801 29.5229 16.59 28.6963 17.7124 28.6963C18.8348 28.6963 19.7446 29.5229 19.7446 30.5426Z" fill="white"/>
<ellipse cx="69.7819" cy="9.45781" rx="10.4106" ry="9.45781" fill="white"/>
<path d="M69.1763 3.3916V10.1358H76.5999C76.2602 13.2479 73.3694 15.6789 69.8542 15.6789C66.1099 15.6789 63.0747 12.9215 63.0747 9.51987C63.0747 6.32639 65.7506 3.70017 69.1763 3.3916Z" fill="#0067F2"/>
<path d="M78.0474 8.56944C77.7233 5.14931 74.7227 2.42269 70.958 2.12891V8.56944H78.0474Z" fill="#0CCA4A"/>
<ellipse cx="44.4636" cy="22.9665" rx="7.80047" ry="7.08657" fill="white"/>
<path d="M44.5349 27.1769C42.0146 27.1769 39.9717 25.3209 39.9717 23.0313C39.9717 20.7417 42.0146 18.8857 44.5349 18.8857C47.0551 18.8857 49.0981 20.7417 49.0981 23.0313C49.0981 25.3209 47.0551 27.1769 44.5349 27.1769ZM43.4899 26.2097C43.0397 25.3422 42.7789 24.4036 42.7219 23.4459H40.9126C41.0014 24.0838 41.2922 24.6846 41.7498 25.1753C42.2073 25.6659 42.8118 26.0253 43.4899 26.2097ZM43.6359 23.4459C43.7048 24.457 44.0229 25.4067 44.5349 26.245C45.0607 25.3846 45.3679 24.4281 45.4338 23.4459H43.6359ZM48.1571 23.4459H46.3478C46.2908 24.4036 46.03 25.3422 45.5798 26.2097C46.2579 26.0253 46.8625 25.6659 47.32 25.1753C47.7775 24.6846 48.0683 24.0838 48.1571 23.4459ZM40.9126 22.6168H42.7219C42.7789 21.659 43.0397 20.7204 43.4899 19.8529C42.8118 20.0373 42.2073 20.3967 41.7498 20.8873C41.2922 21.378 41.0014 21.9788 40.9126 22.6168ZM43.6364 22.6168H45.4334C45.3675 21.6345 45.0605 20.6781 44.5349 19.8177C44.009 20.6781 43.7019 21.6345 43.6359 22.6168H43.6364ZM45.5798 19.8529C46.03 20.7204 46.2908 21.659 46.3478 22.6168H48.1571C48.0683 21.9788 47.7775 21.378 47.32 20.8873C46.8625 20.3967 46.2579 20.0373 45.5798 19.8529Z" fill="#279AF1"/>
<rect x="131.585" y="36.4092" width="55.9152" height="39.527" rx="2.91183" fill="white"/>
<path d="M131.585 39.321C131.585 37.7129 132.889 36.4092 134.497 36.4092H184.589C186.197 36.4092 187.501 37.7129 187.501 39.321V61.4906H131.585V39.321Z" fill="#FFF5B7"/>
<path fill-rule="evenodd" clip-rule="evenodd" d="M165.804 53.388V44.6429C165.804 43.9557 165.186 43.3936 164.429 43.3936H154.803C154.047 43.3936 153.428 43.9557 153.428 44.6429V53.388C153.428 54.0751 154.047 54.6373 154.803 54.6373H164.429C165.186 54.6373 165.804 54.0751 165.804 53.388ZM157.209 49.9515L158.928 51.8317L161.334 49.0145L164.428 52.7624H154.802L157.209 49.9515Z" fill="#279AF1"/>
<ellipse cx="137.53" cy="68.1592" rx="3.49471" ry="3.17486" fill="#A3D5FF"/>
<rect x="144.169" y="64.9844" width="38.0922" height="1.74618" rx="0.873089" fill="#C7CDDD"/>
<rect x="144.169" y="68.3164" width="26.2102" height="1.74618" rx="0.873089" fill="#C7CDDD"/>
<rect x="144.169" y="71.6514" width="32.5007" height="1.74618" rx="0.873089" fill="#E3E6EE"/>
<rect x="117.362" y="13.2744" width="16.8448" height="15.3032" rx="2.70767" fill="white"/>
<rect x="121.207" y="16.7832" width="9.10336" height="8.27021" rx="2.70767" fill="white"/>
<path fill-rule="evenodd" clip-rule="evenodd" d="M126.668 16.7812H123.027C122.526 16.7812 122.121 17.1534 122.121 17.6083L122.116 24.2244C122.116 24.6793 122.522 25.0515 123.022 25.0515H128.489C128.989 25.0515 129.399 24.6793 129.399 24.2244V19.2623L126.668 16.7812ZM127.578 23.3951H123.936V22.5681H127.578V23.3951ZM127.578 21.7417H123.936V20.9147H127.578V21.7417ZM126.211 19.677V17.4027L128.715 19.677H126.211Z" fill="#279AF1"/>
<path d="M105.516 79.8424C105.516 78.347 106.728 77.1348 108.224 77.1348H120.197C121.692 77.1348 122.905 78.347 122.905 79.8424V90.2245C122.905 91.7199 121.692 92.9322 120.197 92.9322H108.224C106.728 92.9322 105.516 91.7199 105.516 90.2245V79.8424Z" fill="#0CCA4A"/>
<path fill-rule="evenodd" clip-rule="evenodd" d="M119.191 88.5538V81.5144C119.191 80.9613 118.693 80.5088 118.084 80.5088H110.336C109.727 80.5088 109.229 80.9613 109.229 81.5144V88.5538C109.229 89.1068 109.727 89.5594 110.336 89.5594H118.084C118.693 89.5594 119.191 89.1068 119.191 88.5538ZM112.271 85.7872L113.655 87.3006L115.592 85.0329L118.082 88.0498H110.334L112.271 85.7872Z" fill="white"/>
<path fill-rule="evenodd" clip-rule="evenodd" d="M88.6009 105C88.6009 103.07 90.1653 101.506 92.0951 101.506H169.816C171.746 101.506 173.311 103.07 173.311 105V135.578C173.311 137.507 171.746 139.072 169.816 139.072H92.095C90.1652 139.072 88.6008 137.507 88.6008 135.578L88.6009 105Z" fill="white"/>
<path d="M162.971 98.3115H87.6437C86.1159 98.3115 84.8774 99.55 84.8774 101.078V109.994C84.8774 111.522 86.1159 112.76 87.6437 112.76H162.971C164.498 112.76 165.737 111.522 165.737 109.994V101.078C165.737 99.55 164.498 98.3115 162.971 98.3115Z" fill="#BADFFF"/>
<path fill-rule="evenodd" clip-rule="evenodd" d="M175.809 102.428H178.352C178.86 102.428 179.166 102.797 179.166 103.167V105.385C179.166 105.847 178.759 106.125 178.352 106.125H175.809C175.301 106.125 174.995 105.755 174.995 105.385V103.167C174.995 102.797 175.301 102.428 175.809 102.428Z" fill="#A3D5FF"/>
<path fill-rule="evenodd" clip-rule="evenodd" d="M175.809 107.141H178.352C178.86 107.141 179.166 107.51 179.166 107.88V110.098C179.166 110.56 178.759 110.837 178.352 110.837H175.809C175.301 110.837 174.995 110.468 174.995 110.098V107.88C174.995 107.51 175.301 107.141 175.809 107.141Z" fill="#FFE74C"/>
<path fill-rule="evenodd" clip-rule="evenodd" d="M175.809 111.764H178.352C178.86 111.764 179.165 112.133 179.165 112.503V114.721C179.165 115.183 178.759 115.461 178.352 115.461H175.809C175.3 115.461 174.995 115.091 174.995 114.721V112.503C174.995 112.133 175.3 111.764 175.809 111.764Z" fill="white"/>
<path d="M118.264 116.845H93.5978C92.7134 116.845 91.9963 117.562 91.9963 118.446V134.559C91.9963 135.444 92.7134 136.161 93.5978 136.161H118.264C119.149 136.161 119.866 135.444 119.866 134.559V118.446C119.866 117.562 119.149 116.845 118.264 116.845Z" fill="#E3F2FD"/>
<path fill-rule="evenodd" clip-rule="evenodd" d="M117.484 124.515C115.495 123.201 112.957 123.043 110.821 124.1L105.444 126.761C103.848 127.551 101.958 127.467 100.439 126.538C98.7043 125.477 96.5097 125.528 94.8262 126.668L92.6997 128.108C92.2598 128.406 91.9963 128.903 91.9963 129.434V134.562C91.9963 135.446 92.7134 136.163 93.5978 136.163H118.264C119.149 136.163 119.866 135.446 119.866 134.562V126.951C119.866 126.413 119.596 125.911 119.147 125.615L117.484 124.515Z" fill="#03BB41"/>
<path fill-rule="evenodd" clip-rule="evenodd" d="M103.393 124.199C104.836 124.199 106.006 123.136 106.006 121.825C106.006 120.514 104.836 119.451 103.393 119.451C101.95 119.451 100.78 120.514 100.78 121.825C100.78 123.136 101.95 124.199 103.393 124.199Z" fill="white"/>
<path d="M168.604 117.123H124.728C124.064 117.123 123.526 117.661 123.526 118.325C123.526 118.988 124.064 119.526 124.728 119.526H168.604C169.268 119.526 169.806 118.988 169.806 118.325C169.806 117.661 169.268 117.123 168.604 117.123Z" fill="#C7CDDD"/>
<path d="M134.641 102.113H90.7649C90.1014 102.113 89.5635 102.651 89.5635 103.315C89.5635 103.978 90.1014 104.516 90.7649 104.516H134.641C135.305 104.516 135.843 103.978 135.843 103.315C135.843 102.651 135.305 102.113 134.641 102.113Z" fill="#279AF1"/>
<path d="M154.976 106.829H90.7802C90.1082 106.829 89.5635 107.374 89.5635 108.046C89.5635 108.718 90.1082 109.263 90.7802 109.263H154.976C155.648 109.263 156.193 108.718 156.193 108.046C156.193 107.374 155.648 106.829 154.976 106.829Z" fill="white"/>
<path d="M168.604 121.375H124.728C124.064 121.375 123.526 121.913 123.526 122.576C123.526 123.24 124.064 123.778 124.728 123.778H168.604C169.268 123.778 169.806 123.24 169.806 122.576C169.806 121.913 169.268 121.375 168.604 121.375Z" fill="#E3E6EE"/>
<path d="M168.604 125.348H124.728C124.064 125.348 123.526 125.886 123.526 126.549C123.526 127.213 124.064 127.751 124.728 127.751H168.604C169.268 127.751 169.806 127.213 169.806 126.549C169.806 125.886 169.268 125.348 168.604 125.348Z" fill="#E3E6EE"/>
<path d="M156.399 129.51H124.728C124.064 129.51 123.526 130.048 123.526 130.711C123.526 131.375 124.064 131.913 124.728 131.913H156.399C157.062 131.913 157.6 131.375 157.6 130.711C157.6 130.048 157.062 129.51 156.399 129.51Z" fill="#E3E6EE"/>
</svg>
