<svg width="79" height="126" viewBox="0 0 79 126" fill="none" xmlns="http://www.w3.org/2000/svg">
<rect width="79" height="125.825" rx="2.61589" fill="white"/>
<rect x="2.87744" y="5.49219" width="73.245" height="58.4505" rx="2.61589" fill="#7E7E7E"/>
<rect x="12.5562" y="104.635" width="53.8874" height="10.4636" rx="2.61589" fill="#4C4053"/>
<path d="M28.1656 108.572L27.1055 111.727H26.3621L27.7518 108.007H28.2269L28.1656 108.572ZM29.0521 111.727L27.9868 108.572L27.9229 108.007H28.4006L29.798 111.727H29.0521ZM29.0035 110.345V110.899H27.0084V110.345H29.0035ZM31.788 111.139V107.803H32.4675V111.727H31.8544L31.788 111.139ZM30.0126 110.378V110.324C30.0126 110.113 30.0364 109.921 30.0841 109.749C30.1335 109.576 30.205 109.427 30.2987 109.302C30.3924 109.178 30.5056 109.082 30.6385 109.014C30.773 108.945 30.9254 108.911 31.0957 108.911C31.2609 108.911 31.4048 108.945 31.5275 109.011C31.6518 109.077 31.7574 109.172 31.8442 109.295C31.9328 109.417 32.0035 109.563 32.0562 109.731C32.109 109.898 32.1474 110.082 32.1712 110.283V110.429C32.1474 110.625 32.109 110.804 32.0562 110.968C32.0035 111.131 31.9328 111.274 31.8442 111.397C31.7574 111.518 31.6518 111.612 31.5275 111.678C31.4031 111.744 31.2575 111.778 31.0906 111.778C30.922 111.778 30.7704 111.743 30.6359 111.673C30.5031 111.603 30.3898 111.505 30.2961 111.379C30.2042 111.253 30.1335 111.105 30.0841 110.935C30.0364 110.764 30.0126 110.579 30.0126 110.378ZM30.6895 110.324V110.378C30.6895 110.497 30.6998 110.609 30.7202 110.712C30.7406 110.816 30.7738 110.908 30.8198 110.988C30.8658 111.067 30.9246 111.128 30.9961 111.172C31.0693 111.216 31.1579 111.239 31.2618 111.239C31.3946 111.239 31.5036 111.21 31.5888 111.152C31.6756 111.092 31.7429 111.011 31.7906 110.909C31.8383 110.805 31.8689 110.689 31.8825 110.559V110.158C31.8757 110.056 31.8578 109.961 31.8289 109.874C31.8016 109.788 31.7625 109.713 31.7114 109.65C31.662 109.587 31.6007 109.537 31.5275 109.502C31.4542 109.466 31.3674 109.448 31.2669 109.448C31.163 109.448 31.0744 109.471 31.0012 109.517C30.928 109.561 30.8684 109.623 30.8224 109.703C30.7764 109.783 30.7423 109.876 30.7202 109.982C30.6998 110.087 30.6895 110.201 30.6895 110.324ZM34.736 111.139V107.803H35.4155V111.727H34.8024L34.736 111.139ZM32.9606 110.378V110.324C32.9606 110.113 32.9844 109.921 33.0321 109.749C33.0815 109.576 33.153 109.427 33.2467 109.302C33.3404 109.178 33.4536 109.082 33.5864 109.014C33.721 108.945 33.8734 108.911 34.0437 108.911C34.2089 108.911 34.3528 108.945 34.4754 109.011C34.5998 109.077 34.7054 109.172 34.7922 109.295C34.8808 109.417 34.9514 109.563 35.0042 109.731C35.057 109.898 35.0954 110.082 35.1192 110.283V110.429C35.0954 110.625 35.057 110.804 35.0042 110.968C34.9514 111.131 34.8808 111.274 34.7922 111.397C34.7054 111.518 34.5998 111.612 34.4754 111.678C34.3511 111.744 34.2055 111.778 34.0386 111.778C33.87 111.778 33.7184 111.743 33.5839 111.673C33.4511 111.603 33.3378 111.505 33.2441 111.379C33.1522 111.253 33.0815 111.105 33.0321 110.935C32.9844 110.764 32.9606 110.579 32.9606 110.378ZM33.6375 110.324V110.378C33.6375 110.497 33.6478 110.609 33.6682 110.712C33.6886 110.816 33.7218 110.908 33.7678 110.988C33.8138 111.067 33.8726 111.128 33.9441 111.172C34.0173 111.216 34.1059 111.239 34.2098 111.239C34.3426 111.239 34.4516 111.21 34.5368 111.152C34.6236 111.092 34.6909 111.011 34.7386 110.909C34.7862 110.805 34.8169 110.689 34.8305 110.559V110.158C34.8237 110.056 34.8058 109.961 34.7769 109.874C34.7496 109.788 34.7105 109.713 34.6594 109.65C34.61 109.587 34.5487 109.537 34.4754 109.502C34.4022 109.466 34.3154 109.448 34.2149 109.448C34.111 109.448 34.0224 109.471 33.9492 109.517C33.876 109.561 33.8164 109.623 33.7704 109.703C33.7244 109.783 33.6903 109.876 33.6682 109.982C33.6478 110.087 33.6375 110.201 33.6375 110.324ZM38.6369 108.963V109.448H37.053V108.963H38.6369ZM37.4771 108.283H38.154V110.93C38.154 111.011 38.1651 111.074 38.1873 111.119C38.2094 111.163 38.2426 111.193 38.2869 111.208C38.3312 111.223 38.384 111.231 38.4453 111.231C38.4895 111.231 38.5304 111.228 38.5679 111.223C38.6054 111.218 38.6369 111.213 38.6624 111.208L38.665 111.714C38.6088 111.733 38.5449 111.748 38.4734 111.76C38.4035 111.772 38.3243 111.778 38.2358 111.778C38.0842 111.778 37.9514 111.752 37.8373 111.701C37.7232 111.648 37.6346 111.564 37.5716 111.448C37.5086 111.331 37.4771 111.176 37.4771 110.983V108.283ZM38.9 110.373V110.319C38.9 110.116 38.9289 109.93 38.9868 109.76C39.0447 109.588 39.129 109.439 39.2397 109.312C39.3504 109.186 39.4858 109.089 39.6459 109.019C39.806 108.947 39.9882 108.911 40.1926 108.911C40.4004 108.911 40.5843 108.947 40.7444 109.019C40.9062 109.089 41.0424 109.186 41.1531 109.312C41.2638 109.439 41.3481 109.588 41.406 109.76C41.4639 109.93 41.4929 110.116 41.4929 110.319V110.373C41.4929 110.574 41.4639 110.76 41.406 110.932C41.3481 111.102 41.2638 111.251 41.1531 111.379C41.0424 111.505 40.907 111.603 40.7469 111.673C40.5869 111.743 40.4038 111.778 40.1977 111.778C39.9933 111.778 39.8103 111.743 39.6485 111.673C39.4867 111.603 39.3504 111.505 39.2397 111.379C39.129 111.251 39.0447 111.102 38.9868 110.932C38.9289 110.76 38.9 110.574 38.9 110.373ZM39.5744 110.319V110.373C39.5744 110.494 39.5863 110.607 39.6102 110.712C39.634 110.818 39.6706 110.911 39.72 110.991C39.7694 111.071 39.8333 111.134 39.9116 111.18C39.9916 111.224 40.087 111.246 40.1977 111.246C40.3067 111.246 40.4004 111.224 40.4787 111.18C40.5571 111.134 40.6209 111.071 40.6703 110.991C40.7214 110.911 40.7589 110.818 40.7827 110.712C40.8066 110.607 40.8185 110.494 40.8185 110.373V110.319C40.8185 110.2 40.8066 110.088 40.7827 109.984C40.7589 109.879 40.7214 109.786 40.6703 109.706C40.6209 109.624 40.5562 109.56 40.4762 109.514C40.3978 109.467 40.3033 109.443 40.1926 109.443C40.0836 109.443 39.9899 109.467 39.9116 109.514C39.8333 109.56 39.7694 109.624 39.72 109.706C39.6706 109.786 39.634 109.879 39.6102 109.984C39.5863 110.088 39.5744 110.2 39.5744 110.319ZM45.5138 110.503H46.2163C46.1976 110.752 46.1286 110.972 46.0094 111.165C45.8902 111.355 45.7241 111.505 45.5112 111.614C45.2984 111.723 45.0403 111.778 44.7372 111.778C44.5039 111.778 44.2936 111.737 44.1062 111.655C43.9206 111.572 43.7614 111.453 43.6285 111.3C43.4974 111.145 43.3969 110.959 43.3271 110.743C43.2572 110.525 43.2223 110.281 43.2223 110.01V109.726C43.2223 109.456 43.2581 109.211 43.3296 108.993C43.4012 108.775 43.5033 108.59 43.6362 108.436C43.7707 108.281 43.9317 108.162 44.119 108.079C44.308 107.995 44.5192 107.953 44.7525 107.953C45.0557 107.953 45.312 108.01 45.5215 108.122C45.7309 108.233 45.8936 108.385 46.0094 108.579C46.1252 108.773 46.195 108.997 46.2189 109.249H45.5164C45.5027 109.092 45.4687 108.959 45.4142 108.85C45.3614 108.741 45.2813 108.659 45.174 108.602C45.0684 108.544 44.9279 108.515 44.7525 108.515C44.6163 108.515 44.4962 108.541 44.3923 108.592C44.2902 108.643 44.205 108.72 44.1369 108.822C44.0688 108.922 44.0177 109.049 43.9836 109.2C43.9495 109.35 43.9325 109.524 43.9325 109.721V110.01C43.9325 110.199 43.9478 110.368 43.9785 110.518C44.0091 110.668 44.0568 110.795 44.1216 110.899C44.1863 111.003 44.2697 111.082 44.3719 111.136C44.4741 111.191 44.5959 111.218 44.7372 111.218C44.9092 111.218 45.0489 111.191 45.1562 111.136C45.2652 111.082 45.3478 111.002 45.404 110.896C45.4619 110.791 45.4985 110.66 45.5138 110.503ZM48.2319 111.139V109.864C48.2319 109.771 48.2157 109.69 48.1833 109.622C48.151 109.553 48.1016 109.501 48.0352 109.463C47.9688 109.426 47.8845 109.407 47.7823 109.407C47.692 109.407 47.6128 109.422 47.5447 109.453C47.4783 109.484 47.4272 109.527 47.3914 109.583C47.3557 109.638 47.3378 109.701 47.3378 109.772H46.6608C46.6608 109.658 46.6881 109.55 46.7426 109.448C46.7971 109.344 46.8745 109.252 46.975 109.172C47.0772 109.09 47.199 109.026 47.3403 108.98C47.4834 108.934 47.6435 108.911 47.8206 108.911C48.0301 108.911 48.2165 108.947 48.38 109.019C48.5452 109.089 48.6747 109.194 48.7683 109.335C48.8637 109.477 48.9114 109.655 48.9114 109.869V111.075C48.9114 111.213 48.9199 111.331 48.9369 111.43C48.9557 111.527 48.9829 111.612 49.0187 111.683V111.727H48.3315C48.2991 111.657 48.2745 111.568 48.2574 111.461C48.2404 111.352 48.2319 111.245 48.2319 111.139ZM48.3264 110.043L48.3315 110.444H47.9049C47.7993 110.444 47.7065 110.455 47.6264 110.477C47.5464 110.498 47.4808 110.528 47.4297 110.569C47.3786 110.609 47.3403 110.656 47.3148 110.712C47.2892 110.767 47.2765 110.829 47.2765 110.899C47.2765 110.967 47.2918 111.028 47.3224 111.083C47.3548 111.137 47.4008 111.181 47.4604 111.213C47.5217 111.244 47.5932 111.259 47.675 111.259C47.7942 111.259 47.8981 111.235 47.9866 111.188C48.0752 111.138 48.1442 111.079 48.1936 111.009C48.2429 110.939 48.2693 110.872 48.2727 110.809L48.4669 111.101C48.4431 111.171 48.4073 111.245 48.3596 111.323C48.3119 111.401 48.2506 111.475 48.1757 111.543C48.1007 111.611 48.0105 111.667 47.9049 111.711C47.7993 111.756 47.6767 111.778 47.537 111.778C47.3582 111.778 47.1981 111.742 47.0568 111.67C46.9154 111.599 46.8039 111.501 46.7221 111.377C46.6404 111.252 46.5995 111.111 46.5995 110.953C46.5995 110.806 46.6267 110.677 46.6812 110.564C46.7357 110.452 46.8166 110.357 46.9239 110.281C47.0312 110.202 47.1641 110.144 47.3224 110.104C47.4825 110.064 47.6656 110.043 47.8717 110.043H48.3264ZM50.1938 109.527V111.727H49.5194V108.963H50.158L50.1938 109.527ZM51.0343 108.945L51.024 109.573C50.9866 109.566 50.944 109.561 50.8963 109.558C50.8503 109.554 50.8069 109.553 50.766 109.553C50.6621 109.553 50.571 109.567 50.4927 109.596C50.4143 109.623 50.3488 109.663 50.296 109.716C50.2449 109.769 50.2057 109.834 50.1785 109.91C50.1512 109.985 50.1359 110.07 50.1325 110.166L49.9869 110.148C49.9869 109.972 50.0048 109.81 50.0405 109.66C50.0763 109.51 50.1282 109.379 50.1964 109.266C50.2645 109.154 50.3496 109.067 50.4518 109.006C50.5557 108.943 50.6749 108.911 50.8095 108.911C50.8469 108.911 50.8869 108.915 50.9295 108.922C50.9738 108.927 51.0087 108.934 51.0343 108.945ZM52.8403 108.963V109.448H51.2565V108.963H52.8403ZM51.6806 108.283H52.3575V110.93C52.3575 111.011 52.3686 111.074 52.3907 111.119C52.4129 111.163 52.4461 111.193 52.4904 111.208C52.5346 111.223 52.5874 111.231 52.6488 111.231C52.693 111.231 52.7339 111.228 52.7714 111.223C52.8088 111.218 52.8403 111.213 52.8659 111.208L52.8684 111.714C52.8122 111.733 52.7484 111.748 52.6769 111.76C52.607 111.772 52.5278 111.778 52.4393 111.778C52.2877 111.778 52.1549 111.752 52.0408 111.701C51.9267 111.648 51.8381 111.564 51.7751 111.448C51.7121 111.331 51.6806 111.176 51.6806 110.983V108.283Z" fill="white"/>
<path d="M31.4948 97.0761V97.3867H29.5472V97.1149L30.522 96.0297C30.6419 95.8962 30.7345 95.7831 30.7999 95.6905C30.8667 95.5965 30.913 95.5127 30.9389 95.4391C30.9662 95.3642 30.9798 95.2879 30.9798 95.2102C30.9798 95.1121 30.9594 95.0236 30.9185 94.9445C30.879 94.8642 30.8204 94.8001 30.7427 94.7524C30.6651 94.7047 30.5711 94.6809 30.4607 94.6809C30.3285 94.6809 30.2182 94.7068 30.1296 94.7586C30.0424 94.809 29.977 94.8798 29.9334 94.9711C29.8898 95.0624 29.868 95.1673 29.868 95.2858H29.49C29.49 95.1182 29.5267 94.965 29.6003 94.826C29.6739 94.687 29.7829 94.5767 29.9273 94.4949C30.0717 94.4118 30.2495 94.3703 30.4607 94.3703C30.6487 94.3703 30.8095 94.4036 30.943 94.4704C31.0765 94.5358 31.1787 94.6284 31.2496 94.7483C31.3218 94.8669 31.3579 95.0058 31.3579 95.1653C31.3579 95.2524 31.3429 95.341 31.3129 95.4309C31.2843 95.5195 31.2441 95.608 31.1923 95.6966C31.1419 95.7852 31.0827 95.8724 31.0145 95.9582C30.9478 96.044 30.8762 96.1285 30.7999 96.2116L30.0029 97.0761H31.4948ZM34.1373 94.6748L33.1522 97.3867H32.7496L33.8838 94.4111H34.1434L34.1373 94.6748ZM34.9629 97.3867L33.9758 94.6748L33.9697 94.4111H34.2292L35.3675 97.3867H34.9629ZM34.9118 96.2852V96.6081H33.2401V96.2852H34.9118ZM36.279 97.0454L36.8839 95.1755H37.2702L36.4752 97.3867H36.2218L36.279 97.0454ZM35.7742 95.1755L36.3976 97.0556L36.4405 97.3867H36.1871L35.3859 95.1755H35.7742ZM38.9051 97.0086V95.8703C38.9051 95.7831 38.8874 95.7075 38.852 95.6435C38.8179 95.5781 38.7662 95.5277 38.6967 95.4922C38.6272 95.4568 38.5414 95.4391 38.4392 95.4391C38.3438 95.4391 38.26 95.4555 38.1878 95.4882C38.117 95.5209 38.0611 95.5638 38.0202 95.6169C37.9807 95.67 37.961 95.7273 37.961 95.7886H37.5829C37.5829 95.7095 37.6033 95.6312 37.6442 95.5535C37.6851 95.4759 37.7436 95.4057 37.8199 95.3431C37.8976 95.279 37.9903 95.2286 38.0979 95.1918C38.2069 95.1537 38.3281 95.1346 38.4617 95.1346C38.6224 95.1346 38.7641 95.1618 38.8867 95.2163C39.0107 95.2708 39.1075 95.3533 39.1769 95.4636C39.2478 95.5726 39.2832 95.7095 39.2832 95.8744V96.9044C39.2832 96.978 39.2893 97.0563 39.3016 97.1394C39.3152 97.2225 39.335 97.2941 39.3609 97.354V97.3867H38.9664C38.9474 97.3431 38.9324 97.2852 38.9215 97.213C38.9106 97.1394 38.9051 97.0713 38.9051 97.0086ZM38.9705 96.0461L38.9746 96.3117H38.5925C38.4848 96.3117 38.3888 96.3206 38.3043 96.3383C38.2198 96.3547 38.149 96.3799 38.0918 96.4139C38.0345 96.448 37.9909 96.4909 37.961 96.5427C37.931 96.5931 37.916 96.6524 37.916 96.7205C37.916 96.79 37.9317 96.8533 37.963 96.9105C37.9943 96.9678 38.0413 97.0134 38.104 97.0475C38.168 97.0802 38.2464 97.0965 38.339 97.0965C38.4548 97.0965 38.557 97.072 38.6456 97.0229C38.7341 96.9739 38.8043 96.914 38.8561 96.8431C38.9092 96.7723 38.9378 96.7035 38.9419 96.6367L39.1034 96.8186C39.0938 96.8758 39.0679 96.9392 39.0257 97.0086C38.9835 97.0781 38.9269 97.1449 38.8561 97.2089C38.7866 97.2716 38.7035 97.324 38.6068 97.3663C38.5114 97.4072 38.4038 97.4276 38.2839 97.4276C38.134 97.4276 38.0025 97.3983 37.8894 97.3397C37.7777 97.2811 37.6905 97.2028 37.6278 97.1047C37.5665 97.0052 37.5359 96.8942 37.5359 96.7716C37.5359 96.653 37.559 96.5488 37.6054 96.4589C37.6517 96.3676 37.7184 96.292 37.8056 96.232C37.8928 96.1707 37.9977 96.1244 38.1204 96.0931C38.243 96.0617 38.3799 96.0461 38.5311 96.0461H38.9705ZM40.2887 95.1755V97.3867H39.9086V95.1755H40.2887ZM39.88 94.5889C39.88 94.5276 39.8984 94.4759 39.9351 94.4336C39.9733 94.3914 40.0291 94.3703 40.1027 94.3703C40.1749 94.3703 40.2301 94.3914 40.2683 94.4336C40.3078 94.4759 40.3275 94.5276 40.3275 94.5889C40.3275 94.6475 40.3078 94.6979 40.2683 94.7402C40.2301 94.781 40.1749 94.8015 40.1027 94.8015C40.0291 94.8015 39.9733 94.781 39.9351 94.7402C39.8984 94.6979 39.88 94.6475 39.88 94.5889ZM41.3064 94.2476V97.3867H40.9263V94.2476H41.3064ZM43.2173 97.0086V95.8703C43.2173 95.7831 43.1996 95.7075 43.1641 95.6435C43.1301 95.5781 43.0783 95.5277 43.0088 95.4922C42.9393 95.4568 42.8535 95.4391 42.7513 95.4391C42.6559 95.4391 42.5722 95.4555 42.4999 95.4882C42.4291 95.5209 42.3732 95.5638 42.3324 95.6169C42.2929 95.67 42.2731 95.7273 42.2731 95.7886H41.895C41.895 95.7095 41.9155 95.6312 41.9563 95.5535C41.9972 95.4759 42.0558 95.4057 42.1321 95.3431C42.2097 95.279 42.3024 95.2286 42.41 95.1918C42.519 95.1537 42.6403 95.1346 42.7738 95.1346C42.9346 95.1346 43.0763 95.1618 43.1989 95.2163C43.3229 95.2708 43.4196 95.3533 43.4891 95.4636C43.5599 95.5726 43.5953 95.7095 43.5953 95.8744V96.9044C43.5953 96.978 43.6015 97.0563 43.6137 97.1394C43.6274 97.2225 43.6471 97.2941 43.673 97.354V97.3867H43.2786C43.2595 97.3431 43.2445 97.2852 43.2336 97.213C43.2227 97.1394 43.2173 97.0713 43.2173 97.0086ZM43.2827 96.0461L43.2868 96.3117H42.9046C42.797 96.3117 42.7009 96.3206 42.6164 96.3383C42.532 96.3547 42.4611 96.3799 42.4039 96.4139C42.3467 96.448 42.3031 96.4909 42.2731 96.5427C42.2431 96.5931 42.2281 96.6524 42.2281 96.7205C42.2281 96.79 42.2438 96.8533 42.2751 96.9105C42.3065 96.9678 42.3535 97.0134 42.4162 97.0475C42.4802 97.0802 42.5585 97.0965 42.6512 97.0965C42.767 97.0965 42.8692 97.072 42.9577 97.0229C43.0463 96.9739 43.1164 96.914 43.1682 96.8431C43.2214 96.7723 43.25 96.7035 43.2541 96.6367L43.4155 96.8186C43.406 96.8758 43.3801 96.9392 43.3378 97.0086C43.2956 97.0781 43.2391 97.1449 43.1682 97.2089C43.0987 97.2716 43.0156 97.324 42.9189 97.3663C42.8235 97.4072 42.7159 97.4276 42.596 97.4276C42.4461 97.4276 42.3146 97.3983 42.2016 97.3397C42.0898 97.2811 42.0026 97.2028 41.94 97.1047C41.8787 97.0052 41.848 96.8942 41.848 96.7716C41.848 96.653 41.8712 96.5488 41.9175 96.4589C41.9638 96.3676 42.0306 96.292 42.1178 96.232C42.205 96.1707 42.3099 96.1244 42.4325 96.0931C42.5551 96.0617 42.692 96.0461 42.8433 96.0461H43.2827ZM44.188 94.2476H44.5681V96.9575L44.5354 97.3867H44.188V94.2476ZM46.0621 96.2627V96.3056C46.0621 96.4664 46.043 96.6156 46.0048 96.7532C45.9667 96.8894 45.9108 97.008 45.8373 97.1088C45.7637 97.2096 45.6738 97.2879 45.5675 97.3438C45.4612 97.3997 45.3393 97.4276 45.2017 97.4276C45.0613 97.4276 44.938 97.4037 44.8318 97.3561C44.7269 97.307 44.6383 97.2368 44.5661 97.1456C44.4939 97.0543 44.436 96.9439 44.3924 96.8145C44.3501 96.6851 44.3209 96.5393 44.3045 96.3771V96.1891C44.3209 96.0256 44.3501 95.8792 44.3924 95.7497C44.436 95.6203 44.4939 95.51 44.5661 95.4187C44.6383 95.326 44.7269 95.2559 44.8318 95.2082C44.9367 95.1591 45.0586 95.1346 45.1976 95.1346C45.3366 95.1346 45.4599 95.1618 45.5675 95.2163C45.6751 95.2695 45.765 95.3458 45.8373 95.4452C45.9108 95.5447 45.9667 95.6639 46.0048 95.8029C46.043 95.9405 46.0621 96.0938 46.0621 96.2627ZM45.6819 96.3056V96.2627C45.6819 96.1523 45.6717 96.0488 45.6513 95.9521C45.6308 95.854 45.5981 95.7681 45.5532 95.6946C45.5082 95.6196 45.449 95.561 45.3754 95.5188C45.3018 95.4752 45.2112 95.4534 45.1036 95.4534C45.0082 95.4534 44.9251 95.4698 44.8542 95.5025C44.7848 95.5352 44.7255 95.5794 44.6764 95.6353C44.6274 95.6898 44.5872 95.7525 44.5559 95.8233C44.5259 95.8928 44.5034 95.965 44.4884 96.0399V96.5325C44.5102 96.6278 44.5457 96.7198 44.5947 96.8084C44.6451 96.8956 44.7119 96.9671 44.795 97.0229C44.8795 97.0788 44.9837 97.1067 45.1077 97.1067C45.2098 97.1067 45.297 97.0863 45.3693 97.0454C45.4428 97.0032 45.5021 96.9453 45.5471 96.8717C45.5934 96.7981 45.6274 96.713 45.6492 96.6163C45.671 96.5195 45.6819 96.416 45.6819 96.3056ZM46.951 94.2476V97.3867H46.5709V94.2476H46.951ZM48.4756 97.4276C48.3217 97.4276 48.182 97.4017 48.0567 97.3499C47.9327 97.2968 47.8257 97.2225 47.7358 97.1272C47.6473 97.0318 47.5791 96.9187 47.5315 96.7879C47.4838 96.6571 47.4599 96.5141 47.4599 96.3588V96.2729C47.4599 96.0931 47.4865 95.933 47.5396 95.7927C47.5928 95.651 47.665 95.5311 47.7563 95.433C47.8475 95.3349 47.9511 95.2606 48.0669 95.2102C48.1827 95.1598 48.3026 95.1346 48.4266 95.1346C48.5846 95.1346 48.7209 95.1618 48.8353 95.2163C48.9511 95.2708 49.0458 95.3471 49.1194 95.4452C49.193 95.542 49.2474 95.6564 49.2829 95.7886C49.3183 95.9194 49.336 96.0624 49.336 96.2177V96.3874H47.6847V96.0788H48.9579V96.0502C48.9525 95.9521 48.932 95.8567 48.8966 95.764C48.8626 95.6714 48.8081 95.5951 48.7331 95.5352C48.6582 95.4752 48.556 95.4452 48.4266 95.4452C48.3407 95.4452 48.2617 95.4636 48.1895 95.5004C48.1173 95.5358 48.0553 95.589 48.0035 95.6598C47.9518 95.7307 47.9116 95.8172 47.883 95.9194C47.8544 96.0215 47.84 96.1394 47.84 96.2729V96.3588C47.84 96.4637 47.8544 96.5624 47.883 96.6551C47.9129 96.7464 47.9559 96.8268 48.0117 96.8962C48.0689 96.9657 48.1377 97.0202 48.2181 97.0597C48.2999 97.0992 48.3925 97.119 48.4961 97.119C48.6296 97.119 48.7427 97.0917 48.8353 97.0373C48.928 96.9828 49.009 96.9099 49.0785 96.8186L49.3074 97.0005C49.2597 97.0727 49.1991 97.1415 49.1255 97.2069C49.0519 97.2723 48.9613 97.3254 48.8537 97.3663C48.7474 97.4072 48.6214 97.4276 48.4756 97.4276Z" fill="#222222"/>
<path d="M22.9207 71.9406V73.7094C22.8512 73.7932 22.7439 73.8841 22.5988 73.9822C22.4537 74.0783 22.2667 74.161 22.0378 74.2305C21.809 74.3 21.532 74.3347 21.2071 74.3347C20.9189 74.3347 20.6563 74.2877 20.4193 74.1937C20.1822 74.0977 19.9778 73.9577 19.8062 73.7738C19.6365 73.5898 19.5057 73.365 19.4138 73.0994C19.3218 72.8316 19.2758 72.5261 19.2758 72.1828V71.9038C19.2758 71.5605 19.3198 71.2549 19.4076 70.9872C19.4976 70.7195 19.6253 70.4937 19.7908 70.3097C19.9564 70.1258 20.1536 69.9858 20.3825 69.8898C20.6114 69.7937 20.8658 69.7457 21.1458 69.7457C21.5341 69.7457 21.8529 69.809 22.1022 69.9358C22.3515 70.0604 22.5416 70.2341 22.6724 70.4569C22.8052 70.6776 22.887 70.931 22.9176 71.2171H22.0256C22.0031 71.0659 21.9602 70.9341 21.8968 70.8217C21.8335 70.7093 21.7425 70.6214 21.624 70.5581C21.5075 70.4947 21.3563 70.463 21.1703 70.463C21.017 70.463 20.8801 70.4947 20.7595 70.5581C20.641 70.6194 20.5409 70.7103 20.4591 70.8309C20.3774 70.9515 20.315 71.1006 20.2721 71.2784C20.2292 71.4562 20.2077 71.6627 20.2077 71.8977V72.1828C20.2077 72.4157 20.2302 72.6222 20.2752 72.802C20.3201 72.9798 20.3866 73.13 20.4744 73.2526C20.5644 73.3732 20.6747 73.4641 20.8055 73.5255C20.9363 73.5868 21.0886 73.6174 21.2623 73.6174C21.4074 73.6174 21.528 73.6052 21.624 73.5806C21.7221 73.5561 21.8008 73.5265 21.86 73.4917C21.9214 73.4549 21.9684 73.4202 22.0011 73.3875V72.5966H21.1611V71.9406H22.9207ZM26.6392 71.6279V72.3452H24.3094V71.6279H26.6392ZM24.5822 69.8101V74.2734H23.6626V69.8101H24.5822ZM27.2952 69.8101V74.2734H26.3786V69.8101H27.2952ZM30.434 69.7406C30.614 69.7574 30.7919 69.7929 30.9677 69.8473C31.1435 69.8976 31.313 69.9624 31.4762 70.042L31.1686 70.8142C31.0472 70.7556 30.9237 70.7033 30.7982 70.6572C30.6768 70.607 30.5554 70.5714 30.434 70.5505V73.5326C30.568 73.5159 30.7061 73.4887 30.8484 73.451C30.9949 73.4091 31.1476 73.361 31.3067 73.3066V74.1039C31.1602 74.1625 31.0158 74.2107 30.8735 74.2483C30.7354 74.2818 30.5889 74.3048 30.434 74.3174V74.7757H29.8878V74.3299C29.4693 74.3006 29.124 74.1897 28.8519 73.9972C28.5841 73.8005 28.3853 73.5347 28.2555 73.1999C28.1258 72.865 28.0609 72.4779 28.0609 72.0384C28.0609 71.6157 28.13 71.2411 28.2681 70.9146C28.4104 70.584 28.6176 70.3161 28.8896 70.111C29.1617 69.9059 29.4944 69.7825 29.8878 69.7406V69.502H30.434V69.7406ZM29.8878 70.5505C29.7037 70.5924 29.5488 70.6802 29.4233 70.8142C29.2977 70.9481 29.2014 71.1197 29.1345 71.329C29.0717 71.5341 29.0403 71.7726 29.0403 72.0447C29.0403 72.3209 29.0696 72.5637 29.1282 72.773C29.1868 72.978 29.2789 73.1434 29.4044 73.2689C29.53 73.3945 29.6911 73.4782 29.8878 73.5201V70.5505ZM35.7161 69.8009V74.2734H34.8332V70.8186L33.7726 71.1558V70.46L35.6211 69.8009H35.7161ZM38.0428 73.5285L38.0398 74.1202C38.0398 74.347 37.9825 74.5759 37.8681 74.8068C37.7557 75.0378 37.6126 75.2268 37.4389 75.374L36.9791 75.1379C37.0302 75.0439 37.0803 74.9499 37.1293 74.8559C37.1784 74.7619 37.2192 74.6587 37.2519 74.5463C37.2846 74.4339 37.301 74.3061 37.301 74.1631V73.5285H38.0428ZM41.7184 71.6494V72.4219C41.7184 72.757 41.6826 73.0462 41.6111 73.2894C41.5395 73.5306 41.4363 73.7288 41.3015 73.8841C41.1686 74.0374 41.0102 74.1508 40.8263 74.2244C40.6424 74.298 40.438 74.3347 40.2132 74.3347C40.0334 74.3347 39.8658 74.3123 39.7105 74.2673C39.5551 74.2203 39.4151 74.1478 39.2905 74.0497C39.1679 73.9516 39.0616 73.8279 38.9717 73.6787C38.8838 73.5275 38.8164 73.3477 38.7694 73.1392C38.7223 72.9307 38.6988 72.6916 38.6988 72.4219V71.6494C38.6988 71.3142 38.7346 71.0271 38.8061 70.788C38.8797 70.5468 38.9829 70.3496 39.1158 70.1963C39.2506 70.043 39.41 69.9306 39.594 69.8591C39.7779 69.7855 39.9823 69.7488 40.2071 69.7488C40.3869 69.7488 40.5535 69.7723 40.7067 69.8193C40.8621 69.8642 41.0021 69.9347 41.1267 70.0308C41.2514 70.1268 41.3577 70.2505 41.4455 70.4017C41.5334 70.5509 41.6009 70.7297 41.6479 70.9382C41.6949 71.1446 41.7184 71.3816 41.7184 71.6494ZM40.8324 72.5384V71.5298C40.8324 71.3684 40.8232 71.2274 40.8048 71.1068C40.7885 70.9862 40.7629 70.884 40.7282 70.8002C40.6935 70.7144 40.6505 70.6449 40.5995 70.5918C40.5484 70.5386 40.4901 70.4998 40.4247 70.4753C40.3593 70.4508 40.2868 70.4385 40.2071 70.4385C40.1069 70.4385 40.018 70.4579 39.9404 70.4967C39.8648 70.5356 39.8004 70.5979 39.7472 70.6837C39.6941 70.7675 39.6532 70.8799 39.6246 71.0209C39.5981 71.1599 39.5848 71.3295 39.5848 71.5298V72.5384C39.5848 72.6998 39.5929 72.8418 39.6093 72.9645C39.6277 73.0871 39.6543 73.1923 39.689 73.2802C39.7258 73.366 39.7687 73.4366 39.8178 73.4917C39.8688 73.5449 39.9271 73.5837 39.9925 73.6082C40.0599 73.6327 40.1335 73.645 40.2132 73.645C40.3113 73.645 40.3982 73.6256 40.4738 73.5868C40.5514 73.5459 40.6168 73.4825 40.67 73.3967C40.7251 73.3088 40.766 73.1944 40.7926 73.0534C40.8191 72.9124 40.8324 72.7407 40.8324 72.5384ZM42.9446 73.6021H43.0028C43.248 73.6021 43.4585 73.5725 43.6343 73.5132C43.8121 73.4519 43.9582 73.364 44.0727 73.2496C44.1871 73.1351 44.2719 72.9951 44.3271 72.8296C44.3823 72.662 44.4099 72.4719 44.4099 72.2594V71.4133C44.4099 71.2519 44.3935 71.1098 44.3608 70.9872C44.3302 70.8646 44.2852 70.7634 44.2259 70.6837C44.1687 70.602 44.1013 70.5407 44.0236 70.4998C43.948 70.4589 43.8642 70.4385 43.7722 70.4385C43.6742 70.4385 43.5873 70.463 43.5117 70.5121C43.4361 70.5591 43.3717 70.6234 43.3186 70.7052C43.2675 70.7869 43.2276 70.8809 43.199 70.9872C43.1724 71.0914 43.1591 71.2008 43.1591 71.3152C43.1591 71.4297 43.1724 71.539 43.199 71.6432C43.2256 71.7454 43.2654 71.8364 43.3186 71.9161C43.3717 71.9937 43.4381 72.0561 43.5178 72.1031C43.5975 72.148 43.6915 72.1705 43.7998 72.1705C43.9041 72.1705 43.9971 72.1511 44.0788 72.1123C44.1626 72.0714 44.2331 72.0183 44.2903 71.9529C44.3496 71.8875 44.3945 71.8149 44.4252 71.7352C44.4579 71.6555 44.4742 71.5748 44.4742 71.493L44.7655 71.6524C44.7655 71.7955 44.7348 71.9365 44.6735 72.0755C44.6122 72.2144 44.5264 72.3412 44.416 72.4556C44.3077 72.568 44.182 72.6579 44.0389 72.7254C43.8959 72.7928 43.7426 72.8265 43.5791 72.8265C43.3707 72.8265 43.1857 72.7887 43.0243 72.7131C42.8628 72.6354 42.7259 72.5292 42.6135 72.3943C42.5031 72.2574 42.4193 72.098 42.3621 71.9161C42.3049 71.7342 42.2763 71.537 42.2763 71.3244C42.2763 71.1078 42.311 70.9045 42.3805 70.7144C42.452 70.5243 42.5532 70.3567 42.684 70.2116C42.8168 70.0665 42.9752 69.9531 43.1591 69.8714C43.3451 69.7876 43.5515 69.7457 43.7784 69.7457C44.0052 69.7457 44.2116 69.7896 44.3976 69.8775C44.5836 69.9654 44.743 70.0901 44.8758 70.2515C45.0087 70.4109 45.1109 70.602 45.1824 70.8247C45.256 71.0475 45.2927 71.2948 45.2927 71.5666V71.8732C45.2927 72.1634 45.2611 72.4331 45.1977 72.6824C45.1364 72.9318 45.0434 73.1576 44.9187 73.3599C44.7961 73.5602 44.6429 73.7319 44.4589 73.8749C44.277 74.018 44.0655 74.1273 43.8244 74.2029C43.5832 74.2785 43.3134 74.3164 43.0151 74.3164H42.9446V73.6021ZM46.8286 71.6586H47.3006C47.4519 71.6586 47.5765 71.633 47.6746 71.5819C47.7727 71.5288 47.8453 71.4552 47.8923 71.3612C47.9413 71.2652 47.9659 71.1538 47.9659 71.0271C47.9659 70.9126 47.9434 70.8115 47.8984 70.7236C47.8555 70.6337 47.7891 70.5642 47.6992 70.5151C47.6092 70.464 47.4958 70.4385 47.3589 70.4385C47.2506 70.4385 47.1504 70.46 47.0585 70.5029C46.9665 70.5458 46.8929 70.6061 46.8377 70.6837C46.7826 70.7614 46.755 70.8554 46.755 70.9658H45.8691C45.8691 70.7205 45.9344 70.507 46.0652 70.3251C46.1981 70.1432 46.3759 70.0012 46.5986 69.899C46.8214 69.7968 47.0666 69.7457 47.3344 69.7457C47.6368 69.7457 47.9015 69.7947 48.1283 69.8928C48.3552 69.9889 48.5319 70.1309 48.6587 70.3189C48.7854 70.507 48.8487 70.7399 48.8487 71.0179C48.8487 71.1589 48.816 71.2958 48.7506 71.4287C48.6852 71.5594 48.5912 71.678 48.4686 71.7843C48.348 71.8885 48.2009 71.9723 48.0272 72.0356C47.8535 72.0969 47.6583 72.1276 47.4417 72.1276H46.8286V71.6586ZM46.8286 72.3299V71.8732H47.4417C47.6848 71.8732 47.8984 71.9007 48.0823 71.9559C48.2663 72.0111 48.4206 72.0908 48.5452 72.195C48.6699 72.2972 48.7639 72.4188 48.8273 72.5598C48.8906 72.6988 48.9223 72.8531 48.9223 73.0227C48.9223 73.2312 48.8824 73.4171 48.8027 73.5806C48.723 73.7421 48.6106 73.879 48.4655 73.9914C48.3225 74.1038 48.1549 74.1896 47.9628 74.2489C47.7707 74.3061 47.5612 74.3347 47.3344 74.3347C47.1463 74.3347 46.9614 74.3092 46.7795 74.2581C46.5997 74.205 46.4362 74.1263 46.289 74.0221C46.1439 73.9158 46.0274 73.783 45.9396 73.6236C45.8537 73.4621 45.8108 73.271 45.8108 73.0503H46.6967C46.6967 73.1647 46.7253 73.2669 46.7826 73.3569C46.8398 73.4468 46.9185 73.5173 47.0186 73.5684C47.1208 73.6195 47.2342 73.645 47.3589 73.645C47.4999 73.645 47.6205 73.6195 47.7206 73.5684C47.8228 73.5152 47.9005 73.4417 47.9536 73.3477C48.0088 73.2516 48.0364 73.1402 48.0364 73.0135C48.0364 72.85 48.0067 72.7192 47.9475 72.6211C47.8882 72.521 47.8034 72.4474 47.693 72.4004C47.5827 72.3534 47.4519 72.3299 47.3006 72.3299H46.8286ZM49.609 73.8473C49.609 73.7165 49.6539 73.6072 49.7438 73.5193C49.8358 73.4314 49.9574 73.3875 50.1086 73.3875C50.2599 73.3875 50.3804 73.4314 50.4704 73.5193C50.5623 73.6072 50.6083 73.7165 50.6083 73.8473C50.6083 73.9781 50.5623 74.0875 50.4704 74.1753C50.3804 74.2632 50.2599 74.3072 50.1086 74.3072C49.9574 74.3072 49.8358 74.2632 49.7438 74.1753C49.6539 74.0875 49.609 73.9781 49.609 73.8473ZM54.3544 71.6494V72.4219C54.3544 72.757 54.3186 73.0462 54.2471 73.2894C54.1755 73.5306 54.0723 73.7288 53.9375 73.8841C53.8046 74.0374 53.6462 74.1508 53.4623 74.2244C53.2784 74.298 53.074 74.3347 52.8492 74.3347C52.6694 74.3347 52.5018 74.3123 52.3465 74.2673C52.1911 74.2203 52.0511 74.1478 51.9265 74.0497C51.8039 73.9516 51.6976 73.8279 51.6077 73.6787C51.5198 73.5275 51.4524 73.3477 51.4053 73.1392C51.3583 72.9307 51.3348 72.6916 51.3348 72.4219V71.6494C51.3348 71.3142 51.3706 71.0271 51.4421 70.788C51.5157 70.5468 51.6189 70.3496 51.7517 70.1963C51.8866 70.043 52.046 69.9306 52.23 69.8591C52.4139 69.7855 52.6183 69.7488 52.8431 69.7488C53.0229 69.7488 53.1895 69.7723 53.3427 69.8193C53.4981 69.8642 53.6381 69.9347 53.7627 70.0308C53.8874 70.1268 53.9937 70.2505 54.0815 70.4017C54.1694 70.5509 54.2368 70.7297 54.2839 70.9382C54.3309 71.1446 54.3544 71.3816 54.3544 71.6494ZM53.4684 72.5384V71.5298C53.4684 71.3684 53.4592 71.2274 53.4408 71.1068C53.4245 70.9862 53.3989 70.884 53.3642 70.8002C53.3295 70.7144 53.2865 70.6449 53.2355 70.5918C53.1844 70.5386 53.1261 70.4998 53.0607 70.4753C52.9953 70.4508 52.9228 70.4385 52.8431 70.4385C52.7429 70.4385 52.654 70.4579 52.5764 70.4967C52.5008 70.5356 52.4364 70.5979 52.3832 70.6837C52.3301 70.7675 52.2892 70.8799 52.2606 71.0209C52.2341 71.1599 52.2208 71.3295 52.2208 71.5298V72.5384C52.2208 72.6998 52.2289 72.8418 52.2453 72.9645C52.2637 73.0871 52.2903 73.1923 52.325 73.2802C52.3618 73.366 52.4047 73.4366 52.4537 73.4917C52.5048 73.5449 52.5631 73.5837 52.6285 73.6082C52.6959 73.6327 52.7695 73.645 52.8492 73.645C52.9473 73.645 53.0341 73.6256 53.1098 73.5868C53.1874 73.5459 53.2528 73.4825 53.306 73.3967C53.3611 73.3088 53.402 73.1944 53.4286 73.0534C53.4551 72.9124 53.4684 72.7407 53.4684 72.5384ZM57.9594 71.6494V72.4219C57.9594 72.757 57.9236 73.0462 57.8521 73.2894C57.7806 73.5306 57.6774 73.7288 57.5425 73.8841C57.4096 74.0374 57.2513 74.1508 57.0673 74.2244C56.8834 74.298 56.679 74.3347 56.4542 74.3347C56.2744 74.3347 56.1068 74.3123 55.9515 74.2673C55.7962 74.2203 55.6562 74.1478 55.5315 74.0497C55.4089 73.9516 55.3026 73.8279 55.2127 73.6787C55.1248 73.5275 55.0574 73.3477 55.0104 73.1392C54.9634 72.9307 54.9399 72.6916 54.9399 72.4219V71.6494C54.9399 71.3142 54.9756 71.0271 55.0472 70.788C55.1207 70.5468 55.2239 70.3496 55.3568 70.1963C55.4917 70.043 55.6511 69.9306 55.835 69.8591C56.0189 69.7855 56.2233 69.7488 56.4481 69.7488C56.6279 69.7488 56.7945 69.7723 56.9478 69.8193C57.1031 69.8642 57.2431 69.9347 57.3677 70.0308C57.4924 70.1268 57.5987 70.2505 57.6866 70.4017C57.7744 70.5509 57.8419 70.7297 57.8889 70.9382C57.9359 71.1446 57.9594 71.3816 57.9594 71.6494ZM57.0735 72.5384V71.5298C57.0735 71.3684 57.0643 71.2274 57.0459 71.1068C57.0295 70.9862 57.004 70.884 56.9692 70.8002C56.9345 70.7144 56.8916 70.6449 56.8405 70.5918C56.7894 70.5386 56.7311 70.4998 56.6657 70.4753C56.6003 70.4508 56.5278 70.4385 56.4481 70.4385C56.348 70.4385 56.2591 70.4579 56.1814 70.4967C56.1058 70.5356 56.0414 70.5979 55.9883 70.6837C55.9351 70.7675 55.8943 70.8799 55.8657 71.0209C55.8391 71.1599 55.8258 71.3295 55.8258 71.5298V72.5384C55.8258 72.6998 55.834 72.8418 55.8503 72.9645C55.8687 73.0871 55.8953 73.1923 55.93 73.2802C55.9668 73.366 56.0097 73.4366 56.0588 73.4917C56.1099 73.5449 56.1681 73.5837 56.2335 73.6082C56.301 73.6327 56.3745 73.645 56.4542 73.645C56.5523 73.645 56.6392 73.6256 56.7148 73.5868C56.7925 73.5459 56.8579 73.4825 56.911 73.3967C56.9662 73.3088 57.007 73.1944 57.0336 73.0534C57.0602 72.9124 57.0735 72.7407 57.0735 72.5384Z" fill="#222222"/>
<path d="M20.5815 81.2076C20.7377 80.7463 21.39 80.7463 21.5463 81.2076L22.0071 82.5682C22.0764 82.7728 22.2672 82.9115 22.4832 82.9141L23.9197 82.9319C24.4066 82.938 24.6082 83.5584 24.2178 83.8495L23.0661 84.7083C22.893 84.8374 22.8201 85.0617 22.8843 85.268L23.3112 86.6396C23.456 87.1046 22.9282 87.4881 22.5307 87.2067L21.3581 86.3768C21.1818 86.252 20.9459 86.252 20.7696 86.3768L19.597 87.2067C19.1995 87.4881 18.6717 87.1046 18.8165 86.6396L19.2434 85.268C19.3076 85.0617 19.2347 84.8374 19.0616 84.7083L17.9099 83.8495C17.5195 83.5584 17.7211 82.938 18.208 82.9319L19.6445 82.9141C19.8605 82.9115 20.0513 82.7728 20.1206 82.5682L20.5815 81.2076Z" fill="#4C4053"/>
<path d="M29.7492 81.2076C29.9054 80.7463 30.5578 80.7463 30.714 81.2076L31.1748 82.5682C31.2441 82.7728 31.4349 82.9115 31.6509 82.9141L33.0874 82.9319C33.5743 82.938 33.7759 83.5584 33.3855 83.8495L32.2339 84.7083C32.0607 84.8374 31.9878 85.0617 32.052 85.268L32.479 86.6396C32.6237 87.1046 32.0959 87.4881 31.6984 87.2067L30.5258 86.3768C30.3495 86.252 30.1137 86.252 29.9373 86.3768L28.7647 87.2067C28.3672 87.4881 27.8395 87.1046 27.9842 86.6396L28.4112 85.268C28.4753 85.0617 28.4025 84.8374 28.2293 84.7083L27.0776 83.8495C26.6872 83.5584 26.8888 82.938 27.3758 82.9319L28.8123 82.9141C29.0282 82.9115 29.2191 82.7728 29.2883 82.5682L29.7492 81.2076Z" fill="#4C4053"/>
<path d="M38.9169 81.2076C39.0731 80.7463 39.7255 80.7463 39.8817 81.2076L40.3425 82.5682C40.4118 82.7728 40.6026 82.9115 40.8186 82.9141L42.2551 82.9319C42.7421 82.938 42.9437 83.5584 42.5533 83.8495L41.4016 84.7083C41.2284 84.8374 41.1555 85.0617 41.2197 85.268L41.6467 86.6396C41.7914 87.1046 41.2637 87.4881 40.8662 87.2067L39.6935 86.3768C39.5172 86.252 39.2814 86.252 39.1051 86.3768L37.9325 87.2067C37.535 87.4881 37.0072 87.1046 37.1519 86.6396L37.5789 85.268C37.6431 85.0617 37.5702 84.8374 37.397 84.7083L36.2454 83.8495C35.855 83.5584 36.0565 82.938 36.5435 82.9319L37.98 82.9141C38.196 82.9115 38.3868 82.7728 38.4561 82.5682L38.9169 81.2076Z" fill="#4C4053"/>
<path d="M48.0846 81.2076C48.2408 80.7463 48.8932 80.7463 49.0494 81.2076L49.5103 82.5682C49.5796 82.7728 49.7704 82.9115 49.9864 82.9141L51.4228 82.9319C51.9098 82.938 52.1114 83.5584 51.721 83.8495L50.5693 84.7083C50.3961 84.8374 50.3233 85.0617 50.3875 85.268L50.8144 86.6396C50.9592 87.1046 50.4314 87.4881 50.0339 87.2067L48.8613 86.3768C48.685 86.252 48.4491 86.252 48.2728 86.3768L47.1002 87.2067C46.7027 87.4881 46.1749 87.1046 46.3196 86.6396L46.7466 85.268C46.8108 85.0617 46.7379 84.8374 46.5648 84.7083L45.4131 83.8495C45.0227 83.5584 45.2243 82.938 45.7112 82.9319L47.1477 82.9141C47.3637 82.9115 47.5545 82.7728 47.6238 82.5682L48.0846 81.2076Z" fill="#4C4053"/>
<path d="M57.2524 81.2076C57.4086 80.7463 58.0609 80.7463 58.2172 81.2076L58.678 82.5682C58.7473 82.7728 58.9381 82.9115 59.1541 82.9141L60.5906 82.9319C61.0775 82.938 61.2791 83.5584 60.8887 83.8495L59.737 84.7083C59.5639 84.8374 59.491 85.0617 59.5552 85.268L59.9821 86.6396C60.1269 87.1046 59.5991 87.4881 59.2016 87.2067L58.029 86.3768C57.8527 86.252 57.6168 86.252 57.4405 86.3768L56.2679 87.2067C55.8704 87.4881 55.3426 87.1046 55.4874 86.6396L55.9143 85.268C55.9785 85.0617 55.9056 84.8374 55.7325 84.7083L54.5808 83.8495C54.1904 83.5584 54.392 82.938 54.8789 82.9319L56.3154 82.9141C56.5314 82.9115 56.7222 82.7728 56.7915 82.5682L57.2524 81.2076Z" fill="black" fill-opacity="0.3"/>
</svg>
