<svg width="247" height="168" viewBox="0 0 247 168" fill="none" xmlns="http://www.w3.org/2000/svg">
<path d="M3.02792 157.412C13.4034 147.059 21.5556 137.412 27.4845 128.471C33.4134 119.529 36.3778 112.235 36.3778 106.588C36.3778 103.294 35.1426 100.235 32.6723 97.4118C30.696 94.5882 27.4845 91.5294 23.0379 88.2353C16.1208 83.0588 10.6861 77.6471 6.73347 72C2.78089 66.3529 0.804596 58.8235 0.804596 49.4117C0.804596 34.8235 5.49826 23.0588 14.8856 14.1176C24.273 4.70588 36.1308 0 50.4589 0C65.7752 0 78.127 4.70588 87.5144 14.1176C97.3958 23.0588 102.337 34.8235 102.337 49.4117C102.337 67.7647 94.1843 88 77.8799 110.118C62.0696 131.765 40.8245 151.059 14.1445 168L3.02792 157.412ZM146.803 157.412C157.179 147.059 165.331 137.412 171.26 128.471C177.189 119.529 180.153 112.235 180.153 106.588C180.153 103.294 178.918 100.235 176.447 97.4118C174.471 94.5882 171.26 91.5294 166.813 88.2353C159.896 83.0588 154.461 77.6471 150.509 72C146.556 66.3529 144.58 58.8235 144.58 49.4117C144.58 34.8235 149.273 23.0588 158.661 14.1176C168.048 4.70588 179.906 0 194.234 0C209.55 0 221.902 4.70588 231.29 14.1176C241.171 23.0588 246.112 34.8235 246.112 49.4117C246.112 67.7647 237.96 88 221.655 110.118C205.845 131.765 184.6 151.059 157.92 168L146.803 157.412Z" fill="#EDF0FD"/>
</svg>
