<svg width="188" height="140" viewBox="0 0 188 140" fill="none" xmlns="http://www.w3.org/2000/svg">
<g opacity="0.24">
<ellipse cx="95.9342" cy="108.793" rx="2.10362" ry="1.78836" fill="#A3D5FF"/>
<ellipse cx="95.9342" cy="118.29" rx="2.10362" ry="1.78836" fill="#A3D5FF"/>
<ellipse cx="95.9342" cy="127.786" rx="2.10362" ry="1.78836" fill="#A3D5FF"/>
<ellipse cx="95.9342" cy="137.283" rx="2.10362" ry="1.78836" fill="#A3D5FF"/>
<ellipse cx="107.105" cy="108.793" rx="2.10362" ry="1.78836" fill="#A3D5FF"/>
<ellipse cx="107.105" cy="118.29" rx="2.10362" ry="1.78836" fill="#A3D5FF"/>
<ellipse cx="107.105" cy="127.786" rx="2.10362" ry="1.78836" fill="#A3D5FF"/>
<ellipse cx="107.105" cy="137.283" rx="2.10362" ry="1.78836" fill="#A3D5FF"/>
<ellipse cx="118.276" cy="108.793" rx="2.10362" ry="1.78836" fill="#A3D5FF"/>
<ellipse cx="118.276" cy="118.29" rx="2.10362" ry="1.78836" fill="#A3D5FF"/>
<ellipse cx="118.276" cy="127.786" rx="2.10362" ry="1.78836" fill="#A3D5FF"/>
<ellipse cx="118.276" cy="137.283" rx="2.10362" ry="1.78836" fill="#A3D5FF"/>
<ellipse cx="129.447" cy="108.793" rx="2.10363" ry="1.78836" fill="#A3D5FF"/>
<ellipse cx="129.447" cy="118.29" rx="2.10363" ry="1.78836" fill="#A3D5FF"/>
<ellipse cx="129.447" cy="127.786" rx="2.10363" ry="1.78836" fill="#A3D5FF"/>
<ellipse cx="129.447" cy="137.283" rx="2.10363" ry="1.78836" fill="#A3D5FF"/>
<ellipse cx="140.618" cy="108.793" rx="2.10362" ry="1.78836" fill="#A3D5FF"/>
<ellipse cx="140.618" cy="118.29" rx="2.10362" ry="1.78836" fill="#A3D5FF"/>
<ellipse cx="140.618" cy="127.786" rx="2.10362" ry="1.78836" fill="#A3D5FF"/>
<ellipse cx="140.618" cy="137.283" rx="2.10362" ry="1.78836" fill="#A3D5FF"/>
<ellipse cx="151.789" cy="108.793" rx="2.10362" ry="1.78836" fill="#A3D5FF"/>
<ellipse cx="151.789" cy="118.29" rx="2.10362" ry="1.78836" fill="#A3D5FF"/>
<ellipse cx="151.789" cy="127.786" rx="2.10362" ry="1.78836" fill="#A3D5FF"/>
<ellipse cx="151.789" cy="137.283" rx="2.10362" ry="1.78836" fill="#A3D5FF"/>
<ellipse cx="162.96" cy="108.793" rx="2.10362" ry="1.78836" fill="#A3D5FF"/>
<ellipse cx="162.96" cy="118.29" rx="2.10362" ry="1.78836" fill="#A3D5FF"/>
<ellipse cx="162.96" cy="127.786" rx="2.10362" ry="1.78836" fill="#A3D5FF"/>
<ellipse cx="162.96" cy="137.283" rx="2.10362" ry="1.78836" fill="#A3D5FF"/>
<ellipse cx="174.13" cy="108.793" rx="2.10361" ry="1.78836" fill="#A3D5FF"/>
<ellipse cx="174.13" cy="118.29" rx="2.10361" ry="1.78836" fill="#A3D5FF"/>
<ellipse cx="174.13" cy="127.786" rx="2.10361" ry="1.78836" fill="#A3D5FF"/>
<ellipse cx="174.13" cy="137.283" rx="2.10361" ry="1.78836" fill="#A3D5FF"/>
</g>
<g opacity="0.24">
<ellipse cx="7.13292" cy="74.9876" rx="2.10362" ry="1.78836" fill="#A3D5FF"/>
<ellipse cx="7.13292" cy="84.4846" rx="2.10362" ry="1.78836" fill="#A3D5FF"/>
<ellipse cx="7.13292" cy="93.9807" rx="2.10362" ry="1.78836" fill="#A3D5FF"/>
<ellipse cx="7.13292" cy="103.478" rx="2.10362" ry="1.78836" fill="#A3D5FF"/>
<ellipse cx="18.3038" cy="74.9876" rx="2.10362" ry="1.78836" fill="#A3D5FF"/>
<ellipse cx="18.3038" cy="84.4846" rx="2.10362" ry="1.78836" fill="#A3D5FF"/>
<ellipse cx="18.3038" cy="93.9807" rx="2.10362" ry="1.78836" fill="#A3D5FF"/>
<ellipse cx="18.3038" cy="103.478" rx="2.10362" ry="1.78836" fill="#A3D5FF"/>
<ellipse cx="29.4747" cy="74.9876" rx="2.10362" ry="1.78836" fill="#A3D5FF"/>
<ellipse cx="29.4747" cy="84.4846" rx="2.10362" ry="1.78836" fill="#A3D5FF"/>
<ellipse cx="29.4747" cy="93.9807" rx="2.10362" ry="1.78836" fill="#A3D5FF"/>
<ellipse cx="29.4747" cy="103.478" rx="2.10362" ry="1.78836" fill="#A3D5FF"/>
<ellipse cx="40.6456" cy="74.9876" rx="2.10362" ry="1.78836" fill="#A3D5FF"/>
<ellipse cx="40.6456" cy="84.4846" rx="2.10362" ry="1.78836" fill="#A3D5FF"/>
<ellipse cx="40.6456" cy="93.9807" rx="2.10362" ry="1.78836" fill="#A3D5FF"/>
<ellipse cx="40.6456" cy="103.478" rx="2.10362" ry="1.78836" fill="#A3D5FF"/>
<ellipse cx="51.8165" cy="74.9876" rx="2.10362" ry="1.78836" fill="#A3D5FF"/>
<ellipse cx="51.8165" cy="84.4846" rx="2.10362" ry="1.78836" fill="#A3D5FF"/>
<ellipse cx="51.8165" cy="93.9807" rx="2.10362" ry="1.78836" fill="#A3D5FF"/>
<ellipse cx="51.8165" cy="103.478" rx="2.10362" ry="1.78836" fill="#A3D5FF"/>
<ellipse cx="62.9874" cy="74.9876" rx="2.10362" ry="1.78836" fill="#A3D5FF"/>
<ellipse cx="62.9874" cy="84.4846" rx="2.10362" ry="1.78836" fill="#A3D5FF"/>
<ellipse cx="62.9874" cy="93.9807" rx="2.10362" ry="1.78836" fill="#A3D5FF"/>
<ellipse cx="62.9874" cy="103.478" rx="2.10362" ry="1.78836" fill="#A3D5FF"/>
<ellipse cx="74.1583" cy="74.9876" rx="2.10362" ry="1.78836" fill="#A3D5FF"/>
<ellipse cx="74.1583" cy="84.4846" rx="2.10362" ry="1.78836" fill="#A3D5FF"/>
<ellipse cx="74.1583" cy="93.9807" rx="2.10362" ry="1.78836" fill="#A3D5FF"/>
<ellipse cx="74.1583" cy="103.478" rx="2.10362" ry="1.78836" fill="#A3D5FF"/>
<ellipse cx="85.3292" cy="74.9876" rx="2.10362" ry="1.78836" fill="#A3D5FF"/>
<ellipse cx="85.3292" cy="84.4846" rx="2.10362" ry="1.78836" fill="#A3D5FF"/>
<ellipse cx="85.3292" cy="93.9807" rx="2.10362" ry="1.78836" fill="#A3D5FF"/>
<ellipse cx="85.3292" cy="103.478" rx="2.10362" ry="1.78836" fill="#A3D5FF"/>
</g>
<rect x="15.8828" y="113.701" width="128.611" height="17.3652" rx="2.75051" fill="white" stroke="#DAE4ED" stroke-width="0.257861"/>
<path fill-rule="evenodd" clip-rule="evenodd" d="M31.0107 125.599C33.0998 125.599 34.7934 124.159 34.7934 122.383C34.7934 120.607 33.0998 119.167 31.0107 119.167C28.9216 119.167 27.228 120.607 27.228 122.383C27.228 124.159 28.9216 125.599 31.0107 125.599Z" fill="#0CCA4A"/>
<path fill-rule="evenodd" clip-rule="evenodd" d="M38.5767 121.918C38.5767 120.398 39.8081 119.167 41.3272 119.167H50.9568C52.4759 119.167 53.7073 120.398 53.7073 121.918V122.848C53.7073 124.367 52.4759 125.599 50.9568 125.599H41.3272C39.8081 125.599 38.5767 124.367 38.5767 122.848V121.918Z" fill="#A3D5FF"/>
<path fill-rule="evenodd" clip-rule="evenodd" d="M61.2734 121.918C61.2734 120.398 62.5049 119.167 64.024 119.167H81.2189C82.738 119.167 83.9694 120.398 83.9694 121.918V122.848C83.9694 124.367 82.738 125.599 81.2189 125.599H64.0239C62.5049 125.599 61.2734 124.367 61.2734 122.848V121.918Z" fill="#DDEAF3"/>
<path fill-rule="evenodd" clip-rule="evenodd" d="M90.0225 121.918C90.0225 120.398 91.2539 119.167 92.773 119.167H106.185C107.704 119.167 108.936 120.398 108.936 121.918V122.848C108.936 124.367 107.704 125.599 106.185 125.599H92.773C91.2539 125.599 90.0225 124.367 90.0225 122.848V121.918Z" fill="#A3D5FF"/>
<path fill-rule="evenodd" clip-rule="evenodd" d="M114.232 121.918C114.232 120.398 115.464 119.167 116.983 119.167H130.395C131.914 119.167 133.146 120.398 133.146 121.918V122.848C133.146 124.367 131.914 125.599 130.395 125.599H116.983C115.464 125.599 114.232 124.367 114.232 122.848V121.918Z" fill="#279AF1"/>
<g clip-path="url(#clip0_10412_5036)">
<rect x="58.9307" y="30.9121" width="128.57" height="73.6442" rx="4.98531" fill="white"/>
<rect x="58.9336" y="30.9121" width="120.984" height="81.516" fill="white"/>
<rect x="84.4282" y="46.4512" width="77.5754" height="50.432" rx="0.687846" fill="white" stroke="#DAE4ED" stroke-width="0.257942"/>
<path d="M84.5654 47.139C84.5654 46.7591 84.8734 46.4512 85.2533 46.4512H161.316C161.696 46.4512 162.004 46.7591 162.004 47.139V54.2099H84.5654V47.139Z" fill="#279AF1"/>
<path fill-rule="evenodd" clip-rule="evenodd" d="M88.9893 48.7355C88.9893 48.5456 89.1432 48.3916 89.3332 48.3916H97.7719C97.9618 48.3916 98.1158 48.5456 98.1158 48.7355V51.9271C98.1158 52.117 97.9618 52.271 97.7719 52.271H89.3332C89.1432 52.271 88.9893 52.117 88.9893 51.9271V48.7355Z" fill="white"/>
<path fill-rule="evenodd" clip-rule="evenodd" d="M114.09 48.7355C114.09 48.5456 114.244 48.3916 114.434 48.3916H122.872C123.062 48.3916 123.216 48.5456 123.216 48.7355V51.9271C123.216 52.117 123.062 52.271 122.872 52.271H114.434C114.244 52.271 114.09 52.117 114.09 51.9271V48.7355Z" fill="white"/>
<path fill-rule="evenodd" clip-rule="evenodd" d="M130.059 48.7355C130.059 48.5456 130.213 48.3916 130.403 48.3916H138.841C139.031 48.3916 139.185 48.5456 139.185 48.7355V51.9271C139.185 52.117 139.031 52.271 138.841 52.271H130.403C130.213 52.271 130.059 52.117 130.059 51.9271V48.7355Z" fill="white"/>
<path fill-rule="evenodd" clip-rule="evenodd" d="M84.5654 64.6838H161.776H84.5654Z" fill="white"/>
<path d="M84.5654 64.6838H161.776" stroke="#DAE4ED" stroke-width="0.257942"/>
<path fill-rule="evenodd" clip-rule="evenodd" d="M84.5654 75.5461H161.776H84.5654Z" fill="white"/>
<path d="M84.5654 75.5461H161.776" stroke="#DAE4ED" stroke-width="0.257942"/>
<path fill-rule="evenodd" clip-rule="evenodd" d="M84.5654 86.4094H161.776H84.5654Z" fill="white"/>
<path d="M84.5654 86.4094H161.776" stroke="#DAE4ED" stroke-width="0.257942"/>
<path fill-rule="evenodd" clip-rule="evenodd" d="M98.5723 57.6574C98.5723 57.4675 98.7262 57.3135 98.9162 57.3135H109.18C109.37 57.3135 109.524 57.4675 109.524 57.6574V60.8489C109.524 61.0389 109.37 61.1929 109.18 61.1929H98.9162C98.7262 61.1929 98.5723 61.0389 98.5723 60.8489V57.6574Z" fill="#A7B0CA"/>
<path fill-rule="evenodd" clip-rule="evenodd" d="M87.4893 59.251C87.4893 60.9641 89.1247 62.3545 91.1399 62.3545C93.155 62.3545 94.7905 60.9641 94.7905 59.251C94.7905 57.5378 93.155 56.1475 91.1399 56.1475C89.1247 56.1475 87.4893 57.5378 87.4893 59.251ZM92.2326 58.0102C92.2326 58.5254 91.7434 58.9412 91.1374 58.9412C90.5314 58.9412 90.0423 58.5254 90.0423 58.0102C90.0423 57.495 90.5314 57.0791 91.1374 57.0791C91.7434 57.0791 92.2326 57.495 92.2326 58.0102ZM88.9494 60.486C88.9604 59.8684 90.4097 59.5301 91.1398 59.5301C91.8663 59.5301 93.3192 59.8684 93.3302 60.486C92.8592 61.088 92.0525 61.4853 91.1398 61.4853C90.2272 61.4853 89.4204 61.088 88.9494 60.486Z" fill="url(#paint0_linear_10412_5036)"/>
<path fill-rule="evenodd" clip-rule="evenodd" d="M114.09 57.6574C114.09 57.4675 114.244 57.3135 114.434 57.3135H124.698C124.888 57.3135 125.042 57.4675 125.042 57.6574V60.8489C125.042 61.0389 124.888 61.1929 124.698 61.1929H114.434C114.244 61.1929 114.09 61.0389 114.09 60.8489V57.6574Z" fill="#DDEAF3"/>
<path fill-rule="evenodd" clip-rule="evenodd" d="M129.604 57.6574C129.604 57.4675 129.758 57.3135 129.948 57.3135H142.037C142.227 57.3135 142.381 57.4675 142.381 57.6574V60.8489C142.381 61.0389 142.227 61.1929 142.037 61.1929H129.948C129.758 61.1929 129.604 61.0389 129.604 60.8489V57.6574Z" fill="#DDEAF3"/>
<path fill-rule="evenodd" clip-rule="evenodd" d="M129.604 57.6574C129.604 57.4675 129.758 57.3135 129.948 57.3135H135.649C135.839 57.3135 135.993 57.4675 135.993 57.6574V60.8489C135.993 61.0389 135.839 61.1929 135.649 61.1929H129.948C129.758 61.1929 129.604 61.0389 129.604 60.8489V57.6574Z" fill="#279AF1"/>
<path fill-rule="evenodd" clip-rule="evenodd" d="M146.942 57.6574C146.942 57.4675 147.096 57.3135 147.286 57.3135H158.007C158.197 57.3135 158.351 57.4675 158.351 57.6574V60.8489C158.351 61.0389 158.197 61.1929 158.007 61.1929H147.286C147.096 61.1929 146.942 61.0389 146.942 60.8489V57.6574Z" fill="#DDEAF3"/>
<path fill-rule="evenodd" clip-rule="evenodd" d="M98.5723 68.5197C98.5723 68.3298 98.7262 68.1758 98.9162 68.1758H109.18C109.37 68.1758 109.524 68.3298 109.524 68.5197V71.7112C109.524 71.9012 109.37 72.0552 109.18 72.0552H98.9162C98.7262 72.0552 98.5723 71.9012 98.5723 71.7112V68.5197Z" fill="#A7B0CA"/>
<path fill-rule="evenodd" clip-rule="evenodd" d="M87.4893 70.1142C87.4893 71.8274 89.1247 73.2178 91.1399 73.2178C93.155 73.2178 94.7905 71.8274 94.7905 70.1142C94.7905 68.4011 93.155 67.0107 91.1399 67.0107C89.1247 67.0107 87.4893 68.4011 87.4893 70.1142ZM92.2326 68.8735C92.2326 69.3887 91.7434 69.8045 91.1374 69.8045C90.5314 69.8045 90.0423 69.3887 90.0423 68.8735C90.0423 68.3583 90.5314 67.9424 91.1374 67.9424C91.7434 67.9424 92.2326 68.3583 92.2326 68.8735ZM88.9494 71.3492C88.9604 70.7317 90.4097 70.3934 91.1398 70.3934C91.8663 70.3934 93.3192 70.7317 93.3302 71.3492C92.8592 71.9513 92.0525 72.3486 91.1398 72.3486C90.2272 72.3486 89.4204 71.9513 88.9494 71.3492Z" fill="url(#paint1_linear_10412_5036)"/>
<path fill-rule="evenodd" clip-rule="evenodd" d="M114.09 68.5197C114.09 68.3298 114.244 68.1758 114.434 68.1758H124.698C124.888 68.1758 125.042 68.3298 125.042 68.5197V71.7112C125.042 71.9012 124.888 72.0552 124.698 72.0552H114.434C114.244 72.0552 114.09 71.9012 114.09 71.7112V68.5197Z" fill="#DDEAF3"/>
<path fill-rule="evenodd" clip-rule="evenodd" d="M129.604 68.5197C129.604 68.3298 129.758 68.1758 129.948 68.1758H142.037C142.227 68.1758 142.381 68.3298 142.381 68.5197V71.7112C142.381 71.9012 142.227 72.0552 142.037 72.0552H129.948C129.758 72.0552 129.604 71.9012 129.604 71.7112V68.5197Z" fill="#DDEAF3"/>
<rect x="129.604" y="68.1758" width="4.56326" height="3.87938" rx="0.343923" fill="#279AF1"/>
<path fill-rule="evenodd" clip-rule="evenodd" d="M146.942 68.5197C146.942 68.3298 147.096 68.1758 147.286 68.1758H158.007C158.197 68.1758 158.351 68.3298 158.351 68.5197V71.7112C158.351 71.9012 158.197 72.0552 158.007 72.0552H147.286C147.096 72.0552 146.942 71.9012 146.942 71.7112V68.5197Z" fill="#DDEAF3"/>
<path fill-rule="evenodd" clip-rule="evenodd" d="M98.5723 79.383C98.5723 79.193 98.7262 79.0391 98.9162 79.0391H109.18C109.37 79.0391 109.524 79.193 109.524 79.383V82.5745C109.524 82.7645 109.37 82.9184 109.18 82.9184H98.9162C98.7262 82.9184 98.5723 82.7645 98.5723 82.5745V79.383Z" fill="#A7B0CA"/>
<path fill-rule="evenodd" clip-rule="evenodd" d="M87.4893 80.9756C87.4893 82.6887 89.1247 84.0791 91.1399 84.0791C93.155 84.0791 94.7905 82.6887 94.7905 80.9756C94.7905 79.2624 93.155 77.8721 91.1399 77.8721C89.1247 77.8721 87.4893 79.2624 87.4893 80.9756ZM92.2326 79.7348C92.2326 80.25 91.7434 80.6659 91.1374 80.6659C90.5314 80.6659 90.0423 80.25 90.0423 79.7348C90.0423 79.2196 90.5314 78.8037 91.1374 78.8037C91.7434 78.8037 92.2326 79.2196 92.2326 79.7348ZM88.9494 82.2106C88.9604 81.593 90.4097 81.2547 91.1398 81.2547C91.8663 81.2547 93.3192 81.593 93.3302 82.2106C92.8592 82.8127 92.0525 83.2099 91.1398 83.2099C90.2272 83.2099 89.4204 82.8127 88.9494 82.2106Z" fill="url(#paint2_linear_10412_5036)"/>
<path fill-rule="evenodd" clip-rule="evenodd" d="M114.09 79.383C114.09 79.193 114.244 79.0391 114.434 79.0391H124.698C124.888 79.0391 125.042 79.193 125.042 79.383V82.5745C125.042 82.7645 124.888 82.9184 124.698 82.9184H114.434C114.244 82.9184 114.09 82.7645 114.09 82.5745V79.383Z" fill="#DDEAF3"/>
<path fill-rule="evenodd" clip-rule="evenodd" d="M129.604 79.383C129.604 79.193 129.758 79.0391 129.948 79.0391H142.037C142.227 79.0391 142.381 79.193 142.381 79.383V82.5745C142.381 82.7645 142.227 82.9184 142.037 82.9184H129.948C129.758 82.9184 129.604 82.7645 129.604 82.5745V79.383Z" fill="#DDEAF3"/>
<path fill-rule="evenodd" clip-rule="evenodd" d="M129.604 79.383C129.604 79.193 129.758 79.0391 129.948 79.0391H140.212C140.402 79.0391 140.556 79.193 140.556 79.383V82.5745C140.556 82.7645 140.402 82.9184 140.212 82.9184H129.948C129.758 82.9184 129.604 82.7645 129.604 82.5745V79.383Z" fill="#279AF1"/>
<path fill-rule="evenodd" clip-rule="evenodd" d="M146.942 79.383C146.942 79.193 147.096 79.0391 147.286 79.0391H158.007C158.197 79.0391 158.351 79.193 158.351 79.383V82.5745C158.351 82.7645 158.197 82.9184 158.007 82.9184H147.286C147.096 82.9184 146.942 82.7645 146.942 82.5745V79.383Z" fill="#DDEAF3"/>
<path fill-rule="evenodd" clip-rule="evenodd" d="M98.5723 90.2453C98.5723 90.0553 98.7262 89.9014 98.9162 89.9014H109.18C109.37 89.9014 109.524 90.0553 109.524 90.2453V93.4368C109.524 93.6268 109.37 93.7807 109.18 93.7807H98.9162C98.7262 93.7807 98.5723 93.6268 98.5723 93.4368V90.2453Z" fill="#A7B0CA"/>
<path fill-rule="evenodd" clip-rule="evenodd" d="M87.4893 91.8389C87.4893 93.552 89.1247 94.9424 91.1399 94.9424C93.155 94.9424 94.7905 93.552 94.7905 91.8389C94.7905 90.1257 93.155 88.7354 91.1399 88.7354C89.1247 88.7354 87.4893 90.1257 87.4893 91.8389ZM92.2326 90.5981C92.2326 91.1133 91.7434 91.5291 91.1374 91.5291C90.5314 91.5291 90.0423 91.1133 90.0423 90.5981C90.0423 90.0829 90.5314 89.667 91.1374 89.667C91.7434 89.667 92.2326 90.0829 92.2326 90.5981ZM88.9494 93.0739C88.9604 92.4563 90.4097 92.118 91.1398 92.118C91.8663 92.118 93.3192 92.4563 93.3302 93.0739C92.8592 93.6759 92.0525 94.0732 91.1398 94.0732C90.2272 94.0732 89.4204 93.6759 88.9494 93.0739Z" fill="url(#paint3_linear_10412_5036)"/>
<path fill-rule="evenodd" clip-rule="evenodd" d="M114.09 90.2453C114.09 90.0553 114.244 89.9014 114.434 89.9014H124.698C124.888 89.9014 125.042 90.0553 125.042 90.2453V93.4368C125.042 93.6268 124.888 93.7807 124.698 93.7807H114.434C114.244 93.7807 114.09 93.6268 114.09 93.4368V90.2453Z" fill="#DDEAF3"/>
<path fill-rule="evenodd" clip-rule="evenodd" d="M129.604 90.2453C129.604 90.0553 129.758 89.9014 129.948 89.9014H142.037C142.227 89.9014 142.381 90.0553 142.381 90.2453V93.4368C142.381 93.6268 142.227 93.7807 142.037 93.7807H129.948C129.758 93.7807 129.604 93.6268 129.604 93.4368V90.2453Z" fill="#DDEAF3"/>
<path fill-rule="evenodd" clip-rule="evenodd" d="M129.604 90.2453C129.604 90.0553 129.758 89.9014 129.948 89.9014H137.474C137.664 89.9014 137.818 90.0553 137.818 90.2453V93.4368C137.818 93.6268 137.664 93.7807 137.474 93.7807H129.948C129.758 93.7807 129.604 93.6268 129.604 93.4368V90.2453Z" fill="#279AF1"/>
<path fill-rule="evenodd" clip-rule="evenodd" d="M146.942 90.2453C146.942 90.0553 147.096 89.9014 147.286 89.9014H158.007C158.197 89.9014 158.351 90.0553 158.351 90.2453V93.4368C158.351 93.6268 158.197 93.7807 158.007 93.7807H147.286C147.096 93.7807 146.942 93.6268 146.942 93.4368V90.2453Z" fill="#DDEAF3"/>
<path d="M58.9336 30.9121H179.918V44.5973H58.9336V30.9121Z" fill="url(#paint4_linear_10412_5036)"/>
<ellipse cx="172.677" cy="37.7563" rx="1.88418" ry="1.88419" fill="white"/>
<ellipse cx="165.737" cy="37.7563" rx="1.88418" ry="1.88419" fill="white"/>
<ellipse cx="158.793" cy="37.7563" rx="1.88418" ry="1.88419" fill="white"/>
</g>
<rect x="9.61426" width="89.8812" height="37.3419" rx="2.75051" fill="#F7B2B7"/>
<path fill-rule="evenodd" clip-rule="evenodd" d="M93.0363 32.2768H16.001C16.001 32.2768 18.6402 18.2996 26.8765 18.2996C35.1129 18.2996 32.7347 24.9573 40.9242 24.9573C49.1136 24.9573 45.0575 11.474 52.2529 11.474C59.4483 11.474 55.8781 22.0314 62.6753 22.0314C69.4725 22.0314 71.7383 -1.62407 79.4418 6.85114C87.1453 15.3264 83.3465 22.0314 87.7069 22.0314C92.0673 22.0314 93.0363 32.2768 93.0363 32.2768Z" fill="white"/>
<path fill-rule="evenodd" clip-rule="evenodd" d="M27.1031 19.9505C28.2293 19.9505 29.1423 19.1744 29.1423 18.217C29.1423 17.2595 28.2293 16.4834 27.1031 16.4834C25.9769 16.4834 25.064 17.2595 25.064 18.217C25.064 19.1744 25.9769 19.9505 27.1031 19.9505Z" fill="#279AF1"/>
<path fill-rule="evenodd" clip-rule="evenodd" d="M19.1797 4.97363C18.7452 4.97363 18.3931 5.3258 18.3931 5.76023V11.2131C18.3931 11.6475 18.7452 11.9997 19.1797 11.9997H25.6409L26.9418 13.4329C27.01 13.508 27.1281 13.508 27.1963 13.4329L28.4972 11.9997H40.9733C41.4078 11.9997 41.7599 11.6475 41.7599 11.2131V5.76023C41.7599 5.3258 41.4078 4.97363 40.9733 4.97363H19.1797Z" fill="white"/>
<rect y="87.4092" width="25.0279" height="21.2771" rx="2.75051" fill="url(#paint5_linear_10412_5036)"/>
<rect x="5.55127" y="92.293" width="13.5257" height="11.4987" rx="2.75051" fill="url(#paint6_linear_10412_5036)"/>
<path fill-rule="evenodd" clip-rule="evenodd" d="M13.6676 92.291H8.25736C7.51344 92.291 6.91155 92.8085 6.91155 93.4409L6.90479 102.64C6.90479 103.272 7.50668 103.79 8.25059 103.79H16.3728C17.1167 103.79 17.7253 103.272 17.7253 102.64V95.7406L13.6676 92.291ZM15.0175 101.49H9.60723V100.34H15.0175V101.49ZM15.0175 99.1898H9.60723V98.0399H15.0175V99.1898ZM12.9915 96.316V93.1539L16.7111 96.316H12.9915Z" fill="#F2F7F9"/>
<ellipse cx="133.076" cy="14.346" rx="9.77367" ry="8.30893" fill="white"/>
<path d="M132.504 9.01758V14.9425H139.474C139.155 17.6766 136.441 19.8123 133.141 19.8123C129.625 19.8123 126.776 17.3898 126.776 14.4014C126.776 11.5959 129.288 9.28866 132.504 9.01758Z" fill="#0067F2"/>
<path d="M140.829 13.5664C140.525 10.5617 137.708 8.1663 134.173 7.9082V13.5664H140.829Z" fill="#0CCA4A"/>
<ellipse cx="148.042" cy="27.1974" rx="7.32323" ry="6.22573" fill="white"/>
<path d="M148.107 30.8943C145.741 30.8943 143.823 29.2638 143.823 27.2523C143.823 25.2409 145.741 23.6104 148.107 23.6104C150.473 23.6104 152.391 25.2409 152.391 27.2523C152.391 29.2638 150.473 30.8943 148.107 30.8943ZM147.126 30.0446C146.703 29.2825 146.458 28.4579 146.405 27.6165H144.706C144.789 28.177 145.063 28.7048 145.492 29.1359C145.922 29.5669 146.489 29.8826 147.126 30.0446ZM147.263 27.6165C147.328 28.5048 147.626 29.3392 148.107 30.0756C148.6 29.3197 148.889 28.4795 148.951 27.6165H147.263ZM151.507 27.6165H149.809C149.755 28.4579 149.51 29.2825 149.088 30.0446C149.724 29.8826 150.292 29.5669 150.721 29.1359C151.151 28.7048 151.424 28.177 151.507 27.6165ZM144.706 26.8881H146.405C146.458 26.0468 146.703 25.2222 147.126 24.46C146.489 24.6221 145.922 24.9378 145.492 25.3688C145.063 25.7999 144.789 26.3277 144.706 26.8881ZM147.263 26.8881H148.95C148.889 26.0252 148.6 25.185 148.107 24.4291C147.613 25.1849 147.325 26.0252 147.263 26.8881H147.263ZM149.088 24.46C149.51 25.2222 149.755 26.0468 149.809 26.8881H151.507C151.424 26.3277 151.151 25.7999 150.721 25.3688C150.292 24.9378 149.724 24.6221 149.088 24.46Z" fill="url(#paint7_linear_10412_5036)"/>
<path d="M14.2119 51.2515C14.2119 49.7324 15.4434 48.501 16.9624 48.501H37.2976C38.8167 48.501 40.0481 49.7324 40.0481 51.2515V67.7147C40.0481 69.2338 38.8167 70.4652 37.2976 70.4652H16.9624C15.4434 70.4652 14.2119 69.2338 14.2119 67.7147V51.2515Z" fill="url(#paint8_linear_10412_5036)"/>
<path fill-rule="evenodd" clip-rule="evenodd" d="M34.53 64.3769V54.5896C34.53 53.8206 33.7899 53.1914 32.8853 53.1914H21.3727C20.4681 53.1914 19.728 53.8206 19.728 54.5896V64.3769C19.728 65.1459 20.4681 65.7751 21.3727 65.7751H32.8853C33.7899 65.7751 34.53 65.1459 34.53 64.3769ZM24.2532 60.5315L26.309 62.6358L29.1872 59.4829L32.8877 63.6774H21.375L24.2532 60.5315Z" fill="white"/>
<defs>
<linearGradient id="paint0_linear_10412_5036" x1="87.8408" y1="57.299" x2="94.2898" y2="61.5095" gradientUnits="userSpaceOnUse">
<stop stop-color="#64E09E"/>
<stop offset="1" stop-color="#0CCA4A"/>
</linearGradient>
<linearGradient id="paint1_linear_10412_5036" x1="87.4893" y1="70.1143" x2="94.7905" y2="70.1143" gradientUnits="userSpaceOnUse">
<stop offset="0.0110497" stop-color="#574AE2"/>
<stop offset="0.535912" stop-color="#0067F2"/>
<stop offset="1" stop-color="#01BAEF"/>
</linearGradient>
<linearGradient id="paint2_linear_10412_5036" x1="87.4893" y1="80.9756" x2="94.7905" y2="80.9756" gradientUnits="userSpaceOnUse">
<stop stop-color="#9381FF"/>
<stop offset="1" stop-color="#F7B2B7"/>
</linearGradient>
<linearGradient id="paint3_linear_10412_5036" x1="87.4893" y1="91.8389" x2="94.7905" y2="91.8389" gradientUnits="userSpaceOnUse">
<stop offset="0.0110497" stop-color="#574AE2"/>
<stop offset="0.535912" stop-color="#0067F2"/>
<stop offset="1" stop-color="#01BAEF"/>
</linearGradient>
<linearGradient id="paint4_linear_10412_5036" x1="58.9336" y1="37.7547" x2="179.918" y2="37.7547" gradientUnits="userSpaceOnUse">
<stop stop-color="#9381FF"/>
<stop offset="1" stop-color="#F7B2B7"/>
</linearGradient>
<linearGradient id="paint5_linear_10412_5036" x1="-2.2435e-07" y1="98.0478" x2="25.0279" y2="98.0478" gradientUnits="userSpaceOnUse">
<stop stop-color="#A3D5FF"/>
<stop offset="1" stop-color="#01BAEF"/>
</linearGradient>
<linearGradient id="paint6_linear_10412_5036" x1="5.55127" y1="98.0423" x2="19.077" y2="98.0423" gradientUnits="userSpaceOnUse">
<stop stop-color="#A3D5FF"/>
<stop offset="1" stop-color="#01BAEF"/>
</linearGradient>
<linearGradient id="paint7_linear_10412_5036" x1="143.823" y1="27.2524" x2="152.391" y2="27.2524" gradientUnits="userSpaceOnUse">
<stop stop-color="#0067F2"/>
<stop offset="1" stop-color="#01BAEF"/>
</linearGradient>
<linearGradient id="paint8_linear_10412_5036" x1="15.4559" y1="52.5758" x2="38.2763" y2="67.4751" gradientUnits="userSpaceOnUse">
<stop stop-color="#64E09E"/>
<stop offset="1" stop-color="#0CCA4A"/>
</linearGradient>
<clipPath id="clip0_10412_5036">
<rect x="58.9307" y="30.9121" width="128.57" height="73.6442" rx="4.98531" fill="white"/>
</clipPath>
</defs>
</svg>
