<svg width="188" height="140" viewBox="0 0 188 140" fill="none" xmlns="http://www.w3.org/2000/svg">
<ellipse cx="130.954" cy="94.9272" rx="56.5469" ry="44.145" fill="#279AF1"/>
<ellipse cx="77.1357" cy="22.5436" rx="28.8769" ry="22.5436" fill="#279AF1"/>
<ellipse cx="36.8542" cy="61.5057" rx="18.7897" ry="14.6688" fill="#279AF1"/>
<rect x="88.0811" y="37.8789" width="62.5594" height="48.8389" rx="2.50635" fill="#F2F7F9"/>
<path fill-rule="evenodd" clip-rule="evenodd" d="M115.411 83.8913C116.138 83.8913 116.728 83.431 116.728 82.8631C116.728 82.2953 116.138 81.835 115.411 81.835C114.683 81.835 114.094 82.2953 114.094 82.8631C114.094 83.431 114.683 83.8913 115.411 83.8913Z" fill="#DDEAF3"/>
<path fill-rule="evenodd" clip-rule="evenodd" d="M119.362 83.8913C120.089 83.8913 120.679 83.431 120.679 82.8631C120.679 82.2953 120.089 81.835 119.362 81.835C118.635 81.835 118.045 82.2953 118.045 82.8631C118.045 83.431 118.635 83.8913 119.362 83.8913Z" fill="#DDEAF3"/>
<path fill-rule="evenodd" clip-rule="evenodd" d="M123.312 83.8913C124.04 83.8913 124.629 83.431 124.629 82.8631C124.629 82.2953 124.04 81.835 123.312 81.835C122.585 81.835 121.995 82.2953 121.995 82.8631C121.995 83.431 122.585 83.8913 123.312 83.8913Z" fill="#DDEAF3"/>
<rect x="91.374" y="45.5918" width="55.9742" height="33.4161" rx="0.626586" fill="white" stroke="#DAE4ED" stroke-width="0.23497"/>
<path d="M91.4727 46.2184C91.4727 45.8723 91.7532 45.5918 92.0992 45.5918H146.722C147.068 45.5918 147.348 45.8723 147.348 46.2184V50.7327H91.4727V46.2184Z" fill="#279AF1"/>
<path fill-rule="evenodd" clip-rule="evenodd" d="M94.666 47.1912C94.666 47.0182 94.8063 46.8779 94.9793 46.8779H100.938C101.111 46.8779 101.251 47.0182 101.251 47.1912V49.1351C101.251 49.3081 101.111 49.4484 100.938 49.4484H94.9793C94.8063 49.4484 94.666 49.3081 94.666 49.1351V47.1912Z" fill="white"/>
<path fill-rule="evenodd" clip-rule="evenodd" d="M112.774 47.1912C112.774 47.0182 112.915 46.8779 113.088 46.8779H119.046C119.219 46.8779 119.36 47.0182 119.36 47.1912V49.1351C119.36 49.3081 119.219 49.4484 119.046 49.4484H113.088C112.915 49.4484 112.774 49.3081 112.774 49.1351V47.1912Z" fill="white"/>
<path fill-rule="evenodd" clip-rule="evenodd" d="M124.299 47.1912C124.299 47.0182 124.439 46.8779 124.612 46.8779H130.571C130.744 46.8779 130.884 47.0182 130.884 47.1912V49.1351C130.884 49.3081 130.744 49.4484 130.571 49.4484H124.612C124.439 49.4484 124.299 49.3081 124.299 49.1351V47.1912Z" fill="white"/>
<path fill-rule="evenodd" clip-rule="evenodd" d="M91.4727 57.674H147.183H91.4727Z" fill="white"/>
<path d="M91.4727 57.674H147.183" stroke="#DAE4ED" stroke-width="0.23497"/>
<path fill-rule="evenodd" clip-rule="evenodd" d="M91.4727 64.8703H147.183H91.4727Z" fill="white"/>
<path d="M91.4727 64.8703H147.183" stroke="#DAE4ED" stroke-width="0.23497"/>
<path fill-rule="evenodd" clip-rule="evenodd" d="M91.4727 72.0666H147.183H91.4727Z" fill="white"/>
<path d="M91.4727 72.0666H147.183" stroke="#DAE4ED" stroke-width="0.23497"/>
<path fill-rule="evenodd" clip-rule="evenodd" d="M101.581 53.1014C101.581 52.9284 101.721 52.7881 101.894 52.7881H109.17C109.343 52.7881 109.483 52.9284 109.483 53.1014V55.0453C109.483 55.2183 109.343 55.3586 109.17 55.3586H101.894C101.721 55.3586 101.581 55.2183 101.581 55.0453V53.1014Z" fill="#A7B0CA"/>
<path fill-rule="evenodd" clip-rule="evenodd" d="M93.585 54.0749C93.585 55.21 94.765 56.1313 96.219 56.1313C97.6731 56.1313 98.8531 55.21 98.8531 54.0749C98.8531 52.9398 97.6731 52.0186 96.219 52.0186C94.765 52.0186 93.585 52.9398 93.585 54.0749ZM97.01 53.2515C97.01 53.5929 96.6571 53.8685 96.2198 53.8685C95.7826 53.8685 95.4296 53.5929 95.4296 53.2515C95.4296 52.9102 95.7826 52.6346 96.2198 52.6346C96.6571 52.6346 97.01 52.9102 97.01 53.2515ZM94.638 54.8929C94.6459 54.4837 95.6916 54.2595 96.2184 54.2595C96.7426 54.2595 97.791 54.4837 97.7989 54.8929C97.4591 55.2918 96.877 55.555 96.2184 55.555C95.5599 55.555 94.9778 55.2918 94.638 54.8929Z" fill="#FFA400"/>
<path fill-rule="evenodd" clip-rule="evenodd" d="M112.774 53.1014C112.774 52.9284 112.915 52.7881 113.088 52.7881H120.363C120.536 52.7881 120.677 52.9284 120.677 53.1014V55.0453C120.677 55.2183 120.536 55.3586 120.363 55.3586H113.088C112.915 55.3586 112.774 55.2183 112.774 55.0453V53.1014Z" fill="#DDEAF3"/>
<path fill-rule="evenodd" clip-rule="evenodd" d="M123.971 53.1014C123.971 52.9284 124.111 52.7881 124.284 52.7881H132.877C133.05 52.7881 133.19 52.9284 133.19 53.1014V55.0453C133.19 55.2183 133.05 55.3586 132.877 55.3586H124.284C124.111 55.3586 123.971 55.2183 123.971 55.0453V53.1014Z" fill="#DDEAF3"/>
<path fill-rule="evenodd" clip-rule="evenodd" d="M123.971 53.1014C123.971 52.9284 124.111 52.7881 124.284 52.7881H128.267C128.44 52.7881 128.58 52.9284 128.58 53.1014V55.0453C128.58 55.2183 128.44 55.3586 128.267 55.3586H124.284C124.111 55.3586 123.971 55.2183 123.971 55.0453V53.1014Z" fill="#0CCA4A"/>
<path fill-rule="evenodd" clip-rule="evenodd" d="M136.481 53.1014C136.481 52.9284 136.622 52.7881 136.795 52.7881H144.4C144.573 52.7881 144.713 52.9284 144.713 53.1014V55.0453C144.713 55.2183 144.573 55.3586 144.4 55.3586H136.795C136.622 55.3586 136.481 55.2183 136.481 55.0453V53.1014Z" fill="#DDEAF3"/>
<path fill-rule="evenodd" clip-rule="evenodd" d="M101.581 60.2996C101.581 60.1266 101.721 59.9863 101.894 59.9863H109.17C109.343 59.9863 109.483 60.1266 109.483 60.2996V62.2435C109.483 62.4165 109.343 62.5568 109.17 62.5568H101.894C101.721 62.5568 101.581 62.4165 101.581 62.2435V60.2996Z" fill="#A7B0CA"/>
<path fill-rule="evenodd" clip-rule="evenodd" d="M93.585 61.2741C93.585 62.4093 94.765 63.3305 96.219 63.3305C97.6731 63.3305 98.8531 62.4093 98.8531 61.2741C98.8531 60.139 97.6731 59.2178 96.219 59.2178C94.765 59.2178 93.585 60.139 93.585 61.2741ZM97.01 60.4527C97.01 60.794 96.6571 61.0696 96.2198 61.0696C95.7826 61.0696 95.4296 60.794 95.4296 60.4527C95.4296 60.1113 95.7826 59.8358 96.2198 59.8358C96.6571 59.8358 97.01 60.1113 97.01 60.4527ZM94.638 62.0921C94.6459 61.6829 95.6916 61.4587 96.2184 61.4587C96.7426 61.4587 97.791 61.6829 97.7989 62.0921C97.4591 62.491 96.8769 62.7543 96.2184 62.7543C95.5599 62.7543 94.9778 62.491 94.638 62.0921Z" fill="#0CCA4A"/>
<path fill-rule="evenodd" clip-rule="evenodd" d="M112.774 60.2996C112.774 60.1266 112.915 59.9863 113.088 59.9863H120.363C120.536 59.9863 120.677 60.1266 120.677 60.2996V62.2435C120.677 62.4165 120.536 62.5568 120.363 62.5568H113.088C112.915 62.5568 112.774 62.4165 112.774 62.2435V60.2996Z" fill="#DDEAF3"/>
<path fill-rule="evenodd" clip-rule="evenodd" d="M123.971 60.2996C123.971 60.1266 124.111 59.9863 124.284 59.9863H132.877C133.05 59.9863 133.19 60.1266 133.19 60.2996V62.2435C133.19 62.4165 133.05 62.5568 132.877 62.5568H124.284C124.111 62.5568 123.971 62.4165 123.971 62.2435V60.2996Z" fill="#DDEAF3"/>
<rect x="123.971" y="59.9863" width="3.2926" height="2.57047" rx="0.313293" fill="#0CCA4A"/>
<path fill-rule="evenodd" clip-rule="evenodd" d="M136.483 60.2996C136.483 60.1266 136.624 59.9863 136.797 59.9863H144.402C144.575 59.9863 144.715 60.1266 144.715 60.2996V62.2435C144.715 62.4165 144.575 62.5568 144.402 62.5568H136.797C136.624 62.5568 136.483 62.4165 136.483 62.2435V60.2996Z" fill="#DDEAF3"/>
<path fill-rule="evenodd" clip-rule="evenodd" d="M101.581 67.4969C101.581 67.3239 101.721 67.1836 101.894 67.1836H109.17C109.343 67.1836 109.483 67.3239 109.483 67.4969V69.4408C109.483 69.6138 109.343 69.7541 109.17 69.7541H101.894C101.721 69.7541 101.581 69.6138 101.581 69.4408V67.4969Z" fill="#A7B0CA"/>
<path fill-rule="evenodd" clip-rule="evenodd" d="M93.585 68.4685C93.585 69.6036 94.765 70.5249 96.219 70.5249C97.6731 70.5249 98.8531 69.6036 98.8531 68.4685C98.8531 67.3334 97.6731 66.4121 96.219 66.4121C94.765 66.4121 93.585 67.3334 93.585 68.4685ZM97.01 67.647C97.01 67.9884 96.6571 68.2639 96.2198 68.2639C95.7826 68.2639 95.4296 67.9884 95.4296 67.647C95.4296 67.3057 95.7826 67.0301 96.2198 67.0301C96.6571 67.0301 97.01 67.3057 97.01 67.647ZM94.638 69.2884C94.6459 68.8791 95.6916 68.655 96.2184 68.655C96.7426 68.655 97.791 68.8791 97.7989 69.2884C97.4591 69.6873 96.877 69.9505 96.2184 69.9505C95.5599 69.9505 94.9778 69.6873 94.638 69.2884Z" fill="#01BAEF"/>
<path fill-rule="evenodd" clip-rule="evenodd" d="M112.774 67.4969C112.774 67.3239 112.915 67.1836 113.088 67.1836H120.363C120.536 67.1836 120.677 67.3239 120.677 67.4969V69.4408C120.677 69.6138 120.536 69.7541 120.363 69.7541H113.088C112.915 69.7541 112.774 69.6138 112.774 69.4408V67.4969Z" fill="#DDEAF3"/>
<path fill-rule="evenodd" clip-rule="evenodd" d="M123.971 67.4969C123.971 67.3239 124.111 67.1836 124.284 67.1836H132.877C133.05 67.1836 133.19 67.3239 133.19 67.4969V69.4408C133.19 69.6138 133.05 69.7541 132.877 69.7541H124.284C124.111 69.7541 123.971 69.6138 123.971 69.4408V67.4969Z" fill="#DDEAF3"/>
<path fill-rule="evenodd" clip-rule="evenodd" d="M123.971 67.4969C123.971 67.3239 124.111 67.1836 124.284 67.1836H131.56C131.733 67.1836 131.873 67.3239 131.873 67.4969V69.4408C131.873 69.6138 131.733 69.7541 131.56 69.7541H124.284C124.111 69.7541 123.971 69.6138 123.971 69.4408V67.4969Z" fill="#0CCA4A"/>
<path fill-rule="evenodd" clip-rule="evenodd" d="M136.483 67.4969C136.483 67.3239 136.624 67.1836 136.797 67.1836H144.402C144.575 67.1836 144.715 67.3239 144.715 67.4969V69.4408C144.715 69.6138 144.575 69.7541 144.402 69.7541H136.797C136.624 69.7541 136.483 69.6138 136.483 69.4408V67.4969Z" fill="#DDEAF3"/>
<path fill-rule="evenodd" clip-rule="evenodd" d="M101.581 74.6951C101.581 74.5221 101.721 74.3818 101.894 74.3818H109.17C109.343 74.3818 109.483 74.5221 109.483 74.6951V76.639C109.483 76.812 109.343 76.9523 109.17 76.9523H101.894C101.721 76.9523 101.581 76.812 101.581 76.639V74.6951Z" fill="#A7B0CA"/>
<path fill-rule="evenodd" clip-rule="evenodd" d="M93.585 75.6687C93.585 76.8038 94.765 77.7251 96.219 77.7251C97.6731 77.7251 98.8531 76.8038 98.8531 75.6687C98.8531 74.5336 97.6731 73.6123 96.219 73.6123C94.765 73.6123 93.585 74.5336 93.585 75.6687ZM97.01 74.8453C97.01 75.1866 96.6571 75.4622 96.2198 75.4622C95.7826 75.4622 95.4296 75.1866 95.4296 74.8453C95.4296 74.5039 95.7826 74.2284 96.2198 74.2284C96.6571 74.2284 97.01 74.5039 97.01 74.8453ZM94.638 76.4866C94.6459 76.0774 95.6916 75.8533 96.2184 75.8533C96.7426 75.8533 97.791 76.0774 97.7989 76.4866C97.4591 76.8856 96.8769 77.1488 96.2184 77.1488C95.5599 77.1488 94.9778 76.8856 94.638 76.4866Z" fill="#574AE2"/>
<path fill-rule="evenodd" clip-rule="evenodd" d="M112.774 74.6951C112.774 74.5221 112.915 74.3818 113.088 74.3818H120.363C120.536 74.3818 120.677 74.5221 120.677 74.6951V76.639C120.677 76.812 120.536 76.9523 120.363 76.9523H113.088C112.915 76.9523 112.774 76.812 112.774 76.639V74.6951Z" fill="#DDEAF3"/>
<path fill-rule="evenodd" clip-rule="evenodd" d="M123.971 74.6951C123.971 74.5221 124.111 74.3818 124.284 74.3818H132.877C133.05 74.3818 133.19 74.5221 133.19 74.6951V76.639C133.19 76.812 133.05 76.9523 132.877 76.9523H124.284C124.111 76.9523 123.971 76.812 123.971 76.639V74.6951Z" fill="#DDEAF3"/>
<path fill-rule="evenodd" clip-rule="evenodd" d="M123.971 74.6951C123.971 74.5221 124.111 74.3818 124.284 74.3818H129.584C129.757 74.3818 129.897 74.5221 129.897 74.6951V76.639C129.897 76.812 129.757 76.9523 129.584 76.9523H124.284C124.111 76.9523 123.971 76.812 123.971 76.639V74.6951Z" fill="#0CCA4A"/>
<path fill-rule="evenodd" clip-rule="evenodd" d="M136.483 74.6951C136.483 74.5221 136.624 74.3818 136.797 74.3818H144.402C144.575 74.3818 144.715 74.5221 144.715 74.6951V76.639C144.715 76.812 144.575 76.9523 144.402 76.9523H136.797C136.624 76.9523 136.483 76.812 136.483 76.639V74.6951Z" fill="#DDEAF3"/>
<path d="M88.0811 40.3853C88.0811 39.001 89.2032 37.8789 90.5874 37.8789H148.134C149.518 37.8789 150.64 39.001 150.64 40.3853V41.9654H88.0811V40.3853Z" fill="#A3D5FF"/>
<path fill-rule="evenodd" clip-rule="evenodd" d="M93.7523 41.484C94.5485 41.484 95.194 40.8386 95.194 40.0423C95.194 39.2461 94.5485 38.6006 93.7523 38.6006C92.956 38.6006 92.3105 39.2461 92.3105 40.0423C92.3105 40.8386 92.956 41.484 93.7523 41.484ZM97.8714 41.484C98.6677 41.484 99.3132 40.8386 99.3132 40.0423C99.3132 39.2461 98.6677 38.6006 97.8714 38.6006C97.0752 38.6006 96.4297 39.2461 96.4297 40.0423C96.4297 40.8386 97.0752 41.484 97.8714 41.484ZM103.432 40.0423C103.432 40.8386 102.787 41.484 101.991 41.484C101.194 41.484 100.549 40.8386 100.549 40.0423C100.549 39.2461 101.194 38.6006 101.991 38.6006C102.787 38.6006 103.432 39.2461 103.432 40.0423Z" fill="white"/>
<rect x="47.7441" y="80.8516" width="63.8724" height="49.8639" rx="2.50635" fill="white"/>
<mask id="mask0_10412_5320" style="mask-type:luminance" maskUnits="userSpaceOnUse" x="47" y="86" width="65" height="33">
<rect width="63.8724" height="32.8052" transform="matrix(-1 0 0 1 111.613 86.1006)" fill="white"/>
</mask>
<g mask="url(#mask0_10412_5320)">
<path fill-rule="evenodd" clip-rule="evenodd" d="M95.6321 92.8788L88.528 102.485C88.3727 102.695 88.0285 102.767 87.7594 102.646L66.1955 92.9264C65.9264 92.8051 65.8342 92.5365 65.9896 92.3265L73.0937 82.7206C73.2492 82.5106 73.5932 82.4385 73.8625 82.5597L95.4262 92.2789C95.6953 92.4002 95.7876 92.6688 95.6321 92.8788ZM111.075 115.113L103.971 124.719C103.815 124.929 103.471 125.001 103.202 124.88L81.6382 115.161C81.3691 115.04 81.2769 114.771 81.4322 114.561L88.5364 104.955C88.6918 104.745 89.0359 104.673 89.3051 104.794L110.869 114.513C111.138 114.635 111.23 114.903 111.075 115.113ZM144.019 71.8091L136.915 81.415C136.76 81.6252 136.416 81.6971 136.147 81.5759L114.583 71.8567C114.314 71.7354 114.221 71.4668 114.377 71.2568L121.481 61.6509C121.636 61.4409 121.98 61.3688 122.25 61.49L143.813 71.2092C144.082 71.3305 144.175 71.5991 144.019 71.8091ZM77.1217 53.1768L70.0175 62.7827C69.8622 62.9928 69.518 63.0647 69.2489 62.9435L47.6851 53.2244C47.416 53.103 47.3238 52.8345 47.4791 52.6244L54.5832 43.0185C54.7387 42.8085 55.0828 42.7365 55.352 42.8577L76.9157 52.5768C77.1848 52.6982 77.2771 52.9668 77.1217 53.1768ZM69.7168 85.1605C69.5613 85.3705 69.2172 85.4425 68.948 85.3212L59.2018 80.9283C58.9326 80.8072 58.8404 80.5384 58.9958 80.3283L66.1 70.7225C66.2553 70.5125 66.5995 70.4405 66.8686 70.5618L76.615 74.9547C76.8841 75.0758 76.9762 75.3445 76.8209 75.5546L69.7168 85.1605ZM53.2038 85.6744C53.0484 85.8845 52.7042 85.9565 52.4351 85.8352L42.6888 81.4425C42.4197 81.3211 42.3275 81.0523 42.4828 80.8423L49.5869 71.2366C49.7424 71.0265 50.0865 70.9546 50.3556 71.0758L60.1019 75.4685C60.371 75.5898 60.4633 75.8586 60.3079 76.0686L53.2038 85.6744ZM61.6575 74.252C61.5022 74.4622 61.158 74.5341 60.8889 74.4128L51.1425 70.0201C50.8734 69.8987 50.7812 69.63 50.9366 69.42L58.0407 59.8143C58.1961 59.6041 58.5402 59.5322 58.8093 59.6534L68.5557 64.0461C68.8248 64.1674 68.9171 64.4362 68.7617 64.6462L61.6575 74.252ZM40.856 80.07C40.7007 80.2802 40.3565 80.3522 40.0874 80.2308L30.341 75.8381C30.0719 75.7168 29.9798 75.448 30.1351 75.238L37.2392 65.6323C37.3947 65.4221 37.7388 65.3502 38.0079 65.4714L47.7542 69.8642C48.0233 69.9854 48.1156 70.2542 47.9602 70.4642L40.856 80.07ZM85.5663 85.6436C85.4109 85.8537 85.0667 85.9257 84.7976 85.8044L75.0513 81.4117C74.7822 81.2903 74.69 81.0215 74.8453 80.8115L81.9495 71.2058C82.1049 70.9957 82.449 70.9238 82.7181 71.045L92.4645 75.4377C92.7336 75.559 92.8259 75.8278 92.6704 76.0378L85.5663 85.6436ZM97.3369 90.9784C97.1816 91.1885 96.8374 91.2605 96.5683 91.1392L86.8219 86.7465C86.5528 86.6251 86.4606 86.3563 86.616 86.1463L93.7201 76.5406C93.8755 76.3305 94.2196 76.2586 94.4887 76.3798L104.235 80.7725C104.504 80.8938 104.597 81.1626 104.441 81.3726L97.3369 90.9784ZM51.9383 87.3864L38.0816 106.122C37.9263 106.332 37.5821 106.404 37.313 106.283L15.7492 96.5641C15.4801 96.4428 15.3879 96.1741 15.5432 95.9638L29.3999 77.228C29.5553 77.0178 29.8994 76.9458 30.1685 77.0671L51.7323 86.7862C52.0014 86.9075 52.0937 87.1762 51.9383 87.3864ZM135.307 83.0951L121.45 101.831C121.295 102.041 120.951 102.113 120.682 101.992L99.1179 92.2727C98.8487 92.1515 98.7566 91.8828 98.9119 91.6725L112.769 72.9367C112.924 72.7265 113.268 72.6545 113.537 72.7758L135.101 82.4949C135.37 82.6162 135.462 82.8848 135.307 83.0951ZM40.7263 105.078C40.8817 104.868 41.2258 104.796 41.495 104.917L51.2413 109.31C51.5105 109.432 51.6027 109.7 51.4472 109.91L44.3431 119.516C44.1878 119.726 43.8436 119.798 43.5745 119.677L33.8281 115.284C33.559 115.163 33.4668 114.894 33.6221 114.684L40.7263 105.078ZM59.7777 98.5284L52.6735 108.134C52.5182 108.344 52.174 108.416 51.9049 108.295L42.1586 103.902C41.8894 103.781 41.7973 103.512 41.9526 103.302L49.0567 93.6963C49.2122 93.4861 49.5563 93.4142 49.8254 93.5356L59.5717 97.9283C59.8409 98.0496 59.9331 98.3184 59.7777 98.5284ZM57.5698 82.1893C57.7251 81.9791 58.0693 81.9072 58.3384 82.0284L68.0847 86.4212C68.3539 86.5426 68.446 86.8112 68.2907 87.0214L61.1866 96.627C61.0311 96.8372 60.687 96.9092 60.4178 96.7878L50.6715 92.3951C50.4024 92.2737 50.3102 92.0051 50.4656 91.795L57.5698 82.1893ZM65.3538 94.0669L75.1002 98.4598C75.3693 98.581 75.4615 98.8497 75.3062 99.0598L62.5749 116.274C62.4195 116.484 62.0754 116.556 61.8063 116.435L52.06 112.042C51.7908 111.921 51.6986 111.652 51.854 111.442L64.5852 94.2276C64.7405 94.0176 65.0847 93.9456 65.3538 94.0669ZM80.3805 51.6782C80.5359 51.4681 80.88 51.3961 81.1492 51.5175L90.8955 55.9103C91.1646 56.0316 91.2568 56.3002 91.1015 56.5103L78.3703 73.7246C78.2148 73.9347 77.8707 74.0067 77.6016 73.8854L67.8553 69.4925C67.5862 69.3712 67.4939 69.1027 67.6493 68.8926L80.3805 51.6782ZM68.0308 110.871C68.1863 110.661 68.5304 110.589 68.7996 110.711L78.5459 115.103C78.815 115.225 78.9072 115.493 78.7518 115.703L71.6476 125.309C71.4923 125.519 71.1481 125.591 70.879 125.47L61.1327 121.077C60.8636 120.956 60.7714 120.687 60.9267 120.477L68.0308 110.871ZM50.5487 113.089C50.7042 112.879 51.0482 112.807 51.3175 112.928L61.0638 117.321C61.3329 117.442 61.4251 117.711 61.2697 117.921L54.1655 127.527C54.0102 127.737 53.666 127.809 53.3969 127.688L43.6505 123.295C43.3814 123.174 43.2892 122.905 43.4446 122.695L50.5487 113.089ZM45.8434 54.3042C45.9989 54.0941 46.3429 54.0221 46.6122 54.1435L56.3585 58.5362C56.6276 58.6576 56.7198 58.9262 56.5644 59.1364L49.4602 68.742C49.3049 68.9522 48.9607 69.0241 48.6916 68.9028L38.9452 64.5101C38.6761 64.3888 38.5839 64.1199 38.7393 63.9099L45.8434 54.3042ZM69.2991 109.16L76.4032 99.5549C76.5587 99.3447 76.9029 99.2727 77.172 99.3939L86.9183 103.787C87.1874 103.908 87.2796 104.177 87.1243 104.387L80.0201 113.993C79.8647 114.203 79.5205 114.275 79.2514 114.153L69.505 109.761C69.2359 109.639 69.1437 109.371 69.2991 109.16ZM102.276 108.261L109.38 98.6558C109.535 98.4456 109.879 98.3737 110.149 98.4948L119.895 102.888C120.164 103.009 120.256 103.278 120.101 103.488L112.997 113.094C112.841 113.304 112.497 113.376 112.228 113.254L102.482 108.862C102.212 108.74 102.12 108.472 102.276 108.261ZM83.4495 69.4199L90.5536 59.8143C90.7091 59.6041 91.0533 59.5322 91.3224 59.6534L101.069 64.0462C101.338 64.1676 101.43 64.4362 101.275 64.6462L94.1706 74.252C94.0151 74.4622 93.6709 74.5342 93.4018 74.4129L83.6555 70.0201C83.3864 69.8987 83.2942 69.6301 83.4495 69.4199ZM95.2152 74.9319L102.319 65.3263C102.475 65.1161 102.819 65.0441 103.088 65.1653L112.834 69.5581C113.104 69.6796 113.196 69.9481 113.04 70.1581L105.936 79.764C105.781 79.9742 105.437 80.0461 105.168 79.9249L95.4212 75.532C95.1521 75.4107 95.0599 75.142 95.2152 74.9319ZM97.2762 93.4076C97.4316 93.1975 97.7758 93.1255 98.045 93.2467L107.791 97.6395C108.06 97.761 108.153 98.0295 107.997 98.2395L100.893 107.845C100.738 108.056 100.393 108.127 100.124 108.006L90.378 103.613C90.1089 103.492 90.0167 103.223 90.1721 103.013L97.2762 93.4076ZM110.724 54.0078C110.879 53.7977 111.223 53.7257 111.493 53.8469L121.239 58.2397C121.508 58.3611 121.6 58.6297 121.445 58.8397L114.341 68.4456C114.185 68.6557 113.841 68.7277 113.572 68.6064L103.826 64.2136C103.556 64.0922 103.464 63.8236 103.62 63.6134L110.724 54.0078ZM98.9581 48.3438C99.1135 48.1336 99.4577 48.0617 99.7268 48.1828L109.473 52.5757C109.742 52.6971 109.834 52.9657 109.679 53.1757L102.575 62.7815C102.42 62.9917 102.075 63.0637 101.806 62.9424L92.0599 58.5496C91.7908 58.4282 91.6986 58.1596 91.8539 57.9494L98.9581 48.3438ZM73.0278 125.845L80.132 116.239C80.2874 116.029 80.6316 115.957 80.9007 116.078L90.647 120.471C90.9162 120.592 91.0083 120.861 90.853 121.071L83.7489 130.677C83.5934 130.887 83.2492 130.959 82.9801 130.838L73.2338 126.445C72.9647 126.323 72.8725 126.055 73.0278 125.845ZM84.7935 131.356L91.8977 121.751C92.0531 121.541 92.3973 121.469 92.6664 121.59L102.413 125.983C102.682 126.104 102.774 126.373 102.619 126.583L95.5146 136.189C95.3591 136.399 95.015 136.471 94.7458 136.349L84.9995 131.957C84.7304 131.835 84.6382 131.567 84.7935 131.356Z" fill="#E1EFFF"/>
</g>
<path fill-rule="evenodd" clip-rule="evenodd" d="M67.1825 96.9375C65.1731 96.9375 63.5381 98.2448 63.5381 99.8517C63.5381 100.271 63.6454 100.671 63.8568 101.041C64.768 102.636 66.515 104.319 67.0289 104.797C67.0674 104.832 67.1235 104.853 67.1826 104.853C67.2416 104.853 67.2978 104.832 67.3363 104.797C67.8499 104.319 69.5969 102.636 70.5084 101.041C70.72 100.671 70.8272 100.271 70.8272 99.8517C70.827 98.2448 69.192 96.9375 67.1825 96.9375ZM67.1846 101.367C66.1408 101.367 65.2915 100.688 65.2915 99.8529C65.2915 99.0182 66.1408 98.3391 67.1846 98.3391C68.2284 98.3391 69.0777 99.0182 69.0777 99.8529C69.0778 100.688 68.2285 101.367 67.1846 101.367Z" fill="#FB3640"/>
<path fill-rule="evenodd" clip-rule="evenodd" d="M67.1851 101.365C66.1413 101.365 65.292 100.686 65.292 99.8517C65.292 99.017 66.1413 98.3379 67.1851 98.3379C68.2289 98.3379 69.0782 99.017 69.0782 99.8517C69.0783 100.686 68.229 101.365 67.1851 101.365Z" fill="white"/>
<rect x="51.1055" y="121.53" width="12.4383" height="2.62442" rx="0.313293" fill="#279AF1"/>
<rect x="51.1055" y="125.468" width="16.8085" height="2.62442" rx="0.313293" fill="#A3D5FF"/>
<rect x="71.2754" y="121.53" width="12.4383" height="2.62442" rx="0.313293" fill="#279AF1"/>
<path fill-rule="evenodd" clip-rule="evenodd" d="M71.2754 125.781C71.2754 125.608 71.4157 125.468 71.5887 125.468H87.7706C87.9437 125.468 88.0839 125.608 88.0839 125.781V127.779C88.0839 127.952 87.9437 128.092 87.7706 128.092H71.5887C71.4157 128.092 71.2754 127.952 71.2754 127.779V125.781Z" fill="#A3D5FF"/>
<rect x="91.4453" y="121.53" width="12.4383" height="2.62442" rx="0.313293" fill="#279AF1"/>
<path fill-rule="evenodd" clip-rule="evenodd" d="M91.4453 125.781C91.4453 125.608 91.5856 125.468 91.7586 125.468H107.941C108.114 125.468 108.254 125.608 108.254 125.781V127.779C108.254 127.952 108.114 128.092 107.941 128.092H91.7586C91.5856 128.092 91.4453 127.952 91.4453 127.779V125.781Z" fill="#A3D5FF"/>
<path d="M47.7422 83.3579C47.7422 81.9737 48.8643 80.8516 50.2485 80.8516H109.108C110.492 80.8516 111.615 81.9737 111.615 83.3579V86.1004H47.7422V83.3579Z" fill="#A3D5FF"/>
<path fill-rule="evenodd" clip-rule="evenodd" d="M51.2723 84.5256C51.9221 84.5256 52.4489 84.1143 52.4489 83.607C52.4489 83.0997 51.9221 82.6885 51.2723 82.6885C50.6225 82.6885 50.0957 83.0997 50.0957 83.607C50.0957 84.1143 50.6225 84.5256 51.2723 84.5256ZM54.6336 84.5256C55.2834 84.5256 55.8102 84.1143 55.8102 83.607C55.8102 83.0997 55.2834 82.6885 54.6336 82.6885C53.9838 82.6885 53.457 83.0997 53.457 83.607C53.457 84.1143 53.9838 84.5256 54.6336 84.5256ZM59.1715 83.607C59.1715 84.1143 58.6447 84.5256 57.9949 84.5256C57.345 84.5256 56.8183 84.1143 56.8183 83.607C56.8183 83.0997 57.345 82.6885 57.9949 82.6885C58.6447 82.6885 59.1715 83.0997 59.1715 83.607Z" fill="white"/>
<rect y="68.9004" width="52.6783" height="32.0003" rx="3.13293" fill="white"/>
<path d="M0 72.0333C0 70.3031 1.40266 68.9004 3.13293 68.9004H49.5453C51.2756 68.9004 52.6783 70.3031 52.6783 72.0333V89.2058H0V72.0333Z" fill="#0CCA4A"/>
<path fill-rule="evenodd" clip-rule="evenodd" d="M32.2391 82.647V75.5671C32.2391 75.0108 31.6561 74.5557 30.9436 74.5557H21.8747C21.1621 74.5557 20.5791 75.0108 20.5791 75.5671V82.647C20.5791 83.2033 21.1621 83.6584 21.8747 83.6584H30.9436C31.6561 83.6584 32.2391 83.2033 32.2391 82.647ZM24.1435 79.8655L25.7629 81.3876L28.0302 79.1069L30.9452 82.1411H21.8763L24.1435 79.8655Z" fill="white"/>
<ellipse cx="5.59903" cy="94.6016" rx="3.29239" ry="2.5703" fill="#A3D5FF"/>
<rect x="11.8525" y="92.0312" width="35.8871" height="1.41367" rx="0.706833" fill="#C7CDDD"/>
<rect x="11.8525" y="94.7305" width="24.6929" height="1.41367" rx="0.706837" fill="#C7CDDD"/>
<rect x="11.8525" y="97.4297" width="30.6193" height="1.41367" rx="0.706833" fill="#E3E6EE"/>
<rect x="41.3986" y="59.0832" width="28.4872" height="14.1548" rx="6.18754" fill="white" stroke="#F2F2F2" stroke-width="0.156647"/>
<path d="M59.9379 65.9736C59.9395 66.4655 59.7923 66.9507 59.5082 67.3898C59.1714 67.916 58.6536 68.3585 58.0127 68.6679C57.3719 68.9773 56.6334 69.1413 55.88 69.1415C55.2499 69.1428 54.6283 69.0278 54.0659 68.8061L51.3447 69.5142L52.2518 67.3898C51.9677 66.9507 51.8205 66.4655 51.8221 65.9736C51.8224 65.3854 52.0325 64.8089 52.4288 64.3086C52.8251 63.8083 53.3919 63.4041 54.0659 63.1411C54.6283 62.9193 55.2499 62.8044 55.88 62.8057H56.1187C57.1138 62.8485 58.0536 63.1764 58.7583 63.7265C59.463 64.2767 59.883 65.0104 59.9379 65.7872V65.9736Z" fill="#A3D5FF"/>
</svg>
