<svg width="73" height="86" viewBox="0 0 73 86" fill="none" xmlns="http://www.w3.org/2000/svg">
<line y1="85.5" x2="73" y2="85.5" stroke="white"/>
<circle cx="35" cy="43" r="14.5" fill="#F9FAFB" stroke="#D7DFE9"/>
<path d="M40 44.5C40.8284 44.5 41.5 43.8284 41.5 43C41.5 42.1716 40.8284 41.5 40 41.5C39.1716 41.5 38.5 42.1716 38.5 43C38.5 43.8284 39.1716 44.5 40 44.5Z" stroke="#5E718D" stroke-miterlimit="10"/>
<path d="M35 44.5C35.8284 44.5 36.5 43.8284 36.5 43C36.5 42.1716 35.8284 41.5 35 41.5C34.1716 41.5 33.5 42.1716 33.5 43C33.5 43.8284 34.1716 44.5 35 44.5Z" stroke="#5E718D" stroke-miterlimit="10"/>
<path d="M30 44.5C30.8284 44.5 31.5 43.8284 31.5 43C31.5 42.1716 30.8284 41.5 30 41.5C29.1716 41.5 28.5 42.1716 28.5 43C28.5 43.8284 29.1716 44.5 30 44.5Z" stroke="#5E718D" stroke-miterlimit="10"/>
</svg>
