<svg width="25" height="24" viewBox="0 0 25 24" fill="none" xmlns="http://www.w3.org/2000/svg">
<path d="M13.93 5.43V6.77C11.31 6.98 9.82 8.66 9.82 11.43V16H5.93C3.64 16 2.5 14.86 2.5 12.57V5.43C2.5 3.14 3.64 2 5.93 2H10.5C12.79 2 13.93 3.14 13.93 5.43Z" fill="#0F3CD9"/>
<path d="M19.07 8H14.5C12.21 8 11.07 9.14 11.07 11.43V18.57C11.07 20.86 12.21 22 14.5 22H19.07C21.36 22 22.5 20.86 22.5 18.57V11.43C22.5 9.14 21.36 8 19.07 8ZM18.63 15.75H17.75V16.63C17.75 17.04 17.41 17.38 17 17.38C16.59 17.38 16.25 17.04 16.25 16.63V15.75H15.37C14.96 15.75 14.62 15.41 14.62 15C14.62 14.59 14.96 14.25 15.37 14.25H16.25V13.37C16.25 12.96 16.59 12.62 17 12.62C17.41 12.62 17.75 12.96 17.75 13.37V14.25H18.63C19.04 14.25 19.38 14.59 19.38 15C19.38 15.41 19.04 15.75 18.63 15.75Z" fill="#0F3CD9"/>
</svg>