<svg width="24" height="24" viewBox="0 0 24 24" fill="none" xmlns="http://www.w3.org/2000/svg">
<path d="M21.529 10.8689L20.009 9.34891C19.749 9.08891 19.539 8.57891 19.539 8.21891V6.05891C19.539 5.17891 18.819 4.45891 17.939 4.45891H15.789C15.429 4.45891 14.919 4.24891 14.659 3.98891L13.139 2.46891C12.519 1.84891 11.499 1.84891 10.879 2.46891L9.339 3.98891C9.089 4.24891 8.579 4.45891 8.209 4.45891H6.059C5.179 4.45891 4.459 5.17891 4.459 6.05891V8.20891C4.459 8.56891 4.249 9.07891 3.989 9.33891L2.469 10.8589C1.849 11.4789 1.849 12.4989 2.469 13.1189L3.989 14.6389C4.249 14.8989 4.459 15.4089 4.459 15.7689V17.9189C4.459 18.7989 5.179 19.5189 6.059 19.5189H8.209C8.569 19.5189 9.079 19.7289 9.339 19.9889L10.859 21.5089C11.479 22.1289 12.499 22.1289 13.119 21.5089L14.639 19.9889C14.899 19.7289 15.409 19.5189 15.769 19.5189H17.919C18.799 19.5189 19.519 18.7989 19.519 17.9189V15.7689C19.519 15.4089 19.729 14.8989 19.989 14.6389L21.509 13.1189C22.159 12.5089 22.159 11.4889 21.529 10.8689ZM7.999 8.99891C7.999 8.44891 8.449 7.99891 8.999 7.99891C9.549 7.99891 9.999 8.44891 9.999 8.99891C9.999 9.54891 9.559 9.99891 8.999 9.99891C8.449 9.99891 7.999 9.54891 7.999 8.99891ZM9.529 15.5289C9.379 15.6789 9.189 15.7489 8.999 15.7489C8.809 15.7489 8.619 15.6789 8.469 15.5289C8.32952 15.3878 8.2513 15.1973 8.2513 14.9989C8.2513 14.8005 8.32952 14.61 8.469 14.4689L14.469 8.46891C14.759 8.17891 15.239 8.17891 15.529 8.46891C15.819 8.75891 15.819 9.23891 15.529 9.52891L9.529 15.5289ZM14.999 15.9989C14.439 15.9989 13.989 15.5489 13.989 14.9989C13.989 14.4489 14.439 13.9989 14.989 13.9989C15.539 13.9989 15.989 14.4489 15.989 14.9989C15.989 15.5489 15.549 15.9989 14.999 15.9989Z" fill="#3D4A5C"/>
</svg>
