<svg xmlns="http://www.w3.org/2000/svg" width="23" height="23" viewBox="0 0 23 23" fill="none">
  <path d="M5.99861 13.1365L4.63193 19.0544C4.58961 19.2336 4.60231 19.4214 4.66838 19.5933C4.73445 19.7652 4.85082 19.9131 5.00228 20.0178C5.15374 20.1225 5.33326 20.1791 5.51738 20.1802C5.70151 20.1813 5.88168 20.1269 6.03438 20.024L11.0287 16.6944L16.0231 20.024C16.1793 20.1277 16.3636 20.1811 16.551 20.177C16.7385 20.1729 16.9203 20.1114 17.0718 20.001C17.2234 19.8905 17.3374 19.7362 17.3987 19.559C17.46 19.3817 17.4655 19.19 17.4145 19.0095L15.7369 13.1392L19.8975 9.39506C20.0307 9.27507 20.1259 9.11866 20.1712 8.94516C20.2165 8.77167 20.2099 8.5887 20.1524 8.41888C20.0948 8.24907 19.9887 8.09985 19.8472 7.98969C19.7057 7.87953 19.535 7.81326 19.3563 7.79907L14.1271 7.38264L11.8643 2.37363C11.7922 2.21234 11.6749 2.07538 11.5266 1.97927C11.3783 1.88317 11.2054 1.83203 11.0287 1.83203C10.852 1.83203 10.6791 1.88317 10.5308 1.97927C10.3826 2.07538 10.2653 2.21234 10.1931 2.37363L7.9303 7.38264L2.70115 7.79815C2.52546 7.81207 2.3575 7.87631 2.21736 7.98319C2.07722 8.09006 1.97084 8.23505 1.91095 8.4008C1.85105 8.56655 1.84018 8.74605 1.87963 8.91782C1.91907 9.08959 2.00717 9.24636 2.13338 9.36937L5.99861 13.1365ZM8.61548 9.1685C8.7792 9.1556 8.93643 9.0989 9.0707 9.00433C9.20497 8.90976 9.31133 8.78081 9.37862 8.631L11.0287 4.97949L12.6788 8.631C12.7461 8.78081 12.8525 8.90976 12.9867 9.00433C13.121 9.0989 13.2782 9.1556 13.442 9.1685L17.0852 9.45743L14.0849 12.1578C13.8244 12.3926 13.7208 12.754 13.8162 13.0915L14.9655 17.1136L11.5387 14.8287C11.3883 14.7278 11.2112 14.6739 11.0301 14.6739C10.8489 14.6739 10.6719 14.7278 10.5215 14.8287L6.94061 17.2163L7.9037 13.0466C7.93902 12.8932 7.93428 12.7333 7.88994 12.5823C7.8456 12.4313 7.76316 12.2943 7.65055 12.1844L4.86399 9.46752L8.61548 9.1685Z" fill="#F3CD03"/>
</svg>