<svg xmlns="http://www.w3.org/2000/svg" width="23" height="23" viewBox="0 0 23 23" fill="none">
  <path d="M20.1349 8.41866C20.0773 8.24885 19.9712 8.09964 19.8297 7.98945C19.6882 7.87926 19.5175 7.81292 19.3388 7.79861L14.1096 7.3831L11.8468 2.37409C11.7747 2.21276 11.6575 2.07573 11.5093 1.97955C11.3611 1.88336 11.1882 1.83213 11.0115 1.83203C10.8348 1.83193 10.6619 1.88298 10.5135 1.979C10.3652 2.07502 10.2478 2.21192 10.1756 2.37317L7.91279 7.3831L2.68363 7.79861C2.50794 7.81253 2.33998 7.87677 2.19984 7.98364C2.05971 8.09052 1.95333 8.23551 1.89343 8.40126C1.83353 8.56701 1.82266 8.74651 1.86211 8.91828C1.90156 9.09005 1.98965 9.24682 2.11587 9.36983L5.98017 13.1369L4.61349 19.0549C4.572 19.234 4.5853 19.4215 4.65167 19.593C4.71804 19.7645 4.83442 19.9121 4.98571 20.0166C5.137 20.1211 5.3162 20.1777 5.50008 20.1791C5.68395 20.1805 5.864 20.1266 6.01686 20.0244L11.0112 16.6949L16.0055 20.0244C16.1618 20.1282 16.346 20.1816 16.5335 20.1774C16.721 20.1733 16.9028 20.1119 17.0543 20.0014C17.2058 19.8909 17.3199 19.7367 17.3812 19.5595C17.4424 19.3822 17.448 19.1904 17.397 19.01L15.7194 13.1397L19.8799 9.39551C20.1524 9.1497 20.2523 8.76629 20.1349 8.41866Z" fill="#F3CD03"/>
</svg>