<svg width="25" height="25" viewBox="0 0 25 25" fill="none" xmlns="http://www.w3.org/2000/svg">
<g clip-path="url(#clip0_2075_92273)">
<path d="M24.5 12.5C24.5 5.87188 19.1281 0.5 12.5 0.5C5.87188 0.5 0.5 5.87188 0.5 12.5C0.5 18.4902 4.88563 23.4547 10.6259 24.3552V15.9716H7.58141V12.5H10.6259V9.85672C10.6259 6.85156 12.4142 5.18844 15.1564 5.18844C16.4713 5.18844 17.8456 5.42516 17.8456 5.42516V8.37734H16.3334C14.8409 8.37734 14.3806 9.30453 14.3806 10.2514V12.5H17.7078L17.1753 15.9716H14.3806V24.3552C20.1144 23.4547 24.5 18.4902 24.5 12.5Z" fill="#1877F2"/>
<path d="M17.1683 15.9716L17.7012 12.5H14.374V10.2514C14.374 9.30457 14.8409 8.37738 16.3269 8.37738H17.839V5.4252C17.839 5.4252 16.4647 5.18848 15.1498 5.18848C12.4081 5.18848 10.6194 6.85207 10.6194 9.85676V12.5H7.57483V15.9716H10.6194V24.3552C11.2311 24.4536 11.8555 24.5 12.4934 24.5C13.1314 24.5 13.7558 24.4475 14.3675 24.3552V15.9716H17.1683Z" fill="white"/>
</g>
<defs>
<clipPath id="clip0_2075_92273">
<rect width="24" height="24" fill="white" transform="translate(0.5 0.5)"/>
</clipPath>
</defs>
</svg>
