<svg
            width="24"
            height="24"
            viewBox="0 0 24 24"
            fill="none"
            xmlns="http://www.w3.org/2000/svg"
          >
            <path
              d="M7.79999 22.1478C5.14999 22.1478 2.98999 19.9978 2.98999 17.3378V14.4978C2.99023 14.3434 3.02769 14.1914 3.09918 14.0546C3.17068 13.9178 3.27411 13.8003 3.40069 13.712C3.52728 13.6237 3.6733 13.5672 3.82637 13.5473C3.97944 13.5274 4.13504 13.5447 4.27999 13.5978C4.53999 13.6878 4.79999 13.7478 5.06999 13.7878C5.18999 13.8078 5.30999 13.8278 5.42999 13.8278C5.57999 13.8478 5.73999 13.8578 5.88999 13.8578C6.99999 13.8578 8.09999 13.4478 8.96999 12.7378C9.79999 13.4478 10.87 13.8578 12.01 13.8578C13.15 13.8578 14.21 13.4678 15.04 12.7478C15.9 13.4478 16.98 13.8578 18.08 13.8578C18.25 13.8578 18.43 13.8478 18.59 13.8278C18.71 13.8178 18.81 13.8078 18.92 13.7878C19.22 13.7478 19.49 13.6678 19.76 13.5778C19.9038 13.5287 20.0572 13.5145 20.2076 13.5363C20.358 13.558 20.5011 13.6152 20.6251 13.7031C20.7491 13.791 20.8504 13.907 20.9208 14.0417C20.9912 14.1764 21.0286 14.3258 21.03 14.4778V17.3378C21.03 19.9878 18.88 22.1478 16.22 22.1478H7.79999Z"
              fill="#3D4A5C"
            />
            <path
              d="M21.9801 8.59205L21.7001 5.93205C21.3001 3.03205 19.9801 1.85205 17.1601 1.85205H6.8201C4.0001 1.85205 2.6901 3.03205 2.2801 5.96205L2.0201 8.60205C1.9201 9.63205 2.2001 10.6321 2.8101 11.4121C3.5401 12.3621 4.6601 12.9021 5.9101 12.9021C7.1201 12.9021 8.2801 12.2921 9.0101 11.3221C9.6601 12.2921 10.7801 12.9021 12.0201 12.9021C13.2601 12.9021 14.3501 12.3221 15.0101 11.3621C15.7501 12.3121 16.8901 12.9021 18.0901 12.9021C19.3701 12.9021 20.5201 12.3321 21.2401 11.3321C21.8201 10.562 22.0801 9.59205 21.9801 8.59205ZM13.5001 7.73205H12.7501V8.51205C12.7501 8.71096 12.6711 8.90173 12.5304 9.04238C12.3898 9.18303 12.199 9.26205 12.0001 9.26205C11.8012 9.26205 11.6104 9.18303 11.4698 9.04238C11.3291 8.90173 11.2501 8.71096 11.2501 8.51205V7.73205H10.5001C10.3012 7.73205 10.1104 7.65303 9.96977 7.51238C9.82911 7.37173 9.7501 7.18096 9.7501 6.98205C9.7501 6.78314 9.82911 6.59237 9.96977 6.45172C10.1104 6.31107 10.3012 6.23205 10.5001 6.23205H11.2501V5.52205C11.2501 5.11205 11.5901 4.77205 12.0001 4.77205C12.4101 4.77205 12.7501 5.11205 12.7501 5.52205V6.23205H13.5001C13.699 6.23205 13.8898 6.31107 14.0304 6.45172C14.1711 6.59237 14.2501 6.78314 14.2501 6.98205C14.2501 7.18096 14.1711 7.37173 14.0304 7.51238C13.8898 7.65303 13.699 7.73205 13.5001 7.73205Z"
              fill="#3D4A5C"
            />
          </svg>