<svg
                  width="24"
                  height="24.558"
                  viewBox="0 0 25 25"
                  fill="none"
                  xmlns="http://www.w3.org/2000/svg"
                >
                  <mask
                    id="mask0_2075_92253"
                    style="mask-type: luminance"
                    maskUnits="userSpaceOnUse"
                    x="0"
                    y="0"
                    width="25"
                    height="25"
                  >
                    <path
                      d="M24.2209 10.2675H12.7791V15.0116H19.3651C18.7512 18.0254 16.1837 19.7556 12.7791 19.7556C8.76047 19.7556 5.52326 16.5185 5.52326 12.5C5.52326 8.48147 8.76047 5.24433 12.7791 5.24433C14.5093 5.24433 16.0721 5.85827 17.3 6.8629L20.8721 3.29089C18.6953 1.39326 15.9047 0.221191 12.7791 0.221191C5.96977 0.221191 0.5 5.69083 0.5 12.5C0.5 19.3091 5.96977 24.7788 12.7791 24.7788C18.9186 24.7788 24.5 20.3138 24.5 12.5C24.5 11.7744 24.3884 10.993 24.2209 10.2675Z"
                      fill="white"
                    />
                  </mask>
                  <g mask="url(#mask0_2075_92253)">
                    <path
                      d="M-0.616699 19.7567V5.24536L8.87167 12.501L-0.616699 19.7567Z"
                      fill="#FBBC05"
                    />
                  </g>
                  <mask
                    id="mask1_2075_92253"
                    style="mask-type: luminance"
                    maskUnits="userSpaceOnUse"
                    x="0"
                    y="0"
                    width="25"
                    height="25"
                  >
                    <path
                      d="M24.2209 10.2675H12.7791V15.0116H19.3651C18.7512 18.0254 16.1837 19.7556 12.7791 19.7556C8.76047 19.7556 5.52326 16.5185 5.52326 12.5C5.52326 8.48147 8.76047 5.24433 12.7791 5.24433C14.5093 5.24433 16.0721 5.85827 17.3 6.8629L20.8721 3.29089C18.6953 1.39326 15.9047 0.221191 12.7791 0.221191C5.96977 0.221191 0.5 5.69083 0.5 12.5C0.5 19.3091 5.96977 24.7788 12.7791 24.7788C18.9186 24.7788 24.5 20.3138 24.5 12.5C24.5 11.7744 24.3884 10.993 24.2209 10.2675Z"
                      fill="white"
                    />
                  </mask>
                  <g mask="url(#mask1_2075_92253)">
                    <path
                      d="M-0.616699 5.24535L8.87167 12.501L12.7786 9.09643L26.174 6.91973V-0.894043H-0.616699V5.24535Z"
                      fill="#EA4335"
                    />
                  </g>
                  <mask
                    id="mask2_2075_92253"
                    style="mask-type: luminance"
                    maskUnits="userSpaceOnUse"
                    x="0"
                    y="0"
                    width="25"
                    height="25"
                  >
                    <path
                      d="M24.2209 10.2675H12.7791V15.0116H19.3651C18.7512 18.0254 16.1837 19.7556 12.7791 19.7556C8.76047 19.7556 5.52326 16.5185 5.52326 12.5C5.52326 8.48147 8.76047 5.24433 12.7791 5.24433C14.5093 5.24433 16.0721 5.85827 17.3 6.8629L20.8721 3.29089C18.6953 1.39326 15.9047 0.221191 12.7791 0.221191C5.96977 0.221191 0.5 5.69083 0.5 12.5C0.5 19.3091 5.96977 24.7788 12.7791 24.7788C18.9186 24.7788 24.5 20.3138 24.5 12.5C24.5 11.7744 24.3884 10.993 24.2209 10.2675Z"
                      fill="white"
                    />
                  </mask>
                  <g mask="url(#mask2_2075_92253)">
                    <path
                      d="M-0.616699 19.7567L16.1275 6.91973L20.5368 7.47786L26.174 -0.894043V25.896H-0.616699V19.7567Z"
                      fill="#34A853"
                    />
                  </g>
                  <mask
                    id="mask3_2075_92253"
                    style="mask-type: luminance"
                    maskUnits="userSpaceOnUse"
                    x="0"
                    y="0"
                    width="25"
                    height="25"
                  >
                    <path
                      d="M24.2209 10.2675H12.7791V15.0116H19.3651C18.7512 18.0254 16.1837 19.7556 12.7791 19.7556C8.76047 19.7556 5.52326 16.5185 5.52326 12.5C5.52326 8.48147 8.76047 5.24433 12.7791 5.24433C14.5093 5.24433 16.0721 5.85827 17.3 6.8629L20.8721 3.29089C18.6953 1.39326 15.9047 0.221191 12.7791 0.221191C5.96977 0.221191 0.5 5.69083 0.5 12.5C0.5 19.3091 5.96977 24.7788 12.7791 24.7788C18.9186 24.7788 24.5 20.3138 24.5 12.5C24.5 11.7744 24.3884 10.993 24.2209 10.2675Z"
                      fill="white"
                    />
                  </mask>
                  <g mask="url(#mask3_2075_92253)">
                    <path
                      d="M26.1744 25.8961L8.87208 12.501L6.63953 10.8266L26.1744 5.24536V25.8961Z"
                      fill="#4285F4"
                    />
                  </g>
                </svg>