<svg width="314" height="164" viewBox="0 0 314 164" fill="none" xmlns="http://www.w3.org/2000/svg">
<path d="M175.892 153.988C168.526 154.24 159.775 153.988 153.479 153.925C147.309 154.177 138.369 154.24 131.066 153.988C138.306 149.896 140.888 142.215 141.265 137.241H165.63C166.196 142.152 168.715 149.896 175.892 153.988Z" fill="#D5DDEA"/>
<g filter="url(#filter0_d_2075_92913)">
<path d="M199.438 72.5255V135.608C199.438 137.182 198.179 138.442 196.794 138.442H110.605C109.094 138.442 107.961 137.182 107.961 135.608V72.5255C107.961 71.0145 109.22 69.6924 110.605 69.6924H196.668C198.305 69.8183 199.438 71.0774 199.438 72.5255Z" fill="white"/>
</g>
<path d="M199.703 72.5296V127.499H108.203V72.5296C108.203 71.0324 109.484 69.749 110.872 69.749H196.927C198.529 69.749 199.703 71.0324 199.703 72.5296Z" fill="#989FB0"/>
<path d="M196.596 73.499H111.203V124.499H196.703V73.499H196.596Z" fill="white"/>
<path d="M153.604 134.665C154.863 134.665 155.871 133.72 155.871 132.398C155.871 131.139 154.926 130.132 153.604 130.132C152.345 130.132 151.338 131.076 151.338 132.398C151.338 133.657 152.282 134.665 153.604 134.665Z" fill="#D6DDE8"/>
<path fill-rule="evenodd" clip-rule="evenodd" d="M16.3044 154.925C16.3044 154.096 16.976 153.425 17.8045 153.425H305.52C306.348 153.425 307.02 154.096 307.02 154.925C307.02 155.753 306.348 156.425 305.52 156.425H17.8045C16.976 156.425 16.3044 155.753 16.3044 154.925Z" fill="#D6DDE8"/>
<path d="M209.572 107.467C211.839 107.467 213.665 105.641 213.665 103.374C213.665 101.108 211.839 99.2822 209.572 99.2822C207.306 99.2822 205.48 101.108 205.48 103.374C205.543 105.641 207.306 107.467 209.572 107.467Z" fill="#F1F3FA"/>
<path d="M289.781 81.1525C289.97 80.9636 290.096 80.8377 290.159 80.7748C290.159 80.7748 290.599 80.397 290.599 80.3341L290.914 80.0822C291.166 79.9563 291.607 79.5156 292.362 79.3267C293.621 78.949 294.377 79.3267 294.817 79.2638C294.88 79.2638 295.006 79.2008 295.006 79.2008C295.132 79.1379 295.258 79.0749 295.258 79.0749C295.636 78.7601 295.51 78.7601 297.525 65.6651L297.588 65.3503C297.651 64.9725 297.336 64.7207 296.958 64.7207H296.895H296.832L296.391 64.9096L291.481 67.0501L291.355 67.1131C282.415 71.0164 283.737 69.9461 284.304 72.4644C284.429 72.7792 284.618 73.9124 284.241 74.9827C284.115 75.4234 283.863 75.8011 283.485 76.4307L289.781 81.1525ZM288.522 76.4307C287.703 75.8011 287.514 74.605 288.144 73.7236C288.774 72.9051 289.97 72.7162 290.788 73.3458C291.607 73.9754 291.795 75.1716 291.166 75.99C290.536 76.8714 289.34 77.0603 288.522 76.4307Z" fill="#DBDFE9"/>
<path fill-rule="evenodd" clip-rule="evenodd" d="M297.291 65.0069C297.62 65.2594 297.681 65.7302 297.429 66.0586L291.574 73.6765C291.322 74.0049 290.851 74.0665 290.522 73.8141C290.194 73.5616 290.132 73.0908 290.385 72.7624L296.24 65.1446C296.492 64.8161 296.963 64.7545 297.291 65.0069Z" fill="white"/>
<path d="M299.162 64.9718C304.01 69.2529 306.717 76.1152 304.639 83.4812M277.882 62.8312C284.367 58.9909 291.544 59.7463 296.895 63.209M297.651 62.1387L287.326 54.2061M310.368 71.8971L300.043 63.9645M311.69 71.5823C311.942 71.5823 312.194 71.6452 312.446 71.8341C313.012 72.2748 313.138 73.0932 312.698 73.6599C312.257 74.2265 311.438 74.3524 310.872 73.9117C310.62 73.7228 310.494 73.471 310.431 73.2192C310.305 72.8414 310.368 72.4007 310.62 72.0859C310.872 71.7082 311.313 71.5193 311.69 71.5823ZM286.13 51.9397C286.381 51.9397 286.633 52.0026 286.885 52.1915C287.452 52.6322 287.578 53.4506 287.137 54.0173C286.696 54.5839 285.878 54.7098 285.311 54.2691C285.059 54.0802 284.933 53.8284 284.87 53.5765C284.745 53.1988 284.808 52.7581 285.059 52.4433C285.311 52.0656 285.752 51.8767 286.13 51.9397ZM302.436 86.629L302.121 84.1107L303.821 83.8589L304.639 83.733L304.891 85.7476L304.954 86.1883L302.436 86.629ZM275.427 65.9161L275.112 63.3979L276.812 63.146L277.63 63.0201L277.882 65.0347L277.945 65.4754L275.427 65.9161ZM297.273 64.9718L296.958 62.4535L298.658 62.2017L299.477 62.0758L299.728 64.0904L299.791 64.5311L297.273 64.9718Z" stroke="#D6DDE8" stroke-width="1.5" stroke-miterlimit="10" stroke-linecap="round" stroke-linejoin="round"/>
<path d="M274.028 63.4178L274.302 66.1853C274.343 66.5975 274.71 66.8985 275.122 66.8577L277.89 66.5835C278.302 66.5427 278.603 66.1754 278.562 65.7632L278.288 62.9957C278.247 62.5835 277.88 62.2825 277.468 62.3233L274.7 62.5975C274.288 62.6383 273.987 63.0056 274.028 63.4178Z" fill="url(#paint0_linear_2075_92913)"/>
<path d="M296.528 61.9178L296.802 64.6853C296.843 65.0975 297.21 65.3985 297.622 65.3577L300.39 65.0835C300.802 65.0427 301.103 64.6754 301.062 64.2632L300.788 61.4957C300.747 61.0835 300.38 60.7825 299.968 60.8233L297.2 61.0975C296.788 61.1383 296.487 61.5056 296.528 61.9178Z" fill="url(#paint1_linear_2075_92913)"/>
<path d="M301.028 84.4178L301.302 87.1853C301.343 87.5975 301.71 87.8985 302.122 87.8577L304.89 87.5835C305.302 87.5427 305.603 87.1754 305.562 86.7632L305.288 83.9957C305.247 83.5835 304.88 83.2825 304.468 83.3233L301.7 83.5975C301.288 83.6383 300.987 84.0056 301.028 84.4178Z" fill="url(#paint2_linear_2075_92913)"/>
<path d="M311.756 74.9706C312.932 74.8541 313.791 73.8059 313.675 72.6295C313.558 71.453 312.51 70.5938 311.334 70.7104C310.157 70.8269 309.298 71.8751 309.415 73.0515C309.531 74.228 310.579 75.0872 311.756 74.9706Z" fill="url(#paint3_linear_2075_92913)"/>
<path d="M287.006 55.4706C288.182 55.3541 289.041 54.3059 288.925 53.1295C288.808 51.953 287.76 51.0938 286.584 51.2104C285.407 51.3269 284.548 52.3751 284.665 53.5515C284.781 54.728 285.829 55.5872 287.006 55.4706Z" fill="url(#paint4_linear_2075_92913)"/>
<path d="M285.436 84.614L279.77 80.27C279.456 80.0182 279.393 79.5775 279.644 79.2627L280.778 77.7517L281.722 76.5555L281.974 76.1778C282.226 75.863 282.666 75.8 282.981 76.0519L290.221 81.6551C290.536 81.9069 290.599 82.3476 290.347 82.6624L288.018 85.6843C287.766 85.9991 287.325 86.062 287.01 85.8102L286.759 85.6213L285.436 84.614Z" fill="url(#paint5_linear_2075_92913)"/>
<path d="M55.3875 79.4522L35.493 74.4786C35.1152 74.4156 34.8004 74.1638 34.5486 73.9119L32.0303 71.3307L30.5193 69.7568C30.2046 69.442 30.3305 68.8754 30.7712 68.7495L32.8488 68.1199L36.3114 67.0496C36.6892 66.9237 37.0669 66.9237 37.4447 66.9867L57.3392 71.9603C58.0947 72.1491 58.5354 72.9046 58.3465 73.6601L57.1503 78.4449C56.8985 79.1374 56.143 79.641 55.3875 79.4522Z" fill="#DBDFE9"/>
<path d="M55.3888 79.451L52.241 78.6325L54.1297 71.1406L57.2776 71.9591C58.033 72.1479 58.4737 72.9034 58.2849 73.6589L57.0887 78.4436C56.8998 79.1362 56.1443 79.6398 55.3888 79.451Z" fill="#9EA9BC"/>
<path d="M31.9678 71.33L30.4568 69.756C30.1421 69.4412 30.268 68.8746 30.7087 68.7487L32.7863 68.1191L31.9678 71.33Z" fill="#9AA6BA"/>
<path d="M52.4305 70.6992L50.5417 78.2541" stroke="#C1C9D6" stroke-width="1.5" stroke-miterlimit="10"/>
<path d="M37.0672 66.8594L35.1785 74.3513" stroke="#C1C9D6" stroke-width="1.5" stroke-miterlimit="10"/>
<path d="M51.7994 73.0923L36.5007 69.252" stroke="#C1C9D6" stroke-width="1.5" stroke-miterlimit="10"/>
<path d="M51.1709 75.6724L35.8093 71.832" stroke="#C1C9D6" stroke-width="1.5" stroke-miterlimit="10"/>
<path d="M108.594 28.5702L87.0808 18.248L76.7586 39.7609L98.2715 50.083L108.594 28.5702Z" stroke="#D6DDE8" stroke-width="1.5" stroke-miterlimit="10"/>
<path d="M96.5615 50.8699L84.033 55.2769L96.5615 50.8699ZM112.805 45.1408L100.087 49.6108L112.805 45.1408ZM113.245 43.7558C113.434 43.5039 113.623 43.3151 113.938 43.2521C114.63 43.0003 115.449 43.378 115.701 44.0705C115.952 44.7631 115.575 45.5815 114.882 45.8333C114.567 45.9593 114.316 45.9593 114.001 45.8333C113.623 45.7074 113.245 45.3926 113.119 44.9519C112.93 44.5742 112.993 44.1335 113.245 43.7558ZM81.3888 55.0251C81.5777 54.7733 81.7666 54.5844 82.0813 54.5214C82.7739 54.2696 83.5923 54.6473 83.8441 55.3399C84.096 56.0324 83.7182 56.8508 83.0257 57.1027C82.7109 57.2286 82.4591 57.2286 82.1443 57.1027C81.7666 56.9767 81.3888 56.662 81.2629 56.2213C81.074 55.7806 81.137 55.3399 81.3888 55.0251ZM98.9539 52.0031L96.5615 50.8699L97.317 49.233L97.6948 48.4775L99.6465 49.4219L100.087 49.6108L98.9539 52.0031Z" fill="#F1F3FA" stroke="#D6DDE8" stroke-width="1.5" stroke-miterlimit="10"/>
<path d="M102.228 12.3397C102.417 12.0879 102.606 11.899 102.921 11.8361C103.613 11.5843 104.432 11.962 104.683 12.6545C104.935 13.3471 104.558 14.1655 103.865 14.4173C103.55 14.5432 103.298 14.5432 102.984 14.4173C102.606 14.2914 102.228 13.9766 102.102 13.5359C101.913 13.0952 101.976 12.6545 102.228 12.3397ZM70.3087 23.5461C70.4976 23.2943 70.6865 23.1054 71.0013 23.0424C71.6938 22.7906 72.5122 23.1684 72.7641 23.8609C73.0159 24.5534 72.6382 25.3719 71.9456 25.6237C71.6308 25.7496 71.379 25.7496 71.0642 25.6237C70.6865 25.4978 70.3087 25.183 70.1828 24.7423C69.9939 24.3016 70.0569 23.8609 70.3087 23.5461ZM87.9368 20.5242L85.5444 19.3909L86.2999 17.7541L86.6776 16.9986L88.6293 17.9429L89.07 18.1318L87.9368 20.5242ZM77.4859 41.6148L75.0935 40.4816L75.849 38.8447L76.2267 38.0892L78.1784 39.0335L78.6191 39.2224L77.4859 41.6148ZM110.601 28.0161L109.468 30.4084L107.831 29.6529L107.076 29.2752L108.02 27.3235L108.209 26.8828L110.601 28.0161Z" fill="#F1F3FA"/>
<path d="M85.5444 19.3909L73.0159 23.7979M85.5444 19.3909L87.9368 20.5242L89.07 18.1318L88.6293 17.9429L86.6776 16.9986L86.2999 17.7541L85.5444 19.3909ZM101.724 13.7248L89.0071 18.1948M102.228 12.3397C102.417 12.0879 102.606 11.899 102.921 11.8361C103.613 11.5843 104.432 11.962 104.683 12.6545C104.935 13.3471 104.558 14.1655 103.865 14.4173C103.55 14.5432 103.298 14.5432 102.984 14.4173C102.606 14.2914 102.228 13.9766 102.102 13.5359C101.913 13.0952 101.976 12.6545 102.228 12.3397ZM70.3087 23.5461C70.4976 23.2943 70.6865 23.1054 71.0013 23.0424C71.6938 22.7906 72.5122 23.1684 72.7641 23.8609C73.0159 24.5534 72.6382 25.3719 71.9456 25.6237C71.6308 25.7496 71.379 25.7496 71.0642 25.6237C70.6865 25.4978 70.3087 25.183 70.1828 24.7423C69.9939 24.3016 70.0569 23.8609 70.3087 23.5461ZM77.4859 41.6148L75.0935 40.4816L75.849 38.8447L76.2267 38.0892L78.1784 39.0335L78.6191 39.2224L77.4859 41.6148ZM110.601 28.0161L109.468 30.4084L107.831 29.6529L107.076 29.2752L108.02 27.3235L108.209 26.8828L110.601 28.0161Z" stroke="#D6DDE8" stroke-width="1.5" stroke-miterlimit="10"/>
<path d="M85.9323 16.3658L84.5418 18.7743C84.3346 19.133 84.4575 19.5917 84.8163 19.7988L87.2248 21.1894C87.5835 21.3965 88.0422 21.2736 88.2493 20.9149L89.6398 18.5064C89.8469 18.1477 89.724 17.689 89.3653 17.4819L86.9568 16.0913C86.5981 15.8842 86.1394 16.0071 85.9323 16.3658Z" fill="url(#paint6_linear_2075_92913)"/>
<path d="M75.4655 37.399L74.075 39.8075C73.8678 40.1662 73.9908 40.6249 74.3495 40.832L76.758 42.2226C77.1167 42.4297 77.5754 42.3068 77.7825 41.9481L79.173 39.5396C79.3801 39.1809 79.2572 38.7222 78.8985 38.5151L76.49 37.1245C76.1313 36.9174 75.6726 37.0403 75.4655 37.399Z" fill="url(#paint7_linear_2075_92913)"/>
<path d="M107.715 26.149L106.325 28.5575C106.118 28.9162 106.241 29.3749 106.599 29.582L109.008 30.9726C109.367 31.1797 109.825 31.0568 110.032 30.6981L111.423 28.2896C111.63 27.9309 111.507 27.4722 111.149 27.2651L108.74 25.8745C108.381 25.6674 107.923 25.7903 107.715 26.149Z" fill="url(#paint8_linear_2075_92913)"/>
<path d="M97.2155 47.899L95.825 50.3075C95.6178 50.6662 95.7408 51.1249 96.0995 51.332L98.508 52.7226C98.8667 52.9297 99.3254 52.8068 99.5325 52.4481L100.923 50.0396C101.13 49.6809 101.007 49.2222 100.649 49.0151L98.24 47.6245C97.8813 47.4174 97.4226 47.5403 97.2155 47.899Z" fill="url(#paint9_linear_2075_92913)"/>
<path d="M81.4787 58.5434C82.7739 59.2912 84.4301 58.8475 85.1779 57.5523C85.9257 56.2571 85.4819 54.6009 84.1867 53.8531C82.8915 53.1053 81.2353 53.5491 80.4875 54.8443C79.7397 56.1395 80.1835 57.7957 81.4787 58.5434Z" fill="url(#paint10_linear_2075_92913)"/>
<path d="M113.545 46.5434C114.84 47.2912 116.497 46.8475 117.244 45.5523C117.992 44.2571 117.548 42.6009 116.253 41.8531C114.958 41.1053 113.302 41.5491 112.554 42.8443C111.806 44.1395 112.25 45.7957 113.545 46.5434Z" fill="url(#paint11_linear_2075_92913)"/>
<path d="M102.295 15.0434C103.59 15.7912 105.247 15.3475 105.994 14.0523C106.742 12.7571 106.298 11.1009 105.003 10.3531C103.708 9.60532 102.052 10.0491 101.304 11.3443C100.556 12.6395 101 14.2957 102.295 15.0434Z" fill="url(#paint12_linear_2075_92913)"/>
<path d="M70.0451 27.0434C71.3403 27.7912 72.9965 27.3475 73.7443 26.0523C74.4921 24.7571 74.0483 23.1009 72.7531 22.3531C71.4579 21.6053 69.8017 22.0491 69.0539 23.3443C68.3062 24.6395 68.7499 26.2957 70.0451 27.0434Z" fill="url(#paint13_linear_2075_92913)"/>
<path d="M93.4773 36.1372L86.3631 38.6555C85.9854 38.7814 85.6076 38.5925 85.4817 38.2148L82.9634 31.1006C82.8375 30.7229 83.0264 30.3452 83.4041 30.2192L90.5183 27.701C90.896 27.575 91.2738 27.7639 91.3997 28.1417L93.918 35.2558C94.0439 35.6335 93.855 36.0113 93.4773 36.1372Z" fill="#EDF0F8"/>
<path d="M97.9461 37.458L93.7909 40.1022C92.8465 40.6688 91.6503 40.417 91.0208 39.4726L88.3766 35.3175C87.8099 34.3731 88.0618 33.1769 89.0061 32.5474L93.1613 29.9032C94.1057 29.3365 95.3019 29.5884 95.9314 30.5327L98.5756 34.6879C99.1423 35.6323 98.8275 36.8914 97.9461 37.458Z" fill="#DBDFE9"/>
<path d="M101.663 38.9691C100.592 41.1726 97.9482 42.117 95.7447 41.0467C93.5412 39.9764 92.5968 37.3322 93.6671 35.1287C94.7374 32.9252 97.3816 31.9809 99.5851 33.0511C101.789 34.0585 102.733 36.7027 101.663 38.9691Z" fill="url(#paint14_linear_2075_92913)"/>
<path d="M67.23 103.751H58.9197V128.808H67.23V103.751Z" fill="url(#paint15_linear_2075_92913)"/>
<path d="M67.2295 108.095H63.8298" stroke="white" stroke-width="1.5" stroke-miterlimit="10" stroke-linecap="round" stroke-linejoin="round"/>
<path d="M67.2295 112.438H63.8298" stroke="white" stroke-width="1.5" stroke-miterlimit="10" stroke-linecap="round" stroke-linejoin="round"/>
<path d="M67.2295 116.845H63.8298" stroke="white" stroke-width="1.5" stroke-miterlimit="10" stroke-linecap="round" stroke-linejoin="round"/>
<path d="M67.2295 121.19H63.8298" stroke="white" stroke-width="1.5" stroke-miterlimit="10" stroke-linecap="round" stroke-linejoin="round"/>
<path d="M77.9297 116.535L76.3558 113.45L76.1669 113.764L76.2298 113.387L73.019 114.583C73.019 114.583 68.8009 121.13 65.4012 129.881C63.5125 134.855 65.9678 134.603 68.549 133.47C69.6823 135.988 71.3192 137.877 73.2709 132.903C76.6076 124.278 77.9297 116.535 77.9297 116.535Z" fill="#F1F3FA" stroke="#D6DDE8" stroke-width="1.5" stroke-miterlimit="10" stroke-linecap="round" stroke-linejoin="round"/>
<path d="M81.0793 114.267C80.1349 116.722 77.3648 117.919 74.9094 116.974C72.4541 116.03 71.2579 113.26 72.2023 110.804C72.9578 108.79 77.8684 104.886 79.6312 103.501C79.946 103.25 80.3867 103.438 80.4497 103.816C80.8904 106.146 81.8348 112.315 81.0793 114.267Z" fill="url(#paint16_linear_2075_92913)"/>
<path d="M52.6203 132.899L45.8209 113.194C45.6949 112.816 45.6949 112.438 45.7579 112.06L46.5764 108.472L47.08 106.331C47.2059 105.891 47.7096 105.702 48.0873 105.954L49.7872 107.339L52.6203 109.668C52.935 109.92 53.1239 110.235 53.2498 110.612L60.0492 130.318C60.3011 131.073 59.9233 131.892 59.1678 132.144L54.446 133.781C53.6276 134.032 52.8721 133.592 52.6203 132.899Z" fill="#DBDFE9"/>
<path d="M52.6208 132.9L51.5505 129.752L58.9795 127.171L60.0498 130.319C60.3016 131.074 59.9239 131.893 59.1684 132.145L54.4466 133.781C53.6281 134.033 52.8726 133.593 52.6208 132.9Z" fill="#F1F3FA" stroke="#D6DDE8" stroke-width="1.5" stroke-miterlimit="10"/>
<path d="M46.5134 108.409L47.0171 106.269C47.143 105.828 47.6467 105.639 48.0244 105.891L49.7243 107.276L46.5134 108.409Z" fill="url(#paint17_linear_2075_92913)"/>
<path d="M58.3486 125.534L50.9197 128.052" stroke="#D6DDE8" stroke-width="1.5" stroke-miterlimit="10"/>
<path d="M53.1236 110.36L45.7576 112.879" stroke="#C1C9D6" stroke-width="1.5" stroke-miterlimit="10"/>
<path d="M54.9498 126.793L49.7244 111.62" stroke="#C1C9D6" stroke-width="1.5" stroke-miterlimit="10"/>
<path d="M47.4594 122.893H78.6863C78.6863 122.893 82.2119 135.232 71.1944 143.48C71.1944 152.419 71.1944 153.301 71.1944 153.301H55.2032V146.627H48.0261V137.75L42.9265 136.491L47.3965 128.496C46.7669 125.977 46.8928 124.781 47.4594 122.893Z" fill="url(#paint18_linear_2075_92913)"/>
<path d="M53.8174 129.44C51.8657 129.44 50.2917 127.866 50.2917 125.852H51.4879C51.4879 127.174 52.5582 128.244 53.8803 128.244C55.2024 128.244 56.2727 127.174 56.2727 125.852H57.4689C57.4059 127.866 55.769 129.44 53.8174 129.44Z" fill="white"/>
<path d="M95.0535 135.485L77.4255 153.113C76.7959 153.743 75.7886 153.743 75.159 153.113L67.2893 145.244C66.6597 144.614 66.6597 143.607 67.2893 142.977L84.9174 125.349C85.547 124.72 86.5543 124.72 87.1838 125.349L95.0535 133.219C95.6831 133.785 95.6831 134.856 95.0535 135.485Z" fill="url(#paint19_linear_2075_92913)"/>
<path d="M95.0527 135.485L89.7013 140.837L79.5652 130.7L84.9166 125.349C85.5461 124.72 86.5534 124.72 87.183 125.349L95.0527 133.219C95.6823 133.785 95.6823 134.856 95.0527 135.485Z" fill="#A1A9BA"/>
<path d="M96.9449 144.299L73.5877 152.987C72.7692 153.302 71.8249 152.861 71.5101 152.043L67.6067 141.655C67.2919 140.836 67.7326 139.892 68.5511 139.577L91.9083 130.889C92.7267 130.574 93.6711 131.015 93.9859 131.834L97.8892 142.221C98.204 143.103 97.7633 143.984 96.9449 144.299Z" fill="url(#paint20_linear_2075_92913)"/>
<path d="M96.9455 144.299L89.8943 146.943L84.9207 133.533L91.9719 130.889C92.7903 130.574 93.7347 131.015 94.0495 131.834L97.9528 142.221C98.2047 143.103 97.764 143.984 96.9455 144.299Z" fill="white"/>
<path d="M84.9034 133.524L75.9929 136.838L80.9968 150.292L89.9073 146.978L84.9034 133.524Z" fill="#DBDFE9"/>
<path d="M96.0609 153.551H71.1298C70.2484 153.551 69.4929 152.796 69.4929 151.915V140.834C69.4929 139.953 70.1854 139.197 71.1298 139.197H96.0609C96.9423 139.197 97.6978 139.89 97.6978 140.834V151.915C97.6349 152.796 96.9423 153.551 96.0609 153.551Z" fill="url(#paint21_linear_2075_92913)"/>
<path d="M96.0615 153.551H88.5066V139.197H96.0615C96.9429 139.197 97.6984 139.89 97.6984 140.834V151.915C97.6354 152.796 96.9429 153.551 96.0615 153.551Z" fill="#A1A9BA"/>
<path d="M88.5073 139.197H79.0007V153.551H88.5073V139.197Z" fill="#DBDFE9"/>
<path d="M74.1536 147.949C75.162 147.949 75.9794 147.132 75.9794 146.124C75.9794 145.115 75.162 144.298 74.1536 144.298C73.1453 144.298 72.3279 145.115 72.3279 146.124C72.3279 147.132 73.1453 147.949 74.1536 147.949Z" fill="white" stroke="#D6DDE8" stroke-width="1.5" stroke-miterlimit="10"/>
<path d="M245.647 153.427H223.549C220.842 153.427 218.638 151.223 218.638 148.516V119.808H250.558V148.516C250.558 151.223 248.354 153.427 245.647 153.427Z" fill="#DBDFE9"/>
<path d="M246.277 119.808V129.818C246.277 130.699 245.521 131.455 244.64 131.455C243.759 131.455 243.003 130.699 243.003 129.818V123.396C243.003 122.515 242.248 121.759 241.366 121.759C240.485 121.759 239.729 122.515 239.729 123.396V126.985C239.729 127.866 238.974 128.622 238.092 128.622C237.211 128.622 236.456 127.866 236.456 126.985V126.544C236.456 125.663 235.7 124.907 234.819 124.907C233.937 124.907 233.182 125.663 233.182 126.544V136.176C233.182 137.058 232.426 137.813 231.545 137.813C230.663 137.813 229.908 137.058 229.908 136.176V119.808H246.277Z" fill="url(#paint22_linear_2075_92913)"/>
<path fill-rule="evenodd" clip-rule="evenodd" d="M214.617 124.591C214.617 123.969 215.121 123.466 215.742 123.466H218.638C219.259 123.466 219.763 123.969 219.763 124.591C219.763 125.212 219.259 125.716 218.638 125.716H216.902C217.484 134.959 225.177 142.29 234.566 142.29C243.955 142.29 251.649 134.959 252.23 125.716H250.62C249.999 125.716 249.495 125.212 249.495 124.591C249.495 123.969 249.999 123.466 250.62 123.466H253.39C254.012 123.466 254.515 123.969 254.515 124.591C254.515 135.6 245.575 144.54 234.566 144.54C223.557 144.54 214.617 135.6 214.617 124.591Z" fill="#C7CEDD"/>
<path d="M251.818 120.624H217.633C217.192 120.624 216.814 120.246 216.814 119.806C216.814 119.365 217.192 118.987 217.633 118.987H251.818C252.259 118.987 252.637 119.365 252.637 119.806C252.637 120.246 252.259 120.624 251.818 120.624Z" fill="#D6DCE8" stroke="#AAB2C5" stroke-width="1.5" stroke-miterlimit="10" stroke-linejoin="round"/>
<g filter="url(#filter1_d_2075_92913)">
<path d="M171.672 111.496H121.432C119.103 111.496 117.277 109.607 117.277 107.341V68.9999C117.277 66.6705 119.166 64.8447 121.432 64.8447H171.672C174.002 64.8447 175.827 66.7334 175.827 68.9999V107.341C175.89 109.607 174.002 111.496 171.672 111.496Z" fill="url(#paint23_linear_2075_92913)"/>
</g>
<path d="M175.703 70.499H117.203V66.789C117.203 65.5295 118.007 64.499 118.989 64.499H173.917C174.899 64.499 175.703 65.5295 175.703 66.789V70.499Z" fill="url(#paint24_linear_2075_92913)"/>
<path d="M120.203 68.249C120.62 68.249 120.953 67.9574 120.953 67.499C120.953 67.0824 120.661 66.749 120.203 66.749C119.786 66.749 119.453 67.0407 119.453 67.499C119.453 67.9157 119.786 68.249 120.203 68.249Z" fill="white"/>
<path d="M122.453 68.249C122.87 68.249 123.203 67.9574 123.203 67.499C123.203 67.0824 122.911 66.749 122.453 66.749C122.036 66.749 121.703 67.0407 121.703 67.499C121.703 67.9157 121.995 68.249 122.453 68.249Z" fill="white"/>
<path d="M124.703 68.249C125.12 68.249 125.453 67.9574 125.453 67.499C125.453 67.0824 125.161 66.749 124.703 66.749C124.286 66.749 123.953 67.0407 123.953 67.499C123.953 67.9157 124.286 68.249 124.703 68.249Z" fill="white"/>
<path d="M155.238 81.3398H137.044V99.9122H155.238V81.3398Z" stroke="#D6DDE8" stroke-width="1.5" stroke-miterlimit="10" stroke-linecap="round" stroke-linejoin="round"/>
<path d="M138.434 79.1992H135.653C135.239 79.1992 134.903 79.535 134.903 79.9492V82.7303C134.903 83.1445 135.239 83.4803 135.653 83.4803H138.434C138.848 83.4803 139.184 83.1445 139.184 82.7303V79.9492C139.184 79.535 138.848 79.1992 138.434 79.1992Z" fill="url(#paint25_linear_2075_92913)"/>
<path d="M156.629 79.1992H153.848C153.434 79.1992 153.098 79.535 153.098 79.9492V82.7303C153.098 83.1445 153.434 83.4803 153.848 83.4803H156.629C157.044 83.4803 157.379 83.1445 157.379 82.7303V79.9492C157.379 79.535 157.044 79.1992 156.629 79.1992Z" fill="url(#paint26_linear_2075_92913)"/>
<path d="M138.434 97.709H135.653C135.239 97.709 134.903 98.0448 134.903 98.459V101.24C134.903 101.654 135.239 101.99 135.653 101.99H138.434C138.848 101.99 139.184 101.654 139.184 101.24V98.459C139.184 98.0448 138.848 97.709 138.434 97.709Z" fill="url(#paint27_linear_2075_92913)"/>
<path d="M149.667 95.0369C149.472 94.4512 150.029 93.8937 150.615 94.0878L157.753 96.4528C158.385 96.6621 158.452 97.5299 157.859 97.8327L157.406 98.0639C156.955 98.294 156.857 98.8952 157.211 99.2567L159 101.082C159.287 101.376 159.285 101.847 158.994 102.138L157.846 103.286C157.553 103.579 157.078 103.579 156.785 103.286L155.038 101.539C154.692 101.193 154.114 101.265 153.863 101.685L153.432 102.41C153.103 102.961 152.279 102.872 152.076 102.263L149.667 95.0369Z" fill="url(#paint28_linear_2075_92913)"/>
<path d="M115.64 17.9423H115.136C114.318 17.9423 113.688 17.3127 113.688 16.4943V15.9906C113.688 15.3611 113.184 14.8574 112.555 14.8574C111.925 14.8574 111.422 15.3611 111.422 15.9906V16.4943C111.422 17.3127 110.792 17.9423 109.974 17.9423H109.47C108.84 17.9423 108.337 18.446 108.337 19.0755C108.337 19.7051 108.84 20.2088 109.47 20.2088H109.974C110.792 20.2088 111.422 20.8383 111.422 21.6568V22.1604C111.422 22.79 111.925 23.2937 112.555 23.2937C113.184 23.2937 113.688 22.79 113.688 22.1604V21.6568C113.688 20.8383 114.318 20.2088 115.136 20.2088H115.64C116.269 20.2088 116.773 19.7051 116.773 19.0755C116.773 18.446 116.269 17.9423 115.64 17.9423Z" fill="#D6DDE8"/>
<path d="M74.6564 65.9797H74.2157C73.5862 65.9797 73.0195 65.476 73.0195 64.7835V64.3428C73.0195 63.8391 72.5788 63.3984 72.0752 63.3984C71.5715 63.3984 71.1308 63.8391 71.1308 64.3428V64.7835C71.1308 65.4131 70.6272 65.9797 69.9346 65.9797H69.4939C68.9903 65.9797 68.5496 66.4204 68.5496 66.924C68.5496 67.4277 68.9903 67.8684 69.4939 67.8684H69.9346C70.5642 67.8684 71.1308 68.372 71.1308 69.0646V69.5053C71.1308 70.0089 71.5715 70.4496 72.0752 70.4496C72.5788 70.4496 73.0195 70.0089 73.0195 69.5053V69.0646C73.0195 68.435 73.5232 67.8684 74.2157 67.8684H74.6564C75.1601 67.8684 75.6008 67.4277 75.6008 66.924C75.6008 66.4204 75.223 65.9797 74.6564 65.9797Z" fill="#D6DDE8"/>
<path d="M157.76 2.51828H157.319C156.69 2.51828 156.123 2.01463 156.123 1.3221V0.944356C156.123 0.4407 155.682 0 155.179 0C154.675 0 154.234 0.4407 154.234 0.944356V1.38506C154.234 2.01463 153.731 2.58124 153.038 2.58124H152.597C152.094 2.58124 151.653 3.02194 151.653 3.5256C151.653 4.02925 152.094 4.46995 152.597 4.46995H153.038C153.668 4.46995 154.234 4.97361 154.234 5.66614V6.10684C154.234 6.61049 154.675 7.05119 155.179 7.05119C155.682 7.05119 156.123 6.61049 156.123 6.10684V5.54022C156.123 4.91065 156.627 4.34404 157.319 4.34404H157.76C158.264 4.34404 158.704 3.90334 158.704 3.39968C158.704 2.95898 158.264 2.51828 157.76 2.51828Z" fill="#D6DDE8"/>
<path d="M281.155 25.3076H280.652C279.833 25.3076 279.204 24.678 279.204 23.8595V23.3559C279.204 22.7263 278.7 22.2227 278.07 22.2227C277.441 22.2227 276.937 22.7263 276.937 23.3559V23.8595C276.937 24.678 276.308 25.3076 275.489 25.3076H274.986C274.356 25.3076 273.852 25.8112 273.852 26.4408C273.852 27.0704 274.356 27.574 274.986 27.574H275.489C276.308 27.574 276.937 28.2036 276.937 29.022V29.5257C276.937 30.1552 277.441 30.6589 278.07 30.6589C278.7 30.6589 279.204 30.1552 279.204 29.5257V29.022C279.204 28.2036 279.833 27.574 280.652 27.574H281.155C281.785 27.574 282.289 27.0704 282.289 26.4408C282.289 25.8112 281.785 25.3076 281.155 25.3076Z" fill="#D6DDE8"/>
<path d="M269.444 98.7177H268.941C268.122 98.7177 267.493 98.0881 267.493 97.2697V96.766C267.493 96.1365 266.989 95.6328 266.359 95.6328C265.73 95.6328 265.226 96.1365 265.226 96.766V97.2697C265.226 98.0881 264.597 98.7177 263.778 98.7177H263.275C262.645 98.7177 262.141 99.2214 262.141 99.8509C262.141 100.481 262.645 100.984 263.275 100.984H263.778C264.597 100.984 265.226 101.614 265.226 102.432V102.936C265.226 103.565 265.73 104.069 266.359 104.069C266.989 104.069 267.493 103.565 267.493 102.936V102.432C267.493 101.614 268.122 100.984 268.941 100.984H269.444C270.074 100.984 270.578 100.481 270.578 99.8509C270.578 99.2214 270.074 98.7177 269.444 98.7177Z" fill="#D6DDE8"/>
<path d="M301.303 119.934H300.988C300.484 119.934 300.107 119.556 300.107 119.052V118.737C300.107 118.36 299.792 118.045 299.414 118.045C299.036 118.045 298.721 118.36 298.721 118.737V119.052C298.721 119.556 298.344 119.934 297.84 119.934H297.525C297.148 119.934 296.833 120.248 296.833 120.626C296.833 121.004 297.148 121.319 297.525 121.319H297.84C298.344 121.319 298.721 121.696 298.721 122.2V122.515C298.721 122.893 299.036 123.207 299.414 123.207C299.792 123.207 300.107 122.893 300.107 122.515V122.2C300.107 121.696 300.484 121.319 300.988 121.319H301.303C301.68 121.319 301.995 121.004 301.995 120.626C301.995 120.248 301.68 119.934 301.303 119.934Z" fill="#D6DDE8"/>
<path d="M271.837 135.546H271.586C271.208 135.546 270.893 135.231 270.893 134.854V134.602C270.893 134.287 270.641 134.035 270.326 134.035C270.012 134.035 269.76 134.287 269.76 134.602V134.854C269.76 135.231 269.445 135.546 269.067 135.546H268.815C268.501 135.546 268.249 135.798 268.249 136.113C268.249 136.428 268.501 136.679 268.815 136.679H269.067C269.445 136.679 269.76 136.994 269.76 137.372V137.624C269.76 137.939 270.012 138.19 270.326 138.19C270.641 138.19 270.893 137.939 270.893 137.624V137.372C270.893 136.994 271.208 136.679 271.586 136.679H271.837C272.152 136.679 272.404 136.428 272.404 136.113C272.341 135.798 272.089 135.546 271.837 135.546Z" fill="#D6DDE8"/>
<path d="M214.359 82.9133H214.107C213.729 82.9133 213.414 82.5985 213.414 82.2208V81.969C213.414 81.6542 213.163 81.4023 212.848 81.4023C212.533 81.4023 212.281 81.6542 212.281 81.969V82.2208C212.281 82.5985 211.966 82.9133 211.589 82.9133H211.337C211.022 82.9133 210.77 83.1651 210.77 83.4799C210.77 83.7947 211.022 84.0465 211.337 84.0465H211.589C211.966 84.0465 212.281 84.3613 212.281 84.7391V84.9909C212.281 85.3057 212.533 85.5575 212.848 85.5575C213.163 85.5575 213.414 85.3057 213.414 84.9909V84.7391C213.414 84.3613 213.729 84.0465 214.107 84.0465H214.359C214.674 84.0465 214.925 83.7947 214.925 83.4799C214.925 83.1651 214.674 82.9133 214.359 82.9133Z" fill="#D6DDE8"/>
<path d="M21.141 104.948H20.8262C20.3225 104.948 19.8818 104.508 19.8818 104.004V103.689C19.8818 103.248 19.567 102.934 19.1263 102.934C18.6856 102.934 18.3708 103.248 18.3708 103.689V104.004C18.3708 104.508 17.9301 104.948 17.4265 104.948H17.1117C16.671 104.948 16.3562 105.263 16.3562 105.704C16.3562 106.144 16.671 106.459 17.1117 106.459H17.4265C17.9301 106.459 18.3708 106.9 18.3708 107.404V107.718C18.3708 108.159 18.6856 108.474 19.1263 108.474C19.567 108.474 19.8818 108.159 19.8818 107.718V107.404C19.8818 106.9 20.3225 106.459 20.8262 106.459H21.141C21.5817 106.459 21.8964 106.144 21.8964 105.704C21.8964 105.263 21.5817 104.948 21.141 104.948Z" fill="#D6DDE8"/>
<path d="M3.95441 62.8302H3.70258C3.26188 62.8302 2.9471 62.5155 2.9471 62.0748V61.8229C2.9471 61.5081 2.69527 61.1934 2.31752 61.1934C2.00273 61.1934 1.68795 61.4452 1.68795 61.8229V62.0748C1.68795 62.5155 1.37316 62.8302 0.932459 62.8302H0.743587C0.428801 62.8302 0.114014 63.0821 0.114014 63.4598C0.114014 63.7746 0.365843 64.0894 0.743587 64.0894H0.995417C1.43612 64.0894 1.75091 64.4042 1.75091 64.8449V65.0967C1.75091 65.4115 2.00273 65.7263 2.38048 65.7263C2.69527 65.7263 3.01005 65.4744 3.01005 65.0967V64.8449C3.01005 64.4042 3.32484 64.0894 3.76554 64.0894H4.01737C4.33216 64.0894 4.64694 63.8376 4.64694 63.4598C4.58399 63.145 4.33216 62.8302 3.95441 62.8302Z" fill="#D6DDE8"/>
<path d="M38.7068 36.4513H38.455C38.0143 36.4513 37.6995 36.1366 37.6995 35.6959V35.444C37.6995 35.1292 37.4477 34.8145 37.0699 34.8145C36.7551 34.8145 36.4404 35.0663 36.4404 35.444V35.6959C36.4404 36.1366 36.1256 36.4513 35.6849 36.4513H35.433C35.1183 36.4513 34.8035 36.7032 34.8035 37.0809C34.8035 37.3957 35.0553 37.7105 35.433 37.7105H35.6849C36.1256 37.7105 36.4404 38.0253 36.4404 38.466V38.7178C36.4404 39.0326 36.6922 39.3474 37.0699 39.3474C37.3847 39.3474 37.6995 39.0955 37.6995 38.7178V38.403C37.6995 37.9623 38.0143 37.6475 38.455 37.6475H38.7068C39.0216 37.6475 39.3364 37.3957 39.3364 37.018C39.3364 36.7032 39.0216 36.4513 38.7068 36.4513Z" fill="#D6DDE8"/>
<path d="M174.505 20.8383C172.553 20.8383 170.979 19.2644 170.979 17.3127C170.979 15.361 172.553 13.7871 174.505 13.7871C176.457 13.7871 178.03 15.361 178.03 17.3127C178.03 19.2644 176.457 20.8383 174.505 20.8383ZM174.505 15.7388C173.623 15.7388 172.868 16.4313 172.868 17.3757C172.868 18.32 173.561 19.0125 174.505 19.0125C175.386 19.0125 176.142 18.32 176.142 17.3757C176.142 16.4313 175.386 15.7388 174.505 15.7388Z" fill="#D6DDE8"/>
<path d="M70.374 93.932C68.4223 93.932 66.8484 92.3581 66.8484 90.4065C66.8484 88.4548 68.4223 86.8809 70.374 86.8809C72.3257 86.8809 73.8996 88.4548 73.8996 90.4065C73.8996 92.3581 72.2627 93.932 70.374 93.932ZM70.374 88.7696C69.4926 88.7696 68.7371 89.4621 68.7371 90.4065C68.7371 91.3508 69.4296 92.0433 70.374 92.0433C71.3184 92.0433 72.0109 91.3508 72.0109 90.4065C72.0109 89.4621 71.2554 88.7696 70.374 88.7696Z" fill="#D6DDE8"/>
<path d="M230.098 52.7582C228.713 52.7582 227.516 51.625 227.516 50.1769C227.516 48.7289 228.65 47.5957 230.098 47.5957C231.483 47.5957 232.679 48.7289 232.679 50.1769C232.679 51.625 231.546 52.7582 230.098 52.7582ZM230.098 48.9808C229.468 48.9808 228.901 49.4844 228.901 50.1769C228.901 50.8065 229.405 51.3731 230.098 51.3731C230.727 51.3731 231.294 50.8695 231.294 50.1769C231.294 49.5474 230.79 48.9808 230.098 48.9808Z" fill="#D6DDE8"/>
<path d="M222.23 35.0681L221.978 34.6274C221.916 34.5644 221.916 34.5015 221.853 34.4385C220.782 32.6757 220.405 30.5352 220.908 28.5205C221.601 25.7504 221.223 22.7285 219.523 20.0843C216.438 15.2995 210.142 13.7256 205.169 16.3698C199.629 19.3288 197.866 26.317 201.077 31.5425C202.588 34.0608 205.043 35.6976 207.687 36.3272C209.828 36.8938 211.716 38.153 212.85 39.9787C212.85 39.9787 212.85 40.0417 212.913 40.0417L213.164 40.4824" fill="#DBDFE9"/>
<g filter="url(#filter2_d_2075_92913)">
<path d="M222.166 35.0059L222.418 35.3836C223.551 37.2723 223.425 39.6017 222.166 41.3016C222.481 42.183 222.166 43.2532 221.348 43.7569C220.529 44.2605 219.396 44.0717 218.767 43.3792C216.689 43.7569 214.548 42.8125 213.352 40.9238L213.1 40.5461" fill="#989FB0"/>
</g>
<path d="M216.502 37.4611L205.296 29.2766L208.884 28.71L210.269 25.814L213.48 25.8769L215.621 22.918L217.887 36.6426" stroke="#D6DDE8" stroke-width="1.5" stroke-miterlimit="10" stroke-linecap="round" stroke-linejoin="round"/>
<path fill-rule="evenodd" clip-rule="evenodd" d="M215.793 22.188C216.087 22.2574 216.311 22.4971 216.361 22.7958L218.627 36.5204C218.695 36.9291 218.418 37.3151 218.009 37.3826C217.601 37.4501 217.215 37.1735 217.147 36.7648L215.174 24.8153L214.088 26.3166C213.944 26.5157 213.711 26.6317 213.465 26.6268L210.738 26.5734L209.561 29.0336C209.454 29.2563 209.245 29.4124 209.001 29.4509L207.196 29.7359L216.944 36.8554C217.279 37.0997 217.352 37.5689 217.108 37.9034C216.863 38.2379 216.394 38.3111 216.06 38.0668L204.853 29.8823C204.609 29.7036 204.495 29.3951 204.567 29.1005C204.638 28.8059 204.879 28.5831 205.179 28.5358L208.378 28.0307L209.593 25.4904C209.72 25.2251 209.99 25.0584 210.284 25.0642L213.102 25.1194L215.013 22.4784C215.19 22.2331 215.498 22.1186 215.793 22.188Z" fill="#989FB0"/>
<path fill-rule="evenodd" clip-rule="evenodd" d="M221.275 8.76052C221.653 8.92922 221.823 9.37266 221.654 9.75096L219.577 14.4098C219.408 14.7881 218.964 14.958 218.586 14.7893C218.208 14.6206 218.038 14.1772 218.207 13.7989L220.284 9.14004C220.453 8.76174 220.896 8.59182 221.275 8.76052Z" fill="#989FB0"/>
<path fill-rule="evenodd" clip-rule="evenodd" d="M197.154 29.264C197.23 29.6711 196.962 30.0631 196.555 30.1396L187.175 31.9024C186.767 31.9789 186.375 31.7109 186.299 31.3038C186.222 30.8967 186.49 30.5047 186.898 30.4282L196.278 28.6654C196.685 28.5889 197.077 28.8569 197.154 29.264Z" fill="#989FB0"/>
<path fill-rule="evenodd" clip-rule="evenodd" d="M199.78 36.3253C200.165 36.4792 200.352 36.9156 200.198 37.3002L197.932 42.9664C197.778 43.351 197.341 43.538 196.957 43.3842C196.572 43.2303 196.385 42.7939 196.539 42.4093L198.805 36.7431C198.959 36.3586 199.396 36.1715 199.78 36.3253Z" fill="#989FB0"/>
<path fill-rule="evenodd" clip-rule="evenodd" d="M232.751 17.6802C232.898 18.0677 232.702 18.5005 232.315 18.647L224.823 21.4801C224.435 21.6266 224.003 21.4313 223.856 21.0439C223.71 20.6564 223.905 20.2236 224.292 20.0771L231.784 17.244C232.172 17.0975 232.605 17.2928 232.751 17.6802Z" fill="#989FB0"/>
<path d="M256.416 65.9161L246.657 74.919L249.176 77.4372C249.428 77.6891 249.616 78.0039 249.805 78.3186C249.805 78.3186 249.805 78.3816 249.868 78.4446C250.246 79.4519 249.994 80.5851 249.239 81.4035L248.42 82.222L245.524 85.118L240.928 89.7139L227.77 76.5558L235.262 69.0639L236.081 68.2455C237.151 67.1752 238.914 67.1752 240.047 68.2455L242.565 70.7638L251.568 61.0054C252.89 59.5574 255.22 59.4945 256.605 60.8795C257.927 62.3275 257.864 64.594 256.416 65.9161Z" fill="#DBDFE9"/>
<path opacity="0.3" fill-rule="evenodd" clip-rule="evenodd" d="M235.792 68.4727L248.888 81.6307L247.824 82.6888L234.729 69.5308L235.792 68.4727Z" fill="#A4ADBF"/>
<path opacity="0.3" fill-rule="evenodd" clip-rule="evenodd" d="M248.015 73.6859L243.671 69.3419L244.731 68.2812L249.075 72.6253L248.015 73.6859Z" fill="#A4ADBF"/>
<path d="M255.152 63.7334C255.57 63.3154 255.57 62.6377 255.152 62.2198C254.734 61.8018 254.056 61.8018 253.638 62.2198C253.22 62.6377 253.22 63.3154 253.638 63.7333C254.056 64.1513 254.734 64.1513 255.152 63.7334Z" fill="#CFD5E3"/>
<path opacity="0.3" fill-rule="evenodd" clip-rule="evenodd" d="M235.164 75.9532L231.323 79.7936L230.262 78.733L234.103 74.8926L235.164 75.9532Z" fill="#A4ADBF"/>
<path opacity="0.3" fill-rule="evenodd" clip-rule="evenodd" d="M237.933 78.6603L234.03 82.5636L232.969 81.503L236.873 77.5996L237.933 78.6603Z" fill="#A4ADBF"/>
<path d="M238.474 109.42C239.378 109.42 240.11 108.687 240.11 107.783C240.11 106.879 239.378 106.146 238.474 106.146C237.57 106.146 236.837 106.879 236.837 107.783C236.837 108.687 237.57 109.42 238.474 109.42Z" fill="url(#paint29_linear_2075_92913)"/>
<path d="M249.806 78.4434C249.806 78.3805 249.806 78.3805 249.743 78.3175C249.554 78.0027 249.113 78.3805 248.358 79.5137C248.043 80.0174 247.414 80.2692 246.658 80.4581C246.217 80.584 245.651 80.7099 245.147 80.7728C244.643 80.584 244.077 80.6469 243.699 80.9617C243.51 81.0876 243.321 81.2135 243.195 81.3395C242.377 81.9061 241.433 82.2838 239.922 81.969C238.474 81.6542 236.837 83.6689 236.837 85.3058V100.856C236.837 102.997 240.11 103.06 240.11 100.793V91.2867C240.11 89.2721 243.384 88.8314 243.384 91.6644C243.384 93.805 246.658 93.8679 246.658 91.5385V84.5503C246.658 84.2984 246.658 84.1096 246.658 83.9207L248.358 82.2209L249.176 81.4024C249.932 80.584 250.184 79.3878 249.806 78.4434Z" fill="url(#paint30_linear_2075_92913)"/>
<path d="M151.275 49.7348C150.456 50.4903 149.071 50.4903 148.253 49.7348C148.19 49.6718 148.127 49.6088 148.064 49.5459C147.875 49.2941 147.749 48.9793 147.623 48.7275C147.434 48.0349 147.623 47.2794 148.127 46.6499C148.568 46.1462 149.071 45.7055 149.512 45.2019C149.638 45.0759 149.827 45.0759 149.89 45.2019C150.456 45.7055 150.96 46.2092 151.401 46.7128C151.464 46.7758 151.464 46.7758 151.464 46.8387C151.59 47.0276 151.716 47.1535 151.779 47.3424C152.219 48.0979 152.03 49.1052 151.275 49.7348Z" fill="url(#paint31_linear_2075_92913)"/>
<path opacity="0.3" d="M149.953 49.1056C149.764 49.1056 149.638 49.1056 149.449 49.0426C149.134 48.9167 149.008 48.8538 148.882 48.6019C148.819 48.476 148.757 48.3501 148.694 48.2242C148.694 48.1612 148.694 48.1612 148.694 48.0983C148.631 47.9094 148.505 47.7835 148.316 47.8465C148.127 47.9094 148.001 48.0353 148.064 48.2242C148.064 48.2872 148.064 48.3501 148.127 48.4131C148.19 48.6649 148.316 48.9167 148.505 49.1056C148.568 49.1686 148.631 49.2315 148.694 49.2945C149.008 49.6093 149.512 49.7981 149.953 49.7981C150.016 49.7981 150.079 49.7981 150.142 49.7981C150.33 49.7981 150.456 49.6093 150.456 49.4204C150.267 49.2315 150.142 49.1056 149.953 49.1056Z" fill="#F1F3FA"/>
<g filter="url(#filter3_d_2075_92913)">
<path d="M162.23 31.3508L157.76 35.9466L152.786 41.0462C152.66 41.1721 152.472 41.298 152.283 41.298L150.205 41.8646C149.701 41.9905 149.261 41.5498 149.45 41.1091L150.016 39.0315C150.079 38.8427 150.142 38.7167 150.268 38.5279L152.912 35.7578L159.712 28.7695" fill="#DBDFE9"/>
</g>
<path d="M157.76 36.0101L152.786 41.1096C152.66 41.2355 152.472 41.3614 152.283 41.3614L150.205 41.9281C149.701 42.054 149.261 41.6133 149.45 41.1726L150.016 39.095C150.079 38.9061 150.142 38.7802 150.268 38.5913L152.912 35.8212C153.101 35.7583 153.353 35.6953 153.542 35.6953L157.76 36.0101Z" fill="url(#paint32_linear_2075_92913)"/>
<g filter="url(#filter4_d_2075_92913)">
<path d="M163.048 32.17L158.956 28.0778C158.516 27.6371 158.516 27.0076 158.956 26.5669C159.397 26.1262 160.027 26.1262 160.467 26.5669L164.559 30.6591C165 31.0998 165 31.7293 164.559 32.17C164.119 32.6107 163.489 32.6107 163.048 32.17Z" fill="#DBDFE9"/>
</g>
<g filter="url(#filter5_d_2075_92913)">
<path d="M163.865 30.03L161.032 27.1969L163.865 24.3638C164.684 23.5454 165.943 23.5454 166.698 24.3638C167.517 25.1823 167.517 26.4414 166.698 27.1969L163.865 30.03Z" fill="#DBDFE9"/>
</g>
<path d="M178.384 149.405C179.507 143.413 181.13 137.671 182.877 131.804C184.625 126.062 186.497 120.195 188.744 114.578L189.618 114.828C188.62 120.82 187.246 126.686 185.748 132.553C184.251 138.42 182.628 144.287 180.506 149.905L178.384 149.405Z" fill="url(#paint33_linear_2075_92913)"/>
<path d="M175.136 153.276L177.564 148.239H181.779L183.951 153.276H175.136Z" fill="url(#paint34_linear_2075_92913)"/>
<defs>
<filter id="filter0_d_2075_92913" x="91.4607" y="61.4424" width="124.477" height="101.749" filterUnits="userSpaceOnUse" color-interpolation-filters="sRGB">
<feFlood flood-opacity="0" result="BackgroundImageFix"/>
<feColorMatrix in="SourceAlpha" type="matrix" values="0 0 0 0 0 0 0 0 0 0 0 0 0 0 0 0 0 0 127 0" result="hardAlpha"/>
<feOffset dy="8.25002"/>
<feGaussianBlur stdDeviation="8.25002"/>
<feColorMatrix type="matrix" values="0 0 0 0 0.397708 0 0 0 0 0.47749 0 0 0 0 0.575 0 0 0 0.2 0"/>
<feBlend mode="normal" in2="BackgroundImageFix" result="effect1_dropShadow_2075_92913"/>
<feBlend mode="normal" in="SourceGraphic" in2="effect1_dropShadow_2075_92913" result="shape"/>
</filter>
<filter id="filter1_d_2075_92913" x="100.777" y="56.5947" width="91.5521" height="79.6514" filterUnits="userSpaceOnUse" color-interpolation-filters="sRGB">
<feFlood flood-opacity="0" result="BackgroundImageFix"/>
<feColorMatrix in="SourceAlpha" type="matrix" values="0 0 0 0 0 0 0 0 0 0 0 0 0 0 0 0 0 0 127 0" result="hardAlpha"/>
<feOffset dy="8.25002"/>
<feGaussianBlur stdDeviation="8.25002"/>
<feColorMatrix type="matrix" values="0 0 0 0 0.397708 0 0 0 0 0.47749 0 0 0 0 0.575 0 0 0 0.2 0"/>
<feBlend mode="normal" in2="BackgroundImageFix" result="effect1_dropShadow_2075_92913"/>
<feBlend mode="normal" in="SourceGraphic" in2="effect1_dropShadow_2075_92913" result="shape"/>
</filter>
<filter id="filter2_d_2075_92913" x="196.6" y="26.7558" width="43.0946" height="42.0352" filterUnits="userSpaceOnUse" color-interpolation-filters="sRGB">
<feFlood flood-opacity="0" result="BackgroundImageFix"/>
<feColorMatrix in="SourceAlpha" type="matrix" values="0 0 0 0 0 0 0 0 0 0 0 0 0 0 0 0 0 0 127 0" result="hardAlpha"/>
<feOffset dy="8.25002"/>
<feGaussianBlur stdDeviation="8.25002"/>
<feColorMatrix type="matrix" values="0 0 0 0 0.397708 0 0 0 0 0.47749 0 0 0 0 0.575 0 0 0 0.27 0"/>
<feBlend mode="normal" in2="BackgroundImageFix" result="effect1_dropShadow_2075_92913"/>
<feBlend mode="normal" in="SourceGraphic" in2="effect1_dropShadow_2075_92913" result="shape"/>
</filter>
<filter id="filter3_d_2075_92913" x="132.905" y="20.5195" width="45.825" height="46.1173" filterUnits="userSpaceOnUse" color-interpolation-filters="sRGB">
<feFlood flood-opacity="0" result="BackgroundImageFix"/>
<feColorMatrix in="SourceAlpha" type="matrix" values="0 0 0 0 0 0 0 0 0 0 0 0 0 0 0 0 0 0 127 0" result="hardAlpha"/>
<feOffset dy="8.25002"/>
<feGaussianBlur stdDeviation="8.25002"/>
<feColorMatrix type="matrix" values="0 0 0 0 0.397708 0 0 0 0 0.47749 0 0 0 0 0.575 0 0 0 0.27 0"/>
<feBlend mode="normal" in2="BackgroundImageFix" result="effect1_dropShadow_2075_92913"/>
<feBlend mode="normal" in="SourceGraphic" in2="effect1_dropShadow_2075_92913" result="shape"/>
</filter>
<filter id="filter4_d_2075_92913" x="142.126" y="17.9863" width="39.2642" height="39.2647" filterUnits="userSpaceOnUse" color-interpolation-filters="sRGB">
<feFlood flood-opacity="0" result="BackgroundImageFix"/>
<feColorMatrix in="SourceAlpha" type="matrix" values="0 0 0 0 0 0 0 0 0 0 0 0 0 0 0 0 0 0 127 0" result="hardAlpha"/>
<feOffset dy="8.25002"/>
<feGaussianBlur stdDeviation="8.25002"/>
<feColorMatrix type="matrix" values="0 0 0 0 0.397708 0 0 0 0 0.47749 0 0 0 0 0.575 0 0 0 0.27 0"/>
<feBlend mode="normal" in2="BackgroundImageFix" result="effect1_dropShadow_2075_92913"/>
<feBlend mode="normal" in="SourceGraphic" in2="effect1_dropShadow_2075_92913" result="shape"/>
</filter>
<filter id="filter5_d_2075_92913" x="144.532" y="15.5" width="39.2801" height="39.2803" filterUnits="userSpaceOnUse" color-interpolation-filters="sRGB">
<feFlood flood-opacity="0" result="BackgroundImageFix"/>
<feColorMatrix in="SourceAlpha" type="matrix" values="0 0 0 0 0 0 0 0 0 0 0 0 0 0 0 0 0 0 127 0" result="hardAlpha"/>
<feOffset dy="8.25002"/>
<feGaussianBlur stdDeviation="8.25002"/>
<feColorMatrix type="matrix" values="0 0 0 0 0.397708 0 0 0 0 0.47749 0 0 0 0 0.575 0 0 0 0.27 0"/>
<feBlend mode="normal" in2="BackgroundImageFix" result="effect1_dropShadow_2075_92913"/>
<feBlend mode="normal" in="SourceGraphic" in2="effect1_dropShadow_2075_92913" result="shape"/>
</filter>
<linearGradient id="paint0_linear_2075_92913" x1="274.313" y1="64.7865" x2="276.704" y2="64.5496" gradientUnits="userSpaceOnUse">
<stop stop-color="#B0BACC"/>
<stop offset="1" stop-color="#969EAE"/>
</linearGradient>
<linearGradient id="paint1_linear_2075_92913" x1="296.813" y1="63.2865" x2="299.204" y2="63.0496" gradientUnits="userSpaceOnUse">
<stop stop-color="#B0BACC"/>
<stop offset="1" stop-color="#969EAE"/>
</linearGradient>
<linearGradient id="paint2_linear_2075_92913" x1="301.313" y1="85.7865" x2="303.704" y2="85.5496" gradientUnits="userSpaceOnUse">
<stop stop-color="#B0BACC"/>
<stop offset="1" stop-color="#969EAE"/>
</linearGradient>
<linearGradient id="paint3_linear_2075_92913" x1="309.563" y1="73.0365" x2="311.954" y2="72.7996" gradientUnits="userSpaceOnUse">
<stop stop-color="#B0BACC"/>
<stop offset="1" stop-color="#969EAE"/>
</linearGradient>
<linearGradient id="paint4_linear_2075_92913" x1="284.813" y1="53.5365" x2="287.204" y2="53.2996" gradientUnits="userSpaceOnUse">
<stop stop-color="#B0BACC"/>
<stop offset="1" stop-color="#969EAE"/>
</linearGradient>
<linearGradient id="paint5_linear_2075_92913" x1="284.997" y1="76.2463" x2="284.997" y2="81.898" gradientUnits="userSpaceOnUse">
<stop stop-color="#B0BACC"/>
<stop offset="1" stop-color="#969EAE"/>
</linearGradient>
<linearGradient id="paint6_linear_2075_92913" x1="85.366" y1="17.6441" x2="87.447" y2="18.8456" gradientUnits="userSpaceOnUse">
<stop stop-color="#B0BACC"/>
<stop offset="1" stop-color="#969EAE"/>
</linearGradient>
<linearGradient id="paint7_linear_2075_92913" x1="74.8992" y1="38.6773" x2="76.9802" y2="39.8788" gradientUnits="userSpaceOnUse">
<stop stop-color="#B0BACC"/>
<stop offset="1" stop-color="#969EAE"/>
</linearGradient>
<linearGradient id="paint8_linear_2075_92913" x1="107.149" y1="27.4273" x2="109.23" y2="28.6288" gradientUnits="userSpaceOnUse">
<stop stop-color="#B0BACC"/>
<stop offset="1" stop-color="#969EAE"/>
</linearGradient>
<linearGradient id="paint9_linear_2075_92913" x1="96.6492" y1="49.1773" x2="98.7302" y2="50.3788" gradientUnits="userSpaceOnUse">
<stop stop-color="#B0BACC"/>
<stop offset="1" stop-color="#969EAE"/>
</linearGradient>
<linearGradient id="paint10_linear_2075_92913" x1="80.6507" y1="54.938" x2="83.2833" y2="56.458" gradientUnits="userSpaceOnUse">
<stop stop-color="#B0BACC"/>
<stop offset="1" stop-color="#969EAE"/>
</linearGradient>
<linearGradient id="paint11_linear_2075_92913" x1="112.717" y1="42.938" x2="115.35" y2="44.458" gradientUnits="userSpaceOnUse">
<stop stop-color="#B0BACC"/>
<stop offset="1" stop-color="#969EAE"/>
</linearGradient>
<linearGradient id="paint12_linear_2075_92913" x1="101.467" y1="11.438" x2="104.1" y2="12.958" gradientUnits="userSpaceOnUse">
<stop stop-color="#B0BACC"/>
<stop offset="1" stop-color="#969EAE"/>
</linearGradient>
<linearGradient id="paint13_linear_2075_92913" x1="69.2171" y1="23.438" x2="71.8497" y2="24.958" gradientUnits="userSpaceOnUse">
<stop stop-color="#B0BACC"/>
<stop offset="1" stop-color="#969EAE"/>
</linearGradient>
<linearGradient id="paint14_linear_2075_92913" x1="97.6656" y1="32.9178" x2="97.6656" y2="37.9016" gradientUnits="userSpaceOnUse">
<stop stop-color="#B0BACC"/>
<stop offset="1" stop-color="#969EAE"/>
</linearGradient>
<linearGradient id="paint15_linear_2075_92913" x1="63.0755" y1="104.621" x2="63.0755" y2="118.686" gradientUnits="userSpaceOnUse">
<stop stop-color="#B0BACC"/>
<stop offset="1" stop-color="#969EAE"/>
</linearGradient>
<linearGradient id="paint16_linear_2075_92913" x1="76.622" y1="103.87" x2="76.622" y2="111.678" gradientUnits="userSpaceOnUse">
<stop stop-color="#B0BACC"/>
<stop offset="1" stop-color="#969EAE"/>
</linearGradient>
<linearGradient id="paint17_linear_2075_92913" x1="48.1191" y1="105.87" x2="48.1191" y2="107.347" gradientUnits="userSpaceOnUse">
<stop stop-color="#B0BACC"/>
<stop offset="1" stop-color="#969EAE"/>
</linearGradient>
<linearGradient id="paint18_linear_2075_92913" x1="61.0777" y1="123.949" x2="61.0777" y2="141.017" gradientUnits="userSpaceOnUse">
<stop stop-color="#B0BACC"/>
<stop offset="1" stop-color="#969EAE"/>
</linearGradient>
<linearGradient id="paint19_linear_2075_92913" x1="81.1621" y1="124.213" x2="81.1621" y2="153.895" gradientUnits="userSpaceOnUse">
<stop stop-color="#FDFEFF"/>
<stop offset="0.9964" stop-color="#ECF0F5"/>
</linearGradient>
<linearGradient id="paint20_linear_2075_92913" x1="82.738" y1="130.271" x2="82.738" y2="153.33" gradientUnits="userSpaceOnUse">
<stop stop-color="#FDFEFF"/>
<stop offset="0.9964" stop-color="#ECF0F5"/>
</linearGradient>
<linearGradient id="paint21_linear_2075_92913" x1="83.5862" y1="138.865" x2="83.5862" y2="153.706" gradientUnits="userSpaceOnUse">
<stop stop-color="#FDFEFF"/>
<stop offset="0.9964" stop-color="#ECF0F5"/>
</linearGradient>
<linearGradient id="paint22_linear_2075_92913" x1="238.094" y1="120.433" x2="238.094" y2="130.54" gradientUnits="userSpaceOnUse">
<stop stop-color="#B0BACC"/>
<stop offset="1" stop-color="#969EAE"/>
</linearGradient>
<linearGradient id="paint23_linear_2075_92913" x1="146.534" y1="63.7656" x2="146.534" y2="111.999" gradientUnits="userSpaceOnUse">
<stop stop-color="#FDFEFF"/>
<stop offset="0.9964" stop-color="#ECF0F5"/>
</linearGradient>
<linearGradient id="paint24_linear_2075_92913" x1="119.426" y1="69.3228" x2="173.825" y2="67.9703" gradientUnits="userSpaceOnUse">
<stop stop-color="#D5DDEA"/>
<stop offset="1" stop-color="#D5DDEA" stop-opacity="0"/>
</linearGradient>
<linearGradient id="paint25_linear_2075_92913" x1="137.044" y1="79.3479" x2="137.044" y2="81.7509" gradientUnits="userSpaceOnUse">
<stop stop-color="#B0BACC"/>
<stop offset="1" stop-color="#969EAE"/>
</linearGradient>
<linearGradient id="paint26_linear_2075_92913" x1="155.239" y1="79.3479" x2="155.239" y2="81.7509" gradientUnits="userSpaceOnUse">
<stop stop-color="#B0BACC"/>
<stop offset="1" stop-color="#969EAE"/>
</linearGradient>
<linearGradient id="paint27_linear_2075_92913" x1="137.044" y1="97.8577" x2="137.044" y2="100.261" gradientUnits="userSpaceOnUse">
<stop stop-color="#B0BACC"/>
<stop offset="1" stop-color="#969EAE"/>
</linearGradient>
<linearGradient id="paint28_linear_2075_92913" x1="154.357" y1="93.9715" x2="154.357" y2="99.6961" gradientUnits="userSpaceOnUse">
<stop stop-color="#B0BACC"/>
<stop offset="1" stop-color="#969EAE"/>
</linearGradient>
<linearGradient id="paint29_linear_2075_92913" x1="238.474" y1="106.26" x2="238.474" y2="108.098" gradientUnits="userSpaceOnUse">
<stop stop-color="#B0BACC"/>
<stop offset="1" stop-color="#969EAE"/>
</linearGradient>
<linearGradient id="paint30_linear_2075_92913" x1="243.409" y1="79.0539" x2="243.409" y2="92.6744" gradientUnits="userSpaceOnUse">
<stop stop-color="#B0BACC"/>
<stop offset="1" stop-color="#969EAE"/>
</linearGradient>
<linearGradient id="paint31_linear_2075_92913" x1="149.782" y1="45.2879" x2="149.782" y2="48.2032" gradientUnits="userSpaceOnUse">
<stop stop-color="#B0BACC"/>
<stop offset="1" stop-color="#969EAE"/>
</linearGradient>
<linearGradient id="paint32_linear_2075_92913" x1="153.583" y1="35.9126" x2="153.583" y2="39.4232" gradientUnits="userSpaceOnUse">
<stop stop-color="#B0BACC"/>
<stop offset="1" stop-color="#969EAE"/>
</linearGradient>
<linearGradient id="paint33_linear_2075_92913" x1="184.002" y1="115.805" x2="184.002" y2="135.634" gradientUnits="userSpaceOnUse">
<stop stop-color="#B0BACC"/>
<stop offset="1" stop-color="#969EAE"/>
</linearGradient>
<linearGradient id="paint34_linear_2075_92913" x1="179.544" y1="148.414" x2="179.544" y2="151.241" gradientUnits="userSpaceOnUse">
<stop stop-color="#B0BACC"/>
<stop offset="1" stop-color="#969EAE"/>
</linearGradient>
</defs>
</svg>
