<svg xmlns="http://www.w3.org/2000/svg" width="139" height="118" viewBox="0 0 139 118" fill="none">
  <path d="M42.3402 66.3362C42.3428 66.3829 42.3481 66.4763 42.3982 66.5195C42.4008 66.5662 42.4536 66.6562 42.4562 66.7028C42.5064 66.7461 42.5116 66.8395 42.5618 66.8827C42.6119 66.926 42.662 66.9692 42.7148 67.0591C42.9707 67.3688 43.414 67.6179 43.9048 67.8636C44.0024 67.9034 44.1475 67.9398 44.2452 67.9796C44.2953 68.0228 44.3903 68.0159 44.4404 68.0592C44.4905 68.1024 44.5855 68.0955 44.6357 68.1388L44.8283 68.1717C45.071 68.2479 45.3613 68.3206 45.6489 68.3466C45.794 68.383 45.889 68.3761 46.0341 68.4124C46.1291 68.4055 46.2267 68.4454 46.3692 68.435C46.4642 68.4281 46.5619 68.4679 46.6568 68.4611C47.422 68.4993 48.1318 68.401 48.7361 68.1228C50.8286 67.1741 51.5913 65.478 51.5913 65.478C51.5913 65.478 52.1691 65.5767 53.0768 65.6047C54.7998 65.7142 57.668 65.8344 60.1246 65.4219C60.9267 65.27 61.7711 65.0212 62.6604 64.7224C62.9401 64.6083 63.2198 64.4943 63.547 64.3768C64.1064 64.1487 64.6156 63.8774 65.1724 63.6026C66.6554 62.8388 68.0301 61.8484 69.1622 60.7818C69.2994 60.6781 69.434 60.5277 69.5712 60.424C70.2019 59.7688 70.7349 59.0739 71.1254 58.3892C71.8986 56.8799 72.97 55.5833 74.139 54.3265C75.8938 52.4647 77.9942 50.8123 79.8994 49.0802C80.4905 48.5685 81.0789 48.0102 81.6225 47.502C83.3852 45.7802 84.9421 43.7921 85.9608 41.5618C87.0638 39.1378 86.9399 36.9434 86.605 34.3892C86.5971 34.2492 86.2172 32.589 86.3095 32.5354C87.1328 31.9132 87.7055 31.0747 87.9826 30.0701C88.6318 28.054 88.2045 25.5535 87.2098 23.9848C87.1042 23.8049 86.9987 23.625 86.8958 23.4918C85.8536 21.9266 84.6057 20.0949 83.2521 18.9273L80.7957 16.8083L60.5625 18.2752C60.5625 18.2752 60.4015 19.6464 60.1639 21.3513C60.1243 21.4948 60.1323 21.6349 60.0927 21.7784C60.061 22.062 60.0293 22.3455 59.9501 22.6326C59.9105 22.7761 59.9184 22.9161 59.8789 23.0597C59.8815 23.1063 59.8815 23.1063 59.8366 23.1565C59.8076 23.4868 59.7284 23.7738 59.6994 24.104C59.5621 25.0516 59.3721 25.9092 59.1267 26.6302C59.1293 26.6769 59.0871 26.7737 59.0897 26.8204C58.9683 27.2043 58.8443 27.5414 58.715 27.7852C57.6779 29.6888 52.1787 35.3381 48.3076 38.5722C44.4366 41.8063 42.8663 46.9364 42.2774 55.0894C41.5435 63.2061 42.0632 64.8092 42.3402 66.3362Z" fill="#EAEEF9"/>
  <path opacity="0.3" d="M42.3562 66.328C42.5866 67.8629 46.5787 69.0313 48.6795 68.0798C50.828 67.1249 51.546 65.4273 51.546 65.4273C51.546 65.4273 56.3196 66.0219 60.1158 65.4179C62.9609 64.9297 66.7307 63.0111 69.1388 60.7209L68.4028 53.6275C68.4028 53.6275 67.7647 47.4204 67.3251 44.7252C66.9332 42.0266 69.1293 41.9146 68.8354 38.4095C68.4939 34.908 69.5724 28.5765 71.1092 22.7291L64.3542 18.4225L60.0599 21.2255C59.7631 23.5978 59.2145 26.5997 58.6555 27.7216C57.6143 29.6307 52.0933 35.2965 48.2069 38.54C44.3205 41.7836 42.744 46.9287 42.1528 55.1055C41.5564 63.1887 42.0781 64.7965 42.3562 66.328Z" fill="#C4D1E4"/>
  <path opacity="0.2" d="M42.3768 66.3368C42.3794 66.3835 42.3847 66.4768 42.4348 66.52C42.4374 66.5666 42.4901 66.6565 42.4928 66.7031C42.5429 66.7463 42.5481 66.8396 42.5982 66.8828C42.6483 66.926 42.6984 66.9692 42.7511 67.0591C43.0069 67.3684 43.4498 67.6174 43.9402 67.8628C44.0378 67.9026 44.1828 67.9389 44.2803 67.9787C44.3304 68.0219 44.4254 68.015 44.4754 68.0582C44.5255 68.1014 44.6205 68.0946 44.6706 68.1378L44.863 68.1707C45.1056 68.2467 45.3956 68.3194 45.683 68.3454C45.828 68.3817 45.9229 68.3749 46.0679 68.4112C46.7087 67.9432 47.0725 67.6358 47.0725 67.6358C47.0725 67.6358 47.0725 67.6358 46.693 65.9771C46.5691 65.4708 46.4346 64.778 46.2396 63.8554C45.404 60.0283 45.3991 52.3471 50.6803 52.1984C49.8895 48.3213 51.8277 43.8248 53.5706 40.9349C55.3637 38.0883 56.8718 39.4778 58.6382 41.2233C58.7833 40.4165 57.7499 37.3064 56.5477 34.5832C58.8256 36.9474 60.7741 37.6961 65.8786 37.7944C63.4951 36.0936 63.1551 35.1347 61.0723 31.1638C63.4584 32.0682 68.2755 32.9836 71.1441 33.1504C78.0758 33.5378 83.9898 32.7812 87.842 30.1132C88.4908 28.0989 88.0638 25.6006 87.0698 24.0333C86.9644 23.8536 86.8589 23.6739 86.7561 23.5408C83.0833 23.4792 76.8371 23.4167 70.9706 23.3268C66.6782 23.2632 62.5757 23.1859 59.8098 23.1522C59.8125 23.1989 59.8125 23.1989 59.7676 23.2489C59.7386 23.5789 59.6595 23.8657 59.6305 24.1957C59.4933 25.1424 59.3035 25.9993 59.0582 26.7196C59.0608 26.7663 59.0187 26.863 59.0213 26.9097C58.9 27.2932 58.776 27.63 58.6468 27.8736C57.6105 29.7754 52.1155 35.4197 48.2474 38.651C44.3793 41.8822 42.8102 47.0077 42.2218 55.1535C41.5807 63.2095 42.1 64.8112 42.3768 66.3368Z" fill="#BFC8D6"/>
  <path d="M82.5141 28.5437C82.0527 28.895 81.5421 29.202 81.0297 29.462C80.3313 29.8252 79.5837 30.1439 78.8343 30.4158C76.5387 31.2337 74.1358 31.7286 71.6622 31.6171C69.6169 31.5312 67.4679 31.2159 65.5379 30.4205C64.8636 30.1726 64.1857 29.831 63.6026 29.4846C60.2478 27.4465 58.3822 25.8503 58.5158 21.9026C58.6495 17.9549 59.1509 14.9273 59.1509 14.9273C59.1857 14.5971 59.5961 14.1545 59.7276 13.8664C59.952 13.5268 60.1272 13.1428 60.3517 12.8032C60.7531 12.1264 61.2002 11.4004 61.6508 10.768C62.6433 9.40497 63.8344 8.26662 65.2768 7.4911C67.6036 6.24932 70.2981 5.92758 72.9085 5.89153C74.8062 5.84403 76.7567 5.93465 78.5865 6.59427C80.1757 7.17204 81.4931 8.09174 82.6317 9.30185C83.8686 10.6009 84.7828 12.1506 85.8355 13.5996C85.8355 13.5996 86.5665 16.5659 87.0016 20.4853C87.4367 24.4046 85.6984 26.1332 82.5141 28.5437Z" fill="#EAEEF9"/>
  <path d="M67.4881 20.9833C66.9369 21.4802 66.2902 23.2025 63.6425 22.3014C59.8861 20.986 60.0824 16.1877 62.0641 14.5868C65.6115 11.6873 69.4064 12.766 70.1119 16.2989C70.8263 20.0661 68.5921 20.0364 67.4881 20.9833Z" fill="#BFC8D6"/>
  <path d="M61.1704 8.92764C62.3581 7.59835 63.8538 8.08851 63.1524 9.6759C62.0115 12.226 60.149 13.3537 58.9945 23.0084C58.774 24.713 53.2369 20.7072 53.6247 14.6661C53.6766 13.5344 55.0941 13.2287 55.0941 13.2287C55.9447 13.0453 59.2982 11.0437 61.1704 8.92764Z" fill="#989FB0"/>
  <path d="M80.8676 26.8499C80.9124 28.0191 80.6239 29.1581 80.0914 30.1218C79.4865 30.433 78.8324 30.6999 78.1783 30.9667C76.1651 31.676 74.0464 32.1094 71.9553 32.0259C70.1976 31.9728 68.287 31.646 66.6007 30.9802C65.8982 29.9842 65.5237 28.8782 65.4753 27.6154C65.3283 23.7802 68.6673 20.5214 72.9298 20.3094C77.1449 20.0998 80.7206 23.0147 80.8676 26.8499Z" fill="#BFC8D6"/>
  <path d="M65.3357 20.5723C66.8809 20.4954 68.0861 19.1954 68.0276 17.6686C67.9691 16.1419 66.6691 14.9665 65.1239 15.0434C63.5788 15.1203 62.3736 16.4203 62.4321 17.9471C62.4906 19.4739 63.7906 20.6492 65.3357 20.5723Z" fill="white"/>
  <path d="M67.7538 17.9685C67.7987 19.1399 66.8405 20.1735 65.6551 20.2325C64.4696 20.2915 63.436 19.357 63.3912 18.1856C63.588 18.3636 63.8305 18.4924 64.115 18.4782C64.6366 18.4523 65.0947 18.007 65.0732 17.4447C65.0534 16.9293 64.6105 16.5288 64.0871 16.5079C64.4539 16.1611 64.9683 15.9477 65.4899 15.9217C66.7228 15.8604 67.7071 16.7503 67.7538 17.9685Z" fill="#989FB0"/>
  <path d="M80.803 19.8975C82.3482 19.8206 83.5534 18.5206 83.4949 16.9938C83.4364 15.4671 82.1364 14.2917 80.5912 14.3686C79.0461 14.4455 77.8409 15.7455 77.8994 17.2723C77.9578 18.799 79.2579 19.9744 80.803 19.8975Z" fill="white"/>
  <path d="M78.1978 17.5392C78.2427 18.7106 79.2762 19.645 80.4617 19.586C81.6472 19.527 82.6053 18.4935 82.5604 17.3221C82.3779 17.5189 82.1462 17.6713 81.8617 17.6854C81.3401 17.7114 80.8497 17.3133 80.8282 16.751C80.8084 16.2356 81.2191 15.7927 81.7389 15.7199C81.347 15.4108 80.8182 15.2493 80.2966 15.2752C79.1111 15.3342 78.1511 16.3209 78.1978 17.5392Z" fill="#989FB0"/>
  <path d="M72.9245 20.746C72.546 20.7648 72.1693 20.8302 71.7944 20.9423C71.3266 21.1058 70.6259 21.3743 70.6492 21.9808C70.6778 22.7272 72.5025 23.3378 72.9756 23.3143C73.4488 23.2908 75.2215 22.5483 75.1911 21.7552C75.1624 21.0088 74.4438 20.8108 73.8252 20.748C73.5395 20.7155 73.2065 20.6852 72.9245 20.746Z" fill="#989FB0"/>
  <path d="M73.1744 23.1802L73.0221 22.9522L72.8879 23.1944C72.8879 23.1944 72.8079 24.8476 72.4457 25.3838C72.6971 25.7012 72.9359 25.6894 73.0296 25.6376C73.1747 25.6775 73.4135 25.6657 73.5919 25.327C73.2873 24.8709 73.1744 23.1802 73.1744 23.1802Z" fill="#989FB0"/>
  <path d="M64.6987 11.8309C64.0425 12.0511 63.481 12.2667 63.0215 12.6648C62.562 13.0629 62.2044 13.6435 62.0382 14.2615C62.04 14.3083 61.9926 14.3107 61.9452 14.313C61.8978 14.3154 61.896 14.2686 61.896 14.2686C61.8835 13.9409 62.0113 13.5593 62.1427 13.2713C62.2723 12.9366 62.4984 12.6439 62.7738 12.3957C63.0492 12.1475 63.3263 11.946 63.6526 11.7891C63.9808 11.679 64.3581 11.6133 64.6934 11.6904C64.7425 11.7349 64.7917 11.7793 64.6987 11.8309C64.7461 11.8285 64.7461 11.8285 64.6987 11.8309Z" fill="#989FB0"/>
  <path d="M80.6703 11.1506C81.3409 11.3049 81.9168 11.4639 82.405 11.8148C82.8932 12.1657 83.2939 12.7086 83.5067 13.3078C83.5085 13.3546 83.5559 13.3522 83.6033 13.3499C83.6507 13.3475 83.6489 13.3007 83.6489 13.3007C83.6363 12.973 83.4798 12.6056 83.3269 12.3318C83.1722 12.0111 82.9245 11.742 82.6312 11.5221C82.3379 11.3022 82.0464 11.1291 81.7093 11.0052C81.374 10.928 80.9931 10.9001 80.6649 11.0102C80.6193 11.0594 80.6211 11.1062 80.6703 11.1506C80.6703 11.1506 80.6229 11.153 80.6703 11.1506Z" fill="#989FB0"/>
  <path d="M83.7377 7.50413C82.4528 6.2978 81.0003 6.93458 81.8205 8.44629C83.1522 10.8735 85.0939 11.8119 86.9827 21.3153C87.3328 22.9915 92.5423 18.4513 91.6938 12.4717C91.5555 11.3494 90.1199 11.1856 90.1199 11.1856C89.2586 11.0873 85.7647 9.42628 83.7377 7.50413Z" fill="#989FB0"/>
  <path d="M78.0176 28.3739C78.3592 30.7518 76.4152 31.6675 73.8657 31.9798C71.3162 32.292 69.181 31.876 68.8394 29.4981C68.4979 27.1201 70.2642 24.968 72.8137 24.6557C75.3632 24.3434 77.6761 25.996 78.0176 28.3739Z" fill="#EAEEF9"/>
  <path d="M25.0342 22.2287C25.9092 22.2287 26.5898 21.4426 26.5898 20.5582C26.5898 19.6738 25.9092 18.8877 24.937 18.8877C24.062 18.8877 23.2842 19.5756 23.2842 20.5582C23.3814 21.4426 24.1592 22.2287 25.0342 22.2287Z" fill="#EAEEF9"/>
  <path d="M23.3643 107.802H114.623" stroke="#D6DCE8" stroke-width="2" stroke-miterlimit="10" stroke-linejoin="round"/>
  <path d="M12.9844 107.802H20.7816" stroke="#D6DCE8" stroke-width="2" stroke-miterlimit="10" stroke-linejoin="round"/>
  <path d="M24.6659 20.8104L20.6172 21.623L23.635 36.7695L27.6837 35.9569L24.6659 20.8104Z" fill="#D5DDEA"/>
  <path d="M39.5471 36.8882L36.9197 23.5141H15.7128C14.7744 23.5141 14.0237 23.1374 13.4607 22.5723L11.9594 20.8769C11.3963 20.3118 11.7717 19.1816 12.71 19.1816H38.6088C39.5471 19.1816 40.4855 19.9351 40.6731 20.8769L43.6759 35.9463L39.5471 36.8882Z" fill="#D5DDEA"/>
  <path d="M101.291 107.526C105.333 107.526 108.61 104.237 108.61 100.179C108.61 96.1221 105.333 92.833 101.291 92.833C97.2486 92.833 93.9717 96.1221 93.9717 100.179C93.9717 104.237 97.2486 107.526 101.291 107.526Z" fill="url(#paint0_linear_2075_93119)"/>
  <path d="M49.681 107.526C53.7233 107.526 57.0002 104.237 57.0002 100.179C57.0002 96.1221 53.7233 92.833 49.681 92.833C45.6387 92.833 42.3618 96.1221 42.3618 100.179C42.3618 104.237 45.6387 107.526 49.681 107.526Z" fill="url(#paint1_linear_2075_93119)"/>
  <path d="M49.0442 82.7921L44.998 83.6172L48.4357 100.6L52.4819 99.7753L49.0442 82.7921Z" fill="#D5DDEA"/>
  <path d="M101.104 102.252H37.6705C36.7321 102.252 35.7938 101.499 35.6061 100.557L31.102 78.7061C30.9143 77.5759 31.665 76.4457 32.791 76.2574C33.9171 76.069 35.0431 76.8225 35.2308 77.9527L39.3595 98.108H101.291C102.417 98.108 103.356 99.0498 103.356 100.18C103.356 101.31 102.417 102.252 101.104 102.252Z" fill="#D5DDEA"/>
  <path d="M37.2948 107.526C41.3371 107.526 44.614 104.237 44.614 100.179C44.614 96.1221 41.3371 92.833 37.2948 92.833C33.2525 92.833 29.9756 96.1221 29.9756 100.179C29.9756 104.237 33.2525 107.526 37.2948 107.526Z" fill="url(#paint2_linear_2075_93119)"/>
  <path d="M37.2953 103.759C39.2646 103.759 40.861 102.156 40.861 100.18C40.861 98.203 39.2646 96.6006 37.2953 96.6006C35.3259 96.6006 33.7295 98.203 33.7295 100.18C33.7295 102.156 35.3259 103.759 37.2953 103.759Z" fill="#8691AA"/>
  <path d="M88.9046 107.526C92.9469 107.526 96.2239 104.237 96.2239 100.179C96.2239 96.1221 92.9469 92.833 88.9046 92.833C84.8624 92.833 81.5854 96.1221 81.5854 100.179C81.5854 104.237 84.8624 107.526 88.9046 107.526Z" fill="url(#paint3_linear_2075_93119)"/>
  <path d="M88.9046 103.759C90.8739 103.759 92.4704 102.156 92.4704 100.18C92.4704 98.203 90.8739 96.6006 88.9046 96.6006C86.9353 96.6006 85.3389 98.203 85.3389 100.18C85.3389 102.156 86.9353 103.759 88.9046 103.759Z" fill="#8691AA"/>
  <g filter="url(#filter0_d_2075_93119)">
    <path d="M116.305 35.3809L108.61 79.6472C108.047 82.4727 105.795 84.3564 102.98 84.3564H36.9193C34.1042 84.3564 31.8522 82.4727 31.2892 79.6472L22.6562 35.3809H116.305Z" fill="url(#paint4_linear_2075_93119)"/>
  </g>
  <path d="M61.8796 78.3293C62.818 78.3293 63.7564 77.5758 63.7564 76.4456V43.4813C63.7564 42.5395 63.0057 41.5977 61.8796 41.5977C60.9413 41.5977 60.0029 42.3511 60.0029 43.4813V76.4456C60.0029 77.5758 60.7536 78.3293 61.8796 78.3293Z" fill="#E7EAF4"/>
  <path d="M71.4513 78.329C72.3896 78.5173 73.328 77.7639 73.5156 76.6337L76.7061 43.8577C76.8937 42.9159 76.1431 41.9741 75.017 41.7857C74.0787 41.5973 73.1403 42.3508 72.9526 43.481L69.7622 76.2569C69.7622 77.3871 70.3252 78.1406 71.4513 78.329Z" fill="#E7EAF4"/>
  <path d="M81.2103 78.1401C82.1486 78.3284 83.087 77.575 83.2747 76.6331L89.2802 44.2339C89.4678 43.2921 88.7171 42.3502 87.7788 42.1619C86.8404 41.9735 85.9021 42.727 85.7144 43.6688L79.8966 76.068C79.5212 77.0099 80.2719 77.9517 81.2103 78.1401Z" fill="#E7EAF4"/>
  <path d="M52.121 78.329C51.1826 78.5173 50.2442 77.7639 50.0566 76.6337L46.8661 43.8577C46.6785 42.9159 47.4292 41.9741 48.5552 41.7857C49.4935 41.5973 50.4319 42.3508 50.6196 43.481L53.81 76.2569C53.81 77.3871 53.247 78.1406 52.121 78.329Z" fill="#E7EAF4"/>
  <path d="M42.362 78.1401C41.4237 78.3284 40.4853 77.575 40.2976 76.6331L34.2921 44.2339C34.1045 43.2921 34.8551 42.3502 35.7935 42.1619C36.7319 41.9735 37.6702 42.727 37.8579 43.6688L43.6757 76.068C44.0511 77.0099 43.3004 77.9517 42.362 78.1401Z" fill="#E7EAF4"/>
  <path d="M116.305 35.3809L108.61 79.6472C108.047 82.4727 105.795 84.3564 102.98 84.3564H85.5269C88.7173 84.3564 91.3447 82.096 91.9077 79.0821L99.9776 35.3809H116.305Z" fill="#DBDFEC"/>
  <defs>
    <filter id="filter0_d_2075_93119" x="0.65625" y="24.3809" width="137.648" height="92.9756" filterUnits="userSpaceOnUse" color-interpolation-filters="sRGB">
      <feFlood flood-opacity="0" result="BackgroundImageFix"/>
      <feColorMatrix in="SourceAlpha" type="matrix" values="0 0 0 0 0 0 0 0 0 0 0 0 0 0 0 0 0 0 127 0" result="hardAlpha"/>
      <feOffset dy="11"/>
      <feGaussianBlur stdDeviation="11"/>
      <feColorMatrix type="matrix" values="0 0 0 0 0.397708 0 0 0 0 0.47749 0 0 0 0 0.575 0 0 0 0.27 0"/>
      <feBlend mode="normal" in2="BackgroundImageFix" result="effect1_dropShadow_2075_93119"/>
      <feBlend mode="normal" in="SourceGraphic" in2="effect1_dropShadow_2075_93119" result="shape"/>
    </filter>
    <linearGradient id="paint0_linear_2075_93119" x1="93.965" y1="100.181" x2="108.613" y2="100.181" gradientUnits="userSpaceOnUse">
      <stop stop-color="#B0BACC"/>
      <stop offset="1" stop-color="#969EAE"/>
    </linearGradient>
    <linearGradient id="paint1_linear_2075_93119" x1="42.3551" y1="100.181" x2="57.0029" y2="100.181" gradientUnits="userSpaceOnUse">
      <stop stop-color="#B0BACC"/>
      <stop offset="1" stop-color="#969EAE"/>
    </linearGradient>
    <linearGradient id="paint2_linear_2075_93119" x1="29.9689" y1="100.181" x2="44.6167" y2="100.181" gradientUnits="userSpaceOnUse">
      <stop stop-color="#B0BACC"/>
      <stop offset="1" stop-color="#969EAE"/>
    </linearGradient>
    <linearGradient id="paint3_linear_2075_93119" x1="81.5787" y1="100.181" x2="96.2265" y2="100.181" gradientUnits="userSpaceOnUse">
      <stop stop-color="#B0BACC"/>
      <stop offset="1" stop-color="#969EAE"/>
    </linearGradient>
    <linearGradient id="paint4_linear_2075_93119" x1="69.4499" y1="34.248" x2="69.4499" y2="84.8844" gradientUnits="userSpaceOnUse">
      <stop stop-color="#FDFEFF"/>
      <stop offset="0.9964" stop-color="#ECF0F5"/>
    </linearGradient>
  </defs>
</svg>