<svg xmlns="http://www.w3.org/2000/svg" width="162" height="147" viewBox="0 0 162 147" fill="none">
  <path d="M78.4899 130.34C111.099 130.34 137.534 103.751 137.534 70.9531C137.534 38.1547 111.099 11.5664 78.4899 11.5664C45.8806 11.5664 19.4456 38.1547 19.4456 70.9531C19.4456 103.751 45.8806 130.34 78.4899 130.34Z" fill="#EAEEF9"/>
  <g filter="url(#filter0_d_2075_93061)">
    <path d="M23.4844 40.3643V48.0117V108.952C23.4844 111.7 25.7416 113.97 28.474 113.97H126.723C129.455 113.97 131.713 111.7 131.713 108.952V48.0117V40.6033C131.713 37.616 129.337 35.3457 126.485 35.3457H28.474L23.4844 40.3643Z" fill="url(#paint0_linear_2075_93061)"/>
  </g>
  <path d="M99.5173 45.6219H23.4844V40.3643C23.4844 37.616 25.7416 35.3457 28.474 35.3457H126.723C129.455 35.3457 131.713 37.616 131.713 40.3643V45.6219H114.962H99.5173Z" fill="#D5DDEA"/>
  <path d="M29.8998 42.3955C30.8184 42.3955 31.563 41.6466 31.563 40.7227C31.563 39.7988 30.8184 39.0498 29.8998 39.0498C28.9812 39.0498 28.2366 39.7988 28.2366 40.7227C28.2366 41.6466 28.9812 42.3955 29.8998 42.3955Z" fill="#989FB0"/>
  <path d="M34.6517 42.3955C35.5703 42.3955 36.315 41.6466 36.315 40.7227C36.315 39.7988 35.5703 39.0498 34.6517 39.0498C33.7332 39.0498 32.9885 39.7988 32.9885 40.7227C32.9885 41.6466 33.7332 42.3955 34.6517 42.3955Z" fill="#989FB0"/>
  <path d="M39.5228 42.3955C40.4414 42.3955 41.1861 41.6466 41.1861 40.7227C41.1861 39.7988 40.4414 39.0498 39.5228 39.0498C38.6043 39.0498 37.8596 39.7988 37.8596 40.7227C37.8596 41.6466 38.6043 42.3955 39.5228 42.3955Z" fill="#989FB0"/>
  <path d="M73.0244 75.1357L53.6597 75.0162C52.8281 75.0162 52.2341 74.2993 52.2341 73.5823C52.2341 72.7459 52.9469 72.1484 53.6597 72.1484L73.0244 72.2679C73.856 72.2679 74.45 72.9849 74.45 73.7018C74.45 74.4188 73.856 75.1357 73.0244 75.1357Z" fill="#D6DCE8"/>
  <path d="M119.001 75.1357L96.6661 75.0162C95.8345 75.0162 95.2405 74.2993 95.2405 73.5823C95.2405 72.7459 95.9533 72.1484 96.6661 72.1484L118.882 72.2679C119.714 72.2679 120.308 72.9849 120.308 73.7018C120.426 74.4188 119.832 75.1357 119.001 75.1357Z" fill="#EAECF3"/>
  <path d="M104.15 103.217L81.8158 103.097C80.9841 103.097 80.3901 102.38 80.3901 101.663C80.3901 100.827 81.1029 100.229 81.8158 100.229L104.15 100.349C104.982 100.349 105.576 101.066 105.576 101.783C105.576 102.619 104.863 103.217 104.15 103.217Z" fill="#D6DCE8"/>
  <path d="M90.3694 75.0166L79.5584 74.8971C78.7268 74.8971 78.1328 74.1801 78.1328 73.4632C78.1328 72.6267 78.8456 72.0293 79.5584 72.0293L90.3694 72.1488C91.201 72.1488 91.795 72.8657 91.795 73.5827C91.9138 74.4191 91.201 75.0166 90.3694 75.0166Z" fill="#AAB2C5"/>
  <path d="M45.9378 74.8971H37.9781C37.1465 74.8971 36.5525 74.1801 36.5525 73.4632C36.5525 72.6267 37.1465 72.0293 37.9781 72.0293H45.9378C46.7694 72.0293 47.3634 72.7462 47.3634 73.4632C47.3634 74.2996 46.7694 74.8971 45.9378 74.8971Z" fill="#AAB2C5"/>
  <path d="M76.8262 84.456L65.1837 84.3365C64.3521 84.3365 63.7581 83.6196 63.7581 82.9026C63.7581 82.0662 64.4709 81.4688 65.1837 81.4688L76.8262 81.5882C77.6578 81.5882 78.2518 82.3052 78.2518 83.0221C78.3706 83.7391 77.6578 84.456 76.8262 84.456Z" fill="#D6DCE8"/>
  <path d="M112.942 84.695L83.3602 84.3365C82.5286 84.3365 81.9346 83.6196 81.9346 82.9026C81.9346 82.0662 82.6474 81.4688 83.3602 81.4688L112.942 81.8272C113.773 81.8272 114.367 82.5442 114.367 83.2611C114.367 83.978 113.655 84.695 112.942 84.695Z" fill="#D6DCE8"/>
  <path d="M57.4616 84.3365H37.9781C37.1465 84.3365 36.5525 83.6196 36.5525 82.9026C36.5525 82.0662 37.2653 81.4688 37.9781 81.4688H57.4616C58.2932 81.4688 58.8872 82.1857 58.8872 82.9026C58.8872 83.6196 58.2932 84.3365 57.4616 84.3365Z" fill="#EAECF3"/>
  <path d="M92.1516 93.7763L65.1837 93.6568C64.3521 93.6568 63.7581 92.9399 63.7581 92.2229C63.7581 91.3865 64.4709 90.7891 65.1837 90.7891L92.2704 90.9086C93.102 90.9086 93.696 91.6255 93.696 92.3424C93.696 93.1789 92.9832 93.7763 92.1516 93.7763Z" fill="#AAB2C5"/>
  <path d="M57.4616 93.6568H37.9781C37.1465 93.6568 36.5525 92.9399 36.5525 92.2229C36.5525 91.3865 37.2653 90.7891 37.9781 90.7891H57.4616C58.2932 90.7891 58.8872 91.506 58.8872 92.2229C58.8872 92.9399 58.2932 93.6568 57.4616 93.6568Z" fill="#D6DCE8"/>
  <path d="M74.3315 103.097L59.4813 102.977C58.6497 102.977 58.0557 102.26 58.0557 101.543C58.0557 100.707 58.7685 100.109 59.4813 100.109L74.3315 100.229C75.1631 100.229 75.7571 100.946 75.7571 101.663C75.7571 102.499 75.1631 103.097 74.3315 103.097Z" fill="#EAECF3"/>
  <path d="M49.9771 102.977H37.9781C37.1465 102.977 36.5525 102.26 36.5525 101.543C36.5525 100.707 37.2653 100.109 37.9781 100.109H49.9771C50.8087 100.109 51.4027 100.826 51.4027 101.543C51.5215 102.38 50.8087 102.977 49.9771 102.977Z" fill="#AAB2C5"/>
  <path d="M92.6273 60.678L37.9786 60.4391C37.147 60.4391 36.553 59.7221 36.553 59.0052C36.553 58.1687 37.2658 57.5713 37.9786 57.5713L92.6273 57.8103C93.4589 57.8103 94.0529 58.5272 94.0529 59.2442C94.0529 60.0806 93.4589 60.678 92.6273 60.678Z" fill="#AAB2C5"/>
  <path d="M3.82678 54.3686C4.06438 54.6076 4.18319 54.8466 4.18319 55.205C2.99517 58.6702 2.63877 58.7897 4.18319 59.3872C4.30199 59.3872 4.42079 59.6262 4.30199 59.7457C3.94558 60.7016 3.82678 61.4185 3.47037 61.299C-2.1133 59.2677 3.58918 55.444 0.73794 54.3686C0.619139 54.3686 0.619141 54.2491 0.619141 54.1296L1.21315 52.3373C1.21315 52.2178 1.33195 52.2178 1.45075 52.2178C2.87637 52.6957 2.99517 51.6203 3.47037 50.3059C4.06438 48.3941 5.6088 47.7966 7.39082 48.3941C7.74723 48.5136 8.10363 48.6331 7.98483 48.872C7.39082 50.6644 7.50963 50.5449 6.79682 50.3059C5.01479 49.7085 5.49 54.4881 3.82678 54.3686Z" fill="#AAB2C5"/>
  <path d="M157.199 54.726C157.081 54.726 157.081 54.8455 157.199 54.726C157.437 54.965 157.556 55.204 157.556 55.5625C156.368 59.0277 156.011 59.1472 157.556 59.7446C157.675 59.7446 157.793 59.9836 157.675 60.1031C157.318 61.059 157.199 61.7759 156.843 61.6565C151.259 59.6251 156.962 55.8014 154.111 54.726C153.992 54.726 153.992 54.6065 153.992 54.487L154.586 52.6947C154.586 52.5752 154.705 52.5752 154.823 52.5752C156.249 53.0532 156.368 51.9777 156.843 50.6634C157.437 48.7515 158.981 48.1541 160.763 48.7515C161.12 48.871 161.476 48.9905 161.357 49.2295C160.763 51.0218 160.882 50.9023 160.169 50.6634C158.269 50.1854 158.863 54.8455 157.199 54.726Z" fill="#AAB2C5"/>
  <path d="M87.8194 3.10675C87.7006 2.98726 87.7006 2.98726 87.8194 3.10675C87.5818 3.34573 87.3442 3.58471 87.1066 3.58471C83.5426 2.98726 83.305 2.62879 82.9486 4.18216C82.9486 4.30165 82.8298 4.42114 82.5922 4.42114C81.523 4.18216 80.929 4.30165 80.929 3.82369C81.9982 -2.15083 86.7502 2.98726 87.2254 0.11949C87.2254 -6.85509e-07 87.3442 0 87.463 0L89.2451 0.35847C89.3639 0.35847 89.3639 0.477961 89.3639 0.597451C89.1263 2.03133 90.0767 2.03133 91.6211 2.27031C93.5219 2.62879 94.4723 3.94318 94.1159 5.85502C93.9971 6.21349 93.9971 6.57196 93.7595 6.57196C91.9775 6.21349 91.9775 6.45247 92.2151 5.61604C92.4527 3.46522 87.8194 4.77961 87.8194 3.10675Z" fill="#AAB2C5"/>
  <path d="M51.5219 11.3282C50.6903 12.1646 50.5715 13.5985 51.4031 14.4349C51.8783 15.0324 52.7099 15.2714 53.5416 15.0324C53.898 15.5103 53.898 16.1078 53.6604 16.5858L52.3535 18.4976C52.2347 18.6171 52.1159 18.8561 52.1159 18.9756L50.8091 17.5417C51.1655 16.3468 50.5715 15.1519 49.3835 14.7934C48.1955 14.4349 47.0075 15.0324 46.6511 16.2273C46.2947 17.4222 46.8887 18.6171 48.0767 18.9756C48.4331 19.095 48.9083 19.095 49.2647 18.9756L52.7099 22.6798C52.3535 23.8747 52.9475 25.0696 54.1356 25.428C55.3236 25.7865 56.5116 25.189 56.868 23.9941C56.868 23.8747 56.868 23.8747 56.9868 23.7552C56.9868 23.5162 56.9868 23.2772 56.9868 23.1577C56.868 21.9628 55.7988 21.0069 54.492 21.2459C54.3732 21.2459 54.3732 21.2459 54.2544 21.2459C53.898 20.7679 53.7792 20.1705 54.1356 19.6925L55.4424 17.7807C56.274 16.4663 56.1552 14.7934 55.2048 13.5985C55.2048 13.479 55.2048 13.3595 55.3236 13.3595C55.3236 13.1205 55.3236 12.8816 55.3236 12.7621C55.2048 11.5672 54.1356 10.7307 52.9475 10.8502C52.2347 10.8502 51.8783 10.9697 51.5219 11.3282ZM48.1955 16.3468C48.5519 16.1078 48.9083 16.1078 49.2647 16.3468C49.5023 16.7052 49.5023 17.0637 49.2647 17.4222C48.9083 17.6612 48.5519 17.6612 48.1955 17.4222C47.8391 17.1832 47.8391 16.7052 48.1955 16.3468ZM55.3236 23.0382C55.4424 23.1577 55.4424 23.2772 55.4424 23.3967C55.4424 23.7552 55.086 24.1136 54.6108 24.1136C54.2544 24.1136 53.898 23.7552 53.898 23.2772C53.898 23.1577 54.0168 22.9187 54.0168 22.7992C54.1356 22.5603 54.3732 22.5603 54.6108 22.5603C54.9672 22.6798 55.2048 22.7992 55.3236 23.0382ZM52.3535 12.4036C52.5911 12.0451 53.0663 12.0451 53.4227 12.2841C53.5416 12.2841 53.5416 12.4036 53.5416 12.5231C53.5416 12.6426 53.5416 12.6426 53.6604 12.7621C53.6604 12.8816 53.6604 12.8816 53.6604 13.001C53.6604 13.1205 53.6604 13.1205 53.6604 13.1205C53.5416 13.24 53.4228 13.3595 53.3039 13.479C52.9475 13.718 52.4723 13.479 52.3535 13.1205C52.2347 13.001 52.2347 12.6426 52.3535 12.4036Z" fill="#D6DCE8"/>
  <path d="M99.2271 21.8229L97.445 22.7788C95.663 20.9865 92.9306 20.9865 91.1485 22.7788C90.1981 23.7348 89.7229 25.1686 89.9605 26.6025L88.0597 27.439C87.7033 27.5584 87.5845 28.0364 87.8221 28.2754L88.5349 29.7093C88.6537 30.0677 89.1289 30.1872 89.3665 29.9483L91.1485 28.9923C92.9306 30.7847 95.663 30.7847 97.445 28.9923C98.3954 28.0364 98.8706 26.6025 98.633 25.1686L100.415 24.2127C100.771 24.0932 100.89 23.6153 100.653 23.3763L99.9399 21.9424C99.9399 21.8229 99.4647 21.7034 99.2271 21.8229ZM95.3066 27.9169C94.2374 28.5144 92.9306 28.0364 92.3366 26.961C91.7426 25.8856 92.2178 24.5712 93.287 23.9737C94.3562 23.3763 95.663 23.8542 96.257 24.9297C96.7322 26.0051 96.3758 27.3195 95.3066 27.9169Z" fill="#D6DCE8"/>
  <path d="M16.6574 96.7732L14.7566 93.308C14.0438 91.9936 12.4994 91.5156 11.1926 92.2326L10.8362 92.3521L10.4798 91.7546C10.3609 91.5156 10.1233 91.5156 9.88574 91.6351C9.76694 91.6351 9.76695 91.7546 9.64814 91.8741L8.69773 94.2639C8.57893 94.5029 8.69773 94.7419 8.93534 94.8614C8.93534 94.8614 8.93534 94.8614 9.05414 94.8614L11.549 95.3393C11.7866 95.3393 12.0242 95.2198 12.0242 94.9809C12.0242 94.8614 12.0242 94.7419 12.0242 94.7419L11.6678 94.1444L12.0242 93.9054C12.3806 93.6665 12.9746 93.786 13.0934 94.2639L14.9942 97.7291C14.6378 98.3266 14.6378 99.0435 14.9942 99.641C15.4694 100.597 16.5386 100.836 17.489 100.358C17.8454 100.119 18.0831 99.88 18.3207 99.5215C18.4395 99.402 18.4395 99.163 18.4395 99.0435C18.5583 97.9681 17.8454 97.0122 16.7762 96.8927C16.7762 96.7732 16.6574 96.7732 16.6574 96.7732ZM16.4198 99.163C16.301 99.163 16.301 99.163 16.4198 99.163C16.0634 98.924 15.9446 98.5656 16.1822 98.2071C16.301 97.9681 16.5386 97.8486 16.7762 97.8486C16.895 97.8486 17.1326 97.9681 17.2514 98.0876C17.489 98.3266 17.489 98.6851 17.2514 98.924C16.895 99.2825 16.6574 99.2825 16.4198 99.163Z" fill="#D6DCE8"/>
  <path d="M6.203 93.6672C5.37139 94.1452 5.01498 95.3401 5.49019 96.1765C5.84659 96.7739 6.4406 97.1324 7.15341 97.1324L10.4798 103.107C10.7175 103.585 11.1927 103.704 11.6679 103.465C12.1431 103.226 12.2619 102.748 12.0243 102.27L8.69783 96.296C9.05423 95.6985 9.05423 94.9816 8.69783 94.3841C8.22262 93.5477 7.03461 93.1892 6.203 93.6672ZM7.39101 95.818C7.03461 95.9375 6.67821 95.9375 6.5594 95.579C6.4406 95.2206 6.4406 94.8621 6.797 94.7426C7.15341 94.6231 7.50982 94.6231 7.62862 94.9816C7.74742 95.3401 7.62861 95.6985 7.39101 95.818Z" fill="#D6DCE8"/>
  <path d="M147.87 77.6447L147.989 77.4058C148.345 76.6888 148.345 75.9719 147.989 75.2549L146.92 72.9846C146.801 72.8651 146.801 72.6261 146.92 72.5067L147.276 71.6702L147.87 72.0287C148.108 72.1482 148.345 72.0287 148.464 71.7897C148.464 71.6702 148.464 71.5507 148.464 71.5507L147.989 68.9219C147.989 68.683 147.751 68.5635 147.514 68.5635H147.395L145.019 69.6389C144.781 69.7584 144.662 69.9974 144.781 70.2363C144.781 70.3558 144.9 70.3558 145.019 70.4753L145.613 70.8338L145.256 71.6702C145.138 71.7897 145.019 71.9092 144.9 71.9092L142.405 72.2677C141.692 72.3872 140.98 72.8651 140.742 73.4626L140.623 73.7016C139.554 73.7016 138.722 74.538 138.722 75.6134C138.722 76.6888 139.554 77.5252 140.623 77.5252C141.692 77.5252 142.524 76.6888 142.524 75.6134C142.524 75.2549 142.405 74.8965 142.168 74.6575L142.286 74.4185C142.405 74.299 142.524 74.1795 142.643 74.1795L144.781 73.821C145.019 73.821 145.256 73.9405 145.375 74.1795L146.326 76.2109C146.445 76.3303 146.445 76.5693 146.326 76.6888L146.207 76.9278C145.138 76.9278 144.306 77.8837 144.425 78.8396C144.425 79.915 145.375 80.7515 146.326 80.632C147.395 80.632 148.227 79.6761 148.108 78.7201C148.227 78.3617 148.108 78.0032 147.87 77.6447ZM140.386 76.3303C140.029 76.2109 139.91 75.7329 140.148 75.4939C140.267 75.1354 140.742 75.0159 140.98 75.2549C141.336 75.3744 141.455 75.8524 141.217 76.0914C141.098 76.3303 140.623 76.4498 140.386 76.3303ZM145.969 79.3176C145.613 79.1981 145.494 78.7201 145.732 78.4812C145.851 78.1227 146.326 78.0032 146.563 78.2422C146.801 78.4812 147.039 78.8396 146.801 79.0786C146.682 79.3176 146.326 79.4371 145.969 79.3176Z" fill="#D6DCE8"/>
  <path d="M143.206 110.996C140.801 123.005 129.14 130.848 117.358 128.274C105.577 125.823 97.8827 113.936 100.407 101.927C102.812 89.9175 114.473 82.0751 126.255 84.6485C130.462 85.5064 134.309 87.5896 137.315 90.7758C142.484 96.0453 144.768 103.643 143.206 110.996Z" fill="url(#paint1_linear_2075_93061)"/>
  <path d="M128.621 104.321H123.761V99.4611C123.761 98.489 123.005 97.625 121.925 97.625C120.953 97.625 120.089 98.381 120.089 99.4611V104.321H115.229C114.257 104.321 113.393 105.077 113.393 106.157C113.393 107.237 114.149 107.993 115.229 107.993H120.089V112.854C120.089 113.826 120.845 114.69 121.925 114.69C122.897 114.69 123.761 113.934 123.761 112.854V107.993H128.621C129.593 107.993 130.457 107.237 130.457 106.157C130.457 105.077 129.593 104.321 128.621 104.321Z" fill="white"/>
  <path d="M69.9362 123.29C69.2234 123.409 68.6294 123.887 68.3918 124.604C66.491 124.963 64.9466 123.529 64.5902 122.812C65.303 121.975 65.1842 120.78 64.3526 120.064C63.521 119.347 62.333 119.466 61.6201 120.303C60.9073 121.139 61.0261 122.334 61.8577 123.051C62.0954 123.17 62.333 123.409 62.5706 123.409L63.4022 127.83C62.5706 128.547 62.4518 129.742 63.1646 130.579C63.8774 131.415 65.0654 131.535 65.897 130.818C66.0158 130.818 66.0158 130.698 66.1346 130.698C66.2534 130.579 66.3722 130.459 66.491 130.22C66.9662 129.264 66.6098 128.069 65.5406 127.591C65.4218 127.591 65.4218 127.472 65.303 127.472L64.9466 125.799C66.0158 126.516 67.3226 126.755 68.6294 126.635H68.7482C69.461 127.472 70.6491 127.591 71.4807 126.874C71.5995 126.874 71.5995 126.755 71.5995 126.755C71.7183 126.635 71.8371 126.516 71.9559 126.277C72.4311 125.321 72.0747 124.126 71.1243 123.648C70.7679 123.29 70.2927 123.17 69.9362 123.29ZM63.0458 120.78C63.4022 120.661 63.7586 120.9 63.8774 121.378C63.9962 121.736 63.7586 122.095 63.2834 122.214C62.927 122.334 62.5706 122.095 62.4518 121.617C62.4518 121.258 62.6894 120.9 63.0458 120.78ZM64.9466 129.862C64.709 130.101 64.2338 129.981 63.9962 129.742C63.7586 129.503 63.8774 129.025 64.115 128.786C64.115 128.786 64.2338 128.667 64.3526 128.667C64.4714 128.547 64.709 128.667 64.8278 128.667C65.1842 128.906 65.303 129.264 65.0654 129.623C65.1842 129.742 65.0654 129.742 64.9466 129.862ZM70.2927 125.919C69.9362 125.919 69.6986 125.56 69.6986 125.202C69.6986 124.963 69.9363 124.724 70.1739 124.604C70.2927 124.604 70.5303 124.604 70.6491 124.604C71.0055 124.724 71.1243 125.202 71.0055 125.56C70.7679 125.799 70.5303 125.919 70.2927 125.919Z" fill="#D6DCE8"/>
  <defs>
    <filter id="filter0_d_2075_93061" x="1.48438" y="24.3457" width="152.228" height="122.625" filterUnits="userSpaceOnUse" color-interpolation-filters="sRGB">
      <feFlood flood-opacity="0" result="BackgroundImageFix"/>
      <feColorMatrix in="SourceAlpha" type="matrix" values="0 0 0 0 0 0 0 0 0 0 0 0 0 0 0 0 0 0 127 0" result="hardAlpha"/>
      <feOffset dy="11"/>
      <feGaussianBlur stdDeviation="11"/>
      <feColorMatrix type="matrix" values="0 0 0 0 0.397708 0 0 0 0 0.47749 0 0 0 0 0.575 0 0 0 0.27 0"/>
      <feBlend mode="normal" in2="BackgroundImageFix" result="effect1_dropShadow_2075_93061"/>
      <feBlend mode="normal" in="SourceGraphic" in2="effect1_dropShadow_2075_93061" result="shape"/>
    </filter>
    <linearGradient id="paint0_linear_2075_93061" x1="77.5632" y1="33.527" x2="77.5632" y2="114.818" gradientUnits="userSpaceOnUse">
      <stop stop-color="#FDFEFF"/>
      <stop offset="0.9964" stop-color="#ECF0F5"/>
    </linearGradient>
    <linearGradient id="paint1_linear_2075_93061" x1="99.9072" y1="106.466" x2="143.698" y2="106.466" gradientUnits="userSpaceOnUse">
      <stop stop-color="#B0BACC"/>
      <stop offset="1" stop-color="#969EAE"/>
    </linearGradient>
  </defs>
</svg>