<svg
            xmlns="http://www.w3.org/2000/svg"
            width="24"
            height="24"
            viewBox="0 0 24 24"
            fill="none"
          >
            <path
              d="M16.25 22.5C16.7141 22.5 17.1592 22.3156 17.4874 21.9874C17.8156 21.6592 18 21.2141 18 20.75C18 20.2859 17.8156 19.8408 17.4874 19.5126C17.1592 19.1844 16.7141 19 16.25 19C15.7859 19 15.3408 19.1844 15.0126 19.5126C14.6844 19.8408 14.5 20.2859 14.5 20.75C14.5 21.2141 14.6844 21.6592 15.0126 21.9874C15.3408 22.3156 15.7859 22.5 16.25 22.5ZM8.25 22.5C8.71413 22.5 9.15925 22.3156 9.48744 21.9874C9.81563 21.6592 10 21.2141 10 20.75C10 20.2859 9.81563 19.8408 9.48744 19.5126C9.15925 19.1844 8.71413 19 8.25 19C7.78587 19 7.34075 19.1844 7.01256 19.5126C6.68437 19.8408 6.5 20.2859 6.5 20.75C6.5 21.2141 6.68437 21.6592 7.01256 21.9874C7.34075 22.3156 7.78587 22.5 8.25 22.5ZM4.84 3.94L4.64 6.39C4.6 6.86 4.97 7.25 5.44 7.25H20.75C21.17 7.25 21.52 6.93 21.55 6.51C21.68 4.74 20.33 3.3 18.56 3.3H6.27C6.17 2.86 5.97 2.44 5.66 2.09C5.16 1.56 4.46 1.25 3.74 1.25H2C1.59 1.25 1.25 1.59 1.25 2C1.25 2.41 1.59 2.75 2 2.75H3.74C4.05 2.75 4.34 2.88 4.55 3.1C4.76 3.33 4.86 3.63 4.84 3.94ZM20.51 8.75H5.17C4.75 8.75 4.41 9.07 4.37 9.48L4.01 13.83C3.97567 14.233 4.02539 14.6388 4.15603 15.0217C4.28666 15.4045 4.49536 15.756 4.7689 16.054C5.04245 16.352 5.37488 16.5899 5.74516 16.7528C6.11544 16.9156 6.5155 16.9998 6.92 17H18.04C19.54 17 20.86 15.77 20.97 14.27L21.3 9.6C21.3095 9.49106 21.2961 9.38133 21.2606 9.27791C21.225 9.17448 21.1682 9.07965 21.0938 8.99955C21.0193 8.91945 20.9289 8.85585 20.8284 8.81287C20.7278 8.76988 20.6193 8.74847 20.51 8.75Z"
              fill="#3D4A5C"
            />
          </svg>