<svg width="15" height="19" viewBox="0 0 15 19" fill="none" xmlns="http://www.w3.org/2000/svg">
<g id="PayPal">
<path id="Fill 7" fill-rule="evenodd" clip-rule="evenodd" d="M4.48504 17.5979L4.77934 15.6657L4.12374 15.6499H0.993164L3.16881 1.39176C3.17559 1.34858 3.1975 1.3085 3.2295 1.27999C3.26165 1.25148 3.30264 1.23584 3.34551 1.23584H8.62415C10.3767 1.23584 11.5861 1.61269 12.2174 2.35661C12.5134 2.7056 12.7019 3.07039 12.7932 3.47168C12.8889 3.89284 12.8905 4.39596 12.7972 5.0097L12.7904 5.05434V5.44765L13.0864 5.621C13.3356 5.7577 13.5338 5.9141 13.6857 6.09316C13.9389 6.39164 14.1027 6.77093 14.1719 7.22045C14.2434 7.68283 14.2198 8.2332 14.1027 8.85623C13.9676 9.57278 13.7493 10.1969 13.4543 10.7076C13.1832 11.1781 12.8377 11.5685 12.4274 11.8709C12.0356 12.1583 11.5703 12.3764 11.0441 12.516C10.5342 12.6532 9.95284 12.7225 9.31521 12.7225H8.90442C8.61075 12.7225 8.32544 12.8318 8.10144 13.0278C7.87682 13.2279 7.72833 13.5013 7.68277 13.8002L7.65172 13.9742L7.13169 17.3799L7.1082 17.5048C7.10189 17.5444 7.09118 17.5641 7.07541 17.5775C7.06138 17.5897 7.04121 17.5979 7.0215 17.5979H4.48504Z" fill="#28356A"/>
<path id="Fill 8" fill-rule="evenodd" clip-rule="evenodd" d="M13.3668 5.09961C13.3512 5.20372 13.3331 5.31011 13.3129 5.41943C12.6168 9.11362 10.2351 10.3898 7.19343 10.3898H5.64469C5.27268 10.3898 4.95915 10.6689 4.90129 11.0482L3.88378 17.7192C3.8461 17.9683 4.03179 18.1927 4.27486 18.1927H7.02177C7.34696 18.1927 7.62329 17.9485 7.67452 17.6169L7.70148 17.4727L8.21867 14.0804L8.25193 13.8944C8.30253 13.5617 8.57949 13.3173 8.90469 13.3173H9.31548C11.9768 13.3173 14.0602 12.2006 14.6692 8.96878C14.9234 7.61877 14.7918 6.49149 14.1187 5.69869C13.915 5.45968 13.6624 5.26123 13.3668 5.09961Z" fill="#298FC2"/>
<path id="Fill 9" fill-rule="evenodd" clip-rule="evenodd" d="M12.6388 4.79974C12.5324 4.76765 12.4226 4.73864 12.3101 4.71241C12.1969 4.68683 12.0811 4.66419 11.9617 4.64431C11.5442 4.57458 11.0866 4.5415 10.5965 4.5415H6.45909C6.3571 4.5415 6.26032 4.56529 6.17378 4.6083C5.98288 4.70313 5.84117 4.88984 5.80681 5.11843L4.92659 10.8805L4.90137 11.0484C4.95922 10.6692 5.27275 10.3901 5.64476 10.3901H7.1935C10.2352 10.3901 12.6168 9.11321 13.313 5.41968C13.3338 5.31035 13.3513 5.20396 13.3669 5.09985C13.1908 5.00324 13.0001 4.92063 12.7947 4.85025C12.7439 4.83282 12.6916 4.81603 12.6388 4.79974Z" fill="#22284F"/>
<path id="Fill 11" fill-rule="evenodd" clip-rule="evenodd" d="M5.80686 5.11833C5.84122 4.88974 5.98293 4.70303 6.17383 4.60886C6.261 4.56568 6.35715 4.54189 6.45914 4.54189H10.5965C11.0866 4.54189 11.5442 4.57513 11.9618 4.64486C12.0811 4.66458 12.197 4.68739 12.3101 4.71297C12.4227 4.73903 12.5324 4.7682 12.6388 4.80013C12.6916 4.81642 12.7439 4.83337 12.7952 4.85015C13.0006 4.92053 13.1915 5.00379 13.3675 5.09975C13.5747 3.73459 13.3658 2.8051 12.6517 1.96342C11.8644 1.0367 10.4435 0.640137 8.62517 0.640137H3.34637C2.97499 0.640137 2.65815 0.919229 2.60077 1.29917L0.402111 15.704C0.358762 15.9889 0.571409 16.246 0.849472 16.246H4.10837L5.80686 5.11833Z" fill="#28356A"/>
</g>
</svg>
