<svg width="25" height="24" viewBox="0 0 25 24" fill="none" xmlns="http://www.w3.org/2000/svg">
<g clip-path="url(#clip0_2647_41665)">
<path d="M24.2236 5.84792C23.7686 5.29198 23.0609 4.95408 22.3285 4.95408H6.94066L6.46097 3.16642C6.18262 2.12723 5.22323 1.40234 4.11082 1.40234H1.53372C1.10436 1.40234 0.75 1.74024 0.75 2.15178C0.75 2.56235 1.10335 2.90121 1.53372 2.90121H4.11082C4.48985 2.90121 4.81854 3.14284 4.9192 3.50528L8.00167 15.2489C8.28003 16.2881 9.23941 17.013 10.3518 17.013H20.4333C21.5447 17.013 22.5308 16.2881 22.7835 15.2489L24.6786 7.80651C24.8553 7.12881 24.7043 6.40393 24.2236 5.84799L24.2236 5.84792ZM23.1379 7.46663L21.2428 14.909C21.1421 15.2715 20.8134 15.5131 20.4344 15.5131H10.3518C9.97282 15.5131 9.64413 15.2715 9.54347 14.909L7.34533 6.47668H22.3296C22.5823 6.47668 22.835 6.59749 22.987 6.79099C23.138 6.98354 23.213 7.22517 23.138 7.4668L23.1379 7.46663Z" fill="white"/>
<path d="M10.8832 17.9778C9.44316 17.9778 8.25586 19.1132 8.25586 20.4902C8.25586 21.8672 9.44326 23.0027 10.8832 23.0027C12.3233 23.0036 13.5106 21.8682 13.5106 20.491C13.5106 19.1137 12.3232 17.9775 10.8832 17.9775V17.9778ZM10.8832 21.4814C10.3019 21.4814 9.84685 21.0463 9.84685 20.4903C9.84685 19.9344 10.3019 19.4993 10.8832 19.4993C11.4646 19.4993 11.9196 19.9344 11.9196 20.4903C11.9187 21.0227 11.439 21.4814 10.8832 21.4814Z" fill="white"/>
<path d="M19.5751 17.9775C18.1351 17.9775 16.9478 19.113 16.9478 20.49C16.9478 21.867 18.1352 23.0024 19.5751 23.0024C21.0151 23.0024 22.2025 21.867 22.2025 20.49C22.1779 19.1138 21.0151 17.9775 19.5751 17.9775ZM19.5751 21.4811C18.9938 21.4811 18.5387 21.046 18.5387 20.4901C18.5387 19.9341 18.9938 19.499 19.5751 19.499C20.1565 19.499 20.6115 19.9341 20.6115 20.4901C20.6115 21.0224 20.1309 21.4811 19.5751 21.4811Z" fill="white"/>
</g>
<defs>
<clipPath id="clip0_2647_41665">
<rect width="24" height="24" fill="white" transform="translate(0.75)"/>
</clipPath>
</defs>
</svg>
