<svg xmlns="http://www.w3.org/2000/svg" width="24" height="20" viewBox="0 0 24 20" fill="none">
  <path d="M8.41075 19.0005C16.713 19.0005 21.2546 12.0736 21.2546 6.07718C21.2546 5.88334 21.2546 5.68674 21.2464 5.4929C22.1306 4.84838 22.8937 4.05042 23.5 3.13641C22.6741 3.50311 21.7988 3.74479 20.9026 3.8536C21.8466 3.28544 22.5536 2.39148 22.8923 1.33789C22.0054 1.86696 21.0346 2.23836 20.0226 2.43583C19.3423 1.70621 18.4419 1.22286 17.4611 1.06065C16.4803 0.898434 15.4737 1.06641 14.5973 1.53856C13.7209 2.01071 13.0236 2.76069 12.6134 3.67231C12.2031 4.58394 12.1029 5.60634 12.3281 6.58115C10.5334 6.49053 8.77762 6.02106 7.17468 5.20318C5.57175 4.38529 4.15744 3.23727 3.0235 1.83356C2.44784 2.8347 2.27216 4.01892 2.53214 5.14575C2.79211 6.27258 3.46825 7.25754 4.42325 7.90062C3.70762 7.87614 3.00772 7.68264 2.38 7.33573V7.39803C2.38123 8.44679 2.74205 9.46296 3.40145 10.2748C4.06086 11.0866 4.9784 11.6442 5.999 11.8535C5.61161 11.9609 5.21144 12.0145 4.80963 12.0127C4.52635 12.0136 4.24365 11.9871 3.96537 11.9338C4.25383 12.8366 4.8155 13.6259 5.57171 14.1913C6.32793 14.7566 7.24081 15.0696 8.1825 15.0864C6.58276 16.3516 4.60668 17.0378 2.5725 17.0344C2.21407 17.036 1.85588 17.0152 1.5 16.9721C3.56458 18.2975 5.96228 19.0012 8.41075 19.0005Z" fill="#23A6F0"/>
</svg>