<svg width="21" height="20" viewBox="0 0 21 20" fill="none" xmlns="http://www.w3.org/2000/svg">
<g clip-path="url(#clip0_2647_41664)">
<path d="M10.7635 0C14.1768 0 16.9537 2.6446 16.9537 5.8954C16.9537 8.0994 15.6806 10.0274 13.8299 11.0196C17.5902 12.1766 20.367 15.3172 20.7139 19.229C20.8296 20.2204 18.8625 20.2759 18.8051 19.3392C18.3998 15.4274 14.8709 12.4524 10.7635 12.4524C6.59799 12.4524 3.12732 15.4274 2.72202 19.3392C2.60635 20.2759 0.639237 20.2204 0.754905 19.229C1.16014 15.372 3.93683 12.1766 7.63892 11.0196C5.78747 10.0282 4.51517 8.0992 4.51517 5.8954C4.51517 2.6446 7.35017 0 10.7635 0ZM10.7635 1.87344C8.39198 1.87344 6.48224 3.6914 6.48224 5.89524C6.48224 8.15384 8.39109 9.97264 10.7635 9.97264C13.0777 9.97264 14.9864 8.15468 14.9864 5.89524C14.9864 3.69124 13.0775 1.87344 10.7635 1.87344Z" fill="white"/>
</g>
<defs>
<clipPath id="clip0_2647_41664">
<rect width="20" height="20" fill="white" transform="translate(0.75)"/>
</clipPath>
</defs>
</svg>
